<?xml version="1.0" standalone="no"?>
<!DOCTYPE svg PUBLIC "-//W3C//DTD SVG 1.1//EN" "http://www.w3.org/Graphics/SVG/1.1/DTD/svg11.dtd" >
<svg>
<metadata>
Created by FontForge 20090914 at Thu May 30 10:28:46 2013
 By www-data
Copyright (c) Nico Schweizer. www.lineto.com, 1997. All rights reserved.
</metadata>
<defs>
<font id="Typ1451-Medium" horiz-adv-x="616" >
  <font-face 
    font-family="Typ1451-Medium"
    font-weight="400"
    font-stretch="normal"
    units-per-em="1000"
    panose-1="2 0 5 3 3 0 0 2 0 4"
    ascent="800"
    descent="-200"
    x-height="531"
    cap-height="712.001"
    bbox="-48 -250.999 1333 1051"
    underline-thickness="0"
    underline-position="0"
    unicode-range="U+0020-U+FB02"
  />
<missing-glyph horiz-adv-x="588" 
d="M88 698h412v-698h-412v698zM425 74v549h-262v-549h262z" />
    <glyph glyph-name=".notdef" horiz-adv-x="588" 
d="M88 698h412v-698h-412v698zM425 74v549h-262v-549h262z" />
    <glyph glyph-name="space" unicode=" " horiz-adv-x="285" 
 />
    <glyph glyph-name="exclam" unicode="!" horiz-adv-x="290" 
d="M186 242c0 -14 -4.5 -24.667 -13.5 -32s-18.833 -11 -29.5 -11c-11.333 0 -21.5 3.66699 -30.5 11s-13.5 18 -13.5 32v445c0 14 4.5 24.667 13.5 32s19.167 11 30.5 11c10.667 0 20.5 -3.66699 29.5 -11s13.5 -18 13.5 -32v-445v0zM217 57c0 -20 -7 -37 -21 -51
s-31 -21 -51 -21s-37 7 -51 21s-21 31 -21 51s7 37 21 51s31 21 51 21s37 -7 51 -21s21 -31 21 -51z" />
    <glyph glyph-name="quotedbl" unicode="&#x22;" horiz-adv-x="432" 
d="M343 505c-1.33301 -13.333 -6.33203 -23.5 -14.999 -30.5s-17.667 -10.5 -27 -10.5s-18.333 3.5 -27 10.5s-13.667 17.167 -15 30.5l-14 166v6c0 15.333 5.66699 28 17 38s24.333 15 39 15c15.333 0 28.666 -5 39.999 -15s17 -22.333 17 -37v-5zM172.001 505
c-1.33301 -13.333 -6.33203 -23.5 -14.999 -30.5s-17.667 -10.5 -27 -10.5s-18.333 3.5 -27 10.5s-13.667 17.167 -15 30.5l-14 166v6c0 15.333 5.66699 28 17 38s24.333 15 39 15c15.333 0 28.666 -5 39.999 -15s17 -22.333 17 -37v-5z" />
    <glyph glyph-name="numbersign" unicode="#" horiz-adv-x="630" 
d="M573 481c0 -11.333 -3.49902 -21.167 -10.499 -29.5s-17.833 -12.5 -32.5 -12.5h-77l-20 -123h64c14.667 0 25.5 -4.5 32.5 -13.5s10.5 -19.167 10.5 -30.5c0 -10.667 -3.5 -20.334 -10.5 -29.001s-17.833 -13 -32.5 -13h-77l-32 -194
c-2.66699 -12.667 -7.83398 -21.834 -15.501 -27.501s-16.167 -8.5 -25.5 -8.5c-11.333 0 -21.5 3.66699 -30.5 11s-13.5 17.666 -13.5 30.999v7l30 181h-103l-32 -194c-2 -12.667 -7 -21.834 -15 -27.501s-16.667 -8.5 -26 -8.5c-10.667 0 -20.5 3.66699 -29.5 11
s-13.5 17.666 -13.5 30.999v7l30 181h-64c-14.667 0 -25.334 4.33301 -32.001 13s-10 18.334 -10 29.001c0 11.333 3.33301 21.5 10 30.5s17.334 13.5 32.001 13.5h77l20 123h-64c-14.667 0 -25.334 4.16699 -32.001 12.5s-10 18.166 -10 29.499s3.33301 21.333 10 30
s17.334 13 32.001 13h77l28 170c2 12.667 7.16699 22 15.5 28s17.166 9 26.499 9c11.333 0 21.333 -3.66699 30 -11s13 -17.666 13 -30.999c0 -1.33301 -0.166992 -2.66602 -0.5 -3.99902s-0.5 -2.66602 -0.5 -3.99902l-25 -157h103l27 169
c2.66699 12.667 7.83398 22 15.501 28s16.167 9 25.5 9c11.333 0 21.5 -3.5 30.5 -10.5s13.5 -17.167 13.5 -30.5c0 -1.33301 -0.166992 -2.66602 -0.5 -3.99902s-0.5 -2.66602 -0.5 -3.99902l-25 -157h64c14.667 0 25.5 -4.33301 32.5 -13s10.5 -18.667 10.5 -30z
M263.001 438.999l-19 -123h103l19 123h-103z" />
    <glyph glyph-name="dollar" unicode="$" horiz-adv-x="638" 
d="M571 185c0 -32.667 -5.49707 -60.834 -16.4971 -84.501s-26 -43.5 -45 -59.5s-41.167 -28.5 -66.5 -37.5s-52 -15.167 -80 -18.5v-150c0 -14.667 -4.5 -25.667 -13.5 -33s-19.167 -11 -30.5 -11c-10.667 0 -20.334 3.66699 -29.001 11s-13 18.333 -13 33v150
c-16.667 2 -34 5.16699 -52 9.5s-35.5 10 -52.5 17s-33.333 15 -49 24s-29.5 19.167 -41.5 30.5c-9.33301 9.33301 -14 19.666 -14 30.999s4.33301 21.333 13 30s19 13 31 13c7.33301 0 13 -1.33301 17 -4s10.667 -7.66699 20 -15c24.667 -18.667 51.167 -32.167 79.5 -40.5
s57.166 -12.5 86.499 -12.5c59.333 0 102.666 10.167 129.999 30.5s41 49.166 41 86.499c0 34.667 -9.83301 61.334 -29.5 80.001s-44.334 33.834 -74.001 45.501s-61.667 22.167 -96 31.5s-66.333 21.5 -96 36.5s-54.334 35.5 -74.001 61.5s-29.5 61.667 -29.5 107
c0 27.333 4.66699 51.5 14 72.5s22.5 39 39.5 54s37 27 60 36s48.5 14.833 76.5 17.5v142c0 14 4.33301 24.667 13 32s18.334 11 29.001 11c11.333 0 21.5 -3.66699 30.5 -11s13.5 -18 13.5 -32v-142c15.333 -2 31.333 -5.16699 48 -9.5s32.667 -10 48 -17
s29.833 -15 43.5 -24s25.5 -19.5 35.5 -31.5c7.33301 -8 11 -17 11 -27c0 -12 -4.33301 -22.5 -13 -31.5s-18.667 -13.5 -30 -13.5c-7.33301 0 -13.666 1.83301 -18.999 5.5s-12.333 9.16699 -21 16.5c-20 17.333 -42.333 29.833 -67 37.5s-50.667 11.5 -78 11.5
c-54 0 -92.333 -9.33301 -115 -28s-34 -41.667 -34 -69c0 -23.333 5.66699 -42.5 17 -57.5s26.333 -27.667 45 -38s40 -19 64 -26l73.5 -22.5c25 -8 49.5 -17.167 73.5 -27.5s45.333 -23.666 64 -39.999s33.667 -36.5 45 -60.5s17 -54 17 -90z" />
    <glyph glyph-name="percent" unicode="%" horiz-adv-x="1011" 
d="M943 176c0 -24 -4.16699 -46.667 -12.5 -68s-19.666 -40 -33.999 -56s-31 -28.667 -50 -38s-39.5 -14 -61.5 -14c-21.333 0 -41.5 4.66699 -60.5 14s-35.667 22 -50 38s-25.666 34.667 -33.999 56s-12.5 44 -12.5 68s4.16699 46.667 12.5 68s19.666 39.833 33.999 55.5
s31 28.167 50 37.5s39.167 14 60.5 14c22 0 42.5 -4.66699 61.5 -14s35.667 -21.833 50 -37.5s25.666 -34.167 33.999 -55.5s12.5 -44 12.5 -68zM645 690c0 -2.66699 -0.166992 -4.99902 -0.5 -6.99902s-0.833008 -4.33301 -1.5 -7l-184 -662
c-2.66699 -11.333 -7.66699 -19.5 -15 -24.5s-15.333 -7.5 -24 -7.5c-11.333 0 -21.666 3.66699 -30.999 11s-14 17.666 -14 30.999v5.5c0 2.33301 0.333008 4.5 1 6.5l185 663c3.33301 10.667 8.66602 18.5 15.999 23.5s15.333 7.5 24 7.5c10.667 0 20.667 -3.5 30 -10.5
s14 -16.833 14 -29.5zM383 537.001c0 -24 -4.16699 -46.667 -12.5 -68s-19.666 -40 -33.999 -56s-31 -28.667 -50 -38s-39.167 -14 -60.5 -14c-22 0 -42.5 4.66699 -61.5 14s-35.667 22 -50 38s-25.666 34.667 -33.999 56s-12.5 44 -12.5 68s4.16699 46.667 12.5 68
s19.666 40 33.999 56s31 28.5 50 37.5s39.5 13.5 61.5 13.5c21.333 0 41.5 -4.5 60.5 -13.5s35.667 -21.5 50 -37.5s25.666 -34.667 33.999 -56s12.5 -44 12.5 -68zM857 176.001c0 14.667 -2.16699 27.5 -6.5 38.5s-10 20.333 -17 28s-14.833 13.5 -23.5 17.5s-17 6 -25 6
s-16.167 -2 -24.5 -6s-16 -9.83301 -23 -17.5s-12.667 -17 -17 -28s-6.5 -23.833 -6.5 -38.5s2.16699 -27.667 6.5 -39s10 -20.833 17 -28.5s14.667 -13.5 23 -17.5s16.5 -6 24.5 -6s16.333 2 25 6s16.5 9.83301 23.5 17.5s12.667 17.167 17 28.5s6.5 24.333 6.5 39z
M298 537.001c0 14.667 -2.16699 27.5 -6.5 38.5s-10 20.333 -17 28s-14.833 13.5 -23.5 17.5s-17 6 -25 6s-16.167 -2 -24.5 -6s-16 -9.83301 -23 -17.5s-12.833 -17 -17.5 -28s-7 -23.833 -7 -38.5s2.33301 -27.5 7 -38.5s10.5 -20.333 17.5 -28s14.667 -13.5 23 -17.5
s16.5 -6 24.5 -6s16.333 2 25 6s16.5 9.83301 23.5 17.5s12.667 17 17 28s6.5 23.833 6.5 38.5z" />
    <glyph glyph-name="ampersand" unicode="&#x26;" horiz-adv-x="670" 
d="M625 43c0 -12 -4.66992 -22.3359 -14.0029 -31.0029s-19.666 -13 -30.999 -13c-5.33301 0 -10.333 1 -15 3s-9.33398 5.66699 -14.001 11l-72 72l-38 -38c-19.333 -20 -42.166 -35.667 -68.499 -47s-54.5 -17 -84.5 -17c-29.333 0 -57 5.5 -83 16.5
s-48.667 26.167 -68 45.5s-34.666 42 -45.999 68s-17 53.667 -17 83c0 40.667 9.83301 77.167 29.5 109.5s45.5 57.833 77.5 76.5l-20 20c-20 20 -35.333 40.833 -46 62.5s-16 47.5 -16 77.5c0 26 5 50.333 15 73s23.5 42.5 40.5 59.5s36.833 30.5 59.5 40.5s47 15 73 15
c33.333 0 62.333 -6.66699 87 -20s45 -28.5 61 -45.5s27.833 -33 35.5 -48s11.5 -24.167 11.5 -27.5c0 -12 -4.66699 -22.167 -14 -30.5s-19.666 -12.5 -30.999 -12.5c-10 0 -19.333 5.16699 -28 15.5l-29.5 33.5c-11 12 -23.833 23.167 -38.5 33.5s-32.667 15.5 -54 15.5
c-14 0 -27.167 -2.66699 -39.5 -8s-23.166 -12.5 -32.499 -21.5s-16.666 -19.667 -21.999 -32s-8 -25.833 -8 -40.5c0 -16 2.66699 -29.667 8 -41s14.666 -23.666 27.999 -36.999l258 -258l69 69c5.33301 4.66699 10.333 8.33398 15 11.001s9.66699 4 15 4
c11.333 0 21.333 -4.5 30 -13.5s13 -19.5 13 -31.5c0 -5.33301 -0.833008 -10.666 -2.5 -15.999s-4.83398 -10.333 -9.50098 -15l-70 -68l72 -73c9.33301 -9.33301 14 -19.333 14 -30zM245.997 316.997c-25.333 -8.66699 -45.999 -23.832 -61.999 -45.499
s-24 -46.5 -24 -74.5c0 -17.333 3.33301 -33.833 10 -49.5s15.834 -29.334 27.501 -41.001s25.167 -21 40.5 -28s31.666 -10.5 48.999 -10.5c18 0 34.667 3.33301 50 10s28.666 15.667 39.999 27l41 41z" />
    <glyph glyph-name="quotesingle" unicode="'" horiz-adv-x="261" 
d="M172 505c-1.33301 -13.333 -6.33203 -23.5 -14.999 -30.5s-17.667 -10.5 -27 -10.5s-18.333 3.5 -27 10.5s-13.667 17.167 -15 30.5l-14 166v6c0 15.333 5.66699 28 17 38s24.333 15 39 15c15.333 0 28.666 -5 39.999 -15s17 -22.333 17 -37v-5z" />
    <glyph glyph-name="parenleft" unicode="(" horiz-adv-x="370" 
d="M299 -88c0 -11.333 -4.33301 -21.4971 -13 -30.4971s-19 -13.5 -31 -13.5c-8 0 -15.333 2.16699 -22 6.5s-18 15.166 -34 32.499c-24.667 26 -45.334 54.667 -62.001 86s-30.167 64.166 -40.5 98.499s-17.833 69.5 -22.5 105.5s-7 71.333 -7 106
c0 34 2.83301 70.5 8.5 109.5s15 77.333 28 115s29.667 73.167 50 106.5s44.833 61.333 73.5 84c8.66699 6.66699 17.667 10 27 10c12 0 22.333 -4.33301 31 -13s13 -18.667 13 -30c0 -4.66699 -0.5 -8.5 -1.5 -11.5s-2.66699 -6 -5 -9s-5.66602 -6.5 -9.99902 -10.5
l-17.5 -17c-20 -20 -37 -43 -51 -69s-25.5 -53.667 -34.5 -83s-15.5 -59.5 -19.5 -90.5s-6 -61.5 -6 -91.5c0 -30.667 2.5 -62.834 7.5 -96.501s12.667 -66.834 23 -99.501s23.833 -63.167 40.5 -91.5s36.667 -52.5 60 -72.5c10 -9.33301 15 -19.666 15 -30.999z" />
    <glyph glyph-name="parenright" unicode=")" horiz-adv-x="370" 
d="M291 303c0 -34.667 -2.33496 -70 -7.00195 -106s-12.334 -71 -23.001 -105s-24.5 -67 -41.5 -99s-37.833 -61.333 -62.5 -88c-14.667 -16 -25.167 -26.167 -31.5 -30.5s-13.5 -6.5 -21.5 -6.5c-11.333 0 -21.666 4.66699 -30.999 14s-14 19.666 -14 30.999
c0 10.667 5 20.667 15 30c23.333 20 43.333 44.167 60 72.5s30.334 58.833 41.001 91.5s18.334 65.834 23.001 99.501s7 65.834 7 96.501c0 30 -2 60.5 -6 91.5s-10.5 61.167 -19.5 90.5s-20.667 57 -35 83s-31.5 49 -51.5 69l-15.5 15
c-4.33301 4 -7.83301 7.66699 -10.5 11s-4.5 6.66602 -5.5 9.99902s-1.5 7.33301 -1.5 12c0 11.333 4.33301 21.333 13 30s19 13 31 13c9.33301 0 18.333 -3.33301 27 -10c28.667 -22.667 53.167 -50.667 73.5 -84s36.833 -68.833 49.5 -106.5s22 -76 28 -115
s9 -75.5 9 -109.5z" />
    <glyph glyph-name="asterisk" unicode="*" horiz-adv-x="518" 
d="M463 439c0 -11.333 -4.33496 -21.6641 -13.002 -30.9971s-18.667 -14 -30 -14c-3.33301 0 -7 0.666992 -11 2s-7.66699 2.66602 -11 3.99902l-96 56v-111c0 -14 -4.33301 -24.667 -13 -32s-18.667 -11 -30 -11s-21.166 3.66699 -29.499 11s-12.5 17.666 -12.5 30.999v112
l-97 -56c-8 -4 -15.667 -6 -23 -6c-12 0 -22.167 4.66699 -30.5 14s-12.5 19.666 -12.5 30.999c0 15.333 7.33301 27 22 35l97 56l-95 56c-15.333 8.66699 -23 20.334 -23 35.001c0 11.333 4.16699 21.666 12.5 30.999s18.5 14 30.5 14c3.33301 0 7 -0.333008 11 -1
s7.66699 -2.33398 11 -5.00098l95 -56v111c0 14 4.33301 24.667 13 32s18.667 11 30 11s21.333 -3.66699 30 -11s13 -17.666 13 -30.999v-112l97 56c6.66699 4 14.334 6 23.001 6c12 0 22 -4.66699 30 -14s12 -19.666 12 -30.999c0 -6.66699 -1.66699 -13 -5 -19
s-9 -11.333 -17 -16l-97 -56l96 -56c15.333 -8.66699 23 -20.334 23 -35.001z" />
    <glyph glyph-name="plus" unicode="+" horiz-adv-x="507" 
d="M439 326c0 -11.333 -3.49902 -21.333 -10.499 -30s-17.5 -13 -31.5 -13h-101v-99c0 -14.667 -4.33301 -25.667 -13 -33s-18.667 -11 -30 -11s-21.166 3.5 -29.499 10.5s-12.5 17.5 -12.5 31.5v101h-100c-14 0 -24.667 4.66699 -32 14s-11 18.666 -11 27.999
c0 11.333 3.66699 21.333 11 30s18 13 32 13h100v99c0 14.667 4.16699 25.667 12.5 33s18.166 11 29.499 11s21.333 -3.5 30 -10.5s13 -17.5 13 -31.5v-101h101c13.333 0 23.666 -4.16699 30.999 -12.5s11 -18.166 11 -29.499z" />
    <glyph glyph-name="comma" unicode="," horiz-adv-x="294" 
d="M218 44c0 -24.667 -6.66797 -49.168 -20.001 -73.501s-32.333 -43.833 -57 -58.5c-6.66699 -4.66699 -13.667 -7 -21 -7c-11.333 0 -21.166 4.5 -29.499 13.5s-12.5 19.167 -12.5 30.5c0 8.66699 2 15.667 6 21s8.33301 10 13 14l13 11c4 3.33301 6 7 6 11v1
c-7.33301 2.66699 -14 7 -20 13c-5.33301 5.33301 -10 12.5 -14 21.5s-6 21.167 -6 36.5c0 18.667 6.83301 33.667 20.5 45s29.167 17 46.5 17c12 0 22.5 -3 31.5 -9s16.833 -13.667 23.5 -23s11.667 -19.666 15 -30.999s5 -22.333 5 -33z" />
    <glyph glyph-name="hyphen" unicode="-" horiz-adv-x="507" 
d="M439 325c0 -11.333 -3.66699 -21.166 -11 -29.499s-17.666 -12.5 -30.999 -12.5h-286c-14 0 -24.667 4.16699 -32 12.5s-11 18.166 -11 29.499s3.66699 21.333 11 30s18 13 32 13h286c13.333 0 23.666 -4.33301 30.999 -13s11 -18.667 11 -30z" />
    <glyph glyph-name="period" unicode="." horiz-adv-x="296" 
d="M220 71c0 -20 -7 -37 -21 -51s-31 -21 -51 -21s-37 7 -51 21s-21 31 -21 51s7 36.667 21 50s31 20 51 20s37 -6.66699 51 -20s21 -30 21 -50z" />
    <glyph glyph-name="slash" unicode="/" horiz-adv-x="571" 
d="M515 690c0 -8 -2.33008 -15.666 -6.99707 -22.999l-377 -674c-4.66699 -8 -10.167 -13.833 -16.5 -17.5s-12.833 -5.5 -19.5 -5.5c-11.333 0 -21.5 4.16699 -30.5 12.5s-13.5 18.5 -13.5 30.5c0 3.33301 0.666992 6.66602 2 9.99902s2.66602 7 3.99902 11l376 674
c4.66699 8 10.167 13.833 16.5 17.5s13.166 5.5 20.499 5.5c11.333 0 21.666 -3.83301 30.999 -11.5s14 -17.5 14 -29.5z" />
    <glyph glyph-name="zero" unicode="0" horiz-adv-x="576" 
d="M502 383c0 -25.333 -0.49707 -52.8369 -1.49707 -82.5039s-3.5 -59.334 -7.5 -89.001s-10.333 -58.167 -19 -85.5s-21 -51.666 -37 -72.999s-36 -38.333 -60 -51s-53.667 -19 -89 -19s-65.333 6.5 -90 19.5s-44.834 30.333 -60.501 52s-27.834 46.334 -36.501 74.001
s-15 56.334 -19 86.001s-6.33301 59.167 -7 88.5s-1 56 -1 80c0 23.333 0.833008 48.166 2.5 74.499s5.16699 52.333 10.5 78s12.666 50.334 21.999 74.001s22 44.334 38 62.001s35.333 31.834 58 42.501s50 16 82 16s59.5 -5.16699 82.5 -15.5s42.5 -24.333 58.5 -42
s28.833 -38.167 38.5 -61.5s17.167 -47.833 22.5 -73.5s8.83301 -51.667 10.5 -78s2.5 -51.833 2.5 -76.5zM416.003 382.996c0 22 -0.835938 48 -2.50293 78s-6.5 58.5 -14.5 85.5s-20.667 50 -38 69s-41.666 28.5 -72.999 28.5s-55.666 -9.5 -72.999 -28.5s-30 -42 -38 -69
s-12.833 -55.5 -14.5 -85.5s-2.5 -56 -2.5 -78v-56c0 -26 1.33301 -54.167 4 -84.5s8.33398 -58.333 17.001 -84s21.5 -47.167 38.5 -64.5s39.5 -26 67.5 -26c28.667 0 51.5 8.66699 68.5 26s30 38.833 39 64.5s14.833 53.667 17.5 84s4 58.5 4 84.5v56z" />
    <glyph glyph-name="one" unicode="1" horiz-adv-x="340" 
d="M257 43c0 -13.333 -4.49805 -23.833 -13.498 -31.5s-19.167 -11.5 -30.5 -11.5c-10.667 0 -20.334 3.66699 -29.001 11s-13 17.666 -13 30.999v536l-80 -78c-8 -8 -17.333 -12 -28 -12c-12 0 -22.5 4.5 -31.5 13.5s-13.5 19.167 -13.5 30.5s4.33301 21.333 13 30l149 144
c11.333 10.667 23.666 16 36.999 16c14 0 24.167 -5.66699 30.5 -17s9.5 -22.666 9.5 -33.999v-628v0z" />
    <glyph glyph-name="two" unicode="2" horiz-adv-x="504" 
d="M445 42c0 -10.667 -3.66992 -20.333 -11.0029 -29s-18.333 -13 -33 -13h-306c-14.667 0 -26 3.66699 -34 11s-12 16.333 -12 27c0 9.33301 3 18.333 9 27l273 415c6 9.33301 10.667 19.333 14 30s5 20.667 5 30c0 30 -9.66699 54.833 -29 74.5s-44 29.5 -74 29.5
c-13.333 0 -26 -2.5 -38 -7.5s-23 -11.333 -33 -19s-18.833 -16 -26.5 -25s-13.5 -17.5 -17.5 -25.5c-4 -7.33301 -9 -12.666 -15 -15.999s-12.333 -5 -19 -5c-11.333 0 -21.5 4 -30.5 12s-13.5 17.667 -13.5 29c0 8 4.33301 19.833 13 35.5s21.334 31.5 38.001 47.5
s36.834 30 60.501 42s50.834 18 81.501 18c26 0 50.5 -5 73.5 -15s43 -23.5 60 -40.5s30.333 -36.833 40 -59.5s14.5 -47 14.5 -73c0 -20 -3.16699 -39.333 -9.5 -58s-14.5 -35.334 -24.5 -50.001l-229 -349h229c14.667 0 25.667 -4.33301 33 -13s11 -18.667 11 -30z" />
    <glyph glyph-name="three" unicode="3" horiz-adv-x="531" 
d="M474 204c0 -30.667 -5.83203 -59.3271 -17.499 -85.9941s-27.5 -50 -47.5 -70s-43.333 -35.833 -70 -47.5s-55.334 -17.5 -86.001 -17.5c-38.667 0 -74 9.16699 -106 27.5s-57.333 43.166 -76 74.499c-4.66699 7.33301 -7 15 -7 23c0 12 4.5 22 13.5 30
s19.167 12 30.5 12c6.66699 0 13.167 -1.5 19.5 -4.5s11.833 -8.16699 16.5 -15.5c11.333 -19.333 26.333 -34.5 45 -45.5s39.667 -16.5 63 -16.5c18.667 0 36.334 3.66699 53.001 11s31.167 17.166 43.5 29.499s22.166 26.666 29.499 42.999s11 33.5 11 51.5
c0 18.667 -3.5 36.334 -10.5 53.001s-16.667 31.167 -29 43.5s-26.833 22.166 -43.5 29.499s-34.334 11 -53.001 11h-1c-13.333 0 -23.666 4.16699 -30.999 12.5s-11 18.166 -11 29.499s3.83301 21.333 11.5 30s18.167 13 31.5 13c15.333 0 29.666 2.83301 42.999 8.5
s25 13.334 35 23.001s17.833 21.167 23.5 34.5s8.5 28 8.5 44c0 15.333 -2.83301 29.5 -8.5 42.5s-13.5 24.5 -23.5 34.5s-21.667 17.833 -35 23.5s-27.666 8.5 -42.999 8.5c-24 0 -43 -5.16699 -57 -15.5s-25.667 -21.5 -35 -33.5l-26 -33.5
c-8 -10.333 -18.667 -15.5 -32 -15.5c-11.333 0 -21.666 4 -30.999 12s-14 18 -14 30c0 8.66699 2.33301 16.667 7 24c6 9.33301 14.333 20.666 25 33.999s23.667 26.333 39 39s33.333 23.334 54 32.001s44 13 70 13c27.333 0 52.833 -5.16699 76.5 -15.5
s44.167 -24.333 61.5 -42s31.166 -38.334 41.499 -62.001s15.5 -48.834 15.5 -75.501c0 -30.667 -6.16699 -58.834 -18.5 -84.501s-29.833 -47.5 -52.5 -65.5c29.333 -20 52.833 -45.667 70.5 -77s26.5 -66 26.5 -104z" />
    <glyph glyph-name="four" unicode="4" horiz-adv-x="521" 
d="M490 162c0 -11.333 -3.66895 -21.167 -11.002 -29.5s-18 -12.5 -32 -12.5h-43v-78c0 -13.333 -4.66699 -23.666 -14 -30.999s-19 -11 -29 -11c-10.667 0 -20.5 3.66699 -29.5 11s-13.5 17.666 -13.5 30.999v78h-239c-14 0 -25 3.83301 -33 11.5s-12 17.167 -12 28.5
c0 3.33301 0.333008 6.83301 1 10.5s2.33398 7.5 5.00098 11.5l276 525c4 8 9.33301 13.833 16 17.5s13.334 5.5 20.001 5.5c11.333 0 21.666 -4 30.999 -12s14 -17.667 14 -29c0 -8 -2 -15.333 -6 -22l-242 -462h169v114c0 14.667 4.33301 25.667 13 33
s18.334 11 29.001 11c11.333 0 21.5 -3.5 30.5 -10.5s13.5 -17.833 13.5 -32.5v-115h43c14 0 24.667 -4.33301 32 -13s11 -18.667 11 -30z" />
    <glyph glyph-name="five" unicode="5" horiz-adv-x="561" 
d="M492 228c0 -33.333 -5.82812 -64.5029 -17.4951 -93.5029s-27.667 -54.167 -48 -75.5s-44.166 -38.166 -71.499 -50.499s-56.333 -18.5 -87 -18.5c-16.667 0 -33.667 2.16699 -51 6.5s-34 10.666 -50 18.999s-30.833 18.333 -44.5 30s-25.167 24.834 -34.5 39.501
c-4.66699 7.33301 -7 15.333 -7 24c0 11.333 4.33301 21 13 29s18.667 12 30 12c9.33301 0 16.666 -2 21.999 -6s11.666 -11 18.999 -21c12.667 -15.333 28.167 -27.166 46.5 -35.499s37.166 -12.5 56.499 -12.5c17.333 0 34.333 3.83301 51 11.5s31.5 18.167 44.5 31.5
s23.5 29.333 31.5 48s12 39.334 12 62.001s-4 43.5 -12 62.5s-18.5 35.167 -31.5 48.5s-27.833 23.833 -44.5 31.5s-33.667 11.5 -51 11.5c-26.667 0 -48.834 -5.66699 -66.501 -17s-30.834 -24.333 -39.501 -39c-8 -15.333 -21 -23 -39 -23
c-13.333 0 -23.833 4.16699 -31.5 12.5s-11.5 20.833 -11.5 37.5v317c0 11.333 4.33301 21.166 13 29.499s18.667 12.5 30 12.5h304c14.667 0 25.667 -4.33301 33 -13s11 -18.667 11 -30c0 -10.667 -3.5 -20.334 -10.5 -29.001s-17.5 -13 -31.5 -13h-264v-187
c12 8.66699 27 15.334 45 20.001s37.333 7 58 7c30.667 0 59.667 -6.16699 87 -18.5s51.166 -29.166 71.499 -50.499s36.333 -46.5 48 -75.5s17.5 -60.5 17.5 -94.5z" />
    <glyph glyph-name="six" unicode="6" horiz-adv-x="573" 
d="M511 204c0 -29.333 -5.50195 -57.334 -16.502 -84.001s-26.333 -50.167 -46 -70.5s-42.5 -36.5 -68.5 -48.5s-54 -18 -84 -18c-35.333 0 -65.5 5.5 -90.5 16.5s-45.833 26 -62.5 45s-30 41 -40 66s-17.667 51.333 -23 79s-8.66602 55.834 -9.99902 84.501s-2 56 -2 82
c0 46.667 3.16699 92.5 9.5 137.5s17.833 85 34.5 120s39.834 63.167 69.501 84.5s67.834 32 114.501 32c42 0 78.167 -8.66699 108.5 -26s55.833 -42 76.5 -74c6 -8 9 -16.667 9 -26c0 -11.333 -4.5 -21 -13.5 -29s-19.167 -12 -30.5 -12c-14.667 0 -26.667 6.66699 -36 20
c-13.333 19.333 -28.833 34.333 -46.5 45s-40.167 16 -67.5 16c-48 0 -83.333 -22 -106 -66s-34.667 -114 -36 -210c16.667 16 37.167 29.5 61.5 40.5s51.166 16.5 80.499 16.5c30 0 58 -6 84 -18s48.833 -28.167 68.5 -48.5s35 -43.833 46 -70.5s16.5 -54.667 16.5 -84z
M424.998 203.999c0 18.667 -3.50098 36.1709 -10.501 52.5039s-16.333 30.666 -28 42.999s-25.334 22.166 -41.001 29.499s-32.167 11 -49.5 11s-33.666 -3.5 -48.999 -10.5s-29 -16.667 -41 -29s-21.5 -27 -28.5 -44s-11.167 -35.167 -12.5 -54.5
c6.66699 -39.333 20.5 -71.5 41.5 -96.5s50.833 -37.5 89.5 -37.5c17.333 0 33.833 3.66699 49.5 11s29.334 17.166 41.001 29.499s21 26.666 28 42.999s10.5 33.833 10.5 52.5z" />
    <glyph glyph-name="seven" unicode="7" horiz-adv-x="497" 
d="M461 669c0 -6 -2.33496 -14.3311 -7.00195 -24.998s-7.66699 -18.667 -9 -24l-230 -593c-7.33301 -18.667 -19.666 -28 -36.999 -28c-11.333 0 -21.666 3.83301 -30.999 11.5s-14 17.834 -14 30.501c0 3.33301 0.333008 6.16602 1 8.49902s1.66699 5.16602 3 8.49902
l218 569h-267c-11.333 0 -21.166 3.83301 -29.499 11.5s-12.5 18.167 -12.5 31.5c0 11.333 4.16699 21.166 12.5 29.499s18.166 12.5 29.499 12.5h329c11.333 0 21.5 -3.5 30.5 -10.5s13.5 -17.833 13.5 -32.5z" />
    <glyph glyph-name="eight" unicode="8" horiz-adv-x="553" 
d="M497 204c0 -30.667 -5.66504 -59.333 -16.998 -86s-27 -50 -47 -70s-43.333 -35.833 -70 -47.5s-55.334 -17.5 -86.001 -17.5s-59.334 5.83301 -86.001 17.5s-50 27.5 -70 47.5s-35.833 43.333 -47.5 70s-17.5 55 -17.5 85c0 38.667 8.66699 73.667 26 105s41 57 71 77
c-22.667 18 -40.167 39.833 -52.5 65.5s-18.5 53.834 -18.5 84.501c0 26.667 5.16699 51.834 15.5 75.501s24.166 44.334 41.499 62.001s38 31.667 62 42s49.333 15.5 76 15.5s51.834 -5.16699 75.501 -15.5s44.334 -24.333 62.001 -42s31.667 -38.334 42 -62.001
s15.5 -48.834 15.5 -75.501c0 -30.667 -6.16699 -58.834 -18.5 -84.501s-29.833 -47.5 -52.5 -65.5c29.333 -20 52.666 -45.667 69.999 -77s26 -66 26 -104zM386.002 535.001c0 15.333 -2.83301 29.5 -8.5 42.5s-13.5 24.5 -23.5 34.5s-21.5 17.833 -34.5 23.5
s-27.167 8.5 -42.5 8.5c-16 0 -30.667 -2.83301 -44 -8.5s-24.833 -13.5 -34.5 -23.5s-17.167 -21.5 -22.5 -34.5s-8 -27.167 -8 -42.5s2.66699 -29.666 8 -42.999s12.833 -25 22.5 -35s21.167 -18 34.5 -24s28 -9 44 -9c15.333 0 29.5 3 42.5 9s24.5 14 34.5 24
s17.833 21.667 23.5 35s8.5 27.666 8.5 42.999zM412.002 203.001c0 18.667 -3.66699 36.3359 -11 53.0029s-17.166 31.167 -29.499 43.5s-26.666 22.166 -42.999 29.499s-33.5 11 -51.5 11c-18.667 0 -36.334 -3.66699 -53.001 -11s-31.167 -17.166 -43.5 -29.499
s-22 -26.833 -29 -43.5s-10.5 -34 -10.5 -52c0 -18.667 3.66699 -36.334 11 -53.001s17.166 -31.167 29.499 -43.5s26.666 -22 42.999 -29s33.5 -10.5 51.5 -10.5c18.667 0 36.334 3.66699 53.001 11s31.167 17.166 43.5 29.499s22 26.666 29 42.999s10.5 33.5 10.5 51.5z
" />
    <glyph glyph-name="nine" unicode="9" horiz-adv-x="608" 
d="M515 357c0 -46.667 -3.16211 -92.5 -9.49512 -137.5s-17.833 -85 -34.5 -120s-39.834 -63.167 -69.501 -84.5s-67.834 -32 -114.501 -32c-42 0 -78 8.5 -108 25.5s-55.333 41.5 -76 73.5c-6.66699 8.66699 -10 17.334 -10 26.001c0 11.333 4.66699 21 14 29
s19.666 12 30.999 12c6 0 12.167 -1.33301 18.5 -4s11.833 -7.66699 16.5 -15c13.333 -20 29 -35.333 47 -46s40.333 -16 67 -16c48 0 83.333 22.167 106 66.5s35 114.166 37 209.499c-16.667 -16 -37.334 -29.5 -62.001 -40.5s-51.667 -16.5 -81 -16.5c-30 0 -58 6 -84 18
s-48.667 28.167 -68 48.5s-34.5 43.833 -45.5 70.5s-16.5 54.667 -16.5 84s5.5 57.5 16.5 84.5s26.167 50.667 45.5 71s42 36.5 68 48.5s54 18 84 18c52.667 0 94.167 -12 124.5 -36s53.166 -54.5 68.499 -91.5s25 -77.333 29 -121s6 -85.167 6 -124.5zM418.005 511
c-6 38.667 -19.501 70.5 -40.501 95.5s-51.167 37.5 -90.5 37.5c-16.667 0 -32.834 -3.5 -48.501 -10.5s-29.5 -16.667 -41.5 -29s-21.5 -26.833 -28.5 -43.5s-10.5 -34.334 -10.5 -53.001s3.5 -36.167 10.5 -52.5s16.5 -30.666 28.5 -42.999s25.833 -22 41.5 -29
s31.834 -10.5 48.501 -10.5c17.333 0 33.833 3.5 49.5 10.5s29.334 16.667 41.001 29s21.167 26.833 28.5 43.5s11.333 35 12 55z" />
    <glyph glyph-name="colon" unicode=":" horiz-adv-x="294" 
d="M219 445c0 -20 -7 -37 -21 -51s-31 -21 -51 -21s-37 7 -51 21s-21 31 -21 51c0 19.333 7 35.833 21 49.5s31 20.5 51 20.5s37 -6.83301 51 -20.5s21 -30.167 21 -49.5zM219 71c0 -20 -7 -37 -21 -51s-31 -21 -51 -21s-37 7 -51 21s-21 31 -21 51s7 36.667 21 50
s31 20 51 20s37 -6.66699 51 -20s21 -30 21 -50z" />
    <glyph glyph-name="semicolon" unicode=";" horiz-adv-x="294" 
d="M219 445c0 -20 -7 -37 -21 -51s-31 -21 -51 -21s-37 7 -51 21s-21 31 -21 51c0 19.333 7 35.833 21 49.5s31 20.5 51 20.5s37 -6.83301 51 -20.5s21 -30.167 21 -49.5zM218 44c0 -24.667 -6.66797 -49.168 -20.001 -73.501s-32.333 -43.833 -57 -58.5
c-6.66699 -4.66699 -13.667 -7 -21 -7c-11.333 0 -21.166 4.5 -29.499 13.5s-12.5 19.167 -12.5 30.5c0 8.66699 2 15.667 6 21s8.33301 10 13 14l13 11c4 3.33301 6 7 6 11v1c-7.33301 2.66699 -14 7 -20 13c-5.33301 5.33301 -10 12.5 -14 21.5s-6 21.167 -6 36.5
c0 18.667 6.83301 33.667 20.5 45s29.167 17 46.5 17c12 0 22.5 -3 31.5 -9s16.833 -13.667 23.5 -23s11.667 -19.666 15 -30.999s5 -22.333 5 -33z" />
    <glyph glyph-name="less" unicode="&#x3c;" horiz-adv-x="439" 
d="M365 58c0 -11.333 -4.66504 -21.3359 -13.998 -30.0029s-19.666 -13 -30.999 -13c-10.667 0 -20.334 4.33301 -29.001 13l-207 208c-4.66699 4.66699 -7.83398 9.33398 -9.50098 14.001s-2.83398 9.33398 -3.50098 14.001c0 12 4.33301 22.333 13 31l207 208
c9.33301 10 19 15 29 15c11.333 0 21.5 -4.5 30.5 -13.5s13.5 -19.5 13.5 -31.5c0 -5.33301 -1 -10.666 -3 -15.999s-5.33301 -10.333 -10 -15l-177 -176l177 -178c9.33301 -9.33301 14 -19.333 14 -30z" />
    <glyph glyph-name="equal" unicode="=" horiz-adv-x="507" 
d="M454 325c0 -11.333 -3.66699 -21.166 -11 -29.499s-18.333 -12.5 -33 -12.5h-313c-14.667 0 -25.334 4.16699 -32.001 12.5s-10 18.166 -10 29.499s3.33301 21.333 10 30s17.334 13 32.001 13h313c14.667 0 25.667 -4.33301 33 -13s11 -18.667 11 -30zM454 182
c0 -10.667 -3.66699 -20.334 -11 -29.001s-18.333 -13 -33 -13h-313c-14.667 0 -25.334 4.33301 -32.001 13s-10 18.334 -10 29.001c0 11.333 3.33301 21.5 10 30.5s17.334 13.5 32.001 13.5h313c14.667 0 25.667 -4.5 33 -13.5s11 -19.167 11 -30.5z" />
    <glyph glyph-name="greater" unicode="&#x3e;" horiz-adv-x="439" 
d="M367 266c0 -12 -4.00098 -21.999 -12.001 -29.999l-207 -208c-8.66699 -8.66699 -19 -13 -31 -13c-11.333 0 -21.333 4.33301 -30 13s-13 18.667 -13 30c0 10.667 4.66699 20.667 14 30l175 178l-175 176c-4.66699 4.66699 -8 9.66699 -10 15s-3 10.666 -3 15.999
c0 12 4.5 22.5 13.5 31.5s19.167 13.5 30.5 13.5c10.667 0 20.334 -5 29.001 -15l207 -208c8 -8 12 -17.667 12 -29z" />
    <glyph glyph-name="question" unicode="?" horiz-adv-x="531" 
d="M463 516c0 -25.333 -4.33203 -49.666 -12.999 -72.999s-20.667 -44.333 -36 -63s-33.5 -34.334 -54.5 -47.001s-43.5 -21.334 -67.5 -26.001v-64c0 -14.667 -4.33301 -25.334 -13 -32.001s-18.667 -10 -30 -10s-21.333 3.33301 -30 10s-13 17.334 -13 32.001v101
c0 14 4.33301 24.833 13 32.5s19 11.5 31 11.5c17.333 0 33.666 3.33301 48.999 10s28.833 15.834 40.5 27.501s20.834 25.167 27.501 40.5s10 31.666 10 48.999c0 18 -3.33301 34.833 -10 50.5s-15.834 29.334 -27.501 41.001s-25.167 20.834 -40.5 27.501
s-31.666 10 -48.999 10c-13.333 0 -26 -2.5 -38 -7.5s-23 -11.333 -33 -19s-18.667 -16 -26 -25s-13.333 -17.5 -18 -25.5c-4 -7.33301 -9.16699 -12.666 -15.5 -15.999s-12.833 -5 -19.5 -5c-11.333 0 -21.666 4.16699 -30.999 12.5s-14 18.5 -14 30.5
c0 6 4.33301 16.667 13 32s21.167 31.166 37.5 47.499s36.666 30.666 60.999 42.999s52.166 18.5 83.499 18.5c29.333 0 57 -5.5 83 -16.5s48.667 -26.167 68 -45.5s34.5 -42 45.5 -68s16.5 -54 16.5 -84zM323.001 72c0 -20 -6.83301 -37 -20.5 -51s-30.5 -21 -50.5 -21
s-37 6.83301 -51 20.5s-21 30.5 -21 50.5s7 37 21 51s31 21 51 21s36.833 -6.83301 50.5 -20.5s20.5 -30.5 20.5 -50.5z" />
    <glyph glyph-name="at" unicode="@" horiz-adv-x="754" 
d="M685 174c0 -18 -2.50586 -37.666 -7.50586 -58.999s-13.333 -41.333 -25 -60s-27.167 -34.334 -46.5 -47.001s-43.333 -19 -72 -19h-13c-17.333 0 -29.666 2.83301 -36.999 8.5s-11.666 9.16699 -12.999 10.5c-12.667 -9.33301 -26.667 -16.666 -42 -21.999
s-32.666 -8 -51.999 -8c-26.667 0 -50.334 5.16699 -71.001 15.5s-38 24.166 -52 41.499s-24.667 37.5 -32 60.5s-11 47.167 -11 72.5s3.66699 49.333 11 72s18 42.834 32 60.501s31.333 31.667 52 42s44.334 15.5 71.001 15.5c34 0 63.333 -8.33301 88 -25
c0 4.66699 2.66699 10 8 16s14 9 26 9c11.333 0 21.5 -3.5 30.5 -10.5s13.5 -17.5 13.5 -31.5v-241c16.667 3.33301 30.334 13.5 41.001 30.5s16 39.833 16 68.5c0 44 -4.66699 83.833 -14 119.5s-23.333 66 -42 91s-41.667 44.333 -69 58s-59 20.5 -95 20.5
s-67.833 -6.83301 -95.5 -20.5s-50.667 -33 -69 -58s-32.166 -55.333 -41.499 -91s-14 -75.5 -14 -119.5s4.66699 -83.667 14 -119s23.166 -65.5 41.499 -90.5s41.333 -44.333 69 -58s59.5 -20.5 95.5 -20.5c25.333 0 47.166 2.83301 65.499 8.5s34.833 13.167 49.5 22.5
c9.33301 4.66699 17.333 7 24 7c12 0 22.167 -4.66699 30.5 -14s12.5 -19.666 12.5 -30.999c0 -12.667 -6 -23.834 -18 -33.501s-27.167 -17.834 -45.5 -24.501s-38.166 -11.667 -59.499 -15s-41 -5 -59 -5c-54 0 -100.167 10.167 -138.5 30.5s-70 47.833 -95 82.5
s-43.333 74.5 -55 119.5s-17.5 91.833 -17.5 140.5c0 49.333 5.83301 96.5 17.5 141.5s30 84.667 55 119s56.667 61.833 95 82.5s84.5 31 138.5 31c53.333 0 99.333 -10.333 138 -31s70.334 -48.167 95.001 -82.5s42.834 -74 54.501 -119s17.5 -92.167 17.5 -141.5z
M456.994 168.001c0 35.333 -7.83301 61.5 -23.5 78.5s-34.5 25.5 -56.5 25.5s-41 -8.5 -57 -25.5s-24 -43.167 -24 -78.5c0 -34.667 8 -60.667 24 -78s35 -26 57 -26s40.833 8.66699 56.5 26s23.5 43.333 23.5 78z" />
    <glyph glyph-name="A" unicode="A" horiz-adv-x="671" 
d="M638 42c0 -12.667 -4.50195 -22.834 -13.502 -30.501s-19.167 -11.5 -30.5 -11.5c-7.33301 0 -14.5 2 -21.5 6s-12.5 10.667 -16.5 20l-53 130h-333l-54 -130c-4 -9.33301 -9.33301 -16 -16 -20s-13.667 -6 -21 -6c-11.333 0 -21.666 3.83301 -30.999 11.5
s-14 17.834 -14 30.501c0 6.66699 1.33301 12.334 4 17.001l257 625c6 13.333 12.667 21.833 20 25.5s14.333 5.5 21 5.5c4.66699 0 11.334 -1.83301 20.001 -5.5s15.667 -12.167 21 -25.5l258 -625c2 -4.66699 3 -10.334 3 -17.001zM335.998 560l-131 -318h262z" />
    <glyph glyph-name="B" unicode="B" horiz-adv-x="667" 
d="M616 212c0 -28.667 -5.66797 -56.0029 -17.001 -82.0029s-26.5 -48.5 -45.5 -67.5s-41.333 -34.167 -67 -45.5s-53.167 -17 -82.5 -17h-269c-11.333 0 -21.5 4.33301 -30.5 13s-13.5 18.334 -13.5 29.001v627c0 12 4 22.167 12 30.5s18 12.5 30 12.5h248
c25.333 0 49.333 -4.83301 72 -14.5s42.5 -23 59.5 -40s30.5 -36.667 40.5 -59s15 -46.166 15 -71.499c0 -27.333 -5.16699 -52.166 -15.5 -74.499s-24.166 -41.833 -41.499 -58.5c32 -18 57.5 -43 76.5 -75s28.5 -67.667 28.5 -107zM481.999 525.997
c0 14 -2.66699 27.001 -8 39.001s-12.5 22.667 -21.5 32s-19.667 16.666 -32 21.999s-25.5 8 -39.5 8h-204v-202h204c16 0 30.333 3 43 9s23.167 13.833 31.5 23.5s14.833 20.5 19.5 32.5s7 24 7 36zM529.999 211.998c0 17.333 -3.33301 33.8301 -10 49.4971
s-15.834 29.334 -27.501 41.001s-25 20.834 -40 27.501s-31.167 10 -48.5 10h-227v-255h227c17.333 0 33.5 3.5 48.5 10.5s28.333 16.167 40 27.5s20.834 24.833 27.501 40.5s10 31.834 10 48.501z" />
    <glyph glyph-name="C" unicode="C" horiz-adv-x="651" 
d="M597 117c0 -7.33301 -3 -15.668 -9 -25.001c-24.667 -34 -55 -60.667 -91 -80s-80 -29 -132 -29c-54 0 -99.5 10.333 -136.5 31s-67 48.167 -90 82.5s-39.5 74 -49.5 119s-15 91.833 -15 140.5c0 49.333 5 96.5 15 141.5s26.5 84.667 49.5 119s53 61.833 90 82.5
s82.5 31 136.5 31c50.667 0 94.5 -9.5 131.5 -28.5s67.167 -45.833 90.5 -80.5c6 -8 9 -16.333 9 -25c0 -12 -4.5 -22 -13.5 -30s-19.167 -12 -30.5 -12c-13.333 0 -24.666 6 -33.999 18c-15.333 22.667 -35.166 40.334 -59.499 53.001s-55.5 19 -93.5 19
c-71.333 0 -123.333 -25 -156 -75s-49 -121 -49 -213s16.333 -163 49 -213s84.667 -75 156 -75c38 0 69.167 6.66699 93.5 20s44.166 31 59.499 53c8.66699 12.667 20 19 34 19c11.333 0 21.666 -4.16699 30.999 -12.5s14 -18.5 14 -30.5z" />
    <glyph glyph-name="D" unicode="D" horiz-adv-x="690" 
d="M616 357c0 -46.667 -4.66699 -91.5 -14 -134.5s-24.666 -81 -45.999 -114s-49.5 -59.333 -84.5 -79s-78.167 -29.5 -129.5 -29.5h-207c-11.333 -0 -21.5 4.33301 -30.5 13s-13.5 18.334 -13.5 29.001v627c0 11.333 4.5 21.333 13.5 30s19.167 13 30.5 13h207
c51.333 0 94.5 -9.83301 129.5 -29.5s63.167 -45.834 84.5 -78.501s36.666 -70.5 45.999 -113.5s14 -87.5 14 -133.5zM530 357c0 87.333 -15.167 154.167 -45.5 200.5s-77.833 69.5 -142.5 69.5h-165v-542h165c64.667 0 112.167 23 142.5 69s45.5 113.667 45.5 203z" />
    <glyph glyph-name="E" unicode="E" horiz-adv-x="661" 
d="M593 42c0 -11.333 -3.66699 -21.167 -11 -29.5s-17.666 -12.5 -30.999 -12.5h-416c-12 0 -22.333 4.16699 -31 12.5s-13 18.166 -13 29.499v627c0 12 4.33301 22.167 13 30.5s19 12.5 31 12.5h416c13.333 0 23.666 -4.16699 30.999 -12.5s11 -18.166 11 -29.499
c0 -10.667 -3.66699 -20.5 -11 -29.5s-17.666 -13.5 -30.999 -13.5h-374v-202h262c12.667 0 23 -4.33301 31 -13s12 -18.667 12 -30s-3.83301 -21.333 -11.5 -30s-18.167 -13 -31.5 -13h-262v-254h374c13.333 0 23.666 -4.33301 30.999 -13s11 -18.667 11 -30z" />
    <glyph glyph-name="F" unicode="F" horiz-adv-x="656" 
d="M593 670c0 -10.667 -3.66797 -20.501 -11.001 -29.501s-17.666 -13.5 -30.999 -13.5h-374v-202h262c12.667 0 23 -4.33301 31 -13s12 -18.667 12 -30s-3.83301 -21.333 -11.5 -30s-18.167 -13 -31.5 -13h-262v-297c0 -11.333 -4.16699 -21.166 -12.5 -29.499
s-18.166 -12.5 -29.499 -12.5c-12 0 -22.333 4.16699 -31 12.5s-13 18.166 -13 29.499v627c0 12 4.33301 22.167 13 30.5s19 12.5 31 12.5h416c13.333 0 23.666 -4.16699 30.999 -12.5s11 -18.166 11 -29.499z" />
    <glyph glyph-name="G" unicode="G" horiz-adv-x="718" 
d="M656 341c-0.666992 -46.667 -6.33398 -91.668 -17.001 -135.001s-27.5 -81.5 -50.5 -114.5s-52.667 -59.333 -89 -79s-81.166 -29.5 -134.499 -29.5c-54.667 0 -100.667 10.667 -138 32s-67.333 49.333 -90 84s-38.834 74.5 -48.501 119.5s-14.5 90.833 -14.5 137.5
c0 48 5 94.5 15 139.5s26.5 84.833 49.5 119.5s53 62.5 90 83.5s82.5 31.5 136.5 31.5c46 0 87.5 -8.5 124.5 -25.5s69.5 -44.833 97.5 -83.5c6 -8 9 -16.333 9 -25c0 -12 -5.16699 -22.167 -15.5 -30.5s-21.166 -12.5 -32.499 -12.5c-9.33301 0 -15.666 2 -18.999 6l-17 20
c-16 19.333 -35.5 35 -58.5 47s-52.5 18 -88.5 18c-38.667 0 -71 -7.66699 -97 -23s-47 -36 -63 -62s-27.5 -56.5 -34.5 -91.5s-10.5 -72.167 -10.5 -111.5c0 -34 2.83301 -68.167 8.5 -102.5s16 -65.333 31 -93s35.833 -50 62.5 -67s61 -25.5 103 -25.5
c61.333 0 109.5 20.333 144.5 61s54.167 97.334 57.5 170.001h-90c-14.667 0 -25.667 4.33301 -33 13s-11 18.667 -11 30s3.66699 21.333 11 30s17.666 13 30.999 13h137c13.333 0 24 -4 32 -12s12 -18.667 12 -32z" />
    <glyph glyph-name="H" unicode="H" horiz-adv-x="684" 
d="M593 43c0 -14 -4.66699 -24.666 -14 -31.999s-18.666 -11 -27.999 -11c-11.333 0 -21.5 3.66699 -30.5 11s-13.5 17.666 -13.5 30.999v297h-330v-297c0 -13.333 -4.66699 -23.666 -14 -30.999s-18.666 -11 -27.999 -11c-11.333 0 -21.5 3.66699 -30.5 11
s-13.5 17.666 -13.5 30.999v628c0 14 4.5 24.5 13.5 31.5s19.167 10.5 30.5 10.5c9.33301 0 18.666 -3.5 27.999 -10.5s14 -17.5 14 -31.5v-246h330v245c0 14.667 4.66699 25.5 14 32.5s18.666 10.5 27.999 10.5c11.333 0 21.5 -3.5 30.5 -10.5s13.5 -17.833 13.5 -32.5
v-626v0z" />
    <glyph glyph-name="I" unicode="I" horiz-adv-x="314" 
d="M258 42c0 -10.667 -3.66699 -20.334 -11 -29.001s-18.333 -13 -33 -13h-115c-13.333 0 -23.666 4.33301 -30.999 13s-11 18.334 -11 29.001c0 11.333 3.66699 21.333 11 30s17.666 13 30.999 13h15v542h-15c-13.333 0 -23.666 4.33301 -30.999 13s-11 18.334 -11 29.001
c0 11.333 3.66699 21.333 11 30s17.666 13 30.999 13h115c14.667 0 25.667 -4.33301 33 -13s11 -18.667 11 -30c0 -10.667 -3.66699 -20.334 -11 -29.001s-18.333 -13 -33 -13h-15v-542h15c14.667 0 25.667 -4.33301 33 -13s11 -18.667 11 -30z" />
    <glyph glyph-name="J" unicode="J" horiz-adv-x="524" 
d="M433 165c0 -24.667 -4.83496 -47.834 -14.502 -69.501s-22.667 -40.667 -39 -57s-35.333 -29.166 -57 -38.499s-44.5 -14 -68.5 -14c-24.667 0 -48 4.66699 -70 14s-41.167 22.166 -57.5 38.499s-29.166 35.333 -38.499 57s-14 44.834 -14 69.501
c0 14.667 4.33301 25.667 13 33s18.334 11 29.001 11c11.333 0 21.5 -3.66699 30.5 -11s13.5 -18.333 13.5 -33c0 -12.667 2.5 -24.667 7.5 -36s11.667 -21.166 20 -29.499s18.166 -15 29.499 -20s23.333 -7.5 36 -7.5c13.333 0 25.833 2.5 37.5 7.5
s21.834 11.667 30.501 20s15.334 18.166 20.001 29.499s7 23.333 7 36v504c0 14.667 4.16699 25.5 12.5 32.5s18.166 10.5 29.499 10.5s21.333 -3.5 30 -10.5s13 -17.5 13 -31.5v-505v0z" />
    <glyph glyph-name="K" unicode="K" horiz-adv-x="583" 
d="M537 42c0 -12.667 -4.66699 -22.833 -14 -30.5s-19.666 -11.5 -30.999 -11.5c-6.66699 -0 -13.334 1.83301 -20.001 5.5s-12 9.83398 -16 18.501l-164 339l-115 -144v-177c0 -13.333 -4.66699 -23.666 -14 -30.999s-18.666 -11 -27.999 -11
c-11.333 0 -21.5 3.66699 -30.5 11s-13.5 17.666 -13.5 30.999v628c0 14 4.66699 24.5 14 31.5s18.666 10.5 27.999 10.5c11.333 0 21.5 -3.5 30.5 -10.5s13.5 -17.5 13.5 -31.5v-314l273 339c8.66699 11.333 19 17 31 17s22.667 -4.16699 32 -12.5s14 -18.5 14 -30.5
c0 -4 -0.833008 -8.33301 -2.5 -13s-4.5 -9.33398 -8.5 -14.001l-164 -205l180 -375c3.33301 -6 5 -12.667 5 -20z" />
    <glyph glyph-name="L" unicode="L" horiz-adv-x="521" 
d="M481 43c0 -12 -4.16602 -22.167 -12.499 -30.5s-18.166 -12.5 -29.499 -12.5h-304c-12 0 -22.333 4.16699 -31 12.5s-13 18.166 -13 29.499v627c0 14.667 4.66699 25.5 14 32.5s18.666 10.5 27.999 10.5c11.333 0 21.5 -3.5 30.5 -10.5s13.5 -17.5 13.5 -31.5v-585h262
c11.333 0 21.166 -4.16699 29.499 -12.5s12.5 -18.166 12.5 -29.499z" />
    <glyph glyph-name="M" unicode="M" horiz-adv-x="821" 
d="M730 42c0 -14 -4.49902 -24.6689 -13.499 -32.002s-19.167 -11 -30.5 -11c-10.667 0 -20.334 3.66699 -29.001 11s-13 18 -13 32v460l-194 -362c-6.66699 -12.667 -14 -20.334 -22 -23.001s-14 -4 -18 -4c-2.66699 0 -8.16699 1.33301 -16.5 4
s-16.166 10.334 -23.499 23.001l-193 360v-458c0 -14 -4.5 -24.667 -13.5 -32s-19.167 -11 -30.5 -11c-10.667 0 -20.334 3.66699 -29.001 11s-13 18 -13 32v625c0 16.667 4.83301 28.334 14.5 35.001s20.167 10 31.5 10c16 0 28 -8.33301 36 -25l237 -441l238 441
c5.33301 10 11 16.667 17 20s13.333 5 22 5c11.333 0 21.333 -3.66699 30 -11s13 -18.666 13 -33.999v-625v0z" />
    <glyph glyph-name="N" unicode="N" horiz-adv-x="684" 
d="M593 43c0 -13.333 -4.5 -23.832 -13.5 -31.499s-19.167 -11.5 -30.5 -11.5c-6.66699 0 -13.167 1.83301 -19.5 5.5s-11.833 9.16699 -16.5 16.5l-336 505v-484c0 -14 -4.5 -24.667 -13.5 -32s-19.167 -11 -30.5 -11c-10.667 0 -20.334 3.66699 -29.001 11
s-13 17.666 -13 30.999v627c0 14 4.5 24.667 13.5 32s19.167 11 30.5 11c14.667 0 26.667 -7 36 -21l336 -505v483c0 14.667 4.33301 25.5 13 32.5s18.334 10.5 29.001 10.5c11.333 0 21.5 -3.5 30.5 -10.5s13.5 -17.5 13.5 -31.5v-627v0z" />
    <glyph glyph-name="O" unicode="O" horiz-adv-x="730" 
d="M656 356c0 -48.667 -5.16699 -95.5 -15.5 -140.5s-27 -84.667 -50 -119s-53 -61.833 -90 -82.5s-82.167 -31 -135.5 -31c-54 0 -99.5 10.333 -136.5 31s-67 48.167 -90 82.5s-39.5 74 -49.5 119s-15 91.833 -15 140.5c0 49.333 5 96.5 15 141.5s26.5 84.667 49.5 119
s53 61.833 90 82.5s82.5 31 136.5 31c53.333 0 98.5 -10.333 135.5 -31s67 -48.167 90 -82.5s39.667 -74 50 -119s15.5 -92.167 15.5 -141.5zM570 356c0 92 -16.5 163 -49.5 213s-84.833 75 -155.5 75c-71.333 0 -123.333 -25 -156 -75s-49 -121 -49 -213
s16.333 -163 49 -213s84.667 -75 156 -75c70.667 0 122.5 25 155.5 75s49.5 121 49.5 213z" />
    <glyph glyph-name="P" unicode="P" horiz-adv-x="650" 
d="M593 511c0 -28 -5.33496 -54.3311 -16.002 -78.998s-25 -46.167 -43 -64.5s-39.333 -32.833 -64 -43.5s-51 -16 -79 -16h-214v-265c0 -13.333 -4.16699 -23.833 -12.5 -31.5s-18.166 -11.5 -29.499 -11.5c-12 0 -22.333 3.66699 -31 11s-13 17.666 -13 30.999v627
c0 9.33301 3.16699 18.833 9.5 28.5s17.166 14.5 32.499 14.5h259c22 0 44.833 -4.33301 68.5 -13s45.334 -21.334 65.001 -38.001s35.834 -37.5 48.501 -62.5s19 -54.167 19 -87.5zM506.998 510.002c0 16 -3 31.167 -9 45.5s-14.333 26.833 -25 37.5s-23 19 -37 25
s-29 9 -45 9h-214v-234h213c16 0 31.167 3 45.5 9s26.833 14.333 37.5 25s19 23.167 25 37.5s9 29.5 9 45.5z" />
    <glyph glyph-name="Q" unicode="Q" horiz-adv-x="747" 
d="M699 34c0 -11.333 -4.50098 -21.501 -13.501 -30.501s-19.5 -13.5 -31.5 -13.5c-10.667 0 -20.334 4.33301 -29.001 13l-60 61c-23.333 -25.333 -51.166 -45.166 -83.499 -59.499s-71.166 -21.5 -116.499 -21.5c-54 0 -99.5 10.333 -136.5 31s-67 48.167 -90 82.5
s-39.5 74 -49.5 119s-15 91.833 -15 140.5c0 49.333 5 96.5 15 141.5s26.5 84.667 49.5 119s53 61.833 90 82.5s82.5 31 136.5 31c53.333 0 98.5 -10.333 135.5 -31s67 -48.167 90 -82.5s39.667 -74 50 -119s15.5 -92.167 15.5 -141.5c0 -40.667 -3.33301 -79.5 -10 -116.5
s-17.667 -71.5 -33 -103.5l72 -72c9.33301 -9.33301 14 -19.333 14 -30zM569.999 355.999c0 92 -16.5 163.001 -49.5 213.001s-84.833 75 -155.5 75c-71.333 0 -123.333 -25 -156 -75s-49 -121 -49 -213s16.333 -163 49 -213s84.667 -75 156 -75
c59.333 0 105.666 18.667 138.999 56l-73 72c-5.33301 4.66699 -8.83301 9.66699 -10.5 15s-2.5 10.666 -2.5 15.999c0 12 4.5 22.333 13.5 31s19.167 13 30.5 13c10.667 0 20.334 -4.33301 29.001 -13l56 -55c15.333 44 23 95 23 153z" />
    <glyph glyph-name="R" unicode="R" horiz-adv-x="661" 
d="M593 42c0 -12 -4.83398 -22.165 -14.501 -30.498s-20.167 -12.5 -31.5 -12.5c-12.667 0 -23.667 6 -33 18l-208 291h-129v-265c0 -14 -4.5 -24.667 -13.5 -32s-19.167 -11 -30.5 -11c-10.667 0 -20.334 3.66699 -29.001 11s-13 17.666 -13 30.999v627
c0 9.33301 3.16699 18.833 9.5 28.5s17.166 14.5 32.499 14.5h259c22 0 44.833 -4.33301 68.5 -13s45.334 -21.334 65.001 -38.001s35.834 -37.5 48.501 -62.5s19 -54.167 19 -87.5c0 -26 -4.66699 -50.833 -14 -74.5s-22.166 -44.5 -38.499 -62.5
s-35.833 -32.833 -58.5 -44.5s-47 -18.5 -73 -20.5l175 -241c6 -8 9 -16.667 9 -26zM506.999 511.002c0 17.333 -3.33203 33 -9.99902 47s-15.5 26.167 -26.5 36.5s-23.333 18.333 -37 24s-27.834 8.5 -42.501 8.5h-214v-234h213c16 0 31.167 3.16699 45.5 9.5
s26.833 14.833 37.5 25.5s19 23.167 25 37.5s9 29.5 9 45.5z" />
    <glyph glyph-name="S" unicode="S" horiz-adv-x="599" 
d="M551 185c0 -37.333 -7.16504 -68.834 -21.498 -94.501s-33.5 -46.5 -57.5 -62.5s-51.333 -27.5 -82 -34.5s-62.667 -10.5 -96 -10.5c-18 0 -37.667 1.83301 -59 5.5s-42.333 9 -63 16s-40.667 15.667 -60 26s-36 22.166 -50 35.499c-5.33301 5.33301 -9 10.5 -11 15.5
s-3 10.167 -3 15.5c0 11.333 4.16699 21.333 12.5 30s18.5 13 30.5 13c7.33301 0 13.166 -1.33301 17.499 -4s11.166 -7.66699 20.499 -15c24.667 -18.667 51 -32.167 79 -40.5s56.667 -12.5 86 -12.5c60 0 103.5 10.167 130.5 30.5s40.5 49.166 40.5 86.499
c0 34.667 -9.83301 61.334 -29.5 80.001s-44.334 33.834 -74.001 45.501s-61.667 22.167 -96 31.5s-66.333 21.5 -96 36.5s-54.334 35.5 -74.001 61.5s-29.5 61.667 -29.5 107c0 30.667 6 57.334 18 80.001s28.667 41.667 50 57s46.333 26.833 75 34.5
s59.334 11.5 92.001 11.5c17.333 0 36 -1.66699 56 -5s40 -8.5 60 -15.5s38.833 -15.833 56.5 -26.5s32.5 -23.334 44.5 -38.001c7.33301 -8 11 -17 11 -27c0 -12 -4.5 -22.5 -13.5 -31.5s-18.833 -13.5 -29.5 -13.5c-7.33301 0 -13.666 1.83301 -18.999 5.5
s-12.333 9.16699 -21 16.5c-20 17.333 -42.333 29.833 -67 37.5s-50.667 11.5 -78 11.5c-54 0 -92.333 -9.33301 -115 -28s-34 -41.667 -34 -69c0 -23.333 5.66699 -42.5 17 -57.5s26.333 -27.667 45 -38s40 -19 64 -26l73.5 -22.5c25 -8 49.5 -17.167 73.5 -27.5
s45.333 -23.666 64 -39.999s33.667 -36.5 45 -60.5s17 -54 17 -90z" />
    <glyph glyph-name="T" unicode="T" horiz-adv-x="559" 
d="M530 670c0 -10.667 -3.66797 -20.5 -11.001 -29.5s-18 -13.5 -32 -13.5h-166v-585c0 -13.333 -4.16699 -23.666 -12.5 -30.999s-18.166 -11 -29.499 -11c-10.667 0 -20.5 3.66699 -29.5 11s-13.5 17.666 -13.5 30.999v585h-164c-14.667 0 -25.667 4.5 -33 13.5
s-11 18.833 -11 29.5c0 10 3.66699 19.5 11 28.5s18 13.5 32 13.5h416c14 0 24.667 -4.5 32 -13.5s11 -18.5 11 -28.5z" />
    <glyph glyph-name="U" unicode="U" horiz-adv-x="673" 
d="M587 233c0 -34 -6.49805 -66.332 -19.498 -96.999s-30.667 -57.334 -53 -80.001s-48.833 -40.667 -79.5 -54s-63.667 -20 -99 -20c-34 0 -66.333 6.5 -97 19.5s-57.334 30.667 -80.001 53s-40.667 48.833 -54 79.5s-20 63.667 -20 99v437c0 14 4.33301 24.5 13 31.5
s18.667 10.5 30 10.5s21.333 -3.5 30 -10.5s13 -17.5 13 -31.5v-437c0 -22.667 4.33301 -44.167 13 -64.5s20.5 -38 35.5 -53s32.5 -26.833 52.5 -35.5s41.333 -13 64 -13s44.167 4.33301 64.5 13s38 20.5 53 35.5s26.833 32.667 35.5 53s13 41.833 13 64.5v436
c0 14.667 4.16699 25.5 12.5 32.5s18.166 10.5 29.499 10.5s21.333 -3.5 30 -10.5s13 -17.5 13 -31.5v-437v0z" />
    <glyph glyph-name="V" unicode="V" horiz-adv-x="593" 
d="M553 671c0 -5.33301 -1.33203 -10.334 -3.99902 -15.001l-210 -622c-7.33301 -22.667 -21.666 -34 -42.999 -34c-19.333 0 -33.333 11.333 -42 34l-211 622c-1.33301 2.66699 -2 5.33398 -2 8.00098v7c0 13.333 4.5 23.5 13.5 30.5s18.833 10.5 29.5 10.5
c8 0 15.833 -2.33301 23.5 -7s13.167 -12 16.5 -22l172 -507l173 507c3.33301 10 8.66602 17.333 15.999 22s15 7 23 7c11.333 0 21.666 -3.5 30.999 -10.5s14 -17.167 14 -30.5z" />
    <glyph glyph-name="W" unicode="W" horiz-adv-x="855" 
d="M813 673c0 -4 -0.662109 -8.66699 -1.99512 -14l-165 -624c-4.66699 -23.333 -18.334 -35 -41.001 -35c-22 0 -36.333 11.667 -43 35l-135 479l-134 -479c-6.66699 -23.333 -20.667 -35 -42 -35c-22 0 -36 11.667 -42 35l-165 624c-1.33301 5.33301 -2 10 -2 14
c0 12.667 4.66699 22.334 14 29.001s19.666 10 30.999 10c8.66699 0 16.667 -2.5 24 -7.5s12.666 -12.833 15.999 -23.5l126 -477l132 473c6.66699 23.333 20.667 35 42 35c22 0 36.333 -11.667 43 -35l132 -473l126 477c3.33301 11.333 9.16602 19.666 17.499 24.999
s16.166 8 23.499 8c11.333 0 21.5 -3.66699 30.5 -11s13.5 -17.333 13.5 -30z" />
    <glyph glyph-name="X" unicode="X" horiz-adv-x="594" 
d="M551 43c0 -12.667 -4.83398 -23.166 -14.501 -31.499s-20.167 -12.5 -31.5 -12.5c-14 0 -25.333 6.66699 -34 20l-175 275l-174 -275c-4.66699 -7.33301 -10 -12.5 -16 -15.5s-12 -4.5 -18 -4.5c-11.333 0 -21.666 4.16699 -30.999 12.5s-14 18.5 -14 30.5
c0 6.66699 2.33301 14.667 7 24l197 308l-174 274c-4.66699 7.33301 -7 14.666 -7 21.999c0 12 4.83301 22.333 14.5 31s20.167 13 31.5 13c6 0 12 -1.66699 18 -5s11.333 -8.66602 16 -15.999l152 -239l151 239c4.66699 7.33301 10 12.666 16 15.999s12 5 18 5
c11.333 0 21.833 -4.16699 31.5 -12.5s14.5 -18.5 14.5 -30.5c0 -3.33301 -0.5 -7 -1.5 -11s-3.16699 -8 -6.5 -12l-173 -274l196 -308c4.66699 -9.33301 7 -17 7 -23z" />
    <glyph glyph-name="Y" unicode="Y" horiz-adv-x="594" 
d="M544 670c0 -7.33301 -1.99707 -14.332 -5.99707 -20.999l-198 -369v-237c0 -14 -4.5 -24.667 -13.5 -32s-19.167 -11 -30.5 -11c-10.667 0 -20.334 3.5 -29.001 10.5s-13 17.5 -13 31.5v238l-198 370c-4 6.66699 -6 13.667 -6 21c0 12 4.66699 22.167 14 30.5
s19.666 12.5 30.999 12.5c6.66699 0 13.167 -1.83301 19.5 -5.5s11.833 -9.83398 16.5 -18.501l165 -308l167 308c4.66699 8 10.167 13.667 16.5 17s12.833 5 19.5 5c11.333 0 21.666 -4 30.999 -12s14 -18 14 -30z" />
    <glyph glyph-name="Z" unicode="Z" horiz-adv-x="595" 
d="M549 42c0 -10.667 -3.5 -20.335 -10.5 -29.002s-17.5 -13 -31.5 -13h-414c-13.333 0 -23.833 4.5 -31.5 13.5s-11.5 18.833 -11.5 29.5c0 8.66699 2.33301 16.334 7 23.001l348 561h-292c-14.667 0 -25.334 4.33301 -32.001 13s-10 18.334 -10 29.001
c0 11.333 3.33301 21.333 10 30s17.334 13 32.001 13h368c12.667 0 23 -4.33301 31 -13s12 -18.667 12 -30c0 -8 -2 -15 -6 -21l-349 -563h337c14.667 0 25.5 -4.33301 32.5 -13s10.5 -18.667 10.5 -30z" />
    <glyph glyph-name="bracketleft" unicode="[" horiz-adv-x="316" 
d="M287 -166c0 -11.333 -3.66992 -21.499 -11.0029 -30.499s-17.666 -13.5 -30.999 -13.5h-110c-11.333 0 -21.5 4.33301 -30.5 13s-13.5 18.334 -13.5 29.001v854c0 11.333 4.33301 21.5 13 30.5s18.334 13.5 29.001 13.5h111c14 0 24.667 -4.5 32 -13.5
s11 -19.167 11 -30.5c0 -10.667 -3.66699 -20.334 -11 -29.001s-17.666 -13 -30.999 -13h-68v-768h67c14 0 24.667 -4.33301 32 -13s11 -18.334 11 -29.001z" />
    <glyph glyph-name="backslash" unicode="\" horiz-adv-x="571" 
d="M520 15c0 -12.667 -4.66895 -23 -14.002 -31s-19.666 -12 -30.999 -12c-6.66699 0 -13 1.5 -19 4.5s-11.333 8.5 -16 16.5l-376 674c-4 7.33301 -6 14.666 -6 21.999c0 11.333 4.66699 21.166 14 29.499s19.666 12.5 30.999 12.5c14.667 0 26.334 -7.66699 35.001 -23
l376 -673c2.66699 -3.33301 4.33398 -6.66602 5.00098 -9.99902s1 -6.66602 1 -9.99902z" />
    <glyph glyph-name="bracketright" unicode="]" horiz-adv-x="316" 
d="M245 -168c0 -11.333 -4.33301 -21.1689 -13 -29.502s-18.667 -12.5 -30 -12.5h-111c-14 0 -24.5 4.5 -31.5 13.5s-10.5 19.167 -10.5 30.5c0 10.667 3.5 20.334 10.5 29.001s17.5 13 31.5 13h69v768h-69c-14 0 -24.5 4.33301 -31.5 13s-10.5 18.334 -10.5 29.001
c0 11.333 3.5 21.5 10.5 30.5s17.5 13.5 31.5 13.5h111c11.333 0 21.333 -4.33301 30 -13s13 -18.667 13 -30v-855v0z" />
    <glyph glyph-name="asciicircum" unicode="^" 
d="M515 571c0 -11.333 -4.33594 -21.332 -13.0029 -29.999s-18.667 -13 -30 -13c-5.33301 0 -10.666 1.16699 -15.999 3.5s-10.666 6.16602 -15.999 11.499l-132 141l-132 -141c-9.33301 -10 -19.666 -15 -30.999 -15s-21.5 4.33301 -30.5 13s-13.5 18.667 -13.5 30
s4.33301 21.333 13 30l163 175c9.33301 9.33301 19.666 14 30.999 14c12.667 0 23 -4.66699 31 -14l164 -175c4.66699 -4.66699 7.83398 -9.5 9.50098 -14.5s2.5 -10.167 2.5 -15.5z" />
    <glyph glyph-name="underscore" unicode="_" horiz-adv-x="593" 
d="M526 -99c0 -11.333 -3.66699 -21.5 -11 -30.5s-18.333 -13.5 -33 -13.5h-370c-14.667 0 -25.334 4.5 -32.001 13.5s-10 19.167 -10 30.5c0 10.667 3.33301 20.334 10 29.001s17.334 13 32.001 13h370c14.667 0 25.667 -4.33301 33 -13s11 -18.334 11 -29.001z" />
    <glyph glyph-name="grave" unicode="`" 
d="M414 667c0 -11.333 -4.16797 -21.333 -12.501 -30s-18.166 -13 -29.499 -13c-10.667 0 -20.667 3.66699 -30 11l-122 92c-6.66699 4.66699 -11.5 10.667 -14.5 18s-4.5 14.666 -4.5 21.999c0 15.333 5.66699 28.5 17 39.5s24.333 16.5 39 16.5c6 0 12 -1.16699 18 -3.5
s11.667 -6.16602 17 -11.499l107 -109c10 -10 15 -20.667 15 -32z" />
    <glyph glyph-name="a" unicode="a" horiz-adv-x="669" 
d="M627 42c0 -10.667 -3.66602 -20.332 -10.999 -28.999s-18 -13 -32 -13s-26 2.16699 -36 6.5s-18.5 9.5 -25.5 15.5s-12.833 12.167 -17.5 18.5s-8 11.833 -10 16.5c-20 -22 -44.5 -39.833 -73.5 -53.5s-63.167 -20.5 -102.5 -20.5c-40.667 0 -76.667 7.83301 -108 23.5
s-57.5 36.5 -78.5 62.5s-37 56 -48 90s-16.5 69.667 -16.5 107s5.5 73 16.5 107s27.167 64 48.5 90s47.666 46.667 78.999 62s67 23 107 23c35.333 0 66.833 -5.83301 94.5 -17.5s51.167 -27.834 70.5 -48.501v4c0 2.66699 0.333008 6.5 1 11.5s2.5 10 5.5 15
s7.33301 9.33301 13 13s13.167 5.5 22.5 5.5c10.667 0 20.667 -3.16699 30 -9.5s14 -17.166 14 -32.499v-386c0 -6.66699 1.66699 -11.334 5 -14.001s6.33301 -4 9 -4c14 0 24.667 -4.33301 32 -13s11 -18.667 11 -30zM484.001 266.002c0 30 -3.83301 57 -11.5 81
s-18.667 44.667 -33 62s-31.666 30.666 -51.999 39.999s-43.166 14 -68.499 14c-24.667 0 -47.167 -4.66699 -67.5 -14s-37.833 -22.666 -52.5 -39.999s-25.834 -38 -33.501 -62s-11.5 -51 -11.5 -81s3.83301 -57.167 11.5 -81.5s18.834 -45.166 33.501 -62.499
s32.167 -30.666 52.5 -39.999s42.833 -14 67.5 -14c25.333 0 48.166 4.66699 68.499 14s37.666 22.666 51.999 39.999s25.333 38.166 33 62.499s11.5 51.5 11.5 81.5z" />
    <glyph glyph-name="b" unicode="b" horiz-adv-x="661" 
d="M593 266c0 -38 -5.49902 -74 -16.499 -108s-27.167 -64 -48.5 -90s-47.666 -46.667 -78.999 -62s-67 -23 -107 -23c-26.667 0 -50.167 3 -70.5 9s-37.5 12.833 -51.5 20.5s-24.667 14.667 -32 21l-11 9.5c0 -14 -4.5 -24.5 -13.5 -31.5s-19.167 -10.5 -30.5 -10.5
c-10.667 0 -20.334 3.5 -29.001 10.5s-13 17.5 -13 31.5v626c0 14.667 4.33301 25.5 13 32.5s18.334 10.5 29.001 10.5c11.333 0 21.5 -3.5 30.5 -10.5s13.5 -17.5 13.5 -31.5v-187c20 20.667 43.667 36.667 71 48s58.666 17 93.999 17c40 0 75.667 -7.66699 107 -23
s57.666 -36 78.999 -62s37.5 -56 48.5 -90s16.5 -69.667 16.5 -107zM507.001 266c0 30 -3.83301 57 -11.5 81s-18.834 44.667 -33.501 62s-32 30.666 -52 39.999s-42.667 14 -68 14c-24.667 0 -47.167 -4.66699 -67.5 -14s-37.833 -22.666 -52.5 -39.999
s-25.834 -38 -33.501 -62s-11.5 -51 -11.5 -81s3.83301 -57.167 11.5 -81.5s18.834 -45.166 33.501 -62.499s32.167 -30.666 52.5 -39.999s42.833 -14 67.5 -14c25.333 0 48 4.66699 68 14s37.333 22.666 52 39.999s25.834 38.166 33.501 62.499s11.5 51.5 11.5 81.5z" />
    <glyph glyph-name="c" unicode="c" horiz-adv-x="567" 
d="M510 88c0 -10 -3.99902 -19.668 -11.999 -29.001c-22 -24.667 -48 -43.5 -78 -56.5s-63.667 -19.5 -101 -19.5c-40 0 -75.667 7.66699 -107 23s-57.666 36 -78.999 62s-37.5 56 -48.5 90s-16.5 70 -16.5 108c0 37.333 5.5 73 16.5 107s27.167 64 48.5 90
s47.666 46.667 78.999 62s67 23 107 23c37.333 0 71 -6.5 101 -19.5s56 -31.833 78 -56.5c8 -8.66699 12 -18.334 12 -29.001c0 -11.333 -4.66699 -21.333 -14 -30s-19.666 -13 -30.999 -13c-10.667 0 -21 4.66699 -31 14c-14 15.333 -30.333 27.333 -49 36
s-40.667 13 -66 13c-24.667 0 -47.167 -4.66699 -67.5 -14s-37.833 -22.666 -52.5 -39.999s-25.834 -38 -33.501 -62s-11.5 -51 -11.5 -81s3.83301 -57.167 11.5 -81.5s18.834 -45.166 33.501 -62.499s32.167 -30.666 52.5 -39.999s42.833 -14 67.5 -14
c25.333 0 47.5 4.33301 66.5 13s35.167 20.667 48.5 36c4.66699 5.33301 9.66699 9.16602 15 11.499s10.666 3.5 15.999 3.5c11.333 0 21.666 -4.33301 30.999 -13s14 -19 14 -31z" />
    <glyph glyph-name="d" unicode="d" horiz-adv-x="661" 
d="M570 43c0 -14 -4.33301 -24.501 -13 -31.501s-18.667 -10.5 -30 -10.5s-21.333 3.5 -30 10.5s-13 17.5 -13 31.5c-12 -11.333 -26.333 -21.333 -43 -30c-14 -7.33301 -31.167 -14.166 -51.5 -20.499s-43.833 -9.5 -70.5 -9.5c-40 0 -75.667 7.66699 -107 23
s-57.666 36 -78.999 62s-37.5 56 -48.5 90s-16.5 70 -16.5 108c0 37.333 5.5 73 16.5 107s27.167 64 48.5 90s47.666 46.667 78.999 62s67 23 107 23c35.333 0 66.833 -5.66699 94.5 -17s51.167 -27.333 70.5 -48v186c0 14.667 4.33301 25.5 13 32.5s18.667 10.5 30 10.5
s21.333 -3.5 30 -10.5s13 -17.5 13 -31.5v-627v0zM484 265.999c0 30 -3.83301 57 -11.5 81s-18.667 44.667 -33 62s-31.666 30.666 -51.999 39.999s-43.166 14 -68.499 14c-24.667 0 -47.167 -4.66699 -67.5 -14s-37.833 -22.666 -52.5 -39.999s-25.834 -38 -33.501 -62
s-11.5 -51 -11.5 -81s3.83301 -57.167 11.5 -81.5s18.834 -45.166 33.501 -62.499s32.167 -30.666 52.5 -39.999s42.833 -14 67.5 -14c25.333 0 48.166 4.66699 68.499 14s37.666 22.666 51.999 39.999s25.333 38.166 33 62.499s11.5 51.5 11.5 81.5z" />
    <glyph glyph-name="e" unicode="e" horiz-adv-x="626" 
d="M569 266c0 -11.333 -3.66309 -21.498 -10.9961 -30.498s-17.666 -13.5 -30.999 -13.5h-370c7.33301 -47.333 25.166 -84.833 53.499 -112.5s64.5 -41.5 108.5 -41.5c22.667 0 44.5 4.16699 65.5 12.5s38.833 21.5 53.5 39.5c9.33301 10.667 19.666 16 30.999 16
s21.666 -4.33301 30.999 -13s14 -19 14 -31c0 -6 -1.33301 -11.833 -4 -17.5s-9.33398 -13.834 -20.001 -24.501c-22.667 -22 -48.834 -38.667 -78.501 -50s-60.5 -17 -92.5 -17c-40 0 -75.667 7.66699 -107 23s-57.666 36 -78.999 62s-37.5 56.167 -48.5 90.5
s-16.5 70.166 -16.5 107.499s5.5 73 16.5 107s27.167 64 48.5 90s47.666 46.667 78.999 62s67 23 107 23c40.667 0 76.667 -7.66699 108 -23s57.5 -36 78.5 -62s36.833 -56 47.5 -90s16 -69.667 16 -107zM481.004 308.002c-7.33301 48 -25.167 85.833 -53.5 113.5
s-64.5 41.5 -108.5 41.5c-23.333 0 -44.333 -4 -63 -12s-34.834 -19 -48.501 -33s-24.667 -30.5 -33 -49.5s-14.166 -39.167 -17.499 -60.5h324v0z" />
    <glyph glyph-name="f" unicode="f" horiz-adv-x="337" 
d="M298 488c0 -11.333 -3.66504 -21.166 -10.998 -29.499s-18.333 -12.5 -33 -12.5h-45v-403c0 -14 -4.5 -24.5 -13.5 -31.5s-19.167 -10.5 -30.5 -10.5c-10.667 0 -20.334 3.5 -29.001 10.5s-13 17.5 -13 31.5v403h-41c-13.333 0 -23.666 4.16699 -30.999 12.5
s-11 18.166 -11 29.499s3.66699 21.333 11 30s17.666 13 30.999 13h41v68c0 16 3.16699 30.833 9.5 44.5s14.666 25.667 24.999 36s22.5 18.333 36.5 24s28.667 8.5 44 8.5c14.667 0 25.667 -4.33301 33 -13s11 -18.667 11 -30c0 -10.667 -3.66699 -20.334 -11 -29.001
s-18.333 -13 -33 -13c-8.66699 0 -15.667 -2.66699 -21 -8s-8 -11.666 -8 -18.999v-69h45c14.667 0 25.667 -4.33301 33 -13s11 -18.667 11 -30z" />
    <glyph glyph-name="g" unicode="g" horiz-adv-x="661" 
d="M570 15c0 -80 -22.1631 -140.497 -66.4961 -181.497s-105.833 -61.5 -184.5 -61.5c-15.333 0 -35 1.5 -59 4.5s-47.333 7.66699 -70 14s-42.167 14.666 -58.5 24.999s-24.5 23.166 -24.5 38.499c0 11.333 4.33301 21.666 13 30.999s18.667 14 30 14
c6 0 9.66699 -0.333008 11 -1s3.16602 -1.66699 5.49902 -3s6.16602 -3.66602 11.499 -6.99902s14.666 -7.33301 27.999 -12c12 -4.66699 27.167 -9 45.5 -13s40.833 -6 67.5 -6c110 0 165 52.667 165 158v45c-19.333 -18.667 -42.833 -33.334 -70.5 -44.001
s-59.167 -16 -94.5 -16c-39.333 0 -74.5 6.66699 -105.5 20s-57.333 31.833 -79 55.5s-38.167 51.667 -49.5 84s-17 67.833 -17 106.5c0 37.333 5.5 73 16.5 107s27.167 64 48.5 90s47.666 46.667 78.999 62s67 23 107 23c69.333 0 124.333 -21.333 165 -64v4
c0 14 4.66699 24.667 14 32s19 11 29 11c10.667 0 20.5 -3.66699 29.5 -11s13.5 -18 13.5 -32v-473v0zM484.004 266.003c0 30 -3.83594 57 -11.5029 81s-18.667 44.667 -33 62s-31.666 30.666 -51.999 39.999s-43.166 14 -68.499 14c-24.667 0 -47.167 -4.66699 -67.5 -14
s-37.833 -22.666 -52.5 -39.999s-25.834 -38 -33.501 -62s-11.5 -51 -11.5 -81c0 -57.333 14.333 -101.833 43 -133.5s69.334 -47.5 122.001 -47.5s93.334 15.833 122.001 47.5s43 76.167 43 133.5z" />
    <glyph glyph-name="h" unicode="h" horiz-adv-x="629" 
d="M547 43c0 -14 -4.33398 -24.6641 -13.001 -31.9971s-18.667 -11 -30 -11s-21.166 3.66699 -29.499 11s-12.5 17.666 -12.5 30.999v278c0 19.333 -3.83301 37.666 -11.5 54.999s-18 32.5 -31 45.5s-28.167 23.333 -45.5 31s-35.666 11.5 -54.999 11.5
s-37.5 -3.83301 -54.5 -11.5s-32 -18 -45 -31s-23.333 -28.167 -31 -45.5s-11.5 -35.666 -11.5 -54.999v-277c0 -14 -4.5 -24.833 -13.5 -32.5s-19.167 -11.5 -30.5 -11.5c-10.667 0 -20.334 3.66699 -29.001 11s-13 18 -13 32v627c0 14.667 4.33301 25.5 13 32.5
s18.334 10.5 29.001 10.5c11.333 0 21.5 -3.5 30.5 -10.5s13.5 -17.5 13.5 -31.5v-173c18.667 17.333 40 30.166 64 38.499s50 12.5 78 12.5c31.333 0 60.666 -6 87.999 -18s51.5 -28.333 72.5 -49s37.5 -44.834 49.5 -72.501s18 -57.167 18 -88.5v-277v0z" />
    <glyph glyph-name="i" unicode="i" horiz-adv-x="274" 
d="M209 684c0 -20 -7 -37 -21 -51s-31 -21 -51 -21s-37 7 -51 21s-21 31 -21 51s7 37 21 51s31 21 51 21s37 -7 51 -21s21 -31 21 -51zM179 42c0 -14 -4.33301 -24.499 -13 -31.499s-18.334 -10.5 -29.001 -10.5c-11.333 0 -21.5 3.66699 -30.5 11
s-13.5 17.666 -13.5 30.999v446c0 14 4.5 24.667 13.5 32s19.167 11 30.5 11c10.667 0 20.334 -3.66699 29.001 -11s13 -18 13 -32v-446v0z" />
    <glyph glyph-name="j" unicode="j" horiz-adv-x="272" 
d="M207 684c0 -20 -6.83301 -37 -20.5 -51s-30.5 -21 -50.5 -21s-36.833 7 -50.5 21s-20.5 31 -20.5 51s6.83301 37 20.5 51s30.5 21 50.5 21s36.833 -7 50.5 -21s20.5 -31 20.5 -51zM179 -28c0 -25.333 -3.66602 -48.001 -10.999 -68.001s-16.833 -37.5 -28.5 -52.5
s-24.667 -27.667 -39 -38s-28.833 -18.5 -43.5 -24.5c-6.66699 -2 -12.667 -3 -18 -3c-12 0 -21.833 4.33301 -29.5 13s-11.5 18.667 -11.5 30c0 7.33301 2 14.833 6 22.5s10.667 13.5 20 17.5c17.333 8 33.166 19.667 47.499 35s21.5 38 21.5 68v516
c0 14 4.33301 24.667 13 32s18.667 11 30 11c10.667 0 20.5 -3.66699 29.5 -11s13.5 -17.666 13.5 -30.999v-517v0z" />
    <glyph glyph-name="k" unicode="k" horiz-adv-x="534" 
d="M488 488c0 -10.667 -4.66797 -20.667 -14.001 -30l-149 -149l155 -243c4.66699 -9.33301 7 -17.333 7 -24c0 -12 -4.66699 -22.167 -14 -30.5s-19.666 -12.5 -30.999 -12.5c-6 0 -12 1.5 -18 4.5s-11.333 8.16699 -16 15.5l-146 227l-85 -85v-119
c0 -13.333 -4.66699 -23.666 -14 -30.999s-18.666 -11 -27.999 -11c-11.333 0 -21.5 3.66699 -30.5 11s-13.5 17.666 -13.5 30.999v628c0 14 4.33301 24.5 13 31.5s18.334 10.5 29.001 10.5c11.333 0 21.5 -3.5 30.5 -10.5s13.5 -17.5 13.5 -31.5v-388l236 236
c5.33301 5.33301 10.666 8.83301 15.999 10.5s10.666 2.5 15.999 2.5c11.333 0 21.333 -4.33301 30 -13s13 -18.667 13 -30z" />
    <glyph glyph-name="l" unicode="l" horiz-adv-x="268" 
d="M228 40c0 -11.333 -3.66797 -21.165 -11.001 -29.498s-18 -12.5 -32 -12.5c-13.333 0 -26.166 2.66699 -38.499 8s-23 12.666 -32 21.999s-16.167 20.166 -21.5 32.499s-8 25.5 -8 39.5v569c0 14.667 4.33301 25.5 13 32.5s18.667 10.5 30 10.5s21.333 -3.5 30 -10.5
s13 -17.5 13 -31.5v-570c0 -6 1.66699 -10.333 5 -13s6.33301 -4 9 -4c14 0 24.667 -4.33301 32 -13s11 -18.667 11 -30z" />
    <glyph glyph-name="m" unicode="m" horiz-adv-x="853" 
d="M771 43c0 -14 -4.49121 -24.6699 -13.4912 -32.0029s-19.167 -11 -30.5 -11c-10.667 0 -20.334 3.66699 -29.001 11s-13 17.666 -13 30.999v315c0 14.667 -2.83301 28.334 -8.5 41.001s-13.167 23.834 -22.5 33.501s-20.5 17.334 -33.5 23.001s-26.5 8.5 -40.5 8.5
c-14.667 0 -28.5 -2.83301 -41.5 -8.5s-24.167 -13.167 -33.5 -22.5s-16.833 -20.5 -22.5 -33.5s-8.5 -26.5 -8.5 -40.5v-315c0 -14 -4.33301 -24.667 -13 -32s-18.667 -11 -30 -11s-21.166 3.66699 -29.499 11s-12.5 17.666 -12.5 30.999v315
c0 14.667 -2.83301 28.334 -8.5 41.001s-13.334 23.834 -23.001 33.501s-20.834 17.334 -33.501 23.001s-26.334 8.5 -41.001 8.5s-28.334 -2.83301 -41.001 -8.5s-23.834 -13.167 -33.501 -22.5s-17.334 -20.5 -23.001 -33.5s-8.5 -26.5 -8.5 -40.5v-315
c0 -14 -4.5 -24.667 -13.5 -32s-19.167 -11 -30.5 -11c-10.667 0 -20.334 3.66699 -29.001 11s-13 17.666 -13 30.999v447c0 14.667 4.5 25.5 13.5 32.5s19.167 10.5 30.5 10.5c7.33301 0 14.166 -1.5 20.499 -4.5s11.5 -7.83301 15.5 -14.5c15.333 11.333 32.5 20 51.5 26
s38.833 9 59.5 9c30 0 58 -6.33301 84 -19s47.667 -30 65 -52c17.333 22 38.833 39.333 64.5 52s53.5 19 83.5 19c26.667 0 51.667 -5 75 -15s43.666 -23.5 60.999 -40.5s31 -37.167 41 -60.5s15 -48 15 -74v-315v0z" />
    <glyph glyph-name="n" unicode="n" horiz-adv-x="629" 
d="M547 43c0 -14 -4.33398 -24.667 -13.001 -32s-18.667 -11 -30 -11s-21.166 3.66699 -29.499 11s-12.5 17.666 -12.5 30.999v278c0 19.333 -3.83301 37.666 -11.5 54.999s-18 32.5 -31 45.5s-28.167 23.333 -45.5 31s-35.666 11.5 -54.999 11.5
s-37.5 -3.83301 -54.5 -11.5s-32 -18 -45 -31s-23.333 -28.167 -31 -45.5s-11.5 -35.666 -11.5 -54.999v-277c0 -14 -4.5 -24.833 -13.5 -32.5s-19.167 -11.5 -30.5 -11.5c-10.667 0 -20.334 3.66699 -29.001 11s-13 18 -13 32v447c0 14.667 4.33301 25.334 13 32.001
s18.334 10 29.001 10c10 0 19 -2.66699 27 -8s13.333 -13.666 16 -24.999c19.333 15.333 41 27.5 65 36.5s50 13.5 78 13.5c31.333 0 60.666 -6 87.999 -18s51.5 -28.333 72.5 -49s37.5 -44.834 49.5 -72.501s18 -57.167 18 -88.5v-277v0z" />
    <glyph glyph-name="o" unicode="o" horiz-adv-x="638" 
d="M570 266c0 -38 -5.5 -74 -16.5 -108s-27.167 -64 -48.5 -90s-47.666 -46.667 -78.999 -62s-67 -23 -107 -23s-75.667 7.66699 -107 23s-57.666 36 -78.999 62s-37.5 56 -48.5 90s-16.5 70 -16.5 108c0 37.333 5.5 73 16.5 107s27.167 64 48.5 90s47.666 46.667 78.999 62
s67 23 107 23s75.667 -7.66699 107 -23s57.666 -36 78.999 -62s37.5 -56 48.5 -90s16.5 -69.667 16.5 -107zM484 266c0 30 -3.83301 57 -11.5 81s-18.667 44.667 -33 62s-31.666 30.666 -51.999 39.999s-43.166 14 -68.499 14c-24.667 0 -47.167 -4.66699 -67.5 -14
s-37.833 -22.666 -52.5 -39.999s-25.834 -38 -33.501 -62s-11.5 -51 -11.5 -81s3.83301 -57.167 11.5 -81.5s18.834 -45.166 33.501 -62.499s32.167 -30.666 52.5 -39.999s42.833 -14 67.5 -14c25.333 0 48.166 4.66699 68.499 14s37.666 22.666 51.999 39.999
s25.333 38.166 33 62.499s11.5 51.5 11.5 81.5z" />
    <glyph glyph-name="p" unicode="p" horiz-adv-x="661" 
d="M593 267c0 -38 -5.50098 -74.165 -16.501 -108.498s-27.167 -64.5 -48.5 -90.5s-47.666 -46.667 -78.999 -62s-67 -23 -107 -23c-35.333 0 -66.666 5.66699 -93.999 17s-51 27.666 -71 48.999v-217c0 -14 -4.5 -24.667 -13.5 -32s-19.167 -11 -30.5 -11
c-10.667 0 -20.334 3.66699 -29.001 11s-13 18 -13 32v656c0 14 4.33301 24.667 13 32s18.334 11 29.001 11c11.333 0 21.5 -3.66699 30.5 -11s13.5 -18 13.5 -32c12 12 26.333 22.333 43 31c14 7.33301 31.167 14.166 51.5 20.499s43.833 9.5 70.5 9.5
c40 0 75.667 -7.66699 107 -23s57.666 -36 78.999 -62s37.5 -56 48.5 -90s16.5 -69.667 16.5 -107zM506.999 266.002c0 30 -3.83496 57.168 -11.502 81.501s-18.834 45.166 -33.501 62.499s-32 30.666 -52 39.999s-42.667 14 -68 14c-24.667 0 -47.167 -4.66699 -67.5 -14
s-37.666 -22.666 -51.999 -39.999s-25.5 -38.166 -33.5 -62.499s-12 -51.166 -12 -80.499c0 -30 3.83301 -57.167 11.5 -81.5s18.834 -45.333 33.501 -63s32.167 -31.167 52.5 -40.5s42.833 -14 67.5 -14c25.333 0 48 4.66699 68 14s37.333 22.666 52 39.999
s25.834 38.166 33.501 62.499s11.5 51.5 11.5 81.5z" />
    <glyph glyph-name="q" unicode="q" horiz-adv-x="661" 
d="M570 -168c0 -14 -4.33301 -24.6689 -13 -32.002s-18.667 -11 -30 -11s-21.333 3.66699 -30 11s-13 18 -13 32v216c-41.333 -43.333 -96.333 -65 -165 -65c-40 0 -75.667 7.66699 -107 23s-57.666 36 -78.999 62s-37.5 56 -48.5 90s-16.5 70 -16.5 108s5.5 74 16.5 108
s27.167 64 48.5 90s47.666 46.667 78.999 62s67 23 107 23c26.667 0 50.167 -3.16699 70.5 -9.5s37.5 -13.166 51.5 -20.499c16.667 -8.66699 31 -19 43 -31c0 14 4.33301 24.667 13 32s18.667 11 30 11s21.333 -3.66699 30 -11s13 -17.666 13 -30.999v-657v0zM484 265.998
c0 30 -3.83496 57.168 -11.502 81.501s-18.667 45.166 -33 62.499s-31.666 30.666 -51.999 39.999s-43.166 14 -68.499 14c-24.667 0 -47.167 -4.66699 -67.5 -14s-37.666 -22.666 -51.999 -39.999s-25.5 -38.166 -33.5 -62.499s-12 -51.166 -12 -80.499
c0 -30 3.83301 -57.167 11.5 -81.5s18.834 -45.333 33.501 -63s32.167 -31.167 52.5 -40.5s42.833 -14 67.5 -14c25.333 0 48.166 4.66699 68.499 14s37.666 22.666 51.999 39.999s25.333 38.166 33 62.499s11.5 51.5 11.5 81.5z" />
    <glyph glyph-name="r" unicode="r" horiz-adv-x="370" 
d="M363 505c0 -11.333 -3.66309 -21.167 -10.9961 -29.5s-18.333 -12.5 -33 -12.5c-19.333 0 -37.5 -3.83301 -54.5 -11.5s-32 -18 -45 -31s-23.333 -28.167 -31 -45.5s-11.5 -35.666 -11.5 -54.999v-277c0 -14 -4.5 -24.667 -13.5 -32s-19.167 -11 -30.5 -11
c-10.667 0 -20.334 3.66699 -29.001 11s-13 17.666 -13 30.999v446c0 14 4.66699 24.667 14 32s18.666 11 27.999 11c10 0 19.167 -2.83301 27.5 -8.5s13.5 -14.167 15.5 -25.5c19.333 16 41.666 28.5 66.999 37.5s50.666 13.5 75.999 13.5c14.667 0 25.667 -4.33301 33 -13
s11 -18.667 11 -30z" />
    <glyph glyph-name="s" unicode="s" horiz-adv-x="515" 
d="M463 144c0 -29.333 -5.66895 -54.333 -17.002 -75s-26.5 -37.334 -45.5 -50.001s-40.833 -21.834 -65.5 -27.501s-50.334 -8.5 -77.001 -8.5c-14 0 -29.667 1.16699 -47 3.5s-35 6.33301 -53 12s-35.167 13.334 -51.5 23.001s-30.5 21.834 -42.5 36.501
c-6 9.33301 -9 18 -9 26c0 12.667 4.83301 23.334 14.5 32.001s19.834 13 30.501 13s21 -5.66699 31 -17c15.333 -17.333 34.666 -29 57.999 -35s46.333 -9 69 -9s41.5 1.83301 56.5 5.5s27.167 8.83398 36.5 15.501s16 14.667 20 24s6 19.666 6 30.999
c0 21.333 -7.5 37.666 -22.5 48.999s-33.833 20.666 -56.5 27.999s-47.167 14.333 -73.5 21s-50.833 15.834 -73.5 27.501s-41.5 27.667 -56.5 48s-22.5 47.5 -22.5 81.5c0 27.333 5.83301 50.5 17.5 69.5s26.834 34.333 45.501 46s39.667 20.167 63 25.5s47 8 71 8
c13.333 0 30.333 -1.66699 51 -5s40.667 -8.5 60 -15.5s35.833 -15.667 49.5 -26s20.5 -22.5 20.5 -36.5c0 -11.333 -4 -21.666 -12 -30.999s-18 -14 -30 -14c-4.66699 0 -10 1.16699 -16 3.5s-11.667 5.5 -17 9.5c-13.333 11.333 -29.333 19.166 -48 23.499
s-38 6.5 -58 6.5c-41.333 0 -70.333 -6.5 -87 -19.5s-25 -27.833 -25 -44.5c0 -20 7.5 -35.167 22.5 -45.5s33.833 -19 56.5 -26s47.334 -13.833 74.001 -20.5s51.334 -16.167 74.001 -28.5s41.5 -29 56.5 -50s22.5 -49.167 22.5 -84.5z" />
    <glyph glyph-name="t" unicode="t" horiz-adv-x="341" 
d="M302 43c0 -12 -3.66699 -22.1689 -11 -30.502s-17.666 -12.5 -30.999 -12.5h-17c-47.333 0 -81 11.833 -101 35.5s-30 55.834 -30 96.501v314h-30c-12 0 -22.167 4.16699 -30.5 12.5s-12.5 18.166 -12.5 29.499c0 12 4.16699 22.167 12.5 30.5s18.166 12.5 29.499 12.5
h30v139c0 14 4.33301 24.5 13 31.5s18.667 10.5 30 10.5s21.166 -3.5 29.499 -10.5s12.5 -17.5 12.5 -31.5v-139h64c14 0 24.5 -4.66699 31.5 -14s10.5 -18.666 10.5 -27.999c0 -12 -3.66699 -22.167 -11 -30.5s-17.666 -12.5 -30.999 -12.5h-64v-323
c0 -14 2.83301 -23.833 8.5 -29.5s15.5 -8.5 29.5 -8.5h25c13.333 0 23.833 -4.16699 31.5 -12.5s11.5 -18.166 11.5 -29.499z" />
    <glyph glyph-name="u" unicode="u" horiz-adv-x="629" 
d="M538 41c0 -14 -4.16699 -24.501 -12.5 -31.501s-18.166 -10.5 -29.499 -10.5c-9.33301 0 -18.166 2.66699 -26.499 8s-13.5 13.666 -15.5 24.999c-20 -15.333 -42 -27.5 -66 -36.5s-50 -13.5 -78 -13.5c-30.667 0 -59.834 6 -87.501 18s-52 28.333 -73 49
s-37.5 44.834 -49.5 72.501s-18 57.167 -18 88.5v277c0 14 4.33301 24.667 13 32s18.334 11 29.001 11c11.333 0 21.5 -3.66699 30.5 -11s13.5 -17.666 13.5 -30.999v-278c0 -19.333 3.83301 -37.666 11.5 -54.999s18 -32.5 31 -45.5s28 -23.333 45 -31
s35.167 -11.5 54.5 -11.5s37.666 3.83301 54.999 11.5s32.5 18 45.5 31s23.333 28.167 31 45.5s11.5 35.666 11.5 54.999v277c0 15.333 4.16699 26.5 12.5 33.5s18.166 10.5 29.499 10.5s21.333 -3.66699 30 -11s13 -18 13 -32v-447v0z" />
    <glyph glyph-name="v" unicode="v" horiz-adv-x="548" 
d="M503 491c0 -6.66699 -1.33301 -12.999 -4 -18.999l-182 -438c-8.66699 -22.667 -23 -34 -43 -34c-18.667 0 -33 11.333 -43 34l-182 438c-2 7.33301 -3 13.333 -3 18c0 12 4.5 21.833 13.5 29.5s19.167 11.5 30.5 11.5c7.33301 0 14.5 -2 21.5 -6s12.5 -10.667 16.5 -20
l146 -350l146 350c3.33301 9.33301 8.83301 16.166 16.5 20.499s15.167 6.5 22.5 6.5c11.333 0 21.5 -3.66699 30.5 -11s13.5 -17.333 13.5 -30z" />
    <glyph glyph-name="w" unicode="w" horiz-adv-x="796" 
d="M758 489l0.00488281 -6.99902c0 -2 -0.666992 -4.66699 -2 -8l-155 -439c-8.66699 -23.333 -23.334 -35 -44.001 -35c-10.667 0 -19.167 2.5 -25.5 7.5s-11.833 14.167 -16.5 27.5l-117 330l-118 -330c-8 -23.333 -22.333 -35 -43 -35c-20 0 -34 11.667 -42 35l-154 439
c-1.33301 3.33301 -2 6 -2 8v8c0 12.667 4.66699 22.667 14 30s19.333 11 30 11c8 0 15.667 -2.16699 23 -6.5s12.666 -11.5 15.999 -21.5l116 -334l118 327c4 11.333 9 20 15 26s15 9 27 9c11.333 0 20.166 -2.83301 26.499 -8.5s11.5 -14.5 15.5 -26.5l117 -327l117 334
c3.33301 10 8.66602 17.167 15.999 21.5s14.666 6.5 21.999 6.5c11.333 0 21.833 -3.83301 31.5 -11.5s14.5 -17.834 14.5 -30.501z" />
    <glyph glyph-name="x" unicode="x" horiz-adv-x="548" 
d="M514 42c0 -12 -4.66895 -22.167 -14.002 -30.5s-19.666 -12.5 -30.999 -12.5c-13.333 0 -24 5.33301 -32 16l-163 199l-163 -199c-10 -10 -20.667 -15 -32 -15s-21.666 4.16699 -30.999 12.5s-14 18.166 -14 29.499c0 10.667 4 20.334 12 29.001l172 211l-147 179
c-7.33301 8 -11 17.333 -11 28c0 12 4.66699 22.167 14 30.5s19.666 12.5 30.999 12.5c5.33301 0 10.833 -1.16699 16.5 -3.5s10.834 -6.5 15.501 -12.5l137 -168l138 168c8.66699 10.667 18.667 16 30 16s21.833 -4.16699 31.5 -12.5s14.5 -18.5 14.5 -30.5
c0 -8.66699 -3.66699 -17.667 -11 -27l-148 -180l174 -211c4 -4.66699 6.83301 -9.5 8.5 -14.5s2.5 -9.83301 2.5 -14.5z" />
    <glyph glyph-name="y" unicode="y" horiz-adv-x="571" 
d="M529 490c0 -6.66699 -1.66699 -13.002 -5 -19.002l-270 -614c-10 -23.333 -25 -40.333 -45 -51s-41.667 -16 -65 -16h-32c-14.667 0 -25.334 4.5 -32.001 13.5s-10 19.167 -10 30.5c0 10.667 3.33301 20.334 10 29.001s17.334 13 32.001 13h31
c6.66699 0 13 0.833008 19 2.5s10.667 6.16699 14 13.5l66 148l-195 431c-3.33301 6 -5 12.333 -5 19c0 12.667 4.83301 22.834 14.5 30.501s20.167 11.5 31.5 11.5c16 0 28 -8.66699 36 -26l163 -362l159 362c4 9.33301 9.33301 15.833 16 19.5s13.667 5.5 21 5.5
c11.333 0 21.833 -3.83301 31.5 -11.5s14.5 -17.5 14.5 -29.5z" />
    <glyph glyph-name="z" unicode="z" horiz-adv-x="542" 
d="M496 42c0 -10.667 -3.66602 -20.332 -10.999 -28.999s-17.666 -13 -30.999 -13h-358c-12 0 -21.333 1.83301 -28 5.5s-11.5 8 -14.5 13s-4.83301 10.167 -5.5 15.5s-1 10 -1 14c0 3.33301 0.666992 7 2 11s3.66602 7.66699 6.99902 11l307 376h-274
c-14.667 0 -25.5 4.16699 -32.5 12.5s-10.5 18.166 -10.5 29.499s3.5 21.333 10.5 30s17.5 13 31.5 13h365c13.333 0 23.666 -4 30.999 -12s11 -17.333 11 -28c0 -10 -3.66699 -19.667 -11 -29l-305 -377h274c14 0 24.667 -4.33301 32 -13s11 -18.667 11 -30z" />
    <glyph glyph-name="braceleft" unicode="{" horiz-adv-x="398" 
d="M365 -166c0 -11.333 -3.66699 -21.499 -11 -30.499s-18.333 -13.5 -33 -13.5c-26.667 0 -52 5.16699 -76 15.5s-44.833 24.333 -62.5 42s-31.667 38.334 -42 62.001s-15.5 49.167 -15.5 76.5v188c0 12 -4.16699 22.333 -12.5 31s-18.5 13 -30.5 13
c-13.333 0 -23.666 4.16699 -30.999 12.5s-11 18.166 -11 29.499s3.66699 21.333 11 30s17.666 13 30.999 13c12 0 22.167 4.33301 30.5 13s12.5 19 12.5 31v187c0 27.333 5.16699 52.833 15.5 76.5s24.333 44.334 42 62.001s38.5 31.667 62.5 42s49.333 15.5 76 15.5
c14.667 0 25.667 -4.5 33 -13.5s11 -19.167 11 -30.5c0 -10.667 -3.66699 -20.334 -11 -29.001s-18.333 -13 -33 -13c-31.333 0 -57.5 -10.5 -78.5 -31.5s-31.5 -47.167 -31.5 -78.5v-187c0 -34 -11 -62.667 -33 -86c22 -25.333 33 -54.333 33 -87v-188
c0 -31.333 10.5 -57.5 31.5 -78.5s47.167 -31.5 78.5 -31.5c14.667 0 25.667 -4.33301 33 -13s11 -18.334 11 -29.001z" />
    <glyph glyph-name="bar" unicode="|" horiz-adv-x="268" 
d="M177 -166c0 -14.667 -4.5 -25.667 -13.5 -33s-19.167 -11 -30.5 -11c-10.667 0 -20.334 3.66699 -29.001 11s-13 18.333 -13 33v853c0 14.667 4.33301 25.667 13 33s18.334 11 29.001 11c11.333 0 21.5 -3.66699 30.5 -11s13.5 -18.333 13.5 -33v-853v0z" />
    <glyph glyph-name="braceright" unicode="}" horiz-adv-x="398" 
d="M359 260c0 -11.333 -3.66699 -21.168 -11 -29.501s-18 -12.5 -32 -12.5c-11.333 0 -21.5 -4.33301 -30.5 -13s-13.5 -19 -13.5 -31v-188c0 -27.333 -5 -52.833 -15 -76.5s-23.833 -44.334 -41.5 -62.001s-38.5 -31.667 -62.5 -42s-49.667 -15.5 -77 -15.5
c-13.333 0 -23.666 4.5 -30.999 13.5s-11 19.167 -11 30.5c0 10.667 3.66699 20.334 11 29.001s17.666 13 30.999 13c32 0 58.5 10.5 79.5 31.5s31.5 47.167 31.5 78.5v188c0 16.667 2.66699 32.334 8 47.001s13.666 27.667 24.999 39c-22 24 -33 53 -33 87v187
c0 31.333 -10.5 57.5 -31.5 78.5s-47.5 31.5 -79.5 31.5c-13.333 0 -23.666 4.33301 -30.999 13s-11 18.334 -11 29.001c0 11.333 3.5 21.5 10.5 30.5s17.5 13.5 31.5 13.5c27.333 0 53 -5.16699 77 -15.5s44.833 -24.333 62.5 -42s31.5 -38.334 41.5 -62.001
s15 -49.167 15 -76.5v-187c0 -12 4.5 -22.333 13.5 -31s19.167 -13 30.5 -13c14 0 24.667 -4.33301 32 -13s11 -18.667 11 -30z" />
    <glyph glyph-name="asciitilde" unicode="~" 
d="M507 679c0 -11.333 -5.00293 -20.998 -15.0029 -28.998c-18 -18.667 -35 -31.667 -51 -39s-31 -11 -45 -11c-17.333 0 -33.666 3.83301 -48.999 11.5s-29.833 16 -43.5 25l-39.5 25c-12.667 7.66699 -25.334 11.5 -38.001 11.5c-6.66699 0 -13.167 -1.83301 -19.5 -5.5
s-12.5 -7.83398 -18.5 -12.501s-12 -8.83398 -18 -12.501s-12 -5.5 -18 -5.5c-11.333 0 -21.666 4.5 -30.999 13.5s-14 19.5 -14 31.5c0 10 4.33301 19.333 13 28c18 18.667 35.833 31.667 53.5 39s34.167 11 49.5 11c19.333 0 37.333 -3.83301 54 -11.5
s32 -16.167 46 -25.5l38.5 -25.5c11.667 -7.66699 21.834 -11.5 30.501 -11.5c5.33301 0 10.666 2 15.999 6l16.5 12.5c5.66699 4.33301 11.834 8.5 18.501 12.5s13.334 6 20.001 6c12 0 22.333 -4.5 31 -13.5s13 -19.167 13 -30.5z" />
    <glyph glyph-name="Zcaron" horiz-adv-x="595" 
d="M549 42c0 -10.667 -3.5 -20.335 -10.5 -29.002s-17.5 -13 -31.5 -13h-414c-13.333 0 -23.833 4.5 -31.5 13.5s-11.5 18.833 -11.5 29.5c0 8.66699 2.33301 16.334 7 23.001l348 561h-292c-14.667 0 -25.334 4.33301 -32.001 13s-10 18.334 -10 29.001
c0 11.333 3.33301 21.333 10 30s17.334 13 32.001 13h368c12.667 0 23 -4.33301 31 -13s12 -18.667 12 -30c0 -8 -2 -15 -6 -21l-349 -563h337c14.667 0 25.5 -4.33301 32.5 -13s10.5 -18.667 10.5 -30zM461 970.999c0 -6 -1.66797 -12.168 -5.00098 -18.501
s-8.66602 -11.833 -15.999 -16.5l-116 -75c-8 -6 -16.667 -9 -26 -9c-5.33301 0 -10 0.833008 -14 2.5s-8 3.83398 -12 6.50098l-117 75c-7.33301 4.66699 -12.5 10 -15.5 16s-4.5 12.333 -4.5 19c0 11.333 4 21.833 12 31.5s17.667 14.5 29 14.5
c8.66699 0 16.667 -2.66699 24 -8l98 -61l98 61c7.33301 5.33301 15 8 23 8c12 0 22 -4.83301 30 -14.5s12 -20.167 12 -31.5z" />
    <glyph glyph-name="Zcaron" unicode="&#x17d;" horiz-adv-x="595" 
d="M549 42c0 -10.667 -3.5 -20.335 -10.5 -29.002s-17.5 -13 -31.5 -13h-414c-13.333 0 -23.833 4.5 -31.5 13.5s-11.5 18.833 -11.5 29.5c0 8.66699 2.33301 16.334 7 23.001l348 561h-292c-14.667 0 -25.334 4.33301 -32.001 13s-10 18.334 -10 29.001
c0 11.333 3.33301 21.333 10 30s17.334 13 32.001 13h368c12.667 0 23 -4.33301 31 -13s12 -18.667 12 -30c0 -8 -2 -15 -6 -21l-349 -563h337c14.667 0 25.5 -4.33301 32.5 -13s10.5 -18.667 10.5 -30zM461 970.999c0 -6 -1.66797 -12.168 -5.00098 -18.501
s-8.66602 -11.833 -15.999 -16.5l-116 -75c-8 -6 -16.667 -9 -26 -9c-5.33301 0 -10 0.833008 -14 2.5s-8 3.83398 -12 6.50098l-117 75c-7.33301 4.66699 -12.5 10 -15.5 16s-4.5 12.333 -4.5 19c0 11.333 4 21.833 12 31.5s17.667 14.5 29 14.5
c8.66699 0 16.667 -2.66699 24 -8l98 -61l98 61c7.33301 5.33301 15 8 23 8c12 0 22 -4.83301 30 -14.5s12 -20.167 12 -31.5z" />
    <glyph glyph-name="zcaron" horiz-adv-x="542" 
d="M496 42c0 -10.667 -3.66602 -20.332 -10.999 -28.999s-17.666 -13 -30.999 -13h-358c-12 0 -21.333 1.83301 -28 5.5s-11.5 8 -14.5 13s-4.83301 10.167 -5.5 15.5s-1 10 -1 14c0 3.33301 0.666992 7 2 11s3.66602 7.66699 6.99902 11l307 376h-274
c-14.667 0 -25.5 4.16699 -32.5 12.5s-10.5 18.166 -10.5 29.499s3.5 21.333 10.5 30s17.5 13 31.5 13h365c13.333 0 23.666 -4 30.999 -12s11 -17.333 11 -28c0 -10 -3.66699 -19.667 -11 -29l-305 -377h274c14 0 24.667 -4.33301 32 -13s11 -18.667 11 -30z
M435.001 743.002c0 -6 -1.66797 -12.168 -5.00098 -18.501s-8.66602 -11.833 -15.999 -16.5l-116 -75c-8 -6 -16.667 -9 -26 -9c-5.33301 0 -10 0.833008 -14 2.5s-8 3.83398 -12 6.50098l-117 75c-7.33301 4.66699 -12.5 10 -15.5 16s-4.5 12.333 -4.5 19
c0 11.333 4 21.833 12 31.5s17.667 14.5 29 14.5c8.66699 0 16.667 -2.66699 24 -8l98 -61l98 61c7.33301 5.33301 15 8 23 8c12 0 22 -4.83301 30 -14.5s12 -20.167 12 -31.5z" />
    <glyph glyph-name="zcaron" unicode="&#x17e;" horiz-adv-x="542" 
d="M496 42c0 -10.667 -3.66602 -20.332 -10.999 -28.999s-17.666 -13 -30.999 -13h-358c-12 0 -21.333 1.83301 -28 5.5s-11.5 8 -14.5 13s-4.83301 10.167 -5.5 15.5s-1 10 -1 14c0 3.33301 0.666992 7 2 11s3.66602 7.66699 6.99902 11l307 376h-274
c-14.667 0 -25.5 4.16699 -32.5 12.5s-10.5 18.166 -10.5 29.499s3.5 21.333 10.5 30s17.5 13 31.5 13h365c13.333 0 23.666 -4 30.999 -12s11 -17.333 11 -28c0 -10 -3.66699 -19.667 -11 -29l-305 -377h274c14 0 24.667 -4.33301 32 -13s11 -18.667 11 -30z
M435.001 743.002c0 -6 -1.66797 -12.168 -5.00098 -18.501s-8.66602 -11.833 -15.999 -16.5l-116 -75c-8 -6 -16.667 -9 -26 -9c-5.33301 0 -10 0.833008 -14 2.5s-8 3.83398 -12 6.50098l-117 75c-7.33301 4.66699 -12.5 10 -15.5 16s-4.5 12.333 -4.5 19
c0 11.333 4 21.833 12 31.5s17.667 14.5 29 14.5c8.66699 0 16.667 -2.66699 24 -8l98 -61l98 61c7.33301 5.33301 15 8 23 8c12 0 22 -4.83301 30 -14.5s12 -20.167 12 -31.5z" />
    <glyph glyph-name="uni00A0" unicode="&#xa0;" horiz-adv-x="285" 
 />
    <glyph glyph-name="exclamdown" unicode="&#xa1;" horiz-adv-x="290" 
d="M104 472c0 14 4.5 24.667 13.5 32s18.833 11 29.5 11c11.333 0 21.5 -3.66699 30.5 -11s13.5 -18 13.5 -32v-445c0 -14 -4.5 -24.667 -13.5 -32s-19.167 -11 -30.5 -11c-10.667 0 -20.5 3.66699 -29.5 11s-13.5 18 -13.5 32v445v0zM73 657c0 20 7 37 21 51s31 21 51 21
s37 -7 51 -21s21 -31 21 -51s-7 -37 -21 -51s-31 -21 -51 -21s-37 7 -51 21s-21 31 -21 51z" />
    <glyph glyph-name="cent" unicode="&#xa2;" horiz-adv-x="575" 
d="M510 88c0 -10 -3.99805 -19.665 -11.998 -28.998c-17.333 -18.667 -37.333 -34.334 -60 -47.001s-47.667 -21.334 -75 -26.001v-142c0 -14 -4.5 -24.5 -13.5 -31.5s-19.167 -10.5 -30.5 -10.5c-10.667 0 -20.334 3.5 -29.001 10.5s-13 17.5 -13 31.5v142
c-33.333 5.33301 -63 16.666 -89 33.999s-47.833 38.5 -65.5 63.5s-31.167 53.167 -40.5 84.5s-14 64 -14 98s4.66699 66.5 14 97.5s22.833 59 40.5 84s39.334 46.167 65.001 63.5s55.167 28.666 88.5 33.999v141c0 14.667 4.16699 25.667 12.5 33s18.166 11 29.499 11
s21.333 -3.66699 30 -11s13 -18 13 -32v-142c14 -2 29.667 -6.33301 47 -13s33.5 -14.5 48.5 -23.5s27.667 -19.167 38 -30.5s15.5 -23 15.5 -35c0 -11.333 -4.66699 -21.333 -14 -30s-19.666 -13 -30.999 -13c-10.667 0 -21 4.66699 -31 14
c-14 15.333 -30.333 27.333 -49 36s-40.667 13 -66 13c-24.667 0 -47.167 -4.66699 -67.5 -14s-37.833 -22.666 -52.5 -39.999s-25.834 -38 -33.501 -62s-11.5 -51 -11.5 -81s3.83301 -57.167 11.5 -81.5s18.834 -45.166 33.501 -62.499s32.167 -30.666 52.5 -39.999
s42.833 -14 67.5 -14c25.333 0 47.5 4.33301 66.5 13s35.167 20.667 48.5 36c4.66699 5.33301 9.66699 9.16602 15 11.499s10.666 3.5 15.999 3.5c11.333 0 21.666 -4.33301 30.999 -13s14 -19 14 -31z" />
    <glyph glyph-name="sterling" unicode="&#xa3;" horiz-adv-x="571" 
d="M544 99c0 -14 -2.66602 -27 -7.99902 -39s-12.666 -22.5 -21.999 -31.5s-20 -16 -32 -21s-25 -7.5 -39 -7.5h-344c-14 -0 -24.5 4.33301 -31.5 13s-10.5 18.334 -10.5 29.001c0 11.333 3.5 21.333 10.5 30s17.5 13 31.5 13h14c20.667 0 35.167 5.66699 43.5 17
s12.5 24 12.5 38v215h-50c-14.667 0 -25.667 4.16699 -33 12.5s-11 18.166 -11 29.499s3.66699 21.333 11 30s17.666 13 30.999 13h52v153c0 18.667 3.5 36.334 10.5 53.001s16.667 31.167 29 43.5s26.666 22.166 42.999 29.499s33.833 11 52.5 11
c20 0 38.5 -3.83301 55.5 -11.5s31.5 -17.834 43.5 -30.501s21.333 -27.334 28 -44.001s10 -33.667 10 -51c0 -14 -4.66699 -24.833 -14 -32.5s-19.333 -11.5 -30 -11.5s-20.167 3.66699 -28.5 11s-12.5 18.333 -12.5 33c0 4.66699 -1 9.83398 -3 15.501s-5 11.167 -9 16.5
s-9.33301 9.83301 -16 13.5s-14.667 5.5 -24 5.5c-15.333 0 -27.666 -5.16699 -36.999 -15.5s-14 -22.166 -14 -35.499v-154h132c14.667 0 25.667 -4.33301 33 -13s11 -18.667 11 -30s-3.66699 -21.333 -11 -30s-18 -13 -32 -13h-133v-221c0 -6 -1.16699 -13.333 -3.5 -22
s-4.83301 -17 -7.5 -25h201c4 0 7.5 1.33301 10.5 4s4.5 6 4.5 10c0 12 4.16699 22.333 12.5 31s18.166 13 29.499 13c12 0 22.333 -4.33301 31 -13s13 -19 13 -31z" />
    <glyph glyph-name="currency" unicode="&#xa4;" horiz-adv-x="588" 
d="M539 364c0 -27.333 -8.66504 -49.833 -25.998 -67.5s-39.666 -26.5 -66.999 -26.5h-72c11.333 -15.333 17 -33.333 17 -54c0 -27.333 -8.66699 -49.666 -26 -66.999s-39.666 -26 -66.999 -26h-249v248c0 27.333 8.66699 49.833 26 67.5s39.666 26.5 66.999 26.5
c20 0 38.333 -5.66699 55 -17v71c0 27.333 8.66699 49.833 26 67.5s39.666 26.5 66.999 26.5s49.666 -8.83301 66.999 -26.5s26 -40.167 26 -67.5v-62h63c27.333 0 49.666 -8.83301 66.999 -26.5s26 -39.834 26 -66.501zM522.002 364c0 22.667 -7 41 -21 55
s-32.333 21 -55 21h-79v79c0 22.667 -7.16699 41.167 -21.5 55.5s-32.833 21.5 -55.5 21.5s-41 -7.16699 -55 -21.5s-21 -32.833 -21 -55.5v-232h232c22.667 0 41 7.16699 55 21.5s21 32.833 21 55.5z" />
    <glyph glyph-name="yen" unicode="&#xa5;" horiz-adv-x="594" 
d="M544 670c0 -7.33301 -1.99609 -14.332 -5.99609 -20.999l-121 -224h61c14 0 24.667 -4.33301 32 -13s11 -18.667 11 -30s-3.66699 -21.166 -11 -29.499s-17.666 -12.5 -30.999 -12.5h-107l-32 -60h137c14 0 24.667 -4.33301 32 -13s11 -18.667 11 -30
s-3.66699 -21.166 -11 -29.499s-18 -12.5 -32 -12.5h-137v-152c0 -14 -4.5 -24.667 -13.5 -32s-19.167 -11 -30.5 -11c-10.667 0 -20.334 3.5 -29.001 10.5s-13 17.5 -13 31.5v153h-137c-14 0 -24.667 4.16699 -32 12.5s-11 18.166 -11 29.499s3.66699 21.333 11 30
s17.666 13 30.999 13h138l-32 59h-105c-14 0 -24.667 4.16699 -32 12.5s-11 18.166 -11 29.499s3.66699 21.333 11 30s17.666 13 30.999 13h61l-121 226c-4 6.66699 -6 13.667 -6 21c0 12 4.66699 22.167 14 30.5s19.666 12.5 30.999 12.5
c6.66699 0 13.167 -1.83301 19.5 -5.5s11.833 -9.83398 16.5 -18.501l167 -308l165 308c4.66699 8 10.167 13.667 16.5 17s12.833 5 19.5 5c11.333 0 21.666 -4 30.999 -12s14 -18 14 -30z" />
    <glyph glyph-name="brokenbar" unicode="&#xa6;" horiz-adv-x="239" 
d="M162 393c0 -14 -4.33301 -24.5 -13 -31.5s-18.667 -10.5 -30 -10.5s-21.333 3.5 -30 10.5s-13 17.5 -13 31.5v294c0 14.667 4.33301 25.667 13 33s18.667 11 30 11s21.333 -3.66699 30 -11s13 -18.333 13 -33v-294v0zM162 -166c0 -14.667 -4.33301 -25.667 -13 -33
s-18.667 -11 -30 -11s-21.333 3.66699 -30 11s-13 18.333 -13 33v303c0 14 4.33301 24.667 13 32s18.667 11 30 11s21.333 -3.66699 30 -11s13 -18 13 -32v-303v0z" />
    <glyph glyph-name="section" unicode="&#xa7;" horiz-adv-x="515" 
d="M440 599c0 -12 -4.49707 -22.3301 -13.4971 -30.9971s-19.167 -13 -30.5 -13c-10 0 -19 4.66699 -27 14l-27 30.5c-10 11 -21.333 21.167 -34 30.5s-28.334 14 -47.001 14c-24.667 0 -45.334 -8.33301 -62.001 -25s-25 -37.334 -25 -62.001
c0 -14 3.16699 -26.833 9.5 -38.5s16.166 -23.5 29.499 -35.5l35 -30l54.5 -48l54 -50c17 -16 28.5 -28 34.5 -36c15.333 -16.667 27.166 -34.167 35.499 -52.5s12.5 -39.833 12.5 -64.5c0 -21.333 -3.83301 -41.333 -11.5 -60s-19.167 -35.667 -34.5 -51
c12 -15.333 21.5 -31.5 28.5 -48.5s10.5 -36.167 10.5 -57.5c0 -24 -4.5 -46.5 -13.5 -67.5s-21.333 -39.333 -37 -55s-33.834 -28 -54.501 -37s-43 -13.5 -67 -13.5s-45.5 4.16699 -64.5 12.5s-35.667 18.166 -50 29.499s-26.333 23.333 -36 36s-17.167 23 -22.5 31
c-4.66699 7.33301 -7 15 -7 23c0 11.333 4.5 21.166 13.5 29.499s19.167 12.5 30.5 12.5c10 0 19.333 -4.66699 28 -14l27.5 -30.5c9.66699 -11 20.667 -21.167 33 -30.5s27.833 -14 46.5 -14c24.667 0 45.5 8.5 62.5 25.5s25.5 37.833 25.5 62.5
c0 14.667 -3.16699 27.334 -9.5 38.001s-16.166 22.667 -29.499 36c-26 25.333 -47.5 45.5 -64.5 60.5l-44.5 38.5l-34.5 30c-10.333 9.33301 -21.833 21 -34.5 35c-15.333 17.333 -27.166 34.833 -35.499 52.5s-12.5 39.167 -12.5 64.5c0 21.333 3.66699 41.166 11 59.499
s18.666 35.166 33.999 50.499l1 1c-12 15.333 -21.5 31.5 -28.5 48.5s-10.5 36.167 -10.5 57.5c0 24 4.5 46.5 13.5 67.5s21.333 39.333 37 55s33.834 28 54.501 37s43 13.5 67 13.5s45.5 -4 64.5 -12s35.5 -17.833 49.5 -29.5s25.833 -23.667 35.5 -36
s17.167 -22.833 22.5 -31.5c4.66699 -7.33301 7 -14.666 7 -21.999zM353.003 202.003c0 23.333 -10.668 45.9971 -32.001 67.9971c-3.33301 4 -10.666 11.5 -21.999 22.5l-37.5 35.5l-39.5 35.5c-12.667 11 -22 18.167 -28 21.5l-6 6l-1 -1
c-7.33301 -7.33301 -12.333 -15.166 -15 -23.499s-4 -17.166 -4 -26.499c0 -13.333 2.5 -25.166 7.5 -35.499s12.833 -21.166 23.5 -32.499c4 -3.33301 11.833 -10.5 23.5 -21.5l37.5 -35l39 -35.5c12.667 -11.333 22 -19 28 -23l6 -5l1 1
c7.33301 7.33301 12.333 15.166 15 23.499s4 16.833 4 25.5z" />
    <glyph glyph-name="dieresis" unicode="&#xa8;" 
d="M492 695c0 -19.333 -6.66699 -36 -20 -50s-30 -21 -50 -21s-37 6.66699 -51 20s-21 30 -21 50s7 37 21 51s31 21 51 21s36.667 -6.83301 50 -20.5s20 -30.5 20 -50.5zM266 695c0 -19.333 -7 -36 -21 -50s-31 -21 -51 -21s-36.833 6.66699 -50.5 20s-20.5 30 -20.5 50
s6.83301 37 20.5 51s30.5 21 50.5 21s37 -6.83301 51 -20.5s21 -30.5 21 -50.5z" />
    <glyph glyph-name="copyright" unicode="&#xa9;" horiz-adv-x="780" 
d="M723 333c0 -46 -8.83301 -89.167 -26.5 -129.5s-41.5 -75.666 -71.5 -105.999s-65.167 -54.166 -105.5 -71.499s-83.5 -26 -129.5 -26s-89.167 8.66699 -129.5 26s-75.666 41.166 -105.999 71.499s-54.166 65.666 -71.499 105.999s-26 83.5 -26 129.5
s8.66699 89.167 26 129.5s41.166 75.5 71.499 105.5s65.666 53.833 105.999 71.5s83.5 26.5 129.5 26.5s89.167 -8.83301 129.5 -26.5s75.5 -41.5 105.5 -71.5s53.833 -65.167 71.5 -105.5s26.5 -83.5 26.5 -129.5zM651 333c0 36 -6.83301 70 -20.5 102
s-32.167 59.833 -55.5 83.5s-51 42.334 -83 56.001s-66 20.5 -102 20.5s-70 -6.83301 -102 -20.5s-59.833 -32.334 -83.5 -56.001s-42.334 -51.5 -56.001 -83.5s-20.5 -66 -20.5 -102s6.83301 -70 20.5 -102s32.334 -59.833 56.001 -83.5s51.5 -42.334 83.5 -56.001
s66 -20.5 102 -20.5s70 6.83301 102 20.5s59.667 32.334 83 56.001s41.833 51.5 55.5 83.5s20.5 66 20.5 102zM507 222c0 -6 -2.33496 -12.335 -7.00195 -19.002c-11.333 -17.333 -26.333 -31 -45 -41s-40.334 -15 -65.001 -15c-26.667 0 -49 5.33301 -67 16
s-32.667 24.667 -44 42s-19.5 37 -24.5 59s-7.5 44.667 -7.5 68s2.5 46 7.5 68s13.167 41.5 24.5 58.5s26 30.833 44 41.5s40.333 16 67 16c24.667 0 45.834 -4.66699 63.501 -14s32.834 -22.666 45.501 -39.999c5.33301 -7.33301 8 -14.333 8 -21
c0 -9.33301 -3.66699 -17.333 -11 -24s-15.666 -10 -24.999 -10c-6.66699 0 -12.5 2.16699 -17.5 6.5l-15.5 14c-5.33301 5 -11.666 9.66699 -18.999 14s-17 6.5 -29 6.5c-23.333 0 -41.5 -9 -54.5 -27s-19.5 -47.667 -19.5 -89s6.5 -71.166 19.5 -89.499
s31.167 -27.5 54.5 -27.5c12.667 0 22.667 2.16699 30 6.5s13.666 9.33301 18.999 15s10.333 10.667 15 15s10.334 6.5 17.001 6.5c9.33301 0 17.666 -3.5 24.999 -10.5s11 -15.5 11 -25.5z" />
    <glyph glyph-name="ordfeminine" unicode="&#xaa;" horiz-adv-x="474" 
d="M405 393c0 -8.66699 -2.99707 -16.6709 -8.99707 -24.0039s-14.667 -11 -26 -11c-6 0 -13.833 1 -23.5 3s-18.5 6.66699 -26.5 14c-15.333 -9.33301 -32.166 -16.333 -50.499 -21s-36.5 -7 -54.5 -7c-16 0 -32.667 2 -50 6s-33.166 10.167 -47.499 18.5
s-26 19.5 -35 33.5s-13.5 31 -13.5 51s4.5 36.833 13.5 50.5s20.667 24.834 35 33.501s30.166 14.834 47.499 18.501s34 5.5 50 5.5c11.333 0 23.5 -0.833008 36.5 -2.5s26.167 -5.16699 39.5 -10.5v63c0 8.66699 -2.5 15.834 -7.5 21.501s-11.333 10.334 -19 14.001
s-15.834 6.16699 -24.501 7.5s-17 2 -25 2c-6 0 -12.667 -0.833008 -20 -2.5l-21 -5c-6.66699 -1.66699 -12.834 -3.33398 -18.501 -5.00098s-10.5 -2.5 -14.5 -2.5c-9.33301 0 -17.333 3.5 -24 10.5s-10 15.167 -10 24.5c0 10.667 4.16699 19.334 12.5 26.001
s18.333 11.834 30 15.501s23.667 6.16699 36 7.5s22.166 2 29.499 2c14.667 0 30.5 -1.66699 47.5 -5s32.833 -9.33301 47.5 -18s27 -20.5 37 -35.5s15 -34.167 15 -57.5v-174c0 -1.33301 0.333008 -3 1 -5c1.33301 -4 3.66602 -6 6.99902 -6c11.333 0 20 -3.83301 26 -11.5
s9 -15.834 9 -24.501zM291.003 455.996c0 6.66699 -2.33203 12.5 -6.99902 17.5s-10.834 9 -18.501 12s-16 5.16699 -25 6.5s-17.5 2 -25.5 2c-5.33301 0 -12.333 -0.5 -21 -1.5s-17 -3 -25 -6s-14.833 -6.83301 -20.5 -11.5s-8.5 -11 -8.5 -19s2.83301 -14.333 8.5 -19
s12.5 -8.5 20.5 -11.5s16.333 -5 25 -6s15.667 -1.5 21 -1.5c6 0 13.333 0.5 22 1.5s17 3 25 6s14.833 6.83301 20.5 11.5s8.5 11 8.5 19z" />
    <glyph glyph-name="guillemotleft" unicode="&#xab;" horiz-adv-x="684" 
d="M596 88c0 -11.333 -4.49805 -21.498 -13.498 -30.498s-19.167 -13.5 -30.5 -13.5s-21.333 4.33301 -30 13l-178 178c-8.66699 8.66699 -13 19 -13 31c0 11.333 4.33301 21.333 13 30l177 177c5.33301 5.33301 10.666 9 15.999 11s10.666 3 15.999 3
c11.333 0 21.333 -4.5 30 -13.5s13 -19.167 13 -30.5c0 -10.667 -4.33301 -20.334 -13 -29.001l-149 -148l149 -149c8.66699 -8.66699 13 -18.334 13 -29.001zM332.002 88.002c0 -11.333 -4.66699 -21.5 -14 -30.5s-19.666 -13.5 -30.999 -13.5
c-10.667 0 -20.334 4.33301 -29.001 13l-179 178c-8.66699 10.667 -13 21 -13 31c0 11.333 4.33301 21.333 13 30l178 177c9.33301 9.33301 19.333 14 30 14c11.333 0 21.5 -4.5 30.5 -13.5s13.5 -19.167 13.5 -30.5c0 -10 -4.66699 -19.667 -14 -29l-147 -148l148 -149
c9.33301 -9.33301 14 -19 14 -29z" />
    <glyph glyph-name="logicalnot" unicode="&#xac;" 
d="M524 41c0 -14 -4.33398 -24.666 -13.001 -31.999s-18.667 -11 -30 -11s-21.166 3.66699 -29.499 11s-12.5 17.666 -12.5 30.999v243h-327c-14.667 0 -25.667 4.16699 -33 12.5s-11 18.166 -11 29.499s3.66699 21.333 11 30s18 13 32 13h370
c12 0 22.167 -4.16699 30.5 -12.5s12.5 -18.166 12.5 -29.499v-285v0z" />
    <glyph glyph-name="registered" unicode="&#xae;" horiz-adv-x="780" 
d="M723 333c0 -46 -8.83301 -89.167 -26.5 -129.5s-41.5 -75.666 -71.5 -105.999s-65.167 -54.166 -105.5 -71.499s-83.5 -26 -129.5 -26s-89.167 8.66699 -129.5 26s-75.666 41.166 -105.999 71.499s-54.166 65.666 -71.499 105.999s-26 83.5 -26 129.5
s8.66699 89.167 26 129.5s41.166 75.5 71.499 105.5s65.666 53.833 105.999 71.5s83.5 26.5 129.5 26.5s89.167 -8.83301 129.5 -26.5s75.5 -41.5 105.5 -71.5s53.833 -65.167 71.5 -105.5s26.5 -83.5 26.5 -129.5zM651 333c0 36 -6.83301 70 -20.5 102
s-32.167 59.833 -55.5 83.5s-51 42.334 -83 56.001s-66 20.5 -102 20.5s-70 -6.83301 -102 -20.5s-59.833 -32.334 -83.5 -56.001s-42.334 -51.5 -56.001 -83.5s-20.5 -66 -20.5 -102s6.83301 -70 20.5 -102s32.334 -59.833 56.001 -83.5s51.5 -42.334 83.5 -56.001
s66 -20.5 102 -20.5s70 6.83301 102 20.5s59.667 32.334 83 56.001s41.833 51.5 55.5 83.5s20.5 66 20.5 102zM523 189c0 -9.33301 -3.66797 -17.332 -11.001 -23.999s-15.666 -10 -24.999 -10c-4.66699 0 -9.66699 1.16699 -15 3.5s-9.66602 6.16602 -12.999 11.499
l-87 126h-30v-106c0 -11.333 -3.5 -19.833 -10.5 -25.5s-14.833 -8.5 -23.5 -8.5s-16.5 2.66699 -23.5 8s-10.5 13.666 -10.5 24.999v276c0 12 4.16699 22.167 12.5 30.5s18.166 12.5 29.499 12.5h108c16 0 30.167 -3.33301 42.5 -10s22.5 -15.167 30.5 -25.5
s14.167 -21.833 18.5 -34.5s6.5 -24.667 6.5 -36c0 -23.333 -6.66699 -44.166 -20 -62.499s-30.333 -30.833 -51 -37.5l64 -92c5.33301 -7.33301 8 -14.333 8 -21zM453.999 402.001c0 11.333 -3.33398 20.334 -10.001 27.001s-14.667 10 -24 10h-78v-73h79
c8.66699 0 16.334 3.16699 23.001 9.5s10 15.166 10 26.499z" />
    <glyph glyph-name="macron" unicode="&#xaf;" 
d="M479 665c0 -11.333 -3.66699 -21.333 -11 -30s-17.666 -13 -30.999 -13h-257c-14 0 -24.667 4.33301 -32 13s-11 18.667 -11 30s3.66699 21.333 11 30s17.666 13 30.999 13h256c14.667 0 25.667 -4.33301 33 -13s11 -18.667 11 -30z" />
    <glyph glyph-name="degree" unicode="&#xb0;" horiz-adv-x="451" 
d="M383 611c0 -24 -4.16699 -46.667 -12.5 -68s-19.666 -40 -33.999 -56s-31 -28.667 -50 -38s-39.167 -14 -60.5 -14c-22 0 -42.5 4.66699 -61.5 14s-35.667 22 -50 38s-25.666 34.667 -33.999 56s-12.5 44 -12.5 68s4.16699 46.667 12.5 68s19.666 40 33.999 56
s31 28.667 50 38s39.5 14 61.5 14c21.333 0 41.5 -4.66699 60.5 -14s35.667 -22 50 -38s25.666 -34.667 33.999 -56s12.5 -44 12.5 -68zM298 611c0 14.667 -2.16699 27.5 -6.5 38.5s-10 20.333 -17 28s-14.833 13.5 -23.5 17.5s-17 6 -25 6s-16.167 -2 -24.5 -6
s-16 -9.83301 -23 -17.5s-12.833 -17 -17.5 -28s-7 -23.833 -7 -38.5s2.33301 -27.5 7 -38.5s10.5 -20.333 17.5 -28s14.667 -13.5 23 -17.5s16.5 -6 24.5 -6s16.333 2 25 6s16.5 9.83301 23.5 17.5s12.667 17 17 28s6.5 23.833 6.5 38.5z" />
    <glyph glyph-name="plusminus" unicode="&#xb1;" horiz-adv-x="507" 
d="M439 363c0 -11.333 -3.66699 -21.332 -11 -29.999s-17.666 -13 -30.999 -13h-101v-100c0 -13.333 -4.16699 -23.833 -12.5 -31.5s-18.166 -11.5 -29.499 -11.5c-10.667 0 -20.5 3.66699 -29.5 11s-13.5 18 -13.5 32v100h-100c-14 0 -24.667 4.33301 -32 13
s-11 18.667 -11 30c0 10.667 3.66699 20.5 11 29.5s18 13.5 32 13.5h100v99c0 14.667 4.16699 25.5 12.5 32.5s18.166 10.5 29.499 10.5s21.333 -3.33301 30 -10s13 -17.334 13 -32.001v-100h101c13.333 0 23.666 -4.5 30.999 -13.5s11 -18.833 11 -29.5zM439 42.001
c0 -10.667 -3.66699 -20.334 -11 -29.001s-17.666 -13 -30.999 -13h-286c-14 -0 -24.667 4.33301 -32 13s-11 18.334 -11 29.001c0 11.333 3.66699 21.333 11 30s18 13 32 13h286c13.333 0 23.666 -4.33301 30.999 -13s11 -18.667 11 -30z" />
    <glyph glyph-name="twosuperior" unicode="&#xb2;" horiz-adv-x="329" 
d="M270 396c0 -11.333 -3.66602 -21.334 -10.999 -30.001s-18 -13 -32 -13h-124c-12.667 0 -23.5 3.83301 -32.5 11.5s-13.5 18.167 -13.5 31.5c0 5.33301 1.16699 10.333 3.5 15s4.16602 8.66699 5.49902 12l103 188c1.33301 1.33301 3 4.5 5 9.5s3 9.83301 3 14.5
c0 6 -3.66699 9 -11 9c-4 0 -7.33301 -2 -10 -6l-9 -14c-3.33301 -4.66699 -7.5 -9.16699 -12.5 -13.5s-12.167 -6.5 -21.5 -6.5c-11.333 0 -21.833 3.83301 -31.5 11.5s-14.5 17.167 -14.5 28.5c0 8.66699 3 18 9 28s13.667 19.333 23 28s19.833 15.834 31.5 21.501
s23.5 8.5 35.5 8.5c15.333 0 28.833 -2.66699 40.5 -8s21.5 -12.5 29.5 -21.5s14 -19.5 18 -31.5s6 -24.333 6 -37c0 -21.333 -5.33301 -42 -16 -62l-72 -131h55c14 0 24.667 -4.33301 32 -13s11 -18.667 11 -30z" />
    <glyph glyph-name="threesuperior" unicode="&#xb3;" horiz-adv-x="340" 
d="M271 467c0 -12.667 -2.33496 -25.8359 -7.00195 -39.5029s-11.5 -26 -20.5 -37s-20 -20.167 -33 -27.5s-28.167 -11 -45.5 -11c-10.667 0 -22.334 2.16699 -35.001 6.5s-24.5 10.333 -35.5 18s-20.167 16.667 -27.5 27s-11 21.5 -11 33.5s4.66699 22.167 14 30.5
s19.333 12.5 30 12.5c8.66699 0 15.667 -2.16699 21 -6.5s10 -9.16602 14 -14.499s8.16699 -10.166 12.5 -14.499s10.166 -6.5 17.499 -6.5c4 0 8.66699 2.5 14 7.5s8 12.167 8 21.5c0 13.333 -3.5 24 -10.5 32s-13.833 12.667 -20.5 14
c-13.333 3.33301 -23.166 8.66602 -29.499 15.999s-9.5 15.666 -9.5 24.999c0 13.333 3.66699 22.5 11 27.5s15.333 8.83301 24 11.5s16.667 5.33398 24 8.00098s11 8 11 16c0 9.33301 -2.66699 16.5 -8 21.5s-10 7.5 -14 7.5c-7.33301 0 -13.166 -2.16699 -17.499 -6.5
s-8.5 -9.16602 -12.5 -14.499s-8.5 -10.166 -13.5 -14.499s-12.167 -6.5 -21.5 -6.5c-10.667 0 -20.667 4.33301 -30 13s-14 19 -14 31s3.66699 23 11 33s16.5 18.833 27.5 26.5s22.833 13.667 35.5 18s24.334 6.5 35.001 6.5c16.667 0 31 -3.16699 43 -9.5
s21.833 -14.666 29.5 -24.999s13.334 -21.833 17.001 -34.5s5.5 -25.334 5.5 -38.001c0 -26.667 -7.33301 -49.667 -22 -69c22 -22 33 -51.667 33 -89z" />
    <glyph glyph-name="acute" unicode="&#xb4;" 
d="M414 766c0 -16.667 -6.66699 -29.667 -20 -39l-122 -93c-8.66699 -6.66699 -18 -10 -28 -10c-12 0 -22.167 4.16699 -30.5 12.5s-12.5 18.166 -12.5 29.499s4.66699 22 14 32l108 110c9.33301 10 21 15 35 15c15.333 0 28.5 -5.66699 39.5 -17s16.5 -24.666 16.5 -39.999
z" />
    <glyph glyph-name="mu" unicode="&#xb5;" horiz-adv-x="641" 
d="M618 43c0 -12 -4.16504 -22.168 -12.498 -30.501s-18.5 -12.5 -30.5 -12.5c-20 0 -37.833 5 -53.5 15s-28.5 23 -38.5 39c-5.33301 -6.66699 -13 -14 -23 -22s-22 -15.667 -36 -23s-29.833 -13.5 -47.5 -18.5s-36.834 -7.5 -57.501 -7.5c-28 0 -54 4.66699 -78 14
s-45.333 22.333 -64 39v-202c0 -14.667 -4.5 -25.667 -13.5 -33s-19.167 -11 -30.5 -11c-10.667 0 -20.334 3.66699 -29.001 11s-13 17.666 -13 30.999v655c0 14 4.33301 24.667 13 32s18.334 11 29.001 11c11.333 0 21.5 -3.66699 30.5 -11s13.5 -17.666 13.5 -30.999v-277
c0 -19.333 3.83301 -37.666 11.5 -54.999s18 -32.5 31 -45.5s28 -23.333 45 -31s35.167 -11.5 54.5 -11.5s37.666 3.83301 54.999 11.5s32.5 18 45.5 31s23.333 28.167 31 45.5s11.5 35.666 11.5 54.999v276c0 15.333 4.16699 26.5 12.5 33.5s18.166 10.5 29.499 10.5
s21.333 -3.66699 30 -11s13 -18 13 -32v-361c0 -2 0.166992 -5.16699 0.5 -9.5s1.5 -9 3.5 -14s4.83301 -9.33301 8.5 -13s8.83398 -5.5 15.501 -5.5c12 0 22.167 -4.16699 30.5 -12.5s12.5 -18.166 12.5 -29.499z" />
    <glyph glyph-name="paragraph" unicode="&#xb6;" horiz-adv-x="690" 
d="M599 -166c0 -14.667 -4.5 -25.666 -13.5 -32.999s-19.167 -11 -30.5 -11c-10.667 0 -20.334 3.66699 -29.001 11s-13 17.666 -13 30.999v837c0 14.667 4.33301 25.5 13 32.5s18.334 10.5 29.001 10.5c11.333 0 21.5 -3.5 30.5 -10.5s13.5 -17.5 13.5 -31.5v-836v0z
M456 -165.999c0 -14.667 -4.33203 -25.666 -12.999 -32.999s-18.667 -11 -30 -11s-21.333 3.66699 -30 11s-13 17.666 -13 30.999v476h-100c-28 0 -54.333 5.33301 -79 16s-46 25.167 -64 43.5s-32.333 39.833 -43 64.5s-16 51 -16 79s5.33301 54.167 16 78.5
s25.167 45.5 43.5 63.5s39.833 32.333 64.5 43s51 16 79 16h143c11.333 0 21.166 -4.33301 29.499 -13s12.5 -18.667 12.5 -30v-835v0zM370.001 627.002l-100 -0.00195312c-16 0 -31 -3 -45 -9s-26.333 -14.333 -37 -25s-19 -23.167 -25 -37.5s-9 -29.5 -9 -45.5
s3 -31.167 9 -45.5s14.333 -26.666 25 -36.999s23.167 -18.666 37.5 -24.999s29.5 -9.5 45.5 -9.5h99v234z" />
    <glyph glyph-name="periodcentered" unicode="&#xb7;" horiz-adv-x="277" 
d="M209 361c0 -20 -7 -36.833 -21 -50.5s-31 -20.5 -51 -20.5s-37 6.66699 -51 20s-21 30 -21 50s7 37 21 51s31 21 51 21s37 -6.83301 51 -20.5s21 -30.5 21 -50.5z" />
    <glyph glyph-name="cedilla" unicode="&#xb8;" 
d="M447 -136c0 -16 -3.00098 -30.8291 -9.00098 -44.4961s-14.167 -25.834 -24.5 -36.501s-22.5 -19 -36.5 -25s-29 -9 -45 -9c-10 0 -20.5 1.66699 -31.5 5s-21.167 7.83301 -30.5 13.5s-17 12.334 -23 20.001s-9 16.167 -9 25.5c0 11.333 4.5 21.333 13.5 30
s19.167 13 30.5 13c9.33301 0 17.833 -3.5 25.5 -10.5s15.834 -10.5 24.501 -10.5s15.667 2.66699 21 8s8 12.333 8 21c0 11.333 -3.66699 18.666 -11 21.999s-15.5 6.16602 -24.5 8.49902s-17.167 6 -24.5 11s-11 15.167 -11 30.5v75c0 14.667 4.16699 25.667 12.5 33
s18.166 11 29.499 11s21.333 -3.66699 30 -11s13 -18.333 13 -33v-41c20.667 -8.66699 37.834 -22.334 51.501 -41.001s20.5 -40.334 20.5 -65.001z" />
    <glyph glyph-name="onesuperior" unicode="&#xb9;" horiz-adv-x="291" 
d="M197 397c0 -14.667 -4.16797 -25.6689 -12.501 -33.002s-18.166 -11 -29.499 -11s-21.166 3.66699 -29.499 11s-12.5 18 -12.5 32v231h-18c-14.667 0 -25.5 4.33301 -32.5 13s-10.5 18.334 -10.5 29.001c0 11.333 3.5 21.333 10.5 30s17.833 13 32.5 13h60
c11.333 0 21.166 -4.16699 29.499 -12.5s12.5 -18.166 12.5 -29.499v-273v0z" />
    <glyph glyph-name="ordmasculine" unicode="&#xba;" horiz-adv-x="470" 
d="M401 539c0 -24.667 -3.66699 -48.5 -11 -71.5s-18 -43.167 -32 -60.5s-31.167 -31.166 -51.5 -41.499s-43.833 -15.5 -70.5 -15.5s-50.334 5.16699 -71.001 15.5s-38.167 24.166 -52.5 41.499s-25.166 37.5 -32.499 60.5s-11 46.833 -11 71.5
c0 25.333 3.66699 49.5 11 72.5s18.166 43.333 32.499 61s31.833 31.667 52.5 42s44.334 15.5 71.001 15.5s50.167 -5.16699 70.5 -15.5s37.5 -24.333 51.5 -42s24.667 -38 32 -61s11 -47.167 11 -72.5zM332 539c0 38.667 -9 68.5 -27 89.5s-41 31.5 -69 31.5
s-51.167 -10.5 -69.5 -31.5s-27.5 -50.833 -27.5 -89.5c0 -37.333 9.16699 -66.5 27.5 -87.5s41.5 -31.5 69.5 -31.5s51 10.5 69 31.5s27 50.167 27 87.5z" />
    <glyph glyph-name="guillemotright" unicode="&#xbb;" horiz-adv-x="684" 
d="M596 266c0 -12 -4.33203 -22.333 -12.999 -31l-178 -177c-9.33301 -9.33301 -19.333 -14 -30 -14c-11.333 0 -21.333 4.5 -30 13.5s-13 19.167 -13 30.5s4 21 12 29l148 149l-148 148c-8 8 -12 17.667 -12 29c0 12 4.33301 22.5 13 31.5s18.667 13.5 30 13.5
s21.666 -4.66699 30.999 -14l177 -178c8.66699 -8.66699 13 -18.667 13 -30zM331.001 266c0 -12 -4.33398 -22.333 -13.001 -31l-178 -177c-9.33301 -9.33301 -19.666 -14 -30.999 -14s-21.333 4.5 -30 13.5s-13 19.167 -13 30.5c0 10 4.66699 19.667 14 29l147 149
l-147 148c-8.66699 8.66699 -13 18.334 -13 29.001c0 11.333 4.5 21.666 13.5 30.999s19.167 14 30.5 14c10 0 19.667 -4.66699 29 -14l178 -178c8.66699 -8.66699 13 -18.667 13 -30z" />
    <glyph glyph-name="onequarter" unicode="&#xbc;" horiz-adv-x="705" 
d="M670 95c0 -10 -2.99902 -19.333 -8.99902 -28s-15.667 -13.667 -29 -15v-10c0 -14 -4.5 -24.667 -13.5 -32s-19.167 -11 -30.5 -11c-10.667 0 -20.334 3.66699 -29.001 11s-13 18 -13 32v9h-114c-14 0 -25.833 3.5 -35.5 10.5s-14.5 17.5 -14.5 31.5
c0 5.33301 1 10.333 3 15s3.66699 8.33398 5 11.001l108 234c4 9.33301 9.66699 16.166 17 20.499s14.666 6.5 21.999 6.5c11.333 0 21.333 -3.83301 30 -11.5s13 -17.5 13 -29.5c0 -8 -1.33301 -15 -4 -21l-84 -181h54v36c0 14.667 4.33301 25.667 13 33
s18.334 11 29.001 11c11.333 0 21.5 -3.66699 30.5 -11s13.5 -18.333 13.5 -33v-36c13.333 -0.666992 23 -5.5 29 -14.5s9 -18.167 9 -27.5zM458.001 689c0 -4 -0.668945 -8.66602 -2.00195 -13.999l-182 -661c-3.33301 -11.333 -8.5 -19.5 -15.5 -24.5
s-15.167 -7.5 -24.5 -7.5c-11.333 0 -21.666 3.66699 -30.999 11s-14 17.666 -14 30.999c0 4 1 8 3 12l182 662c3.33301 11.333 8.83301 19.666 16.5 24.999s15.834 8 24.501 8c11.333 0 21.333 -3.66699 30 -11s13 -17.666 13 -30.999zM196.999 397.001
c0 -14.667 -4.16797 -25.6689 -12.501 -33.002s-18.166 -11 -29.499 -11s-21.166 3.66699 -29.499 11s-12.5 18 -12.5 32v231h-18c-14.667 0 -25.5 4.33301 -32.5 13s-10.5 18.334 -10.5 29.001c0 11.333 3.5 21.333 10.5 30s17.833 13 32.5 13h60
c11.333 0 21.166 -4.16699 29.499 -12.5s12.5 -18.166 12.5 -29.499v-273v0z" />
    <glyph glyph-name="onehalf" unicode="&#xbd;" horiz-adv-x="701" 
d="M458 689c0 -4 -0.668945 -8.66602 -2.00195 -13.999l-182 -661c-3.33301 -11.333 -8.5 -19.5 -15.5 -24.5s-15.167 -7.5 -24.5 -7.5c-11.333 0 -21.666 3.66699 -30.999 11s-14 17.666 -14 30.999c0 4 1 8 3 12l182 662c3.33301 11.333 8.83301 19.666 16.5 24.999
s15.834 8 24.501 8c11.333 0 21.333 -3.66699 30 -11s13 -17.666 13 -30.999zM642.998 42.001c0 -10.667 -3.66797 -20.332 -11.001 -28.999s-18 -13 -32 -13h-125c-12.667 0 -23.334 3.66699 -32.001 11s-13 17.666 -13 30.999c0 5.33301 1 10.5 3 15.5s4 9.16699 6 12.5
l103 188c1.33301 1.33301 2.83301 4.33301 4.5 9s2.5 9.66699 2.5 15c0 6 -3.33301 9 -10 9c-4 0 -7.33301 -2 -10 -6l-9 -14c-3.33301 -4.66699 -7.5 -9.16699 -12.5 -13.5s-12.167 -6.5 -21.5 -6.5c-11.333 0 -21.833 3.83301 -31.5 11.5s-14.5 17.167 -14.5 28.5
c0 8.66699 2.83301 18 8.5 28s13.334 19.167 23.001 27.5s20.334 15.333 32.001 21s23.5 8.5 35.5 8.5c15.333 0 28.833 -2.66699 40.5 -8s21.5 -12.5 29.5 -21.5s14 -19.5 18 -31.5s6 -24.333 6 -37c0 -20.667 -5.33301 -41 -16 -61l-72 -132h55
c14 0 24.667 -4.33301 32 -13s11 -18.667 11 -30zM196.997 397.003c0 -14.667 -4.16797 -25.6689 -12.501 -33.002s-18.166 -11 -29.499 -11s-21.166 3.66699 -29.499 11s-12.5 18 -12.5 32v231h-18c-14.667 0 -25.5 4.33301 -32.5 13s-10.5 18.334 -10.5 29.001
c0 11.333 3.5 21.333 10.5 30s17.833 13 32.5 13h60c11.333 0 21.166 -4.16699 29.499 -12.5s12.5 -18.166 12.5 -29.499v-273v0z" />
    <glyph glyph-name="threequarters" unicode="&#xbe;" horiz-adv-x="754" 
d="M714 95c0 -10 -3.16797 -19.332 -9.50098 -27.999s-16.166 -13.667 -29.499 -15v-10c0 -14 -4.33301 -24.667 -13 -32s-18.667 -11 -30 -11s-21.333 3.66699 -30 11s-13 18 -13 32v9h-114c-14 0 -25.833 3.5 -35.5 10.5s-14.5 17.5 -14.5 31.5c0 3.33301 1.33301 7 4 11
s4 8.33301 4 13v2l109 234c3.33301 9.33301 8.83301 16.166 16.5 20.499s14.834 6.5 21.501 6.5c11.333 0 21.5 -3.83301 30.5 -11.5s13.5 -17.5 13.5 -29.5c0 -6 -1.66699 -13 -5 -21l-83 -181h53v36c0 14.667 4.33301 25.667 13 33s18.667 11 30 11
s21.333 -3.66699 30 -11s13 -18.333 13 -33v-36c13.333 -0.666992 23.166 -5.5 29.499 -14.5s9.5 -18.167 9.5 -27.5zM502.999 689.001c0 -5.33301 -1.00098 -9.99902 -3.00098 -13.999l-182 -661c-3.33301 -11.333 -8.5 -19.5 -15.5 -24.5s-15.167 -7.5 -24.5 -7.5
c-10.667 0 -20.667 3.66699 -30 11s-14 17.666 -14 30.999c0 2.66699 0.666992 6.66699 2 12l182 662c3.33301 11.333 8.83301 19.666 16.5 24.999s15.834 8 24.501 8c11.333 0 21.5 -3.66699 30.5 -11s13.5 -17.666 13.5 -30.999zM270.998 467.002
c0 -12.667 -2.33496 -25.8359 -7.00195 -39.5029s-11.5 -26 -20.5 -37s-20 -20.167 -33 -27.5s-28.167 -11 -45.5 -11c-10.667 0 -22.334 2.16699 -35.001 6.5s-24.5 10.333 -35.5 18s-20.167 16.667 -27.5 27s-11 21.5 -11 33.5s4.66699 22.167 14 30.5
s19.333 12.5 30 12.5c8.66699 0 15.667 -2.16699 21 -6.5s10 -9.16602 14 -14.499s8.16699 -10.166 12.5 -14.499s10.166 -6.5 17.499 -6.5c4 0 8.66699 2.5 14 7.5s8 12.167 8 21.5c0 13.333 -3.5 24 -10.5 32s-13.833 12.667 -20.5 14
c-13.333 3.33301 -23.166 8.66602 -29.499 15.999s-9.5 15.666 -9.5 24.999c0 13.333 3.66699 22.5 11 27.5s15.333 8.83301 24 11.5s16.667 5.33398 24 8.00098s11 8 11 16c0 9.33301 -2.66699 16.5 -8 21.5s-10 7.5 -14 7.5c-7.33301 0 -13.166 -2.16699 -17.499 -6.5
s-8.5 -9.16602 -12.5 -14.499s-8.5 -10.166 -13.5 -14.499s-12.167 -6.5 -21.5 -6.5c-10.667 0 -20.667 4.33301 -30 13s-14 19 -14 31s3.66699 23 11 33s16.5 18.833 27.5 26.5s22.833 13.667 35.5 18s24.334 6.5 35.001 6.5c16.667 0 31 -3.16699 43 -9.5
s21.833 -14.666 29.5 -24.999s13.334 -21.833 17.001 -34.5s5.5 -25.334 5.5 -38.001c0 -26.667 -7.33301 -49.667 -22 -69c22 -22 33 -51.667 33 -89z" />
    <glyph glyph-name="questiondown" unicode="&#xbf;" horiz-adv-x="531" 
d="M55 214c0 25.333 4.33301 49.666 13 72.999s20.667 44.333 36 63s33.5 34.334 54.5 47.001s43.5 21.334 67.5 26.001v64c0 14.667 4.33301 25.334 13 32.001s18.667 10 30 10s21.333 -3.33301 30 -10s13 -17.334 13 -32.001v-101c0 -14 -4.33301 -24.833 -13 -32.5
s-19 -11.5 -31 -11.5c-17.333 0 -33.666 -3.33301 -48.999 -10s-28.833 -15.834 -40.5 -27.501s-20.834 -25.167 -27.501 -40.5s-10 -31.666 -10 -48.999c0 -18 3.33301 -34.833 10 -50.5s15.834 -29.334 27.501 -41.001s25.167 -20.834 40.5 -27.501s31.666 -10 48.999 -10
c13.333 0 26 2.5 38 7.5s23 11.333 33 19s18.667 16 26 25s13.333 17.5 18 25.5c4 7.33301 9.16699 12.666 15.5 15.999s12.833 5 19.5 5c11.333 0 21.666 -4.16699 30.999 -12.5s14 -18.5 14 -30.5c0 -6 -4.16699 -16.667 -12.5 -32s-20.833 -31.166 -37.5 -47.499
s-37.167 -30.666 -61.5 -42.999s-52.166 -18.5 -83.499 -18.5c-29.333 0 -57 5.5 -83 16.5s-48.667 26.167 -68 45.5s-34.5 42 -45.5 68s-16.5 54 -16.5 84zM195 658c0 20 6.83301 37 20.5 51s30.5 21 50.5 21s37 -6.83301 51 -20.5s21 -30.5 21 -50.5s-7 -37 -21 -51
s-31 -21 -51 -21s-36.833 6.83301 -50.5 20.5s-20.5 30.5 -20.5 50.5z" />
    <glyph glyph-name="Agrave" unicode="&#xc0;" horiz-adv-x="671" 
d="M638 42c0 -12.667 -4.50195 -22.834 -13.502 -30.501s-19.167 -11.5 -30.5 -11.5c-7.33301 0 -14.5 2 -21.5 6s-12.5 10.667 -16.5 20l-53 130h-333l-54 -130c-4 -9.33301 -9.33301 -16 -16 -20s-13.667 -6 -21 -6c-11.333 0 -21.666 3.83301 -30.999 11.5
s-14 17.834 -14 30.501c0 6.66699 1.33301 12.334 4 17.001l257 625c6 13.333 12.667 21.833 20 25.5s14.333 5.5 21 5.5c4.66699 0 11.334 -1.83301 20.001 -5.5s15.667 -12.167 21 -25.5l258 -625c2 -4.66699 3 -10.334 3 -17.001zM335.998 560l-131 -318h262z
M441.998 895c0 -11.333 -4.16797 -21.333 -12.501 -30s-18.166 -13 -29.499 -13c-10.667 0 -20.667 3.66699 -30 11l-122 92c-6.66699 4.66699 -11.5 10.667 -14.5 18s-4.5 14.666 -4.5 21.999c0 15.333 5.66699 28.5 17 39.5s24.333 16.5 39 16.5c6 0 12 -1.16699 18 -3.5
s11.667 -6.16602 17 -11.499l107 -109c10 -10 15 -20.667 15 -32z" />
    <glyph glyph-name="Aacute" unicode="&#xc1;" horiz-adv-x="671" 
d="M638 42c0 -12.667 -4.50195 -22.834 -13.502 -30.501s-19.167 -11.5 -30.5 -11.5c-7.33301 0 -14.5 2 -21.5 6s-12.5 10.667 -16.5 20l-53 130h-333l-54 -130c-4 -9.33301 -9.33301 -16 -16 -20s-13.667 -6 -21 -6c-11.333 0 -21.666 3.83301 -30.999 11.5
s-14 17.834 -14 30.501c0 6.66699 1.33301 12.334 4 17.001l257 625c6 13.333 12.667 21.833 20 25.5s14.333 5.5 21 5.5c4.66699 0 11.334 -1.83301 20.001 -5.5s15.667 -12.167 21 -25.5l258 -625c2 -4.66699 3 -10.334 3 -17.001zM335.998 560l-131 -318h262z
M441.998 994c0 -16.667 -6.66699 -29.667 -20 -39l-122 -93c-8.66699 -6.66699 -18 -10 -28 -10c-12 0 -22.167 4.16699 -30.5 12.5s-12.5 18.166 -12.5 29.499s4.66699 22 14 32l108 110c9.33301 10 21 15 35 15c15.333 0 28.5 -5.66699 39.5 -17
s16.5 -24.666 16.5 -39.999z" />
    <glyph glyph-name="Acircumflex" unicode="&#xc2;" horiz-adv-x="671" 
d="M638 42c0 -12.667 -4.50195 -22.834 -13.502 -30.501s-19.167 -11.5 -30.5 -11.5c-7.33301 0 -14.5 2 -21.5 6s-12.5 10.667 -16.5 20l-53 130h-333l-54 -130c-4 -9.33301 -9.33301 -16 -16 -20s-13.667 -6 -21 -6c-11.333 0 -21.666 3.83301 -30.999 11.5
s-14 17.834 -14 30.501c0 6.66699 1.33301 12.334 4 17.001l257 625c6 13.333 12.667 21.833 20 25.5s14.333 5.5 21 5.5c4.66699 0 11.334 -1.83301 20.001 -5.5s15.667 -12.167 21 -25.5l258 -625c2 -4.66699 3 -10.334 3 -17.001zM335.998 560l-131 -318h262z
M512.998 895c0 -11.333 -3.83203 -21.333 -11.499 -30s-18.167 -13 -31.5 -13c-3.33301 0 -6.83301 0.333008 -10.5 1s-7.5 2 -11.5 4l-113 60l-113 -60c-6.66699 -3.33301 -14.334 -5 -23.001 -5c-12 0 -22 4.33301 -30 13s-12 18.667 -12 30c0 6 1.83301 12.333 5.5 19
s9.16699 12.334 16.5 17.001l130 78l12.5 6c4.33301 2 8.83301 3 13.5 3s9.16699 -1 13.5 -3l12.5 -6l130 -78c8 -4.66699 13.667 -10.334 17 -17.001s5 -13 5 -19z" />
    <glyph glyph-name="Atilde" unicode="&#xc3;" horiz-adv-x="671" 
d="M638 42c0 -12.667 -4.50195 -22.834 -13.502 -30.501s-19.167 -11.5 -30.5 -11.5c-7.33301 0 -14.5 2 -21.5 6s-12.5 10.667 -16.5 20l-53 130h-333l-54 -130c-4 -9.33301 -9.33301 -16 -16 -20s-13.667 -6 -21 -6c-11.333 0 -21.666 3.83301 -30.999 11.5
s-14 17.834 -14 30.501c0 6.66699 1.33301 12.334 4 17.001l257 625c6 13.333 12.667 21.833 20 25.5s14.333 5.5 21 5.5c4.66699 0 11.334 -1.83301 20.001 -5.5s15.667 -12.167 21 -25.5l258 -625c2 -4.66699 3 -10.334 3 -17.001zM335.998 560l-131 -318h262z
M534.998 930c0 -10 -5.00195 -19.668 -15.002 -29.001c-18.667 -19.333 -35.834 -32.666 -51.501 -39.999s-30.5 -11 -44.5 -11c-16.667 0 -32.667 3.83301 -48 11.5s-29.833 16 -43.5 25s-27 17.167 -40 24.5s-25.833 11 -38.5 11c-7.33301 0 -14.833 -1.5 -22.5 -4.5
s-15.167 -8.5 -22.5 -16.5c-8 -8.66699 -17.667 -13 -29 -13s-21.666 4.5 -30.999 13.5s-14 19.5 -14 31.5c0 10 4.33301 19.333 13 28c18 18 35.833 30.833 53.5 38.5s34.167 11.5 49.5 11.5c20 0 38.333 -3.83301 55 -11.5s32.167 -16.167 46.5 -25.5l39 -25.5
c11.667 -7.66699 21.834 -11.5 30.501 -11.5c4 0 8.5 2 13.5 6s10.5 8.16699 16.5 12.5s12.333 8.5 19 12.5s13.334 6 20.001 6c12 0 22.333 -4.5 31 -13.5s13 -19.167 13 -30.5z" />
    <glyph glyph-name="Adieresis" unicode="&#xc4;" horiz-adv-x="671" 
d="M638 42c0 -12.667 -4.50195 -22.834 -13.502 -30.501s-19.167 -11.5 -30.5 -11.5c-7.33301 0 -14.5 2 -21.5 6s-12.5 10.667 -16.5 20l-53 130h-333l-54 -130c-4 -9.33301 -9.33301 -16 -16 -20s-13.667 -6 -21 -6c-11.333 0 -21.666 3.83301 -30.999 11.5
s-14 17.834 -14 30.501c0 6.66699 1.33301 12.334 4 17.001l257 625c6 13.333 12.667 21.833 20 25.5s14.333 5.5 21 5.5c4.66699 0 11.334 -1.83301 20.001 -5.5s15.667 -12.167 21 -25.5l258 -625c2 -4.66699 3 -10.334 3 -17.001zM335.998 560l-131 -318h262z
M518.998 923c0 -19.333 -6.66699 -36 -20 -50s-30 -21 -50 -21s-37 6.66699 -51 20s-21 30 -21 50s7 37 21 51s31 21 51 21s36.667 -6.83301 50 -20.5s20 -30.5 20 -50.5zM292.998 923c0 -19.333 -7 -36 -21 -50s-31 -21 -51 -21s-36.833 6.66699 -50.5 20
s-20.5 30 -20.5 50s6.83301 37 20.5 51s30.5 21 50.5 21s37 -6.83301 51 -20.5s21 -30.5 21 -50.5z" />
    <glyph glyph-name="Aring" unicode="&#xc5;" horiz-adv-x="671" 
d="M464 774c0 -25.333 -7.16992 -48.667 -21.5029 -70s-32.5 -37 -54.5 -47l247 -598c2 -4.66699 3 -10.334 3 -17.001c0 -12.667 -4.5 -22.834 -13.5 -30.501s-19.167 -11.5 -30.5 -11.5c-7.33301 0 -14.5 2 -21.5 6s-12.5 10.667 -16.5 20l-53 130h-333l-54 -130
c-4 -9.33301 -9.33301 -16 -16 -20s-13.667 -6 -21 -6c-11.333 0 -21.666 3.83301 -30.999 11.5s-14 17.834 -14 30.501c0 6.66699 1.33301 12.334 4 17.001l245 597c-22.667 10 -41.167 25.667 -55.5 47s-21.5 45 -21.5 71c0 17.333 3.5 33.666 10.5 48.999
s16.333 28.833 28 40.5s25.334 21 41.001 28s32.167 10.5 49.5 10.5s33.833 -3.5 49.5 -10.5s29.334 -16.333 41.001 -28s21 -25.167 28 -40.5s10.5 -31.666 10.5 -48.999zM335.997 559.999l-131 -318h262zM392.997 773.999c0 16 -5.66699 29.667 -17 41s-25 17 -41 17
s-29.667 -5.66699 -41 -17s-17 -25 -17 -41c0 -15.333 5.33301 -29 16 -41s24.667 -18 42 -18c16.667 0 30.5 5.83301 41.5 17.5s16.5 25.5 16.5 41.5z" />
    <glyph glyph-name="AE" unicode="&#xc6;" horiz-adv-x="816" 
d="M782 43c0 -10.667 -3.66895 -20.501 -11.002 -29.501s-18 -13.5 -32 -13.5h-284c-11.333 0 -21.333 4.16699 -30 12.5s-13 18.166 -13 29.499v114h-225l-73 -133c-4.66699 -8 -10.167 -13.833 -16.5 -17.5s-12.833 -5.5 -19.5 -5.5c-11.333 0 -21.666 4 -30.999 12
s-14 18 -14 30c0 7.33301 2 14.333 6 21l339 627c6 10 12.333 16.167 19 18.5s12.334 3.5 17.001 3.5h325c13.333 0 23.833 -4.16699 31.5 -12.5s11.5 -18.5 11.5 -30.5c0 -9.33301 -3.66699 -18.666 -11 -27.999s-18 -14 -32 -14h-242v-202h131
c13.333 0 23.666 -4.33301 30.999 -13s11 -18.667 11 -30s-3.66699 -21.333 -11 -30s-17.666 -13 -30.999 -13h-131v-254h242c13.333 0 23.833 -4.16699 31.5 -12.5s11.5 -18.166 11.5 -29.499zM411.998 571.999l-179 -330h179v330z" />
    <glyph glyph-name="Ccedilla" unicode="&#xc7;" horiz-adv-x="651" 
d="M481 -136c0 -16 -3.00195 -30.8301 -9.00195 -44.4971s-14.167 -25.834 -24.5 -36.501s-22.5 -19 -36.5 -25s-29 -9 -45 -9c-10 0 -20.5 1.66699 -31.5 5s-21.167 7.83301 -30.5 13.5s-17 12.334 -23 20.001s-9 16.167 -9 25.5c0 11.333 4.5 21.333 13.5 30
s19.167 13 30.5 13c9.33301 0 17.833 -3.5 25.5 -10.5s15.834 -10.5 24.501 -10.5s15.667 2.66699 21 8s8 12.333 8 21c0 11.333 -3.66699 18.666 -11 21.999s-15.5 6.16602 -24.5 8.49902s-17.167 6 -24.5 11s-11 15.167 -11 30.5v50c-46 5.33301 -84.833 19 -116.5 41
s-57.5 49.833 -77.5 83.5s-34.333 71.667 -43 114s-13 86.166 -13 131.499c0 49.333 5 96.5 15 141.5s26.5 84.667 49.5 119s53 61.833 90 82.5s82.5 31 136.5 31c50.667 0 94.5 -9.5 131.5 -28.5s67.167 -45.833 90.5 -80.5c6 -8 9 -16.333 9 -25c0 -12 -4.5 -22 -13.5 -30
s-19.167 -12 -30.5 -12c-13.333 0 -24.666 6 -33.999 18c-15.333 22.667 -35.166 40.334 -59.499 53.001s-55.5 19 -93.5 19c-71.333 0 -123.333 -25 -156 -75s-49 -121 -49 -213s16.333 -163 49 -213s84.667 -75 156 -75c38 0 69.167 6.66699 93.5 20s44.166 31 59.499 53
c8.66699 12.667 20 19 34 19c11.333 0 21.666 -4.16699 30.999 -12.5s14 -18.5 14 -30.5c0 -7.33301 -3 -15.666 -9 -24.999c-21.333 -29.333 -46.5 -53 -75.5 -71s-63.5 -29.667 -103.5 -35v-16c20.667 -8.66699 37.834 -22.334 51.501 -41.001s20.5 -40.334 20.5 -65.001z
" />
    <glyph glyph-name="Egrave" unicode="&#xc8;" horiz-adv-x="661" 
d="M593 42c0 -11.333 -3.66699 -21.167 -11 -29.5s-17.666 -12.5 -30.999 -12.5h-416c-12 0 -22.333 4.16699 -31 12.5s-13 18.166 -13 29.499v627c0 12 4.33301 22.167 13 30.5s19 12.5 31 12.5h416c13.333 0 23.666 -4.16699 30.999 -12.5s11 -18.166 11 -29.499
c0 -10.667 -3.66699 -20.5 -11 -29.5s-17.666 -13.5 -30.999 -13.5h-374v-202h262c12.667 0 23 -4.33301 31 -13s12 -18.667 12 -30s-3.83301 -21.333 -11.5 -30s-18.167 -13 -31.5 -13h-262v-254h374c13.333 0 23.666 -4.33301 30.999 -13s11 -18.667 11 -30zM437 894.999
c0 -11.333 -4.16797 -21.333 -12.501 -30s-18.166 -13 -29.499 -13c-10.667 0 -20.667 3.66699 -30 11l-122 92c-6.66699 4.66699 -11.5 10.667 -14.5 18s-4.5 14.666 -4.5 21.999c0 15.333 5.66699 28.5 17 39.5s24.333 16.5 39 16.5c6 0 12 -1.16699 18 -3.5
s11.667 -6.16602 17 -11.499l107 -109c10 -10 15 -20.667 15 -32z" />
    <glyph glyph-name="Eacute" unicode="&#xc9;" horiz-adv-x="661" 
d="M593 42c0 -11.333 -3.66699 -21.167 -11 -29.5s-17.666 -12.5 -30.999 -12.5h-416c-12 0 -22.333 4.16699 -31 12.5s-13 18.166 -13 29.499v627c0 12 4.33301 22.167 13 30.5s19 12.5 31 12.5h416c13.333 0 23.666 -4.16699 30.999 -12.5s11 -18.166 11 -29.499
c0 -10.667 -3.66699 -20.5 -11 -29.5s-17.666 -13.5 -30.999 -13.5h-374v-202h262c12.667 0 23 -4.33301 31 -13s12 -18.667 12 -30s-3.83301 -21.333 -11.5 -30s-18.167 -13 -31.5 -13h-262v-254h374c13.333 0 23.666 -4.33301 30.999 -13s11 -18.667 11 -30zM437 993.999
c0 -16.667 -6.66699 -29.667 -20 -39l-122 -93c-8.66699 -6.66699 -18 -10 -28 -10c-12 0 -22.167 4.16699 -30.5 12.5s-12.5 18.166 -12.5 29.499s4.66699 22 14 32l108 110c9.33301 10 21 15 35 15c15.333 0 28.5 -5.66699 39.5 -17s16.5 -24.666 16.5 -39.999z" />
    <glyph glyph-name="Ecircumflex" unicode="&#xca;" horiz-adv-x="661" 
d="M593 42c0 -11.333 -3.66699 -21.167 -11 -29.5s-17.666 -12.5 -30.999 -12.5h-416c-12 0 -22.333 4.16699 -31 12.5s-13 18.166 -13 29.499v627c0 12 4.33301 22.167 13 30.5s19 12.5 31 12.5h416c13.333 0 23.666 -4.16699 30.999 -12.5s11 -18.166 11 -29.499
c0 -10.667 -3.66699 -20.5 -11 -29.5s-17.666 -13.5 -30.999 -13.5h-374v-202h262c12.667 0 23 -4.33301 31 -13s12 -18.667 12 -30s-3.83301 -21.333 -11.5 -30s-18.167 -13 -31.5 -13h-262v-254h374c13.333 0 23.666 -4.33301 30.999 -13s11 -18.667 11 -30zM509 894.999
c0 -11.333 -3.83203 -21.333 -11.499 -30s-18.167 -13 -31.5 -13c-3.33301 0 -6.83301 0.333008 -10.5 1s-7.5 2 -11.5 4l-113 60l-113 -60c-6.66699 -3.33301 -14.334 -5 -23.001 -5c-12 0 -22 4.33301 -30 13s-12 18.667 -12 30c0 6 1.83301 12.333 5.5 19
s9.16699 12.334 16.5 17.001l130 78l12.5 6c4.33301 2 8.83301 3 13.5 3s9.16699 -1 13.5 -3l12.5 -6l130 -78c8 -4.66699 13.667 -10.334 17 -17.001s5 -13 5 -19z" />
    <glyph glyph-name="Edieresis" unicode="&#xcb;" horiz-adv-x="661" 
d="M593 42c0 -11.333 -3.66699 -21.167 -11 -29.5s-17.666 -12.5 -30.999 -12.5h-416c-12 0 -22.333 4.16699 -31 12.5s-13 18.166 -13 29.499v627c0 12 4.33301 22.167 13 30.5s19 12.5 31 12.5h416c13.333 0 23.666 -4.16699 30.999 -12.5s11 -18.166 11 -29.499
c0 -10.667 -3.66699 -20.5 -11 -29.5s-17.666 -13.5 -30.999 -13.5h-374v-202h262c12.667 0 23 -4.33301 31 -13s12 -18.667 12 -30s-3.83301 -21.333 -11.5 -30s-18.167 -13 -31.5 -13h-262v-254h374c13.333 0 23.666 -4.33301 30.999 -13s11 -18.667 11 -30zM515 922.999
c0 -19.333 -6.66699 -36 -20 -50s-30 -21 -50 -21s-37 6.66699 -51 20s-21 30 -21 50s7 37 21 51s31 21 51 21s36.667 -6.83301 50 -20.5s20 -30.5 20 -50.5zM289 922.999c0 -19.333 -7 -36 -21 -50s-31 -21 -51 -21s-36.833 6.66699 -50.5 20s-20.5 30 -20.5 50
s6.83301 37 20.5 51s30.5 21 50.5 21s37 -6.83301 51 -20.5s21 -30.5 21 -50.5z" />
    <glyph glyph-name="Igrave" unicode="&#xcc;" horiz-adv-x="314" 
d="M258 42c0 -10.667 -3.66699 -20.334 -11 -29.001s-18.333 -13 -33 -13h-115c-13.333 0 -23.666 4.33301 -30.999 13s-11 18.334 -11 29.001c0 11.333 3.66699 21.333 11 30s17.666 13 30.999 13h15v542h-15c-13.333 0 -23.666 4.33301 -30.999 13s-11 18.334 -11 29.001
c0 11.333 3.66699 21.333 11 30s17.666 13 30.999 13h115c14.667 0 25.667 -4.33301 33 -13s11 -18.667 11 -30c0 -10.667 -3.66699 -20.334 -11 -29.001s-18.333 -13 -33 -13h-15v-542h15c14.667 0 25.667 -4.33301 33 -13s11 -18.667 11 -30zM264 895
c0 -11.333 -4.16797 -21.333 -12.501 -30s-18.166 -13 -29.499 -13c-10.667 0 -20.667 3.66699 -30 11l-122 92c-6.66699 4.66699 -11.5 10.667 -14.5 18s-4.5 14.666 -4.5 21.999c0 15.333 5.66699 28.5 17 39.5s24.333 16.5 39 16.5c6 0 12 -1.16699 18 -3.5
s11.667 -6.16602 17 -11.499l107 -109c10 -10 15 -20.667 15 -32z" />
    <glyph glyph-name="Iacute" unicode="&#xcd;" horiz-adv-x="314" 
d="M258 42c0 -10.667 -3.66699 -20.334 -11 -29.001s-18.333 -13 -33 -13h-115c-13.333 0 -23.666 4.33301 -30.999 13s-11 18.334 -11 29.001c0 11.333 3.66699 21.333 11 30s17.666 13 30.999 13h15v542h-15c-13.333 0 -23.666 4.33301 -30.999 13s-11 18.334 -11 29.001
c0 11.333 3.66699 21.333 11 30s17.666 13 30.999 13h115c14.667 0 25.667 -4.33301 33 -13s11 -18.667 11 -30c0 -10.667 -3.66699 -20.334 -11 -29.001s-18.333 -13 -33 -13h-15v-542h15c14.667 0 25.667 -4.33301 33 -13s11 -18.667 11 -30zM264 994
c0 -16.667 -6.66699 -29.667 -20 -39l-122 -93c-8.66699 -6.66699 -18 -10 -28 -10c-12 0 -22.167 4.16699 -30.5 12.5s-12.5 18.166 -12.5 29.499s4.66699 22 14 32l108 110c9.33301 10 21 15 35 15c15.333 0 28.5 -5.66699 39.5 -17s16.5 -24.666 16.5 -39.999z" />
    <glyph glyph-name="Icircumflex" unicode="&#xce;" horiz-adv-x="314" 
d="M258 42c0 -10.667 -3.66699 -20.334 -11 -29.001s-18.333 -13 -33 -13h-115c-13.333 0 -23.666 4.33301 -30.999 13s-11 18.334 -11 29.001c0 11.333 3.66699 21.333 11 30s17.666 13 30.999 13h15v542h-15c-13.333 0 -23.666 4.33301 -30.999 13s-11 18.334 -11 29.001
c0 11.333 3.66699 21.333 11 30s17.666 13 30.999 13h115c14.667 0 25.667 -4.33301 33 -13s11 -18.667 11 -30c0 -10.667 -3.66699 -20.334 -11 -29.001s-18.333 -13 -33 -13h-15v-542h15c14.667 0 25.667 -4.33301 33 -13s11 -18.667 11 -30zM336 895
c0 -11.333 -3.83203 -21.333 -11.499 -30s-18.167 -13 -31.5 -13c-3.33301 0 -6.83301 0.333008 -10.5 1s-7.5 2 -11.5 4l-113 60l-113 -60c-6.66699 -3.33301 -14.334 -5 -23.001 -5c-12 0 -22 4.33301 -30 13s-12 18.667 -12 30c0 6 1.83301 12.333 5.5 19
s9.16699 12.334 16.5 17.001l130 78l12.5 6c4.33301 2 8.83301 3 13.5 3s9.16699 -1 13.5 -3l12.5 -6l130 -78c8 -4.66699 13.667 -10.334 17 -17.001s5 -13 5 -19z" />
    <glyph glyph-name="Idieresis" unicode="&#xcf;" horiz-adv-x="314" 
d="M258 42c0 -10.667 -3.66699 -20.334 -11 -29.001s-18.333 -13 -33 -13h-115c-13.333 0 -23.666 4.33301 -30.999 13s-11 18.334 -11 29.001c0 11.333 3.66699 21.333 11 30s17.666 13 30.999 13h15v542h-15c-13.333 0 -23.666 4.33301 -30.999 13s-11 18.334 -11 29.001
c0 11.333 3.66699 21.333 11 30s17.666 13 30.999 13h115c14.667 0 25.667 -4.33301 33 -13s11 -18.667 11 -30c0 -10.667 -3.66699 -20.334 -11 -29.001s-18.333 -13 -33 -13h-15v-542h15c14.667 0 25.667 -4.33301 33 -13s11 -18.667 11 -30zM342 923
c0 -19.333 -6.66699 -36 -20 -50s-30 -21 -50 -21s-37 6.66699 -51 20s-21 30 -21 50s7 37 21 51s31 21 51 21s36.667 -6.83301 50 -20.5s20 -30.5 20 -50.5zM116 923c0 -19.333 -7 -36 -21 -50s-31 -21 -51 -21s-36.833 6.66699 -50.5 20s-20.5 30 -20.5 50
s6.83301 37 20.5 51s30.5 21 50.5 21s37 -6.83301 51 -20.5s21 -30.5 21 -50.5z" />
    <glyph glyph-name="Eth" unicode="&#xd0;" horiz-adv-x="690" 
d="M616 357c0 -46.667 -4.66699 -91.499 -14 -134.499s-24.666 -81 -45.999 -114s-49.5 -59.333 -84.5 -79s-78.167 -29.5 -129.5 -29.5h-207c-11.333 0 -21.5 4.33301 -30.5 13s-13.5 18.334 -13.5 29.001v297h-48c-14 0 -24.5 4.16699 -31.5 12.5
s-10.5 18.166 -10.5 29.499s3.5 21.333 10.5 30s17.5 13 31.5 13h48v245c0 11.333 4.5 21.333 13.5 30s19.167 13 30.5 13h207c51.333 0 94.5 -9.83301 129.5 -29.5s63.167 -45.834 84.5 -78.501s36.666 -70.5 45.999 -113.5s14 -87.5 14 -133.5zM530 357.001
c0 87.333 -15.167 154.166 -45.5 200.499s-77.833 69.5 -142.5 69.5h-165v-202h163c14 0 24.667 -4.33301 32 -13s11 -18.667 11 -30s-3.66699 -21.166 -11 -29.499s-18 -12.5 -32 -12.5h-163v-255h165c64.667 0 112.167 23 142.5 69s45.5 113.667 45.5 203z" />
    <glyph glyph-name="Ntilde" unicode="&#xd1;" horiz-adv-x="684" 
d="M593 43c0 -13.333 -4.5 -23.832 -13.5 -31.499s-19.167 -11.5 -30.5 -11.5c-6.66699 0 -13.167 1.83301 -19.5 5.5s-11.833 9.16699 -16.5 16.5l-336 505v-484c0 -14 -4.5 -24.667 -13.5 -32s-19.167 -11 -30.5 -11c-10.667 0 -20.334 3.66699 -29.001 11
s-13 17.666 -13 30.999v627c0 14 4.5 24.667 13.5 32s19.167 11 30.5 11c14.667 0 26.667 -7 36 -21l336 -505v483c0 14.667 4.33301 25.5 13 32.5s18.334 10.5 29.001 10.5c11.333 0 21.5 -3.5 30.5 -10.5s13.5 -17.5 13.5 -31.5v-627v0zM541 930.001
c0 -10 -5.00195 -19.668 -15.002 -29.001c-18.667 -19.333 -35.834 -32.666 -51.501 -39.999s-30.5 -11 -44.5 -11c-16.667 0 -32.667 3.83301 -48 11.5s-29.833 16 -43.5 25s-27 17.167 -40 24.5s-25.833 11 -38.5 11c-7.33301 0 -14.833 -1.5 -22.5 -4.5
s-15.167 -8.5 -22.5 -16.5c-8 -8.66699 -17.667 -13 -29 -13s-21.666 4.5 -30.999 13.5s-14 19.5 -14 31.5c0 10 4.33301 19.333 13 28c18 18 35.833 30.833 53.5 38.5s34.167 11.5 49.5 11.5c20 0 38.333 -3.83301 55 -11.5s32.167 -16.167 46.5 -25.5l39 -25.5
c11.667 -7.66699 21.834 -11.5 30.501 -11.5c4 0 8.5 2 13.5 6s10.5 8.16699 16.5 12.5s12.333 8.5 19 12.5s13.334 6 20.001 6c12 0 22.333 -4.5 31 -13.5s13 -19.167 13 -30.5z" />
    <glyph glyph-name="Ograve" unicode="&#xd2;" horiz-adv-x="730" 
d="M656 356c0 -48.667 -5.16699 -95.5 -15.5 -140.5s-27 -84.667 -50 -119s-53 -61.833 -90 -82.5s-82.167 -31 -135.5 -31c-54 0 -99.5 10.333 -136.5 31s-67 48.167 -90 82.5s-39.5 74 -49.5 119s-15 91.833 -15 140.5c0 49.333 5 96.5 15 141.5s26.5 84.667 49.5 119
s53 61.833 90 82.5s82.5 31 136.5 31c53.333 0 98.5 -10.333 135.5 -31s67 -48.167 90 -82.5s39.667 -74 50 -119s15.5 -92.167 15.5 -141.5zM570 356c0 92 -16.5 163 -49.5 213s-84.833 75 -155.5 75c-71.333 0 -123.333 -25 -156 -75s-49 -121 -49 -213
s16.333 -163 49 -213s84.667 -75 156 -75c70.667 0 122.5 25 155.5 75s49.5 121 49.5 213zM471 895c0 -11.333 -4.16797 -21.333 -12.501 -30s-18.166 -13 -29.499 -13c-10.667 0 -20.667 3.66699 -30 11l-122 92c-6.66699 4.66699 -11.5 10.667 -14.5 18
s-4.5 14.666 -4.5 21.999c0 15.333 5.66699 28.5 17 39.5s24.333 16.5 39 16.5c6 0 12 -1.16699 18 -3.5s11.667 -6.16602 17 -11.499l107 -109c10 -10 15 -20.667 15 -32z" />
    <glyph glyph-name="Oacute" unicode="&#xd3;" horiz-adv-x="730" 
d="M656 356c0 -48.667 -5.16699 -95.5 -15.5 -140.5s-27 -84.667 -50 -119s-53 -61.833 -90 -82.5s-82.167 -31 -135.5 -31c-54 0 -99.5 10.333 -136.5 31s-67 48.167 -90 82.5s-39.5 74 -49.5 119s-15 91.833 -15 140.5c0 49.333 5 96.5 15 141.5s26.5 84.667 49.5 119
s53 61.833 90 82.5s82.5 31 136.5 31c53.333 0 98.5 -10.333 135.5 -31s67 -48.167 90 -82.5s39.667 -74 50 -119s15.5 -92.167 15.5 -141.5zM570 356c0 92 -16.5 163 -49.5 213s-84.833 75 -155.5 75c-71.333 0 -123.333 -25 -156 -75s-49 -121 -49 -213
s16.333 -163 49 -213s84.667 -75 156 -75c70.667 0 122.5 25 155.5 75s49.5 121 49.5 213zM471 994c0 -16.667 -6.66699 -29.667 -20 -39l-122 -93c-8.66699 -6.66699 -18 -10 -28 -10c-12 0 -22.167 4.16699 -30.5 12.5s-12.5 18.166 -12.5 29.499s4.66699 22 14 32
l108 110c9.33301 10 21 15 35 15c15.333 0 28.5 -5.66699 39.5 -17s16.5 -24.666 16.5 -39.999z" />
    <glyph glyph-name="Ocircumflex" unicode="&#xd4;" horiz-adv-x="730" 
d="M656 356c0 -48.667 -5.16699 -95.5 -15.5 -140.5s-27 -84.667 -50 -119s-53 -61.833 -90 -82.5s-82.167 -31 -135.5 -31c-54 0 -99.5 10.333 -136.5 31s-67 48.167 -90 82.5s-39.5 74 -49.5 119s-15 91.833 -15 140.5c0 49.333 5 96.5 15 141.5s26.5 84.667 49.5 119
s53 61.833 90 82.5s82.5 31 136.5 31c53.333 0 98.5 -10.333 135.5 -31s67 -48.167 90 -82.5s39.667 -74 50 -119s15.5 -92.167 15.5 -141.5zM570 356c0 92 -16.5 163 -49.5 213s-84.833 75 -155.5 75c-71.333 0 -123.333 -25 -156 -75s-49 -121 -49 -213
s16.333 -163 49 -213s84.667 -75 156 -75c70.667 0 122.5 25 155.5 75s49.5 121 49.5 213zM543 895c0 -11.333 -3.83203 -21.333 -11.499 -30s-18.167 -13 -31.5 -13c-3.33301 0 -6.83301 0.333008 -10.5 1s-7.5 2 -11.5 4l-113 60l-113 -60
c-6.66699 -3.33301 -14.334 -5 -23.001 -5c-12 0 -22 4.33301 -30 13s-12 18.667 -12 30c0 6 1.83301 12.333 5.5 19s9.16699 12.334 16.5 17.001l130 78l12.5 6c4.33301 2 8.83301 3 13.5 3s9.16699 -1 13.5 -3l12.5 -6l130 -78c8 -4.66699 13.667 -10.334 17 -17.001
s5 -13 5 -19z" />
    <glyph glyph-name="Otilde" unicode="&#xd5;" horiz-adv-x="730" 
d="M656 356c0 -48.667 -5.16699 -95.5 -15.5 -140.5s-27 -84.667 -50 -119s-53 -61.833 -90 -82.5s-82.167 -31 -135.5 -31c-54 0 -99.5 10.333 -136.5 31s-67 48.167 -90 82.5s-39.5 74 -49.5 119s-15 91.833 -15 140.5c0 49.333 5 96.5 15 141.5s26.5 84.667 49.5 119
s53 61.833 90 82.5s82.5 31 136.5 31c53.333 0 98.5 -10.333 135.5 -31s67 -48.167 90 -82.5s39.667 -74 50 -119s15.5 -92.167 15.5 -141.5zM570 356c0 92 -16.5 163 -49.5 213s-84.833 75 -155.5 75c-71.333 0 -123.333 -25 -156 -75s-49 -121 -49 -213
s16.333 -163 49 -213s84.667 -75 156 -75c70.667 0 122.5 25 155.5 75s49.5 121 49.5 213zM564 930c0 -10 -5.00195 -19.668 -15.002 -29.001c-18.667 -19.333 -35.834 -32.666 -51.501 -39.999s-30.5 -11 -44.5 -11c-16.667 0 -32.667 3.83301 -48 11.5
s-29.833 16 -43.5 25s-27 17.167 -40 24.5s-25.833 11 -38.5 11c-7.33301 0 -14.833 -1.5 -22.5 -4.5s-15.167 -8.5 -22.5 -16.5c-8 -8.66699 -17.667 -13 -29 -13s-21.666 4.5 -30.999 13.5s-14 19.5 -14 31.5c0 10 4.33301 19.333 13 28c18 18 35.833 30.833 53.5 38.5
s34.167 11.5 49.5 11.5c20 0 38.333 -3.83301 55 -11.5s32.167 -16.167 46.5 -25.5l39 -25.5c11.667 -7.66699 21.834 -11.5 30.501 -11.5c4 0 8.5 2 13.5 6s10.5 8.16699 16.5 12.5s12.333 8.5 19 12.5s13.334 6 20.001 6c12 0 22.333 -4.5 31 -13.5s13 -19.167 13 -30.5z
" />
    <glyph glyph-name="Odieresis" unicode="&#xd6;" horiz-adv-x="730" 
d="M656 356c0 -48.667 -5.16699 -95.5 -15.5 -140.5s-27 -84.667 -50 -119s-53 -61.833 -90 -82.5s-82.167 -31 -135.5 -31c-54 0 -99.5 10.333 -136.5 31s-67 48.167 -90 82.5s-39.5 74 -49.5 119s-15 91.833 -15 140.5c0 49.333 5 96.5 15 141.5s26.5 84.667 49.5 119
s53 61.833 90 82.5s82.5 31 136.5 31c53.333 0 98.5 -10.333 135.5 -31s67 -48.167 90 -82.5s39.667 -74 50 -119s15.5 -92.167 15.5 -141.5zM570 356c0 92 -16.5 163 -49.5 213s-84.833 75 -155.5 75c-71.333 0 -123.333 -25 -156 -75s-49 -121 -49 -213
s16.333 -163 49 -213s84.667 -75 156 -75c70.667 0 122.5 25 155.5 75s49.5 121 49.5 213zM549 923c0 -19.333 -6.66699 -36 -20 -50s-30 -21 -50 -21s-37 6.66699 -51 20s-21 30 -21 50s7 37 21 51s31 21 51 21s36.667 -6.83301 50 -20.5s20 -30.5 20 -50.5zM323 923
c0 -19.333 -7 -36 -21 -50s-31 -21 -51 -21s-36.833 6.66699 -50.5 20s-20.5 30 -20.5 50s6.83301 37 20.5 51s30.5 21 50.5 21s37 -6.83301 51 -20.5s21 -30.5 21 -50.5z" />
    <glyph glyph-name="multiply" unicode="&#xd7;" horiz-adv-x="548" 
d="M514 42c0 -12 -4.66895 -22.167 -14.002 -30.5s-19.666 -12.5 -30.999 -12.5c-13.333 0 -24 5.33301 -32 16l-163 199l-163 -199c-10 -10 -20.667 -15 -32 -15s-21.666 4.16699 -30.999 12.5s-14 18.166 -14 29.499c0 10.667 4 20.334 12 29.001l172 211l-147 179
c-7.33301 8 -11 17.333 -11 28c0 12 4.66699 22.167 14 30.5s19.666 12.5 30.999 12.5c5.33301 0 10.833 -1.16699 16.5 -3.5s10.834 -6.5 15.501 -12.5l137 -168l138 168c8.66699 10.667 18.667 16 30 16s21.833 -4.16699 31.5 -12.5s14.5 -18.5 14.5 -30.5
c0 -8.66699 -3.66699 -17.667 -11 -27l-148 -180l174 -211c4 -4.66699 6.83301 -9.5 8.5 -14.5s2.5 -9.83301 2.5 -14.5z" />
    <glyph glyph-name="Oslash" unicode="&#xd8;" horiz-adv-x="730" 
d="M656 356c0 -48.667 -5.16797 -95.501 -15.501 -140.501s-27 -84.667 -50 -119s-53 -61.833 -90 -82.5s-82.167 -31 -135.5 -31c-29.333 0 -55.333 2.83301 -78 8.5s-44 14.167 -64 25.5l-13 -24c-4.66699 -8 -10.167 -13.833 -16.5 -17.5s-13.166 -5.5 -20.499 -5.5
c-10.667 0 -20.5 4.16699 -29.5 12.5s-13.5 18.5 -13.5 30.5c0 7.33301 2 14.333 6 21l20 39c-29.333 35.333 -50.333 77.5 -63 126.5s-19 101.167 -19 156.5c0 49.333 5 96.5 15 141.5s26.5 84.667 49.5 119s53 61.833 90 82.5s82.5 31 136.5 31c28 0 53.5 -3 76.5 -9
s44.167 -14.667 63.5 -26l14 24c4.66699 8 10.167 13.833 16.5 17.5s12.833 5.5 19.5 5.5c11.333 0 21.5 -4 30.5 -12s13.5 -18 13.5 -30c0 -6.66699 -2 -14 -6 -22l-21 -37c30 -36 51.5 -78.667 64.5 -128s19.5 -101.666 19.5 -156.999zM569.999 355.999
c0 84.667 -15.333 151.333 -46 200l-258 -464c27.333 -16 60.333 -24 99 -24c70.667 0 122.5 25 155.5 75s49.5 121 49.5 213zM462.999 619.998c-28 16 -60.667 23.999 -98 23.999c-71.333 0 -123.333 -25 -156 -75s-49 -121 -49 -213c0 -41.333 3.5 -78.666 10.5 -111.999
s18.167 -62.333 33.5 -87l259 463v0z" />
    <glyph glyph-name="Ugrave" unicode="&#xd9;" horiz-adv-x="673" 
d="M587 233c0 -34 -6.49805 -66.332 -19.498 -96.999s-30.667 -57.334 -53 -80.001s-48.833 -40.667 -79.5 -54s-63.667 -20 -99 -20c-34 0 -66.333 6.5 -97 19.5s-57.334 30.667 -80.001 53s-40.667 48.833 -54 79.5s-20 63.667 -20 99v437c0 14 4.33301 24.5 13 31.5
s18.667 10.5 30 10.5s21.333 -3.5 30 -10.5s13 -17.5 13 -31.5v-437c0 -22.667 4.33301 -44.167 13 -64.5s20.5 -38 35.5 -53s32.5 -26.833 52.5 -35.5s41.333 -13 64 -13s44.167 4.33301 64.5 13s38 20.5 53 35.5s26.833 32.667 35.5 53s13 41.833 13 64.5v436
c0 14.667 4.16699 25.5 12.5 32.5s18.166 10.5 29.499 10.5s21.333 -3.5 30 -10.5s13 -17.5 13 -31.5v-437v0zM442.002 895.001c0 -11.333 -4.16797 -21.333 -12.501 -30s-18.166 -13 -29.499 -13c-10.667 0 -20.667 3.66699 -30 11l-122 92
c-6.66699 4.66699 -11.5 10.667 -14.5 18s-4.5 14.666 -4.5 21.999c0 15.333 5.66699 28.5 17 39.5s24.333 16.5 39 16.5c6 0 12 -1.16699 18 -3.5s11.667 -6.16602 17 -11.499l107 -109c10 -10 15 -20.667 15 -32z" />
    <glyph glyph-name="Uacute" unicode="&#xda;" horiz-adv-x="673" 
d="M587 233c0 -34 -6.49805 -66.332 -19.498 -96.999s-30.667 -57.334 -53 -80.001s-48.833 -40.667 -79.5 -54s-63.667 -20 -99 -20c-34 0 -66.333 6.5 -97 19.5s-57.334 30.667 -80.001 53s-40.667 48.833 -54 79.5s-20 63.667 -20 99v437c0 14 4.33301 24.5 13 31.5
s18.667 10.5 30 10.5s21.333 -3.5 30 -10.5s13 -17.5 13 -31.5v-437c0 -22.667 4.33301 -44.167 13 -64.5s20.5 -38 35.5 -53s32.5 -26.833 52.5 -35.5s41.333 -13 64 -13s44.167 4.33301 64.5 13s38 20.5 53 35.5s26.833 32.667 35.5 53s13 41.833 13 64.5v436
c0 14.667 4.16699 25.5 12.5 32.5s18.166 10.5 29.499 10.5s21.333 -3.5 30 -10.5s13 -17.5 13 -31.5v-437v0zM442.002 994.001c0 -16.667 -6.66699 -29.667 -20 -39l-122 -93c-8.66699 -6.66699 -18 -10 -28 -10c-12 0 -22.167 4.16699 -30.5 12.5
s-12.5 18.166 -12.5 29.499s4.66699 22 14 32l108 110c9.33301 10 21 15 35 15c15.333 0 28.5 -5.66699 39.5 -17s16.5 -24.666 16.5 -39.999z" />
    <glyph glyph-name="Ucircumflex" unicode="&#xdb;" horiz-adv-x="673" 
d="M587 233c0 -34 -6.49805 -66.332 -19.498 -96.999s-30.667 -57.334 -53 -80.001s-48.833 -40.667 -79.5 -54s-63.667 -20 -99 -20c-34 0 -66.333 6.5 -97 19.5s-57.334 30.667 -80.001 53s-40.667 48.833 -54 79.5s-20 63.667 -20 99v437c0 14 4.33301 24.5 13 31.5
s18.667 10.5 30 10.5s21.333 -3.5 30 -10.5s13 -17.5 13 -31.5v-437c0 -22.667 4.33301 -44.167 13 -64.5s20.5 -38 35.5 -53s32.5 -26.833 52.5 -35.5s41.333 -13 64 -13s44.167 4.33301 64.5 13s38 20.5 53 35.5s26.833 32.667 35.5 53s13 41.833 13 64.5v436
c0 14.667 4.16699 25.5 12.5 32.5s18.166 10.5 29.499 10.5s21.333 -3.5 30 -10.5s13 -17.5 13 -31.5v-437v0zM514.002 895.001c0 -11.333 -3.83203 -21.333 -11.499 -30s-18.167 -13 -31.5 -13c-3.33301 0 -6.83301 0.333008 -10.5 1s-7.5 2 -11.5 4l-113 60l-113 -60
c-6.66699 -3.33301 -14.334 -5 -23.001 -5c-12 0 -22 4.33301 -30 13s-12 18.667 -12 30c0 6 1.83301 12.333 5.5 19s9.16699 12.334 16.5 17.001l130 78l12.5 6c4.33301 2 8.83301 3 13.5 3s9.16699 -1 13.5 -3l12.5 -6l130 -78c8 -4.66699 13.667 -10.334 17 -17.001
s5 -13 5 -19z" />
    <glyph glyph-name="Udieresis" unicode="&#xdc;" horiz-adv-x="673" 
d="M587 233c0 -34 -6.49805 -66.332 -19.498 -96.999s-30.667 -57.334 -53 -80.001s-48.833 -40.667 -79.5 -54s-63.667 -20 -99 -20c-34 0 -66.333 6.5 -97 19.5s-57.334 30.667 -80.001 53s-40.667 48.833 -54 79.5s-20 63.667 -20 99v437c0 14 4.33301 24.5 13 31.5
s18.667 10.5 30 10.5s21.333 -3.5 30 -10.5s13 -17.5 13 -31.5v-437c0 -22.667 4.33301 -44.167 13 -64.5s20.5 -38 35.5 -53s32.5 -26.833 52.5 -35.5s41.333 -13 64 -13s44.167 4.33301 64.5 13s38 20.5 53 35.5s26.833 32.667 35.5 53s13 41.833 13 64.5v436
c0 14.667 4.16699 25.5 12.5 32.5s18.166 10.5 29.499 10.5s21.333 -3.5 30 -10.5s13 -17.5 13 -31.5v-437v0zM520.002 923.001c0 -19.333 -6.66699 -36 -20 -50s-30 -21 -50 -21s-37 6.66699 -51 20s-21 30 -21 50s7 37 21 51s31 21 51 21s36.667 -6.83301 50 -20.5
s20 -30.5 20 -50.5zM294.002 923.001c0 -19.333 -7 -36 -21 -50s-31 -21 -51 -21s-36.833 6.66699 -50.5 20s-20.5 30 -20.5 50s6.83301 37 20.5 51s30.5 21 50.5 21s37 -6.83301 51 -20.5s21 -30.5 21 -50.5z" />
    <glyph glyph-name="Yacute" unicode="&#xdd;" horiz-adv-x="594" 
d="M544 670c0 -7.33301 -1.99707 -14.332 -5.99707 -20.999l-198 -369v-237c0 -14 -4.5 -24.667 -13.5 -32s-19.167 -11 -30.5 -11c-10.667 0 -20.334 3.5 -29.001 10.5s-13 17.5 -13 31.5v238l-198 370c-4 6.66699 -6 13.667 -6 21c0 12 4.66699 22.167 14 30.5
s19.666 12.5 30.999 12.5c6.66699 0 13.167 -1.83301 19.5 -5.5s11.833 -9.83398 16.5 -18.501l165 -308l167 308c4.66699 8 10.167 13.667 16.5 17s12.833 5 19.5 5c11.333 0 21.666 -4 30.999 -12s14 -18 14 -30zM404.003 994.001c0 -16.667 -6.66699 -29.667 -20 -39
l-122 -93c-8.66699 -6.66699 -18 -10 -28 -10c-12 0 -22.167 4.16699 -30.5 12.5s-12.5 18.166 -12.5 29.499s4.66699 22 14 32l108 110c9.33301 10 21 15 35 15c15.333 0 28.5 -5.66699 39.5 -17s16.5 -24.666 16.5 -39.999z" />
    <glyph glyph-name="Thorn" unicode="&#xde;" horiz-adv-x="661" 
d="M593 447c0 -38 -5.50098 -74 -16.501 -108s-27.167 -64 -48.5 -90s-47.666 -46.667 -78.999 -62s-67 -23 -107 -23c-35.333 0 -66.666 5.66699 -93.999 17s-51 27.333 -71 48v-187c0 -14 -4.5 -24.667 -13.5 -32s-19.167 -11 -30.5 -11
c-10.667 0 -20.334 3.66699 -29.001 11s-13 18 -13 32v827c0 14 4.33301 24.667 13 32s18.334 11 29.001 11c11.333 0 21.5 -3.66699 30.5 -11s13.5 -18 13.5 -32v-200l11 10c7.33301 6.66699 18 13.667 32 21s31.167 14.166 51.5 20.499s43.833 9.5 70.5 9.5
c40 0 75.667 -7.66699 107 -23s57.666 -36 78.999 -62s37.5 -56.167 48.5 -90.5s16.5 -70.166 16.5 -107.499zM506.999 447c0 30 -3.83301 57.167 -11.5 81.5s-18.834 45 -33.501 62s-32 30.167 -52 39.5s-42.667 14 -68 14c-24.667 0 -47.167 -4.66699 -67.5 -14
s-37.833 -22.5 -52.5 -39.5s-25.834 -37.667 -33.501 -62s-11.5 -51.5 -11.5 -81.5s3.83301 -57.167 11.5 -81.5s18.834 -45 33.501 -62s32.167 -30.167 52.5 -39.5s42.833 -14 67.5 -14c25.333 0 48 4.66699 68 14s37.333 22.5 52 39.5s25.834 37.667 33.501 62
s11.5 51.5 11.5 81.5z" />
    <glyph glyph-name="germandbls" unicode="&#xdf;" horiz-adv-x="578" 
d="M527 212c0 -28.667 -5.49902 -55.9961 -16.499 -81.9961s-26.167 -48.5 -45.5 -67.5s-41.833 -34.167 -67.5 -45.5s-53.167 -17 -82.5 -17h-27c-12 0 -22.167 4.16699 -30.5 12.5s-12.5 18.166 -12.5 29.499c0 10.667 2.16699 19 6.5 25s10.333 10.5 18 13.5
s16.667 5 27 6s21.166 1.5 32.499 1.5c16 0 30.833 3.33301 44.5 10s25.5 15.834 35.5 27.501s17.833 25 23.5 40s8.5 30.5 8.5 46.5c0 18 -3.33301 34.667 -10 50s-15.667 28.666 -27 39.999s-24.666 20.333 -39.999 27s-31.666 10 -48.999 10h-41
c-14.667 0 -25.5 4.16699 -32.5 12.5s-10.5 18.166 -10.5 29.499s3.5 21.333 10.5 30s17.833 13 32.5 13h25c14 0 27.167 2.66699 39.5 8s23 12.666 32 21.999s16.167 20.166 21.5 32.499s8 25.5 8 39.5s-2.66699 27 -8 39s-12.5 22.667 -21.5 32s-19.667 16.666 -32 21.999
s-25.5 8 -39.5 8h-28c-13.333 0 -25.666 -2.5 -36.999 -7.5s-21.333 -11.667 -30 -20s-15.334 -18.166 -20.001 -29.499s-7 -23.333 -7 -36v-491c0 -14 -4.5 -24.667 -13.5 -32s-19.167 -11 -30.5 -11c-10.667 0 -20.334 3.66699 -29.001 11s-13 17.666 -13 30.999v490
c0 25.333 4.66699 48.833 14 70.5s22.166 40.667 38.499 57s35.333 29.166 57 38.499s44.834 14 69.501 14h29c25.333 0 49.333 -4.83301 72 -14.5s42.5 -23 59.5 -40s30.5 -36.667 40.5 -59s15 -46.166 15 -71.499c0 -27.333 -5.33301 -52.666 -16 -75.999
s-25.334 -43.333 -44.001 -60c30.667 -18 55.167 -42.5 73.5 -73.5s27.5 -66.167 27.5 -105.5z" />
    <glyph glyph-name="agrave" unicode="&#xe0;" horiz-adv-x="669" 
d="M627 42c0 -10.667 -3.66602 -20.332 -10.999 -28.999s-18 -13 -32 -13s-26 2.16699 -36 6.5s-18.5 9.5 -25.5 15.5s-12.833 12.167 -17.5 18.5s-8 11.833 -10 16.5c-20 -22 -44.5 -39.833 -73.5 -53.5s-63.167 -20.5 -102.5 -20.5c-40.667 0 -76.667 7.83301 -108 23.5
s-57.5 36.5 -78.5 62.5s-37 56 -48 90s-16.5 69.667 -16.5 107s5.5 73 16.5 107s27.167 64 48.5 90s47.666 46.667 78.999 62s67 23 107 23c35.333 0 66.833 -5.83301 94.5 -17.5s51.167 -27.834 70.5 -48.501v4c0 2.66699 0.333008 6.5 1 11.5s2.5 10 5.5 15
s7.33301 9.33301 13 13s13.167 5.5 22.5 5.5c10.667 0 20.667 -3.16699 30 -9.5s14 -17.166 14 -32.499v-386c0 -6.66699 1.66699 -11.334 5 -14.001s6.33301 -4 9 -4c14 0 24.667 -4.33301 32 -13s11 -18.667 11 -30zM484.001 266.002c0 30 -3.83301 57 -11.5 81
s-18.667 44.667 -33 62s-31.666 30.666 -51.999 39.999s-43.166 14 -68.499 14c-24.667 0 -47.167 -4.66699 -67.5 -14s-37.833 -22.666 -52.5 -39.999s-25.834 -38 -33.501 -62s-11.5 -51 -11.5 -81s3.83301 -57.167 11.5 -81.5s18.834 -45.166 33.501 -62.499
s32.167 -30.666 52.5 -39.999s42.833 -14 67.5 -14c25.333 0 48.166 4.66699 68.499 14s37.666 22.666 51.999 39.999s25.333 38.166 33 62.499s11.5 51.5 11.5 81.5zM441.001 667.002c0 -11.333 -4.16797 -21.333 -12.501 -30s-18.166 -13 -29.499 -13
c-10.667 0 -20.667 3.66699 -30 11l-122 92c-6.66699 4.66699 -11.5 10.667 -14.5 18s-4.5 14.666 -4.5 21.999c0 15.333 5.66699 28.5 17 39.5s24.333 16.5 39 16.5c6 0 12 -1.16699 18 -3.5s11.667 -6.16602 17 -11.499l107 -109c10 -10 15 -20.667 15 -32z" />
    <glyph glyph-name="aacute" unicode="&#xe1;" horiz-adv-x="669" 
d="M627 42c0 -10.667 -3.66602 -20.332 -10.999 -28.999s-18 -13 -32 -13s-26 2.16699 -36 6.5s-18.5 9.5 -25.5 15.5s-12.833 12.167 -17.5 18.5s-8 11.833 -10 16.5c-20 -22 -44.5 -39.833 -73.5 -53.5s-63.167 -20.5 -102.5 -20.5c-40.667 0 -76.667 7.83301 -108 23.5
s-57.5 36.5 -78.5 62.5s-37 56 -48 90s-16.5 69.667 -16.5 107s5.5 73 16.5 107s27.167 64 48.5 90s47.666 46.667 78.999 62s67 23 107 23c35.333 0 66.833 -5.83301 94.5 -17.5s51.167 -27.834 70.5 -48.501v4c0 2.66699 0.333008 6.5 1 11.5s2.5 10 5.5 15
s7.33301 9.33301 13 13s13.167 5.5 22.5 5.5c10.667 0 20.667 -3.16699 30 -9.5s14 -17.166 14 -32.499v-386c0 -6.66699 1.66699 -11.334 5 -14.001s6.33301 -4 9 -4c14 0 24.667 -4.33301 32 -13s11 -18.667 11 -30zM484.001 266.002c0 30 -3.83301 57 -11.5 81
s-18.667 44.667 -33 62s-31.666 30.666 -51.999 39.999s-43.166 14 -68.499 14c-24.667 0 -47.167 -4.66699 -67.5 -14s-37.833 -22.666 -52.5 -39.999s-25.834 -38 -33.501 -62s-11.5 -51 -11.5 -81s3.83301 -57.167 11.5 -81.5s18.834 -45.166 33.501 -62.499
s32.167 -30.666 52.5 -39.999s42.833 -14 67.5 -14c25.333 0 48.166 4.66699 68.499 14s37.666 22.666 51.999 39.999s25.333 38.166 33 62.499s11.5 51.5 11.5 81.5zM441.001 766.002c0 -16.667 -6.66699 -29.667 -20 -39l-122 -93c-8.66699 -6.66699 -18 -10 -28 -10
c-12 0 -22.167 4.16699 -30.5 12.5s-12.5 18.166 -12.5 29.499s4.66699 22 14 32l108 110c9.33301 10 21 15 35 15c15.333 0 28.5 -5.66699 39.5 -17s16.5 -24.666 16.5 -39.999z" />
    <glyph glyph-name="acircumflex" unicode="&#xe2;" horiz-adv-x="669" 
d="M627 42c0 -10.667 -3.66602 -20.332 -10.999 -28.999s-18 -13 -32 -13s-26 2.16699 -36 6.5s-18.5 9.5 -25.5 15.5s-12.833 12.167 -17.5 18.5s-8 11.833 -10 16.5c-20 -22 -44.5 -39.833 -73.5 -53.5s-63.167 -20.5 -102.5 -20.5c-40.667 0 -76.667 7.83301 -108 23.5
s-57.5 36.5 -78.5 62.5s-37 56 -48 90s-16.5 69.667 -16.5 107s5.5 73 16.5 107s27.167 64 48.5 90s47.666 46.667 78.999 62s67 23 107 23c35.333 0 66.833 -5.83301 94.5 -17.5s51.167 -27.834 70.5 -48.501v4c0 2.66699 0.333008 6.5 1 11.5s2.5 10 5.5 15
s7.33301 9.33301 13 13s13.167 5.5 22.5 5.5c10.667 0 20.667 -3.16699 30 -9.5s14 -17.166 14 -32.499v-386c0 -6.66699 1.66699 -11.334 5 -14.001s6.33301 -4 9 -4c14 0 24.667 -4.33301 32 -13s11 -18.667 11 -30zM484.001 266.002c0 30 -3.83301 57 -11.5 81
s-18.667 44.667 -33 62s-31.666 30.666 -51.999 39.999s-43.166 14 -68.499 14c-24.667 0 -47.167 -4.66699 -67.5 -14s-37.833 -22.666 -52.5 -39.999s-25.834 -38 -33.501 -62s-11.5 -51 -11.5 -81s3.83301 -57.167 11.5 -81.5s18.834 -45.166 33.501 -62.499
s32.167 -30.666 52.5 -39.999s42.833 -14 67.5 -14c25.333 0 48.166 4.66699 68.499 14s37.666 22.666 51.999 39.999s25.333 38.166 33 62.499s11.5 51.5 11.5 81.5zM512.001 667.002c0 -11.333 -3.83203 -21.333 -11.499 -30s-18.167 -13 -31.5 -13
c-3.33301 0 -6.83301 0.333008 -10.5 1s-7.5 2 -11.5 4l-113 60l-113 -60c-6.66699 -3.33301 -14.334 -5 -23.001 -5c-12 0 -22 4.33301 -30 13s-12 18.667 -12 30c0 6 1.83301 12.333 5.5 19s9.16699 12.334 16.5 17.001l130 78l12.5 6c4.33301 2 8.83301 3 13.5 3
s9.16699 -1 13.5 -3l12.5 -6l130 -78c8 -4.66699 13.667 -10.334 17 -17.001s5 -13 5 -19z" />
    <glyph glyph-name="atilde" unicode="&#xe3;" horiz-adv-x="669" 
d="M627 42c0 -10.667 -3.66602 -20.332 -10.999 -28.999s-18 -13 -32 -13s-26 2.16699 -36 6.5s-18.5 9.5 -25.5 15.5s-12.833 12.167 -17.5 18.5s-8 11.833 -10 16.5c-20 -22 -44.5 -39.833 -73.5 -53.5s-63.167 -20.5 -102.5 -20.5c-40.667 0 -76.667 7.83301 -108 23.5
s-57.5 36.5 -78.5 62.5s-37 56 -48 90s-16.5 69.667 -16.5 107s5.5 73 16.5 107s27.167 64 48.5 90s47.666 46.667 78.999 62s67 23 107 23c35.333 0 66.833 -5.83301 94.5 -17.5s51.167 -27.834 70.5 -48.501v4c0 2.66699 0.333008 6.5 1 11.5s2.5 10 5.5 15
s7.33301 9.33301 13 13s13.167 5.5 22.5 5.5c10.667 0 20.667 -3.16699 30 -9.5s14 -17.166 14 -32.499v-386c0 -6.66699 1.66699 -11.334 5 -14.001s6.33301 -4 9 -4c14 0 24.667 -4.33301 32 -13s11 -18.667 11 -30zM484.001 266.002c0 30 -3.83301 57 -11.5 81
s-18.667 44.667 -33 62s-31.666 30.666 -51.999 39.999s-43.166 14 -68.499 14c-24.667 0 -47.167 -4.66699 -67.5 -14s-37.833 -22.666 -52.5 -39.999s-25.834 -38 -33.501 -62s-11.5 -51 -11.5 -81s3.83301 -57.167 11.5 -81.5s18.834 -45.166 33.501 -62.499
s32.167 -30.666 52.5 -39.999s42.833 -14 67.5 -14c25.333 0 48.166 4.66699 68.499 14s37.666 22.666 51.999 39.999s25.333 38.166 33 62.499s11.5 51.5 11.5 81.5zM534.001 702.002c0 -10 -5.00195 -19.668 -15.002 -29.001
c-18.667 -19.333 -35.834 -32.666 -51.501 -39.999s-30.5 -11 -44.5 -11c-16.667 0 -32.667 3.83301 -48 11.5s-29.833 16 -43.5 25s-27 17.167 -40 24.5s-25.833 11 -38.5 11c-7.33301 0 -14.833 -1.5 -22.5 -4.5s-15.167 -8.5 -22.5 -16.5
c-8 -8.66699 -17.667 -13 -29 -13s-21.666 4.5 -30.999 13.5s-14 19.5 -14 31.5c0 10 4.33301 19.333 13 28c18 18 35.833 30.833 53.5 38.5s34.167 11.5 49.5 11.5c20 0 38.333 -3.83301 55 -11.5s32.167 -16.167 46.5 -25.5l39 -25.5
c11.667 -7.66699 21.834 -11.5 30.501 -11.5c4 0 8.5 2 13.5 6s10.5 8.16699 16.5 12.5s12.333 8.5 19 12.5s13.334 6 20.001 6c12 0 22.333 -4.5 31 -13.5s13 -19.167 13 -30.5z" />
    <glyph glyph-name="adieresis" unicode="&#xe4;" horiz-adv-x="669" 
d="M627 42c0 -10.667 -3.66602 -20.332 -10.999 -28.999s-18 -13 -32 -13s-26 2.16699 -36 6.5s-18.5 9.5 -25.5 15.5s-12.833 12.167 -17.5 18.5s-8 11.833 -10 16.5c-20 -22 -44.5 -39.833 -73.5 -53.5s-63.167 -20.5 -102.5 -20.5c-40.667 0 -76.667 7.83301 -108 23.5
s-57.5 36.5 -78.5 62.5s-37 56 -48 90s-16.5 69.667 -16.5 107s5.5 73 16.5 107s27.167 64 48.5 90s47.666 46.667 78.999 62s67 23 107 23c35.333 0 66.833 -5.83301 94.5 -17.5s51.167 -27.834 70.5 -48.501v4c0 2.66699 0.333008 6.5 1 11.5s2.5 10 5.5 15
s7.33301 9.33301 13 13s13.167 5.5 22.5 5.5c10.667 0 20.667 -3.16699 30 -9.5s14 -17.166 14 -32.499v-386c0 -6.66699 1.66699 -11.334 5 -14.001s6.33301 -4 9 -4c14 0 24.667 -4.33301 32 -13s11 -18.667 11 -30zM484.001 266.002c0 30 -3.83301 57 -11.5 81
s-18.667 44.667 -33 62s-31.666 30.666 -51.999 39.999s-43.166 14 -68.499 14c-24.667 0 -47.167 -4.66699 -67.5 -14s-37.833 -22.666 -52.5 -39.999s-25.834 -38 -33.501 -62s-11.5 -51 -11.5 -81s3.83301 -57.167 11.5 -81.5s18.834 -45.166 33.501 -62.499
s32.167 -30.666 52.5 -39.999s42.833 -14 67.5 -14c25.333 0 48.166 4.66699 68.499 14s37.666 22.666 51.999 39.999s25.333 38.166 33 62.499s11.5 51.5 11.5 81.5zM518.001 695.002c0 -19.333 -6.66699 -36 -20 -50s-30 -21 -50 -21s-37 6.66699 -51 20s-21 30 -21 50
s7 37 21 51s31 21 51 21s36.667 -6.83301 50 -20.5s20 -30.5 20 -50.5zM292.001 695.002c0 -19.333 -7 -36 -21 -50s-31 -21 -51 -21s-36.833 6.66699 -50.5 20s-20.5 30 -20.5 50s6.83301 37 20.5 51s30.5 21 50.5 21s37 -6.83301 51 -20.5s21 -30.5 21 -50.5z" />
    <glyph glyph-name="aring" unicode="&#xe5;" horiz-adv-x="669" 
d="M463 607c0 -16 -3.00293 -31.335 -9.00293 -46.002s-14 -27.667 -24 -39c10 -5.33301 19.5 -11.333 28.5 -18s17.5 -14 25.5 -22v4c0 2.66699 0.333008 6.5 1 11.5s2.5 10 5.5 15s7.33301 9.33301 13 13s13.167 5.5 22.5 5.5c10.667 0 20.667 -3.16699 30 -9.5
s14 -17.166 14 -32.499v-386c0 -6.66699 1.66699 -11.334 5 -14.001s6.33301 -4 9 -4c14 0 24.667 -4.33301 32 -13s11 -18.667 11 -30c0 -10.667 -3.66699 -20.334 -11 -29.001s-18 -13 -32 -13s-26 2.16699 -36 6.5s-18.5 9.5 -25.5 15.5s-12.833 12.167 -17.5 18.5
s-8 11.833 -10 16.5c-20 -22 -44.5 -39.833 -73.5 -53.5s-63.167 -20.5 -102.5 -20.5c-40.667 0 -76.667 7.83301 -108 23.5s-57.5 36.5 -78.5 62.5s-37 56 -48 90s-16.5 69.667 -16.5 107c0 29.333 3.5 57.833 10.5 85.5s17.333 53.334 31 77.001s30.5 44.334 50.5 62.001
s43 31.5 69 41.5c-7.33301 10.667 -13.166 22.334 -17.499 35.001s-6.5 26 -6.5 40c0 17.333 3.5 33.666 10.5 48.999s16.333 28.833 28 40.5s25.334 21 41.001 28s32.167 10.5 49.5 10.5s33.833 -3.5 49.5 -10.5s29.334 -16.333 41.001 -28s21 -25.167 28 -40.5
s10.5 -31.666 10.5 -48.999zM483.997 265.998c0 30 -3.83301 57 -11.5 81s-18.667 44.667 -33 62s-31.666 30.666 -51.999 39.999s-43.166 14 -68.499 14c-24.667 0 -47.167 -4.66699 -67.5 -14s-37.833 -22.666 -52.5 -39.999s-25.834 -38 -33.501 -62s-11.5 -51 -11.5 -81
s3.83301 -57.167 11.5 -81.5s18.834 -45.166 33.501 -62.499s32.167 -30.666 52.5 -39.999s42.833 -14 67.5 -14c25.333 0 48.166 4.66699 68.499 14s37.666 22.666 51.999 39.999s25.333 38.166 33 62.499s11.5 51.5 11.5 81.5zM391.997 606.998
c0 16 -5.66699 29.667 -17 41s-25 17 -41 17s-29.667 -5.66699 -41 -17s-17 -25 -17 -41s5.66699 -29.833 17 -41.5s25 -17.5 41 -17.5s29.667 5.83301 41 17.5s17 25.5 17 41.5z" />
    <glyph glyph-name="ae" unicode="&#xe6;" horiz-adv-x="963" 
d="M906 266c0 -11.333 -3.66895 -21.4922 -11.002 -30.4922s-17.666 -13.5 -30.999 -13.5h-369c6.66699 -47.333 24.334 -84.833 53.001 -112.5s65 -41.5 109 -41.5c22 0 43.667 4.16699 65 12.5s39 21.5 53 39.5c9.33301 10.667 19.666 16 30.999 16
s21.833 -4.33301 31.5 -13s14.5 -19 14.5 -31c0 -6 -1.5 -11.833 -4.5 -17.5s-9.5 -13.834 -19.5 -24.501c-23.333 -22 -49.666 -38.667 -78.999 -50s-60 -17 -92 -17c-39.333 0 -74.166 7.16699 -104.499 21.5s-56.166 33.833 -77.499 58.5l-29 -27
c-11.333 -10 -25.333 -18.667 -42 -26c-14 -6.66699 -31.5 -12.834 -52.5 -18.501s-45.833 -8.5 -74.5 -8.5c-24 0 -48.667 2.66699 -74 8s-48.333 14.333 -69 27s-37.667 29 -51 49s-20 44.333 -20 73c0 29.333 6.66699 54 20 74s30.333 36.333 51 49s43.667 21.667 69 27
s50 8 74 8c22 0 44 -1.83301 66 -5.5s43 -9.83398 63 -18.501v117c0 14.667 -4.66699 26.667 -14 36s-20.833 16.666 -34.5 21.999s-27.834 9 -42.501 11s-27.334 3 -38.001 3c-7.33301 0 -15 -0.333008 -23 -1s-16 -2 -24 -4c-12 -2 -23.333 -5.33301 -34 -10
s-20.667 -7 -30 -7c-10.667 0 -19.834 4.66699 -27.501 14s-11.5 19.666 -11.5 30.999c0 12 5.5 22 16.5 30s24.5 14.333 40.5 19s32.5 8 49.5 10s31.5 3 43.5 3c18 0 36.5 -1.66699 55.5 -5s37.333 -8.33301 55 -15s33.834 -15.334 48.501 -26.001
s26.667 -23.334 36 -38.001c21.333 25.333 47.5 45.666 78.5 60.999s66.5 23 106.5 23c40.667 0 76.5 -7.66699 107.5 -23s57 -36 78 -62s36.833 -56 47.5 -90s16 -69.667 16 -107zM818.998 308.008c-7.33301 48 -25.1689 85.833 -53.502 113.5s-64.5 41.5 -108.5 41.5
c-24 0 -45.333 -4 -64 -12s-34.667 -19 -48 -33s-24.166 -30.5 -32.499 -49.5s-14.166 -39.167 -17.499 -60.5h324v0zM422.995 157.008c-4 11.333 -11.832 20.665 -23.499 27.998s-24.834 13 -39.501 17s-29.5 6.66699 -44.5 8s-27.833 2 -38.5 2s-23.334 -1 -38.001 -3
s-28.667 -5.66699 -42 -11s-24.833 -12.666 -34.5 -21.999s-14.5 -21.333 -14.5 -36s4.83301 -26.667 14.5 -36s21.167 -16.666 34.5 -21.999s27.333 -9 42 -11s27.334 -3 38.001 -3c22 0 42.5 2.5 61.5 7.5s34.5 12.5 46.5 22.5l45 39z" />
    <glyph glyph-name="ccedilla" unicode="&#xe7;" horiz-adv-x="567" 
d="M434 -136c0 -16 -3.00098 -30.8311 -9.00098 -44.498s-14.167 -25.834 -24.5 -36.501s-22.5 -19 -36.5 -25s-29 -9 -45 -9c-10 0 -20.5 1.66699 -31.5 5s-21.167 7.83301 -30.5 13.5s-17 12.334 -23 20.001s-9 16.167 -9 25.5c0 11.333 4.5 21.333 13.5 30
s19.167 13 30.5 13c9.33301 0 17.833 -3.5 25.5 -10.5s15.834 -10.5 24.501 -10.5s15.667 2.66699 21 8s8 12.333 8 21c0 11.333 -3.66699 18.666 -11 21.999s-15.5 6.16602 -24.5 8.49902s-17.167 6 -24.5 11s-11 15.167 -11 30.5v51c-34 4.66699 -64 15.5 -90 32.5
s-47.833 38 -65.5 63s-31 53.167 -40 84.5s-13.5 64.333 -13.5 99c0 37.333 5.5 73 16.5 107s27.167 64 48.5 90s47.666 46.667 78.999 62s67 23 107 23c37.333 0 71 -6.5 101 -19.5s56 -31.833 78 -56.5c8 -8.66699 12 -18.334 12 -29.001
c0 -11.333 -4.66699 -21.333 -14 -30s-19.666 -13 -30.999 -13c-10.667 0 -21 4.66699 -31 14c-14 15.333 -30.333 27.333 -49 36s-40.667 13 -66 13c-24.667 0 -47.167 -4.66699 -67.5 -14s-37.833 -22.666 -52.5 -39.999s-25.834 -38 -33.501 -62s-11.5 -51 -11.5 -81
s3.83301 -57.167 11.5 -81.5s18.834 -45.166 33.501 -62.499s32.167 -30.666 52.5 -39.999s42.833 -14 67.5 -14c25.333 0 47.5 4.33301 66.5 13s35.167 20.667 48.5 36c4.66699 5.33301 9.66699 9.16602 15 11.499s10.666 3.5 15.999 3.5
c11.333 0 21.666 -4.33301 30.999 -13s14 -19 14 -31c0 -10 -4 -19.667 -12 -29c-35.333 -39.333 -80.666 -63.666 -135.999 -72.999v-16c20.667 -8.66699 37.834 -22.334 51.501 -41.001s20.5 -40.334 20.5 -65.001z" />
    <glyph glyph-name="egrave" unicode="&#xe8;" horiz-adv-x="626" 
d="M569 266c0 -11.333 -3.66309 -21.498 -10.9961 -30.498s-17.666 -13.5 -30.999 -13.5h-370c7.33301 -47.333 25.166 -84.833 53.499 -112.5s64.5 -41.5 108.5 -41.5c22.667 0 44.5 4.16699 65.5 12.5s38.833 21.5 53.5 39.5c9.33301 10.667 19.666 16 30.999 16
s21.666 -4.33301 30.999 -13s14 -19 14 -31c0 -6 -1.33301 -11.833 -4 -17.5s-9.33398 -13.834 -20.001 -24.501c-22.667 -22 -48.834 -38.667 -78.501 -50s-60.5 -17 -92.5 -17c-40 0 -75.667 7.66699 -107 23s-57.666 36 -78.999 62s-37.5 56.167 -48.5 90.5
s-16.5 70.166 -16.5 107.499s5.5 73 16.5 107s27.167 64 48.5 90s47.666 46.667 78.999 62s67 23 107 23c40.667 0 76.667 -7.66699 108 -23s57.5 -36 78.5 -62s36.833 -56 47.5 -90s16 -69.667 16 -107zM481.004 308.002c-7.33301 48 -25.167 85.833 -53.5 113.5
s-64.5 41.5 -108.5 41.5c-23.333 0 -44.333 -4 -63 -12s-34.834 -19 -48.501 -33s-24.667 -30.5 -33 -49.5s-14.166 -39.167 -17.499 -60.5h324v0zM420.003 667.002c0 -11.333 -4.16797 -21.333 -12.501 -30s-18.166 -13 -29.499 -13c-10.667 0 -20.667 3.66699 -30 11
l-122 92c-6.66699 4.66699 -11.5 10.667 -14.5 18s-4.5 14.666 -4.5 21.999c0 15.333 5.66699 28.5 17 39.5s24.333 16.5 39 16.5c6 0 12 -1.16699 18 -3.5s11.667 -6.16602 17 -11.499l107 -109c10 -10 15 -20.667 15 -32z" />
    <glyph glyph-name="eacute" unicode="&#xe9;" horiz-adv-x="626" 
d="M569 266c0 -11.333 -3.66309 -21.498 -10.9961 -30.498s-17.666 -13.5 -30.999 -13.5h-370c7.33301 -47.333 25.166 -84.833 53.499 -112.5s64.5 -41.5 108.5 -41.5c22.667 0 44.5 4.16699 65.5 12.5s38.833 21.5 53.5 39.5c9.33301 10.667 19.666 16 30.999 16
s21.666 -4.33301 30.999 -13s14 -19 14 -31c0 -6 -1.33301 -11.833 -4 -17.5s-9.33398 -13.834 -20.001 -24.501c-22.667 -22 -48.834 -38.667 -78.501 -50s-60.5 -17 -92.5 -17c-40 0 -75.667 7.66699 -107 23s-57.666 36 -78.999 62s-37.5 56.167 -48.5 90.5
s-16.5 70.166 -16.5 107.499s5.5 73 16.5 107s27.167 64 48.5 90s47.666 46.667 78.999 62s67 23 107 23c40.667 0 76.667 -7.66699 108 -23s57.5 -36 78.5 -62s36.833 -56 47.5 -90s16 -69.667 16 -107zM481.004 308.002c-7.33301 48 -25.167 85.833 -53.5 113.5
s-64.5 41.5 -108.5 41.5c-23.333 0 -44.333 -4 -63 -12s-34.834 -19 -48.501 -33s-24.667 -30.5 -33 -49.5s-14.166 -39.167 -17.499 -60.5h324v0zM420.003 766.002c0 -16.667 -6.66699 -29.667 -20 -39l-122 -93c-8.66699 -6.66699 -18 -10 -28 -10
c-12 0 -22.167 4.16699 -30.5 12.5s-12.5 18.166 -12.5 29.499s4.66699 22 14 32l108 110c9.33301 10 21 15 35 15c15.333 0 28.5 -5.66699 39.5 -17s16.5 -24.666 16.5 -39.999z" />
    <glyph glyph-name="ecircumflex" unicode="&#xea;" horiz-adv-x="626" 
d="M569 266c0 -11.333 -3.66309 -21.498 -10.9961 -30.498s-17.666 -13.5 -30.999 -13.5h-370c7.33301 -47.333 25.166 -84.833 53.499 -112.5s64.5 -41.5 108.5 -41.5c22.667 0 44.5 4.16699 65.5 12.5s38.833 21.5 53.5 39.5c9.33301 10.667 19.666 16 30.999 16
s21.666 -4.33301 30.999 -13s14 -19 14 -31c0 -6 -1.33301 -11.833 -4 -17.5s-9.33398 -13.834 -20.001 -24.501c-22.667 -22 -48.834 -38.667 -78.501 -50s-60.5 -17 -92.5 -17c-40 0 -75.667 7.66699 -107 23s-57.666 36 -78.999 62s-37.5 56.167 -48.5 90.5
s-16.5 70.166 -16.5 107.499s5.5 73 16.5 107s27.167 64 48.5 90s47.666 46.667 78.999 62s67 23 107 23c40.667 0 76.667 -7.66699 108 -23s57.5 -36 78.5 -62s36.833 -56 47.5 -90s16 -69.667 16 -107zM481.004 308.002c-7.33301 48 -25.167 85.833 -53.5 113.5
s-64.5 41.5 -108.5 41.5c-23.333 0 -44.333 -4 -63 -12s-34.834 -19 -48.501 -33s-24.667 -30.5 -33 -49.5s-14.166 -39.167 -17.499 -60.5h324v0zM491.003 667.002c0 -11.333 -3.83203 -21.333 -11.499 -30s-18.167 -13 -31.5 -13c-3.33301 0 -6.83301 0.333008 -10.5 1
s-7.5 2 -11.5 4l-113 60l-113 -60c-6.66699 -3.33301 -14.334 -5 -23.001 -5c-12 0 -22 4.33301 -30 13s-12 18.667 -12 30c0 6 1.83301 12.333 5.5 19s9.16699 12.334 16.5 17.001l130 78l12.5 6c4.33301 2 8.83301 3 13.5 3s9.16699 -1 13.5 -3l12.5 -6l130 -78
c8 -4.66699 13.667 -10.334 17 -17.001s5 -13 5 -19z" />
    <glyph glyph-name="edieresis" unicode="&#xeb;" horiz-adv-x="626" 
d="M569 266c0 -11.333 -3.66309 -21.498 -10.9961 -30.498s-17.666 -13.5 -30.999 -13.5h-370c7.33301 -47.333 25.166 -84.833 53.499 -112.5s64.5 -41.5 108.5 -41.5c22.667 0 44.5 4.16699 65.5 12.5s38.833 21.5 53.5 39.5c9.33301 10.667 19.666 16 30.999 16
s21.666 -4.33301 30.999 -13s14 -19 14 -31c0 -6 -1.33301 -11.833 -4 -17.5s-9.33398 -13.834 -20.001 -24.501c-22.667 -22 -48.834 -38.667 -78.501 -50s-60.5 -17 -92.5 -17c-40 0 -75.667 7.66699 -107 23s-57.666 36 -78.999 62s-37.5 56.167 -48.5 90.5
s-16.5 70.166 -16.5 107.499s5.5 73 16.5 107s27.167 64 48.5 90s47.666 46.667 78.999 62s67 23 107 23c40.667 0 76.667 -7.66699 108 -23s57.5 -36 78.5 -62s36.833 -56 47.5 -90s16 -69.667 16 -107zM481.004 308.002c-7.33301 48 -25.167 85.833 -53.5 113.5
s-64.5 41.5 -108.5 41.5c-23.333 0 -44.333 -4 -63 -12s-34.834 -19 -48.501 -33s-24.667 -30.5 -33 -49.5s-14.166 -39.167 -17.499 -60.5h324v0zM497.003 695.002c0 -19.333 -6.66699 -36 -20 -50s-30 -21 -50 -21s-37 6.66699 -51 20s-21 30 -21 50s7 37 21 51
s31 21 51 21s36.667 -6.83301 50 -20.5s20 -30.5 20 -50.5zM271.003 695.002c0 -19.333 -7 -36 -21 -50s-31 -21 -51 -21s-36.833 6.66699 -50.5 20s-20.5 30 -20.5 50s6.83301 37 20.5 51s30.5 21 50.5 21s37 -6.83301 51 -20.5s21 -30.5 21 -50.5z" />
    <glyph glyph-name="igrave" unicode="&#xec;" horiz-adv-x="274" 
d="M179 42c0 -14 -4.33301 -24.499 -13 -31.499s-18.334 -10.5 -29.001 -10.5c-11.333 0 -21.5 3.66699 -30.5 11s-13.5 17.666 -13.5 30.999v446c0 14 4.5 24.667 13.5 32s19.167 11 30.5 11c10.667 0 20.334 -3.66699 29.001 -11s13 -18 13 -32v-446v0zM244 667.001
c0 -11.333 -4.16797 -21.333 -12.501 -30s-18.166 -13 -29.499 -13c-10.667 0 -20.667 3.66699 -30 11l-122 92c-6.66699 4.66699 -11.5 10.667 -14.5 18s-4.5 14.666 -4.5 21.999c0 15.333 5.66699 28.5 17 39.5s24.333 16.5 39 16.5c6 0 12 -1.16699 18 -3.5
s11.667 -6.16602 17 -11.499l107 -109c10 -10 15 -20.667 15 -32z" />
    <glyph glyph-name="iacute" unicode="&#xed;" horiz-adv-x="274" 
d="M179 42c0 -14 -4.33301 -24.499 -13 -31.499s-18.334 -10.5 -29.001 -10.5c-11.333 0 -21.5 3.66699 -30.5 11s-13.5 17.666 -13.5 30.999v446c0 14 4.5 24.667 13.5 32s19.167 11 30.5 11c10.667 0 20.334 -3.66699 29.001 -11s13 -18 13 -32v-446v0zM244 766.001
c0 -16.667 -6.66699 -29.667 -20 -39l-122 -93c-8.66699 -6.66699 -18 -10 -28 -10c-12 0 -22.167 4.16699 -30.5 12.5s-12.5 18.166 -12.5 29.499s4.66699 22 14 32l108 110c9.33301 10 21 15 35 15c15.333 0 28.5 -5.66699 39.5 -17s16.5 -24.666 16.5 -39.999z" />
    <glyph glyph-name="icircumflex" unicode="&#xee;" horiz-adv-x="274" 
d="M179 42c0 -14 -4.33301 -24.499 -13 -31.499s-18.334 -10.5 -29.001 -10.5c-11.333 0 -21.5 3.66699 -30.5 11s-13.5 17.666 -13.5 30.999v446c0 14 4.5 24.667 13.5 32s19.167 11 30.5 11c10.667 0 20.334 -3.66699 29.001 -11s13 -18 13 -32v-446v0zM315 667.001
c0 -11.333 -3.83203 -21.333 -11.499 -30s-18.167 -13 -31.5 -13c-3.33301 0 -6.83301 0.333008 -10.5 1s-7.5 2 -11.5 4l-113 60l-113 -60c-6.66699 -3.33301 -14.334 -5 -23.001 -5c-12 0 -22 4.33301 -30 13s-12 18.667 -12 30c0 6 1.83301 12.333 5.5 19
s9.16699 12.334 16.5 17.001l130 78l12.5 6c4.33301 2 8.83301 3 13.5 3s9.16699 -1 13.5 -3l12.5 -6l130 -78c8 -4.66699 13.667 -10.334 17 -17.001s5 -13 5 -19z" />
    <glyph glyph-name="idieresis" unicode="&#xef;" horiz-adv-x="274" 
d="M179 42c0 -14 -4.33301 -24.499 -13 -31.499s-18.334 -10.5 -29.001 -10.5c-11.333 0 -21.5 3.66699 -30.5 11s-13.5 17.666 -13.5 30.999v446c0 14 4.5 24.667 13.5 32s19.167 11 30.5 11c10.667 0 20.334 -3.66699 29.001 -11s13 -18 13 -32v-446v0zM321 695.001
c0 -19.333 -6.66699 -36 -20 -50s-30 -21 -50 -21s-37 6.66699 -51 20s-21 30 -21 50s7 37 21 51s31 21 51 21s36.667 -6.83301 50 -20.5s20 -30.5 20 -50.5zM95 695.001c0 -19.333 -7 -36 -21 -50s-31 -21 -51 -21s-36.833 6.66699 -50.5 20s-20.5 30 -20.5 50
s6.83301 37 20.5 51s30.5 21 50.5 21s37 -6.83301 51 -20.5s21 -30.5 21 -50.5z" />
    <glyph glyph-name="eth" unicode="&#xf0;" horiz-adv-x="651" 
d="M641 641c0 -11.333 -3.66895 -21.166 -11.002 -29.499s-18.333 -12.5 -33 -12.5h-71c10.667 -28 19 -56.667 25 -86s10.333 -58.5 13 -87.5s4.33398 -57 5.00098 -84s1 -52.167 1 -75.5c0 -38 -5.5 -74.167 -16.5 -108.5s-27.167 -64.333 -48.5 -90
s-47.666 -46.167 -78.999 -61.5s-67 -23 -107 -23s-75.667 7.66699 -107 23s-57.666 35.833 -78.999 61.5s-37.5 55.667 -48.5 90s-16.5 70.5 -16.5 108.5s5.5 74 16.5 108s27.167 63.833 48.5 89.5s47.666 46.167 78.999 61.5s67 23 107 23
c57.333 0 106.333 -15.333 147 -46c-4 17.333 -8.66699 34 -14 50s-12.333 31.667 -21 47h-130c-14.667 0 -25.334 4.16699 -32.001 12.5s-10 18.166 -10 29.499s3.33301 21.333 10 30s17.334 13 32.001 13h58c-6 4.66699 -12.5 8.83398 -19.5 12.501
s-13.5 7.66699 -19.5 12s-11 9.16602 -15 14.499s-6 11.666 -6 18.999c0 11.333 4 21.833 12 31.5s18.333 14.5 31 14.5c3.33301 0 6.5 -0.333008 9.5 -1s6.16699 -2 9.5 -4c25.333 -13.333 47.5 -28.166 66.5 -44.499s36.167 -34.5 51.5 -54.5h118
c14.667 0 25.667 -4.33301 33 -13s11 -18.667 11 -30zM483.998 266c0 30 -3.83301 57 -11.5 81s-18.667 44.667 -33 62s-31.666 30.666 -51.999 39.999s-43.166 14 -68.499 14c-24.667 0 -47.167 -4.66699 -67.5 -14s-37.833 -22.666 -52.5 -39.999s-25.834 -38 -33.501 -62
s-11.5 -51 -11.5 -81s3.83301 -57.167 11.5 -81.5s18.834 -45.166 33.501 -62.499s32.167 -30.666 52.5 -39.999s42.833 -14 67.5 -14c25.333 0 48.166 4.66699 68.499 14s37.666 22.666 51.999 39.999s25.333 38.166 33 62.499s11.5 51.5 11.5 81.5z" />
    <glyph glyph-name="ntilde" unicode="&#xf1;" horiz-adv-x="629" 
d="M547 43c0 -14 -4.33398 -24.667 -13.001 -32s-18.667 -11 -30 -11s-21.166 3.66699 -29.499 11s-12.5 17.666 -12.5 30.999v278c0 19.333 -3.83301 37.666 -11.5 54.999s-18 32.5 -31 45.5s-28.167 23.333 -45.5 31s-35.666 11.5 -54.999 11.5
s-37.5 -3.83301 -54.5 -11.5s-32 -18 -45 -31s-23.333 -28.167 -31 -45.5s-11.5 -35.666 -11.5 -54.999v-277c0 -14 -4.5 -24.833 -13.5 -32.5s-19.167 -11.5 -30.5 -11.5c-10.667 0 -20.334 3.66699 -29.001 11s-13 18 -13 32v447c0 14.667 4.33301 25.334 13 32.001
s18.334 10 29.001 10c10 0 19 -2.66699 27 -8s13.333 -13.666 16 -24.999c19.333 15.333 41 27.5 65 36.5s50 13.5 78 13.5c31.333 0 60.666 -6 87.999 -18s51.5 -28.333 72.5 -49s37.5 -44.834 49.5 -72.501s18 -57.167 18 -88.5v-277v0zM513.999 702
c0 -10 -5.00195 -19.668 -15.002 -29.001c-18.667 -19.333 -35.834 -32.666 -51.501 -39.999s-30.5 -11 -44.5 -11c-16.667 0 -32.667 3.83301 -48 11.5s-29.833 16 -43.5 25s-27 17.167 -40 24.5s-25.833 11 -38.5 11c-7.33301 0 -14.833 -1.5 -22.5 -4.5
s-15.167 -8.5 -22.5 -16.5c-8 -8.66699 -17.667 -13 -29 -13s-21.666 4.5 -30.999 13.5s-14 19.5 -14 31.5c0 10 4.33301 19.333 13 28c18 18 35.833 30.833 53.5 38.5s34.167 11.5 49.5 11.5c20 0 38.333 -3.83301 55 -11.5s32.167 -16.167 46.5 -25.5l39 -25.5
c11.667 -7.66699 21.834 -11.5 30.501 -11.5c4 0 8.5 2 13.5 6s10.5 8.16699 16.5 12.5s12.333 8.5 19 12.5s13.334 6 20.001 6c12 0 22.333 -4.5 31 -13.5s13 -19.167 13 -30.5z" />
    <glyph glyph-name="ograve" unicode="&#xf2;" horiz-adv-x="638" 
d="M570 266c0 -38 -5.5 -74 -16.5 -108s-27.167 -64 -48.5 -90s-47.666 -46.667 -78.999 -62s-67 -23 -107 -23s-75.667 7.66699 -107 23s-57.666 36 -78.999 62s-37.5 56 -48.5 90s-16.5 70 -16.5 108c0 37.333 5.5 73 16.5 107s27.167 64 48.5 90s47.666 46.667 78.999 62
s67 23 107 23s75.667 -7.66699 107 -23s57.666 -36 78.999 -62s37.5 -56 48.5 -90s16.5 -69.667 16.5 -107zM484 266c0 30 -3.83301 57 -11.5 81s-18.667 44.667 -33 62s-31.666 30.666 -51.999 39.999s-43.166 14 -68.499 14c-24.667 0 -47.167 -4.66699 -67.5 -14
s-37.833 -22.666 -52.5 -39.999s-25.834 -38 -33.501 -62s-11.5 -51 -11.5 -81s3.83301 -57.167 11.5 -81.5s18.834 -45.166 33.501 -62.499s32.167 -30.666 52.5 -39.999s42.833 -14 67.5 -14c25.333 0 48.166 4.66699 68.499 14s37.666 22.666 51.999 39.999
s25.333 38.166 33 62.499s11.5 51.5 11.5 81.5zM425 667c0 -11.333 -4.16797 -21.333 -12.501 -30s-18.166 -13 -29.499 -13c-10.667 0 -20.667 3.66699 -30 11l-122 92c-6.66699 4.66699 -11.5 10.667 -14.5 18s-4.5 14.666 -4.5 21.999c0 15.333 5.66699 28.5 17 39.5
s24.333 16.5 39 16.5c6 0 12 -1.16699 18 -3.5s11.667 -6.16602 17 -11.499l107 -109c10 -10 15 -20.667 15 -32z" />
    <glyph glyph-name="oacute" unicode="&#xf3;" horiz-adv-x="638" 
d="M570 266c0 -38 -5.5 -74 -16.5 -108s-27.167 -64 -48.5 -90s-47.666 -46.667 -78.999 -62s-67 -23 -107 -23s-75.667 7.66699 -107 23s-57.666 36 -78.999 62s-37.5 56 -48.5 90s-16.5 70 -16.5 108c0 37.333 5.5 73 16.5 107s27.167 64 48.5 90s47.666 46.667 78.999 62
s67 23 107 23s75.667 -7.66699 107 -23s57.666 -36 78.999 -62s37.5 -56 48.5 -90s16.5 -69.667 16.5 -107zM484 266c0 30 -3.83301 57 -11.5 81s-18.667 44.667 -33 62s-31.666 30.666 -51.999 39.999s-43.166 14 -68.499 14c-24.667 0 -47.167 -4.66699 -67.5 -14
s-37.833 -22.666 -52.5 -39.999s-25.834 -38 -33.501 -62s-11.5 -51 -11.5 -81s3.83301 -57.167 11.5 -81.5s18.834 -45.166 33.501 -62.499s32.167 -30.666 52.5 -39.999s42.833 -14 67.5 -14c25.333 0 48.166 4.66699 68.499 14s37.666 22.666 51.999 39.999
s25.333 38.166 33 62.499s11.5 51.5 11.5 81.5zM425 766c0 -16.667 -6.66699 -29.667 -20 -39l-122 -93c-8.66699 -6.66699 -18 -10 -28 -10c-12 0 -22.167 4.16699 -30.5 12.5s-12.5 18.166 -12.5 29.499s4.66699 22 14 32l108 110c9.33301 10 21 15 35 15
c15.333 0 28.5 -5.66699 39.5 -17s16.5 -24.666 16.5 -39.999z" />
    <glyph glyph-name="ocircumflex" unicode="&#xf4;" horiz-adv-x="638" 
d="M570 266c0 -38 -5.5 -74 -16.5 -108s-27.167 -64 -48.5 -90s-47.666 -46.667 -78.999 -62s-67 -23 -107 -23s-75.667 7.66699 -107 23s-57.666 36 -78.999 62s-37.5 56 -48.5 90s-16.5 70 -16.5 108c0 37.333 5.5 73 16.5 107s27.167 64 48.5 90s47.666 46.667 78.999 62
s67 23 107 23s75.667 -7.66699 107 -23s57.666 -36 78.999 -62s37.5 -56 48.5 -90s16.5 -69.667 16.5 -107zM484 266c0 30 -3.83301 57 -11.5 81s-18.667 44.667 -33 62s-31.666 30.666 -51.999 39.999s-43.166 14 -68.499 14c-24.667 0 -47.167 -4.66699 -67.5 -14
s-37.833 -22.666 -52.5 -39.999s-25.834 -38 -33.501 -62s-11.5 -51 -11.5 -81s3.83301 -57.167 11.5 -81.5s18.834 -45.166 33.501 -62.499s32.167 -30.666 52.5 -39.999s42.833 -14 67.5 -14c25.333 0 48.166 4.66699 68.499 14s37.666 22.666 51.999 39.999
s25.333 38.166 33 62.499s11.5 51.5 11.5 81.5zM497 667c0 -11.333 -3.83203 -21.333 -11.499 -30s-18.167 -13 -31.5 -13c-3.33301 0 -6.83301 0.333008 -10.5 1s-7.5 2 -11.5 4l-113 60l-113 -60c-6.66699 -3.33301 -14.334 -5 -23.001 -5c-12 0 -22 4.33301 -30 13
s-12 18.667 -12 30c0 6 1.83301 12.333 5.5 19s9.16699 12.334 16.5 17.001l130 78l12.5 6c4.33301 2 8.83301 3 13.5 3s9.16699 -1 13.5 -3l12.5 -6l130 -78c8 -4.66699 13.667 -10.334 17 -17.001s5 -13 5 -19z" />
    <glyph glyph-name="otilde" unicode="&#xf5;" horiz-adv-x="638" 
d="M570 266c0 -38 -5.5 -74 -16.5 -108s-27.167 -64 -48.5 -90s-47.666 -46.667 -78.999 -62s-67 -23 -107 -23s-75.667 7.66699 -107 23s-57.666 36 -78.999 62s-37.5 56 -48.5 90s-16.5 70 -16.5 108c0 37.333 5.5 73 16.5 107s27.167 64 48.5 90s47.666 46.667 78.999 62
s67 23 107 23s75.667 -7.66699 107 -23s57.666 -36 78.999 -62s37.5 -56 48.5 -90s16.5 -69.667 16.5 -107zM484 266c0 30 -3.83301 57 -11.5 81s-18.667 44.667 -33 62s-31.666 30.666 -51.999 39.999s-43.166 14 -68.499 14c-24.667 0 -47.167 -4.66699 -67.5 -14
s-37.833 -22.666 -52.5 -39.999s-25.834 -38 -33.501 -62s-11.5 -51 -11.5 -81s3.83301 -57.167 11.5 -81.5s18.834 -45.166 33.501 -62.499s32.167 -30.666 52.5 -39.999s42.833 -14 67.5 -14c25.333 0 48.166 4.66699 68.499 14s37.666 22.666 51.999 39.999
s25.333 38.166 33 62.499s11.5 51.5 11.5 81.5zM518 702c0 -10 -5.00195 -19.668 -15.002 -29.001c-18.667 -19.333 -35.834 -32.666 -51.501 -39.999s-30.5 -11 -44.5 -11c-16.667 0 -32.667 3.83301 -48 11.5s-29.833 16 -43.5 25s-27 17.167 -40 24.5
s-25.833 11 -38.5 11c-7.33301 0 -14.833 -1.5 -22.5 -4.5s-15.167 -8.5 -22.5 -16.5c-8 -8.66699 -17.667 -13 -29 -13s-21.666 4.5 -30.999 13.5s-14 19.5 -14 31.5c0 10 4.33301 19.333 13 28c18 18 35.833 30.833 53.5 38.5s34.167 11.5 49.5 11.5
c20 0 38.333 -3.83301 55 -11.5s32.167 -16.167 46.5 -25.5l39 -25.5c11.667 -7.66699 21.834 -11.5 30.501 -11.5c4 0 8.5 2 13.5 6s10.5 8.16699 16.5 12.5s12.333 8.5 19 12.5s13.334 6 20.001 6c12 0 22.333 -4.5 31 -13.5s13 -19.167 13 -30.5z" />
    <glyph glyph-name="odieresis" unicode="&#xf6;" horiz-adv-x="638" 
d="M570 266c0 -38 -5.5 -74 -16.5 -108s-27.167 -64 -48.5 -90s-47.666 -46.667 -78.999 -62s-67 -23 -107 -23s-75.667 7.66699 -107 23s-57.666 36 -78.999 62s-37.5 56 -48.5 90s-16.5 70 -16.5 108c0 37.333 5.5 73 16.5 107s27.167 64 48.5 90s47.666 46.667 78.999 62
s67 23 107 23s75.667 -7.66699 107 -23s57.666 -36 78.999 -62s37.5 -56 48.5 -90s16.5 -69.667 16.5 -107zM484 266c0 30 -3.83301 57 -11.5 81s-18.667 44.667 -33 62s-31.666 30.666 -51.999 39.999s-43.166 14 -68.499 14c-24.667 0 -47.167 -4.66699 -67.5 -14
s-37.833 -22.666 -52.5 -39.999s-25.834 -38 -33.501 -62s-11.5 -51 -11.5 -81s3.83301 -57.167 11.5 -81.5s18.834 -45.166 33.501 -62.499s32.167 -30.666 52.5 -39.999s42.833 -14 67.5 -14c25.333 0 48.166 4.66699 68.499 14s37.666 22.666 51.999 39.999
s25.333 38.166 33 62.499s11.5 51.5 11.5 81.5zM503 695c0 -19.333 -6.66699 -36 -20 -50s-30 -21 -50 -21s-37 6.66699 -51 20s-21 30 -21 50s7 37 21 51s31 21 51 21s36.667 -6.83301 50 -20.5s20 -30.5 20 -50.5zM277 695c0 -19.333 -7 -36 -21 -50s-31 -21 -51 -21
s-36.833 6.66699 -50.5 20s-20.5 30 -20.5 50s6.83301 37 20.5 51s30.5 21 50.5 21s37 -6.83301 51 -20.5s21 -30.5 21 -50.5z" />
    <glyph glyph-name="divide" unicode="&#xf7;" horiz-adv-x="535" 
d="M340 458c0 -20 -7 -37 -21 -51s-31 -21 -51 -21s-36.833 7 -50.5 21s-20.5 31 -20.5 51s6.83301 37 20.5 51s30.5 21 50.5 21s37 -7 51 -21s21 -31 21 -51zM467 283c0 -11.333 -3.5 -21.166 -10.5 -29.499s-17.833 -12.5 -32.5 -12.5h-313
c-14.667 0 -25.5 4.16699 -32.5 12.5s-10.5 18.166 -10.5 29.499s3.5 21.333 10.5 30s17.833 13 32.5 13h313c14.667 0 25.5 -4.33301 32.5 -13s10.5 -18.667 10.5 -30zM340 108c0 -20 -7 -37 -21 -51s-31 -21 -51 -21s-36.833 7 -50.5 21s-20.5 31 -20.5 51
s6.83301 37 20.5 51s30.5 21 50.5 21s37 -7 51 -21s21 -31 21 -51z" />
    <glyph glyph-name="oslash" unicode="&#xf8;" horiz-adv-x="638" 
d="M570 266c0 -38 -5.49805 -74 -16.498 -108s-27.167 -64 -48.5 -90s-47.666 -46.667 -78.999 -62s-67 -23 -107 -23c-58.667 0 -107.667 16 -147 48l-28 -32c-8.66699 -10 -19.334 -15 -32.001 -15c-11.333 0 -21.666 4.16699 -30.999 12.5s-14 18.166 -14 29.499
c0 10.667 4 20.334 12 29.001l35 41c-15.333 23.333 -26.833 49.5 -34.5 78.5s-11.5 59.5 -11.5 91.5c0 37.333 5.5 73 16.5 107s27.167 64 48.5 90s47.666 46.667 78.999 62s67 23 107 23c29.333 0 55.833 -4 79.5 -12s45.167 -19 64.5 -33l26 31
c8.66699 9.33301 19 14 31 14c11.333 0 21.666 -4.16699 30.999 -12.5s14 -18.5 14 -30.5c0 -10 -3.66699 -19 -11 -27l-32 -38c15.333 -24.667 27.166 -51.667 35.499 -81s12.5 -60.333 12.5 -93zM407.002 437c-24.667 17.333 -53.999 25.999 -87.999 25.999
c-24.667 0 -47.167 -4.66699 -67.5 -14s-37.833 -22.666 -52.5 -39.999s-25.834 -38 -33.501 -62s-11.5 -51 -11.5 -81c0 -38 7.33301 -71.333 22 -100l231 271v0zM484.003 265.999c0 41.333 -7.33105 75.6689 -21.998 103.002l-234 -272c26.667 -19.333 57 -29 91 -29
c25.333 0 48.166 4.66699 68.499 14s37.666 22.666 51.999 39.999s25.333 38.166 33 62.499s11.5 51.5 11.5 81.5z" />
    <glyph glyph-name="ugrave" unicode="&#xf9;" horiz-adv-x="629" 
d="M538 41c0 -14 -4.16699 -24.501 -12.5 -31.501s-18.166 -10.5 -29.499 -10.5c-9.33301 0 -18.166 2.66699 -26.499 8s-13.5 13.666 -15.5 24.999c-20 -15.333 -42 -27.5 -66 -36.5s-50 -13.5 -78 -13.5c-30.667 0 -59.834 6 -87.501 18s-52 28.333 -73 49
s-37.5 44.834 -49.5 72.501s-18 57.167 -18 88.5v277c0 14 4.33301 24.667 13 32s18.334 11 29.001 11c11.333 0 21.5 -3.66699 30.5 -11s13.5 -17.666 13.5 -30.999v-278c0 -19.333 3.83301 -37.666 11.5 -54.999s18 -32.5 31 -45.5s28 -23.333 45 -31
s35.167 -11.5 54.5 -11.5s37.666 3.83301 54.999 11.5s32.5 18 45.5 31s23.333 28.167 31 45.5s11.5 35.666 11.5 54.999v277c0 15.333 4.16699 26.5 12.5 33.5s18.166 10.5 29.499 10.5s21.333 -3.66699 30 -11s13 -18 13 -32v-447v0zM421 666.999
c0 -11.333 -4.16797 -21.333 -12.501 -30s-18.166 -13 -29.499 -13c-10.667 0 -20.667 3.66699 -30 11l-122 92c-6.66699 4.66699 -11.5 10.667 -14.5 18s-4.5 14.666 -4.5 21.999c0 15.333 5.66699 28.5 17 39.5s24.333 16.5 39 16.5c6 0 12 -1.16699 18 -3.5
s11.667 -6.16602 17 -11.499l107 -109c10 -10 15 -20.667 15 -32z" />
    <glyph glyph-name="uacute" unicode="&#xfa;" horiz-adv-x="629" 
d="M538 41c0 -14 -4.16699 -24.501 -12.5 -31.501s-18.166 -10.5 -29.499 -10.5c-9.33301 0 -18.166 2.66699 -26.499 8s-13.5 13.666 -15.5 24.999c-20 -15.333 -42 -27.5 -66 -36.5s-50 -13.5 -78 -13.5c-30.667 0 -59.834 6 -87.501 18s-52 28.333 -73 49
s-37.5 44.834 -49.5 72.501s-18 57.167 -18 88.5v277c0 14 4.33301 24.667 13 32s18.334 11 29.001 11c11.333 0 21.5 -3.66699 30.5 -11s13.5 -17.666 13.5 -30.999v-278c0 -19.333 3.83301 -37.666 11.5 -54.999s18 -32.5 31 -45.5s28 -23.333 45 -31
s35.167 -11.5 54.5 -11.5s37.666 3.83301 54.999 11.5s32.5 18 45.5 31s23.333 28.167 31 45.5s11.5 35.666 11.5 54.999v277c0 15.333 4.16699 26.5 12.5 33.5s18.166 10.5 29.499 10.5s21.333 -3.66699 30 -11s13 -18 13 -32v-447v0zM421 765.999
c0 -16.667 -6.66699 -29.667 -20 -39l-122 -93c-8.66699 -6.66699 -18 -10 -28 -10c-12 0 -22.167 4.16699 -30.5 12.5s-12.5 18.166 -12.5 29.499s4.66699 22 14 32l108 110c9.33301 10 21 15 35 15c15.333 0 28.5 -5.66699 39.5 -17s16.5 -24.666 16.5 -39.999z" />
    <glyph glyph-name="ucircumflex" unicode="&#xfb;" horiz-adv-x="629" 
d="M538 41c0 -14 -4.16699 -24.501 -12.5 -31.501s-18.166 -10.5 -29.499 -10.5c-9.33301 0 -18.166 2.66699 -26.499 8s-13.5 13.666 -15.5 24.999c-20 -15.333 -42 -27.5 -66 -36.5s-50 -13.5 -78 -13.5c-30.667 0 -59.834 6 -87.501 18s-52 28.333 -73 49
s-37.5 44.834 -49.5 72.501s-18 57.167 -18 88.5v277c0 14 4.33301 24.667 13 32s18.334 11 29.001 11c11.333 0 21.5 -3.66699 30.5 -11s13.5 -17.666 13.5 -30.999v-278c0 -19.333 3.83301 -37.666 11.5 -54.999s18 -32.5 31 -45.5s28 -23.333 45 -31
s35.167 -11.5 54.5 -11.5s37.666 3.83301 54.999 11.5s32.5 18 45.5 31s23.333 28.167 31 45.5s11.5 35.666 11.5 54.999v277c0 15.333 4.16699 26.5 12.5 33.5s18.166 10.5 29.499 10.5s21.333 -3.66699 30 -11s13 -18 13 -32v-447v0zM493 666.999
c0 -11.333 -3.83203 -21.333 -11.499 -30s-18.167 -13 -31.5 -13c-3.33301 0 -6.83301 0.333008 -10.5 1s-7.5 2 -11.5 4l-113 60l-113 -60c-6.66699 -3.33301 -14.334 -5 -23.001 -5c-12 0 -22 4.33301 -30 13s-12 18.667 -12 30c0 6 1.83301 12.333 5.5 19
s9.16699 12.334 16.5 17.001l130 78l12.5 6c4.33301 2 8.83301 3 13.5 3s9.16699 -1 13.5 -3l12.5 -6l130 -78c8 -4.66699 13.667 -10.334 17 -17.001s5 -13 5 -19z" />
    <glyph glyph-name="udieresis" unicode="&#xfc;" horiz-adv-x="629" 
d="M538 41c0 -14 -4.16699 -24.501 -12.5 -31.501s-18.166 -10.5 -29.499 -10.5c-9.33301 0 -18.166 2.66699 -26.499 8s-13.5 13.666 -15.5 24.999c-20 -15.333 -42 -27.5 -66 -36.5s-50 -13.5 -78 -13.5c-30.667 0 -59.834 6 -87.501 18s-52 28.333 -73 49
s-37.5 44.834 -49.5 72.501s-18 57.167 -18 88.5v277c0 14 4.33301 24.667 13 32s18.334 11 29.001 11c11.333 0 21.5 -3.66699 30.5 -11s13.5 -17.666 13.5 -30.999v-278c0 -19.333 3.83301 -37.666 11.5 -54.999s18 -32.5 31 -45.5s28 -23.333 45 -31
s35.167 -11.5 54.5 -11.5s37.666 3.83301 54.999 11.5s32.5 18 45.5 31s23.333 28.167 31 45.5s11.5 35.666 11.5 54.999v277c0 15.333 4.16699 26.5 12.5 33.5s18.166 10.5 29.499 10.5s21.333 -3.66699 30 -11s13 -18 13 -32v-447v0zM499 694.999
c0 -19.333 -6.66699 -36 -20 -50s-30 -21 -50 -21s-37 6.66699 -51 20s-21 30 -21 50s7 37 21 51s31 21 51 21s36.667 -6.83301 50 -20.5s20 -30.5 20 -50.5zM273 694.999c0 -19.333 -7 -36 -21 -50s-31 -21 -51 -21s-36.833 6.66699 -50.5 20s-20.5 30 -20.5 50
s6.83301 37 20.5 51s30.5 21 50.5 21s37 -6.83301 51 -20.5s21 -30.5 21 -50.5z" />
    <glyph glyph-name="yacute" unicode="&#xfd;" horiz-adv-x="571" 
d="M529 490c0 -6.66699 -1.66699 -13.002 -5 -19.002l-270 -614c-10 -23.333 -25 -40.333 -45 -51s-41.667 -16 -65 -16h-32c-14.667 0 -25.334 4.5 -32.001 13.5s-10 19.167 -10 30.5c0 10.667 3.33301 20.334 10 29.001s17.334 13 32.001 13h31
c6.66699 0 13 0.833008 19 2.5s10.667 6.16699 14 13.5l66 148l-195 431c-3.33301 6 -5 12.333 -5 19c0 12.667 4.83301 22.834 14.5 30.501s20.167 11.5 31.5 11.5c16 0 28 -8.66699 36 -26l163 -362l159 362c4 9.33301 9.33301 15.833 16 19.5s13.667 5.5 21 5.5
c11.333 0 21.833 -3.83301 31.5 -11.5s14.5 -17.5 14.5 -29.5zM392 765.998c0 -16.667 -6.66699 -29.667 -20 -39l-122 -93c-8.66699 -6.66699 -18 -10 -28 -10c-12 0 -22.167 4.16699 -30.5 12.5s-12.5 18.166 -12.5 29.499s4.66699 22 14 32l108 110
c9.33301 10 21 15 35 15c15.333 0 28.5 -5.66699 39.5 -17s16.5 -24.666 16.5 -39.999z" />
    <glyph glyph-name="thorn" unicode="&#xfe;" horiz-adv-x="661" 
d="M593 267c0 -38 -5.50098 -74.165 -16.501 -108.498s-27.167 -64.5 -48.5 -90.5s-47.666 -46.667 -78.999 -62s-67 -23 -107 -23c-35.333 0 -66.666 5.66699 -93.999 17s-51 27.666 -71 48.999v-217c0 -14 -4.5 -24.667 -13.5 -32s-19.167 -11 -30.5 -11
c-10.667 0 -20.334 3.66699 -29.001 11s-13 18 -13 32v838c0 14.667 4.33301 25.667 13 33s18.334 11 29.001 11c11.333 0 21.5 -3.66699 30.5 -11s13.5 -18.333 13.5 -33v-182c12 12 26.333 22.333 43 31c14 7.33301 31.167 14.166 51.5 20.499s43.833 9.5 70.5 9.5
c40 0 75.667 -7.66699 107 -23s57.666 -36 78.999 -62s37.5 -56 48.5 -90s16.5 -69.667 16.5 -107zM506.999 266.002c0 30 -3.83301 57.168 -11.5 81.501s-18.834 45.166 -33.501 62.499s-32 30.666 -52 39.999s-42.667 14 -68 14c-24.667 0 -47.167 -4.66699 -67.5 -14
s-37.666 -22.666 -51.999 -39.999s-25.5 -38.166 -33.5 -62.499s-12 -51.166 -12 -80.499c0 -30 3.83301 -57.167 11.5 -81.5s18.834 -45.333 33.501 -63s32.167 -31.167 52.5 -40.5s42.833 -14 67.5 -14s47.167 4.66699 67.5 14s37.666 22.666 51.999 39.999
s25.5 38.166 33.5 62.499s12 51.5 12 81.5z" />
    <glyph glyph-name="ydieresis" unicode="&#xff;" horiz-adv-x="571" 
d="M529 490c0 -6.66699 -1.66699 -13.002 -5 -19.002l-270 -614c-10 -23.333 -25 -40.333 -45 -51s-41.667 -16 -65 -16h-32c-14.667 0 -25.334 4.5 -32.001 13.5s-10 19.167 -10 30.5c0 10.667 3.33301 20.334 10 29.001s17.334 13 32.001 13h31
c6.66699 0 13 0.833008 19 2.5s10.667 6.16699 14 13.5l66 148l-195 431c-3.33301 6 -5 12.333 -5 19c0 12.667 4.83301 22.834 14.5 30.501s20.167 11.5 31.5 11.5c16 0 28 -8.66699 36 -26l163 -362l159 362c4 9.33301 9.33301 15.833 16 19.5s13.667 5.5 21 5.5
c11.333 0 21.833 -3.83301 31.5 -11.5s14.5 -17.5 14.5 -29.5zM470 694.998c0 -19.333 -6.66699 -36 -20 -50s-30 -21 -50 -21s-37 6.66699 -51 20s-21 30 -21 50s7 37 21 51s31 21 51 21s36.667 -6.83301 50 -20.5s20 -30.5 20 -50.5zM244 694.998
c0 -19.333 -7 -36 -21 -50s-31 -21 -51 -21s-36.833 6.66699 -50.5 20s-20.5 30 -20.5 50s6.83301 37 20.5 51s30.5 21 50.5 21s37 -6.83301 51 -20.5s21 -30.5 21 -50.5z" />
    <glyph glyph-name="dotlessi" unicode="&#x131;" horiz-adv-x="274" 
d="M179 42c0 -14 -4.33301 -24.499 -13 -31.499s-18.334 -10.5 -29.001 -10.5c-11.333 0 -21.5 3.66699 -30.5 11s-13.5 17.666 -13.5 30.999v446c0 14 4.5 24.667 13.5 32s19.167 11 30.5 11c10.667 0 20.334 -3.66699 29.001 -11s13 -18 13 -32v-446v0z" />
    <glyph glyph-name="Lslash" unicode="&#x141;" horiz-adv-x="522" 
d="M482 43c0 -12 -4.16602 -22.1689 -12.499 -30.502s-18.166 -12.5 -29.499 -12.5h-304c-12 0 -22.333 4.16699 -31 12.5s-13 18.166 -13 29.499v309l-27 -16c-3.33301 -1.33301 -7 -2.66602 -11 -3.99902s-7.66699 -2 -11 -2c-12 0 -22.167 4.66699 -30.5 14
s-12.5 19.666 -12.5 30.999c0 14.667 7.66699 26.334 23 35.001l69 40v220c0 14.667 4.66699 25.5 14 32.5s18.666 10.5 27.999 10.5c11.333 0 21.5 -3.5 30.5 -10.5s13.5 -17.5 13.5 -31.5v-172l90 51c3.33301 2.66699 6.83301 4.33398 10.5 5.00098s7.16699 1 10.5 1
c12 0 22.333 -4.5 31 -13.5s13 -19.167 13 -30.5c0 -15.333 -7.66699 -27.333 -23 -36l-132 -75v-315h262c11.333 0 21.166 -4.16699 29.499 -12.5s12.5 -18.166 12.5 -29.499z" />
    <glyph glyph-name="lslash" unicode="&#x142;" horiz-adv-x="373" 
d="M333 511c0 -15.333 -7.66797 -27.334 -23.001 -36.001l-115 -66v-309c0 -6 1.66699 -10.333 5 -13s6 -4 8 -4c14.667 0 25.667 -4.33301 33 -13s11 -18.667 11 -30s-3.66699 -21.166 -11 -29.499s-18.333 -12.5 -33 -12.5c-13.333 0 -26 2.66699 -38 8
s-22.5 12.666 -31.5 21.999s-16.167 20.166 -21.5 32.499s-8 25.5 -8 39.5v259l-44 -24c-3.33301 -1.33301 -7 -2.66602 -11 -3.99902s-7.66699 -2 -11 -2c-12 0 -22.167 4.66699 -30.5 14s-12.5 19.666 -12.5 30.999c0 14.667 7.66699 26.334 23 35.001l86 49v211
c0 14.667 4.33301 25.5 13 32.5s18.334 10.5 29.001 10.5c11.333 0 21.5 -3.5 30.5 -10.5s13.5 -17.5 13.5 -31.5v-162l73 41c3.33301 2.66699 6.83301 4.33398 10.5 5.00098s7.16699 1 10.5 1c12 0 22.333 -4.5 31 -13.5s13 -19.167 13 -30.5z" />
    <glyph glyph-name="OE" unicode="&#x152;" horiz-adv-x="934" 
d="M873 43c0 -12 -4.16699 -22.1699 -12.5 -30.5029s-18.5 -12.5 -30.5 -12.5h-318c-5.33301 0 -10.166 1.33301 -14.499 4s-8 5.5 -11 8.5s-5.33301 5.83301 -7 8.5l-2.5 4c-0.666992 0 -4 -1.33301 -10 -4s-14.167 -5.5 -24.5 -8.5s-22.5 -5.83301 -36.5 -8.5
s-29.333 -4 -46 -4c-55.333 0 -101.333 10.333 -138 31s-66 47.834 -88 81.501s-37.5 71.667 -46.5 114s-13.5 85.5 -13.5 129.5c0 44.667 4.5 88.334 13.5 131.001s24.667 80.667 47 114s52 60.166 89 80.499s83.5 30.5 139.5 30.5c40.667 0 78.667 -9.33301 114 -28
c1.33301 5.33301 3.66602 10 6.99902 14c3.33301 3.33301 7.33301 6.5 12 9.5s11 4.5 19 4.5h315c13.333 0 23.833 -4.16699 31.5 -12.5s11.5 -18.166 11.5 -29.499c0 -10.667 -3.66699 -20.5 -11 -29.5s-18 -13.5 -32 -13.5h-271v-202h160
c13.333 0 23.833 -4.33301 31.5 -13s11.5 -18.667 11.5 -30s-3.83301 -21.333 -11.5 -30s-18.167 -13 -31.5 -13h-160v-254h271c12 0 22.167 -4.16699 30.5 -12.5s12.5 -18.166 12.5 -29.499zM473 586.997c-19.333 14.667 -38.668 25 -58.001 31s-36 9 -50 9
c-72 0 -124.167 -22.667 -156.5 -68s-48.5 -113 -48.5 -203s16 -157.667 48 -203s84.333 -68 157 -68c14 0 30.333 2.83301 49 8.5s38.334 15.167 59.001 28.5v465z" />
    <glyph glyph-name="oe" unicode="&#x153;" horiz-adv-x="962" 
d="M905 266c0 -11.333 -3.66602 -21.499 -10.999 -30.499s-17.666 -13.5 -30.999 -13.5h-369c6.66699 -47.333 24.334 -84.833 53.001 -112.5s65 -41.5 109 -41.5c22 0 43.667 4.16699 65 12.5s39 21.5 53 39.5c9.33301 10.667 19.666 16 30.999 16
s21.666 -4.33301 30.999 -13s14 -19 14 -31c0 -6 -1.33301 -11.833 -4 -17.5s-9.33398 -13.834 -20.001 -24.501c-22.667 -22 -48.667 -38.667 -78 -50s-60 -17 -92 -17c-35.333 0 -67 5.83301 -95 17.5s-52.333 27.834 -73 48.501c-21.333 -20.667 -46 -36.834 -74 -48.501
s-59.667 -17.5 -95 -17.5c-40 0 -75.667 7.66699 -107 23s-57.666 36 -78.999 62s-37.5 56 -48.5 90s-16.5 70 -16.5 108c0 37.333 5.5 73 16.5 107s27.167 64 48.5 90s47.666 46.667 78.999 62s67 23 107 23c35.333 0 67 -5.83301 95 -17.5s52.667 -27.834 74 -48.501
c20.667 20.667 45 36.834 73 48.501s59.667 17.5 95 17.5c40.667 0 76.5 -7.66699 107.5 -23s57 -36 78 -62s36.833 -56 47.5 -90s16 -69.667 16 -107zM817.001 308.001c-6.66699 48 -24.1689 85.833 -52.502 113.5s-64.5 41.5 -108.5 41.5c-24 0 -45.333 -4 -64 -12
s-34.667 -19 -48 -33s-24.166 -30.5 -32.499 -49.5s-14.166 -39.167 -17.499 -60.5h323v0zM436.999 121.001c-11.333 22 -19.5 45.3311 -24.5 69.998s-7.5 49.667 -7.5 75s2.5 50.166 7.5 74.499s13.167 47.5 24.5 69.5c-30 35.333 -69.333 53 -118 53
c-24.667 0 -47.167 -4.66699 -67.5 -14s-37.833 -22.666 -52.5 -39.999s-25.834 -38 -33.501 -62s-11.5 -51 -11.5 -81s3.83301 -57.167 11.5 -81.5s18.834 -45.166 33.501 -62.499s32.167 -30.666 52.5 -39.999s42.833 -14 67.5 -14c24 0 45.833 4.5 65.5 13.5
s37.167 22.167 52.5 39.5z" />
    <glyph glyph-name="Scaron" unicode="&#x160;" horiz-adv-x="599" 
d="M551 185c0 -37.333 -7.16504 -68.834 -21.498 -94.501s-33.5 -46.5 -57.5 -62.5s-51.333 -27.5 -82 -34.5s-62.667 -10.5 -96 -10.5c-18 0 -37.667 1.83301 -59 5.5s-42.333 9 -63 16s-40.667 15.667 -60 26s-36 22.166 -50 35.499c-5.33301 5.33301 -9 10.5 -11 15.5
s-3 10.167 -3 15.5c0 11.333 4.16699 21.333 12.5 30s18.5 13 30.5 13c7.33301 0 13.166 -1.33301 17.499 -4s11.166 -7.66699 20.499 -15c24.667 -18.667 51 -32.167 79 -40.5s56.667 -12.5 86 -12.5c60 0 103.5 10.167 130.5 30.5s40.5 49.166 40.5 86.499
c0 34.667 -9.83301 61.334 -29.5 80.001s-44.334 33.834 -74.001 45.501s-61.667 22.167 -96 31.5s-66.333 21.5 -96 36.5s-54.334 35.5 -74.001 61.5s-29.5 61.667 -29.5 107c0 30.667 6 57.334 18 80.001s28.667 41.667 50 57s46.333 26.833 75 34.5
s59.334 11.5 92.001 11.5c17.333 0 36 -1.66699 56 -5s40 -8.5 60 -15.5s38.833 -15.833 56.5 -26.5s32.5 -23.334 44.5 -38.001c7.33301 -8 11 -17 11 -27c0 -12 -4.5 -22.5 -13.5 -31.5s-18.833 -13.5 -29.5 -13.5c-7.33301 0 -13.666 1.83301 -18.999 5.5
s-12.333 9.16699 -21 16.5c-20 17.333 -42.333 29.833 -67 37.5s-50.667 11.5 -78 11.5c-54 0 -92.333 -9.33301 -115 -28s-34 -41.667 -34 -69c0 -23.333 5.66699 -42.5 17 -57.5s26.333 -27.667 45 -38s40 -19 64 -26l73.5 -22.5c25 -8 49.5 -17.167 73.5 -27.5
s45.333 -23.666 64 -39.999s33.667 -36.5 45 -60.5s17 -54 17 -90zM463.002 970.999c0 -6 -1.66797 -12.168 -5.00098 -18.501s-8.66602 -11.833 -15.999 -16.5l-116 -75c-8 -6 -16.667 -9 -26 -9c-5.33301 0 -10 0.833008 -14 2.5s-8 3.83398 -12 6.50098l-117 75
c-7.33301 4.66699 -12.5 10 -15.5 16s-4.5 12.333 -4.5 19c0 11.333 4 21.833 12 31.5s17.667 14.5 29 14.5c8.66699 0 16.667 -2.66699 24 -8l98 -61l98 61c7.33301 5.33301 15 8 23 8c12 0 22 -4.83301 30 -14.5s12 -20.167 12 -31.5z" />
    <glyph glyph-name="scaron" unicode="&#x161;" horiz-adv-x="515" 
d="M463 144c0 -29.333 -5.66895 -54.333 -17.002 -75s-26.5 -37.334 -45.5 -50.001s-40.833 -21.834 -65.5 -27.501s-50.334 -8.5 -77.001 -8.5c-14 0 -29.667 1.16699 -47 3.5s-35 6.33301 -53 12s-35.167 13.334 -51.5 23.001s-30.5 21.834 -42.5 36.501
c-6 9.33301 -9 18 -9 26c0 12.667 4.83301 23.334 14.5 32.001s19.834 13 30.501 13s21 -5.66699 31 -17c15.333 -17.333 34.666 -29 57.999 -35s46.333 -9 69 -9s41.5 1.83301 56.5 5.5s27.167 8.83398 36.5 15.501s16 14.667 20 24s6 19.666 6 30.999
c0 21.333 -7.5 37.666 -22.5 48.999s-33.833 20.666 -56.5 27.999s-47.167 14.333 -73.5 21s-50.833 15.834 -73.5 27.501s-41.5 27.667 -56.5 48s-22.5 47.5 -22.5 81.5c0 27.333 5.83301 50.5 17.5 69.5s26.834 34.333 45.501 46s39.667 20.167 63 25.5s47 8 71 8
c13.333 0 30.333 -1.66699 51 -5s40.667 -8.5 60 -15.5s35.833 -15.667 49.5 -26s20.5 -22.5 20.5 -36.5c0 -11.333 -4 -21.666 -12 -30.999s-18 -14 -30 -14c-4.66699 0 -10 1.16699 -16 3.5s-11.667 5.5 -17 9.5c-13.333 11.333 -29.333 19.166 -48 23.499
s-38 6.5 -58 6.5c-41.333 0 -70.333 -6.5 -87 -19.5s-25 -27.833 -25 -44.5c0 -20 7.5 -35.167 22.5 -45.5s33.833 -19 56.5 -26s47.334 -13.833 74.001 -20.5s51.334 -16.167 74.001 -28.5s41.5 -29 56.5 -50s22.5 -49.167 22.5 -84.5zM420.998 743
c0 -6 -1.66797 -12.168 -5.00098 -18.501s-8.66602 -11.833 -15.999 -16.5l-116 -75c-8 -6 -16.667 -9 -26 -9c-5.33301 0 -10 0.833008 -14 2.5s-8 3.83398 -12 6.50098l-117 75c-7.33301 4.66699 -12.5 10 -15.5 16s-4.5 12.333 -4.5 19c0 11.333 4 21.833 12 31.5
s17.667 14.5 29 14.5c8.66699 0 16.667 -2.66699 24 -8l98 -61l98 61c7.33301 5.33301 15 8 23 8c12 0 22 -4.83301 30 -14.5s12 -20.167 12 -31.5z" />
    <glyph glyph-name="Ydieresis" unicode="&#x178;" horiz-adv-x="594" 
d="M544 670c0 -7.33301 -1.99707 -14.332 -5.99707 -20.999l-198 -369v-237c0 -14 -4.5 -24.667 -13.5 -32s-19.167 -11 -30.5 -11c-10.667 0 -20.334 3.5 -29.001 10.5s-13 17.5 -13 31.5v238l-198 370c-4 6.66699 -6 13.667 -6 21c0 12 4.66699 22.167 14 30.5
s19.666 12.5 30.999 12.5c6.66699 0 13.167 -1.83301 19.5 -5.5s11.833 -9.83398 16.5 -18.501l165 -308l167 308c4.66699 8 10.167 13.667 16.5 17s12.833 5 19.5 5c11.333 0 21.666 -4 30.999 -12s14 -18 14 -30zM482.003 923.001c0 -19.333 -6.66699 -36 -20 -50
s-30 -21 -50 -21s-37 6.66699 -51 20s-21 30 -21 50s7 37 21 51s31 21 51 21s36.667 -6.83301 50 -20.5s20 -30.5 20 -50.5zM256.003 923.001c0 -19.333 -7 -36 -21 -50s-31 -21 -51 -21s-36.833 6.66699 -50.5 20s-20.5 30 -20.5 50s6.83301 37 20.5 51s30.5 21 50.5 21
s37 -6.83301 51 -20.5s21 -30.5 21 -50.5z" />
    <glyph glyph-name="florin" unicode="&#x192;" horiz-adv-x="348" 
d="M303 488c0 -11.333 -3.66699 -21.165 -11 -29.498s-18 -12.5 -32 -12.5h-46v-431c0 -16 -3 -31 -9 -45s-14.167 -26.167 -24.5 -36.5s-22.333 -18.333 -36 -24s-28.5 -8.5 -44.5 -8.5c-14 0 -24.667 4.33301 -32 13s-11 18.667 -11 30s3.66699 21.166 11 29.499
s17.666 12.5 30.999 12.5c8.66699 0 15.834 2.83301 21.501 8.5s8.5 12.167 8.5 19.5v432h-41c-14.667 0 -25.334 4.16699 -32.001 12.5s-10 18.166 -10 29.499s3.33301 21.333 10 30s17.334 13 32.001 13h41v68c0 16 3 30.833 9 44.5s14.167 25.667 24.5 36
s22.333 18.333 36 24s28.5 8.5 44.5 8.5c14 0 24.667 -4.33301 32 -13s11 -18.667 11 -30c0 -10.667 -3.66699 -20.334 -11 -29.001s-17.666 -13 -30.999 -13c-8.66699 0 -15.834 -2.66699 -21.501 -8s-8.5 -11.666 -8.5 -18.999v-69h46c14 0 24.667 -4.33301 32 -13
s11 -18.667 11 -30z" />
    <glyph glyph-name="circumflex" unicode="&#x2c6;" 
d="M486 667c0 -11.333 -3.83203 -21.333 -11.499 -30s-18.167 -13 -31.5 -13c-3.33301 0 -6.83301 0.333008 -10.5 1s-7.5 2 -11.5 4l-113 60l-113 -60c-6.66699 -3.33301 -14.334 -5 -23.001 -5c-12 0 -22 4.33301 -30 13s-12 18.667 -12 30c0 6 1.83301 12.333 5.5 19
s9.16699 12.334 16.5 17.001l130 78l12.5 6c4.33301 2 8.83301 3 13.5 3s9.16699 -1 13.5 -3l12.5 -6l130 -78c8 -4.66699 13.667 -10.334 17 -17.001s5 -13 5 -19z" />
    <glyph glyph-name="caron" unicode="&#x2c7;" 
d="M471 743c0 -6 -1.66797 -12.168 -5.00098 -18.501s-8.66602 -11.833 -15.999 -16.5l-116 -75c-8 -6 -16.667 -9 -26 -9c-5.33301 0 -10 0.833008 -14 2.5s-8 3.83398 -12 6.50098l-117 75c-7.33301 4.66699 -12.5 10 -15.5 16s-4.5 12.333 -4.5 19
c0 11.333 4 21.833 12 31.5s17.667 14.5 29 14.5c8.66699 0 16.667 -2.66699 24 -8l98 -61l98 61c7.33301 5.33301 15 8 23 8c12 0 22 -4.83301 30 -14.5s12 -20.167 12 -31.5z" />
    <glyph glyph-name="breve" unicode="&#x2d8;" 
d="M437 752c0 -17.333 -3.49805 -33.666 -10.498 -48.999s-16.333 -28.833 -28 -40.5s-25.334 -21 -41.001 -28s-32.167 -10.5 -49.5 -10.5s-33.833 3.5 -49.5 10.5s-29.334 16.333 -41.001 28s-21 25.167 -28 40.5s-10.5 31.666 -10.5 48.999
c0 14.667 4.16699 25.667 12.5 33s18.166 11 29.499 11s21.333 -3.66699 30 -11s13 -18.333 13 -33c0 -12 4.33301 -22.167 13 -30.5s19 -12.5 31 -12.5s22.167 4.16699 30.5 12.5s12.5 18.5 12.5 30.5c0 14.667 4.33301 25.667 13 33s18.334 11 29.001 11
c11.333 0 21.5 -3.66699 30.5 -11s13.5 -18.333 13.5 -33z" />
    <glyph glyph-name="dotaccent" unicode="&#x2d9;" 
d="M380 624c0 -20 -7 -37 -21 -51s-31 -21 -51 -21s-37 7 -51 21s-21 31 -21 51c0 19.333 7 36 21 50s31 21 51 21s37 -7 51 -21s21 -30.667 21 -50z" />
    <glyph glyph-name="ring" unicode="&#x2da;" 
d="M437 624c0 -17.333 -3.5 -33.833 -10.5 -49.5s-16.333 -29.334 -28 -41.001s-25.334 -21 -41.001 -28s-32.167 -10.5 -49.5 -10.5s-33.833 3.5 -49.5 10.5s-29.334 16.333 -41.001 28s-21 25.334 -28 41.001s-10.5 32.167 -10.5 49.5s3.5 33.666 10.5 48.999
s16.333 28.833 28 40.5s25.334 21 41.001 28s32.167 10.5 49.5 10.5s33.833 -3.5 49.5 -10.5s29.334 -16.333 41.001 -28s21 -25.167 28 -40.5s10.5 -31.666 10.5 -48.999zM366 624c0 16 -5.66699 29.667 -17 41s-25 17 -41 17s-29.667 -5.66699 -41 -17s-17 -25 -17 -41
s5.66699 -29.833 17 -41.5s25 -17.5 41 -17.5s29.667 5.83301 41 17.5s17 25.5 17 41.5z" />
    <glyph glyph-name="ogonek" unicode="&#x2db;" 
d="M429 -172c0 -11.333 -5 -21.332 -15 -29.999c-23.333 -22 -50 -33 -80 -33h-1c-16 0 -30.833 2.83301 -44.5 8.5s-25.667 13.667 -36 24s-18.5 22.5 -24.5 36.5s-9 29 -9 45c0 14.667 2.33301 28.667 7 42s12.667 25.666 24 36.999l84 84
c9.33301 9.33301 19.333 14 30 14c11.333 0 21.5 -4.66699 30.5 -14s13.5 -19.666 13.5 -30.999c0 -10.667 -4.66699 -20.334 -14 -29.001l-84 -85c-4 -4 -6 -10 -6 -18c0 -8.66699 2.66699 -15.5 8 -20.5s12.333 -7.5 21 -7.5c4.66699 0 9 1 13 3s8 4.33301 12 7
s8.16699 5 12.5 7s8.83301 3 13.5 3c12 0 22.5 -4.33301 31.5 -13s13.5 -18.667 13.5 -30z" />
    <glyph glyph-name="tilde" unicode="&#x2dc;" 
d="M507 702c0 -10 -5.00195 -19.668 -15.002 -29.001c-18.667 -19.333 -35.834 -32.666 -51.501 -39.999s-30.5 -11 -44.5 -11c-16.667 0 -32.667 3.83301 -48 11.5s-29.833 16 -43.5 25s-27 17.167 -40 24.5s-25.833 11 -38.5 11c-7.33301 0 -14.833 -1.5 -22.5 -4.5
s-15.167 -8.5 -22.5 -16.5c-8 -8.66699 -17.667 -13 -29 -13s-21.666 4.5 -30.999 13.5s-14 19.5 -14 31.5c0 10 4.33301 19.333 13 28c18 18 35.833 30.833 53.5 38.5s34.167 11.5 49.5 11.5c20 0 38.333 -3.83301 55 -11.5s32.167 -16.167 46.5 -25.5l39 -25.5
c11.667 -7.66699 21.834 -11.5 30.501 -11.5c4 0 8.5 2 13.5 6s10.5 8.16699 16.5 12.5s12.333 8.5 19 12.5s13.334 6 20.001 6c12 0 22.333 -4.5 31 -13.5s13 -19.167 13 -30.5z" />
    <glyph glyph-name="hungarumlaut" unicode="&#x2dd;" 
d="M479 823c0 -8 -1.66504 -14.6689 -4.99805 -20.002l-70 -153c-4 -9.33301 -9.5 -16 -16.5 -20s-14.167 -6 -21.5 -6c-11.333 0 -21.333 3.83301 -30 11.5s-13 17.834 -13 30.501c0 2.66699 0.666992 6.66699 2 12l43 162c3.33301 12.667 10.166 22.334 20.499 29.001
s21.5 10 33.5 10c15.333 0 28.666 -5.5 39.999 -16.5s17 -24.167 17 -39.5zM293.002 823.998c0 -8.66699 -1.66504 -15.667 -4.99805 -21l-70 -153c-4 -9.33301 -9.5 -16.333 -16.5 -21s-14.167 -7 -21.5 -7c-11.333 0 -21.333 4.33301 -30 13s-13 19.667 -13 33v5.5
c0 2.33301 0.333008 4.16602 1 5.49902l44 161c3.33301 12.667 10.166 22.334 20.499 29.001s21.5 10 33.5 10c15.333 0 28.666 -5.33301 39.999 -16s17 -23.667 17 -39z" />
    <glyph glyph-name="Omega" unicode="&#x3a9;" horiz-adv-x="730" 
d="M642 356c0 -27.333 -2.83203 -54.335 -8.49902 -81.002s-14.5 -51.834 -26.5 -75.501s-27 -45 -45 -64s-39 -34.5 -63 -46.5v-4h76c14 0 24.667 -4.33301 32 -13s11 -18.667 11 -30c0 -10.667 -3.66699 -20.334 -11 -29.001s-18 -13 -32 -13h-138
c-11.333 0 -21.5 4.33301 -30.5 13s-13.5 18.334 -13.5 29.001v63c0 8 1.16699 14.333 3.5 19s5.66602 8.33398 9.99902 11.001s9.16602 5 14.499 7s11 4 17 6c20.667 7.33301 38.5 17.833 53.5 31.5s27.167 29.667 36.5 48s16.333 38.333 21 60s7 44.5 7 68.5
c0 46.667 -3.5 88 -10.5 124s-18.167 66.167 -33.5 90.5s-35 42.666 -59 54.999s-53.333 18.5 -88 18.5c-68.667 0 -117.834 -24.667 -147.501 -74s-44.5 -120.666 -44.5 -213.999c0 -24 2.33301 -47.167 7 -69.5s12 -43 22 -62s23.333 -35.333 40 -49s37 -23.5 61 -29.5
c8.66699 -2.66699 16.334 -7.5 23.001 -14.5s10 -16.167 10 -27.5v-62c0 -11.333 -4.33301 -21.166 -13 -29.499s-18.667 -12.5 -30 -12.5h-138c-14 0 -24.5 4.33301 -31.5 13s-10.5 18.334 -10.5 29.001c0 11.333 3.5 21.333 10.5 30s17.5 13 31.5 13h75v2
c0 1.33301 -0.333008 2.33301 -1 3c-50.667 25.333 -86.834 61.5 -108.501 108.5s-32.5 99.5 -32.5 157.5c0 48 4.16699 94.333 12.5 139s23 84.5 44 119.5s49.333 63 85 84s80.834 31.5 135.501 31.5s99.834 -10.5 135.501 -31.5s64 -49 85 -84s35.667 -74.833 44 -119.5
s12.5 -91 12.5 -139z" />
    <glyph glyph-name="pi" unicode="&#x3c0;" horiz-adv-x="627" 
d="M578 488c0 -11.333 -3.66602 -21.1631 -10.999 -29.4961s-18 -12.5 -32 -12.5h-72v-332c0 -8 2.5 -15 7.5 -21s11.833 -9 20.5 -9c14 0 24.333 -4.33301 31 -13s10 -18.667 10 -30c0 -13.333 -4.66699 -24 -14 -32s-21 -12 -35 -12c-12 0 -24.333 3.16699 -37 9.5
s-24 14.666 -34 24.999s-18.333 22.666 -25 36.999s-10 29.5 -10 45.5v332h-127v-404c0 -14 -4.5 -24.667 -13.5 -32s-19.167 -11 -30.5 -11c-10.667 0 -20.334 3.66699 -29.001 11s-13 17.666 -13 30.999v405h-73c-14 0 -24.5 4.16699 -31.5 12.5
s-10.5 18.166 -10.5 29.499s3.5 21.333 10.5 30s17.5 13 31.5 13h444c14 0 24.667 -4.33301 32 -13s11 -18.667 11 -30z" />
    <glyph glyph-name="endash" unicode="&#x2013;" horiz-adv-x="622" 
d="M553 325c0 -11.333 -3.66797 -21.166 -11.001 -29.499s-17.666 -12.5 -30.999 -12.5h-399c-14.667 0 -25.667 4.16699 -33 12.5s-11 18.166 -11 29.499s3.66699 21.333 11 30s18 13 32 13h399c14 0 24.667 -4.33301 32 -13s11 -18.667 11 -30z" />
    <glyph glyph-name="emdash" unicode="&#x2014;" horiz-adv-x="821" 
d="M752 325c0 -11.333 -3.5 -21.166 -10.5 -29.499s-17.5 -12.5 -31.5 -12.5h-598c-14.667 0 -25.667 4.16699 -33 12.5s-11 18.166 -11 29.499s3.66699 21.333 11 30s18 13 32 13h598c14.667 0 25.5 -4.33301 32.5 -13s10.5 -18.667 10.5 -30z" />
    <glyph glyph-name="quoteleft" unicode="&#x2018;" horiz-adv-x="264" 
d="M219 684c0 -14.667 -7.33008 -26.001 -21.9971 -34.001c-13.333 -7.33301 -23.833 -17.833 -31.5 -31.5s-11.5 -26.5 -11.5 -38.5v-77c0 -14.667 -4.33301 -25.334 -13 -32.001s-18.667 -10 -30 -10s-21.333 3.33301 -30 10s-13 17.334 -13 32.001v77
c0 7.33301 1.16699 17 3.5 29s6.66602 24.833 12.999 38.5s15.166 27.334 26.499 41.001s25.666 25.5 42.999 35.5c8 4 15.333 6 22 6c12.667 0 23 -4.83301 31 -14.5s12 -20.167 12 -31.5z" />
    <glyph glyph-name="quoteright" unicode="&#x2019;" horiz-adv-x="264" 
d="M196 611c0 -8 -1.16699 -18 -3.5 -30s-6.66602 -24.667 -12.999 -38s-15 -26.666 -26 -39.999s-25.167 -25.666 -42.5 -36.999c-6.66699 -3.33301 -14 -5 -22 -5c-12 0 -22.167 4.66699 -30.5 14s-12.5 19.666 -12.5 30.999c0 14.667 7 26.667 21 36
c13.333 7.33301 24 17.666 32 30.999s12 26 12 38v76c0 14.667 4.16699 25.667 12.5 33s18.166 11 29.499 11s21.333 -3.66699 30 -11s13 -18.333 13 -33v-76v0z" />
    <glyph glyph-name="quotesinglbase" unicode="&#x201a;" horiz-adv-x="264" 
d="M196 26c0 -6.66699 -1.16699 -16.165 -3.5 -28.498s-6.66602 -25.333 -12.999 -39s-15 -27.167 -26 -40.5s-25.167 -25 -42.5 -35c-7.33301 -4.66699 -15 -7 -23 -7c-12 0 -22.333 4.66699 -31 14s-13 19.666 -13 30.999c0 15.333 7.66699 27.333 23 36
c13.333 7.33301 24 17.666 32 30.999s12 26 12 38v77c0 14 4.16699 24.667 12.5 32s18.166 11 29.499 11s21.333 -3.5 30 -10.5s13 -17.5 13 -31.5v-78v0z" />
    <glyph glyph-name="quotedblleft" unicode="&#x201c;" horiz-adv-x="456" 
d="M410 685c0 -15.333 -7.33203 -27.001 -21.999 -35.001c-13.333 -7.33301 -23.833 -17.833 -31.5 -31.5s-11.5 -26.5 -11.5 -38.5v-77c0 -14.667 -4.33301 -25.334 -13 -32.001s-18.667 -10 -30 -10s-21.333 3.33301 -30 10s-13 17.334 -13 32.001v77
c0 7.33301 1.16699 17 3.5 29s6.66602 24.833 12.999 38.5s15 27.334 26 41.001s25.5 25.5 43.5 35.5c3.33301 1.33301 7 2.66602 11 3.99902s7.66699 2 11 2c12 0 22.167 -4.66699 30.5 -14s12.5 -19.666 12.5 -30.999zM219.001 683.999
c0 -14.667 -7.33008 -26.001 -21.9971 -34.001c-13.333 -7.33301 -23.833 -17.833 -31.5 -31.5s-11.5 -26.5 -11.5 -38.5v-77c0 -14.667 -4.33301 -25.334 -13 -32.001s-18.667 -10 -30 -10s-21.333 3.33301 -30 10s-13 17.334 -13 32.001v77c0 7.33301 1.16699 17 3.5 29
s6.66602 24.833 12.999 38.5s15.166 27.334 26.499 41.001s25.666 25.5 42.999 35.5c8 4 15.333 6 22 6c12.667 0 23 -4.83301 31 -14.5s12 -20.167 12 -31.5z" />
    <glyph glyph-name="quotedblright" unicode="&#x201d;" horiz-adv-x="456" 
d="M388 611c0 -8 -1.16992 -17.998 -3.50293 -29.998s-6.66602 -24.833 -12.999 -38.5s-15.166 -27.167 -26.499 -40.5s-26 -25.333 -44 -36c-8 -3.33301 -15 -5 -21 -5c-11.333 0 -21.333 4.66699 -30 14s-13 19.666 -13 30.999c0 14.667 7.33301 26.667 22 36
c13.333 7.33301 23.833 17.666 31.5 30.999s11.5 26 11.5 38v76c0 14.667 4.33301 25.667 13 33s18.334 11 29.001 11c11.333 0 21.5 -3.66699 30.5 -11s13.5 -18.333 13.5 -33v-76v0zM195.997 611.002c0 -8 -1.16699 -18 -3.5 -30s-6.66602 -24.667 -12.999 -38
s-15 -26.666 -26 -39.999s-25.167 -25.666 -42.5 -36.999c-6.66699 -3.33301 -14 -5 -22 -5c-12 0 -22.167 4.66699 -30.5 14s-12.5 19.666 -12.5 30.999c0 14.667 7 26.667 21 36c13.333 7.33301 24 17.666 32 30.999s12 26 12 38v76c0 14.667 4.16699 25.667 12.5 33
s18.166 11 29.499 11s21.333 -3.66699 30 -11s13 -18.333 13 -33v-76v0z" />
    <glyph glyph-name="quotedblbase" unicode="&#x201e;" horiz-adv-x="456" 
d="M196 26c0 -6.66699 -1.16699 -16.165 -3.5 -28.498s-6.66602 -25.333 -12.999 -39s-15 -27.167 -26 -40.5s-25.167 -25 -42.5 -35c-7.33301 -4.66699 -15 -7 -23 -7c-12 0 -22.333 4.66699 -31 14s-13 19.666 -13 30.999c0 15.333 7.66699 27.333 23 36
c13.333 7.33301 24 17.666 32 30.999s12 26 12 38v77c0 14 4.16699 24.667 12.5 32s18.166 11 29.499 11s21.333 -3.5 30 -10.5s13 -17.5 13 -31.5v-78v0zM388 25.002c0 -8 -1.16992 -17.998 -3.50293 -29.998s-6.66602 -24.833 -12.999 -38.5
s-15.166 -27.167 -26.499 -40.5s-26 -25.333 -44 -36c-8 -3.33301 -15 -5 -21 -5c-11.333 0 -21.333 4.66699 -30 14s-13 19.666 -13 30.999c0 14.667 7.33301 26.667 22 36c13.333 7.33301 23.833 17.666 31.5 30.999s11.5 26 11.5 38v76c0 14.667 4.33301 25.667 13 33
s18.334 11 29.001 11c11.333 0 21.5 -3.66699 30.5 -11s13.5 -18.333 13.5 -33v-76v0z" />
    <glyph glyph-name="dagger" unicode="&#x2020;" horiz-adv-x="456" 
d="M398 669c0 -10.667 -3.66797 -20.335 -11.001 -29.002s-17.666 -13 -30.999 -13h-86v-313c0 -14.667 -4.33301 -25.5 -13 -32.5s-18.667 -10.5 -30 -10.5s-21.166 3.5 -29.499 10.5s-12.5 17.833 -12.5 32.5v313h-86c-14 0 -24.5 4.33301 -31.5 13
s-10.5 18.334 -10.5 29.001c0 11.333 3.5 21.333 10.5 30s17.5 13 31.5 13h85v100c0 14 4.16699 24.667 12.5 32s18.166 11 29.499 11s21.333 -3.66699 30 -11s13 -17.666 13 -30.999v-101h86c14 0 24.667 -4.33301 32 -13s11 -18.667 11 -30z" />
    <glyph glyph-name="daggerdbl" unicode="&#x2021;" horiz-adv-x="456" 
d="M416 669c0 -10.667 -3.66895 -20.335 -11.002 -29.002s-17.666 -13 -30.999 -13h-89v-187c0 -13.333 -4.16699 -23.666 -12.5 -30.999s-18.166 -11 -29.499 -11c-12 0 -22.333 3.66699 -31 11s-13 17.666 -13 30.999v187h-87c-14.667 0 -25.667 4.33301 -33 13
s-11 18.334 -11 29.001c0 11.333 3.66699 21.333 11 30s18 13 32 13h88v100c0 14 4.33301 24.667 13 32s18.667 11 30 11s21.333 -3.66699 30 -11s13 -17.666 13 -30.999v-101h88c14 0 24.667 -4.33301 32 -13s11 -18.667 11 -30zM415.998 295.999
c0 -10.667 -3.66797 -20.334 -11.001 -29.001s-17.666 -13 -30.999 -13h-89v-100c0 -14.667 -4.33301 -25.334 -13 -32.001s-18.667 -10 -30 -10s-21.333 3.33301 -30 10s-13 17.334 -13 32.001v100h-87c-14.667 0 -25.667 4.33301 -33 13s-11 18.334 -11 29.001
c0 11.333 3.66699 21.5 11 30.5s18 13.5 32 13.5h262c14 0 24.667 -4.5 32 -13.5s11 -19.167 11 -30.5z" />
    <glyph glyph-name="bullet" unicode="&#x2022;" horiz-adv-x="394" 
d="M320 368c0 -17.333 -3.33301 -33.5 -10 -48.5s-15.834 -28.167 -27.501 -39.5s-25 -20.333 -40 -27s-31.167 -10 -48.5 -10c-16.667 0 -32.667 3.33301 -48 10s-28.666 15.667 -39.999 27s-20.5 24.5 -27.5 39.5s-10.5 31.167 -10.5 48.5s3.5 33.666 10.5 48.999
s16.167 28.666 27.5 39.999s24.666 20.333 39.999 27s31.333 10 48 10c17.333 0 33.5 -3.33301 48.5 -10s28.333 -15.667 40 -27s20.834 -24.666 27.501 -39.999s10 -31.666 10 -48.999z" />
    <glyph glyph-name="ellipsis" unicode="&#x2026;" horiz-adv-x="739" 
d="M658 71c0 -20 -6.83301 -37 -20.5 -51s-30.5 -21 -50.5 -21s-37 7 -51 21s-21 31 -21 51s7 36.667 21 50s31 20 51 20s36.833 -6.66699 50.5 -20s20.5 -30 20.5 -50zM439 71c0 -20 -7 -37 -21 -51s-31 -21 -51 -21s-36.833 7 -50.5 21s-20.5 31 -20.5 51
s6.83301 36.667 20.5 50s30.5 20 50.5 20s37 -6.66699 51 -20s21 -30 21 -50zM220 71c0 -20 -7 -37 -21 -51s-31 -21 -51 -21s-37 7 -51 21s-21 31 -21 51s7 36.667 21 50s31 20 51 20s37 -6.66699 51 -20s21 -30 21 -50z" />
    <glyph glyph-name="perthousand" unicode="&#x2030;" horiz-adv-x="1393" 
d="M1333 177c0 -24.667 -4.16699 -47.667 -12.5 -69s-19.666 -40 -33.999 -56s-31 -28.667 -50 -38s-39.5 -14 -61.5 -14c-21.333 0 -41.5 4.66699 -60.5 14s-35.667 22 -50 38s-25.666 34.667 -33.999 56s-12.5 44 -12.5 68c0 24.667 4.16699 47.667 12.5 69
s19.666 40 33.999 56s31 28.5 50 37.5s39.167 13.5 60.5 13.5c22 0 42.5 -4.5 61.5 -13.5s35.667 -21.5 50 -37.5s25.666 -34.667 33.999 -56s12.5 -44 12.5 -68zM943 176c0 -24 -4.16699 -46.667 -12.5 -68s-19.666 -40 -33.999 -56s-31 -28.667 -50 -38
s-39.5 -14 -61.5 -14c-21.333 0 -41.5 4.66699 -60.5 14s-35.667 22 -50 38s-25.666 34.667 -33.999 56s-12.5 44 -12.5 68s4.16699 46.667 12.5 68s19.666 39.833 33.999 55.5s31 28.167 50 37.5s39.167 14 60.5 14c22 0 42.5 -4.66699 61.5 -14s35.667 -21.833 50 -37.5
s25.666 -34.167 33.999 -55.5s12.5 -44 12.5 -68zM645 690c0 -2.66699 -0.166992 -4.99902 -0.5 -6.99902s-0.833008 -4.33301 -1.5 -7l-184 -662c-2.66699 -11.333 -7.66699 -19.5 -15 -24.5s-15.333 -7.5 -24 -7.5c-11.333 0 -21.666 3.66699 -30.999 11
s-14 17.666 -14 30.999v5.5c0 2.33301 0.333008 4.5 1 6.5l185 663c3.33301 10.667 8.66602 18.5 15.999 23.5s15.333 7.5 24 7.5c10.667 0 20.667 -3.5 30 -10.5s14 -16.833 14 -29.5zM383 537.001c0 -24 -4.16699 -46.667 -12.5 -68s-19.666 -40 -33.999 -56
s-31 -28.667 -50 -38s-39.167 -14 -60.5 -14c-22 0 -42.5 4.66699 -61.5 14s-35.667 22 -50 38s-25.666 34.667 -33.999 56s-12.5 44 -12.5 68s4.16699 46.667 12.5 68s19.666 40 33.999 56s31 28.5 50 37.5s39.5 13.5 61.5 13.5c21.333 0 41.5 -4.5 60.5 -13.5
s35.667 -21.5 50 -37.5s25.666 -34.667 33.999 -56s12.5 -44 12.5 -68zM1247 176.001c0 14.667 -2.16699 27.667 -6.5 39s-10 20.833 -17 28.5s-14.833 13.5 -23.5 17.5s-17 6 -25 6s-16.167 -2 -24.5 -6s-16 -9.83301 -23 -17.5s-12.667 -17 -17 -28
s-6.5 -23.833 -6.5 -38.5s2.16699 -27.667 6.5 -39s10 -21 17 -29s14.667 -14 23 -18s16.5 -6 24.5 -6s16.333 2 25 6s16.5 9.83301 23.5 17.5s12.667 17.167 17 28.5s6.5 24.333 6.5 39zM857 176.001c0 14.667 -2.16699 27.5 -6.5 38.5s-10 20.333 -17 28
s-14.833 13.5 -23.5 17.5s-17 6 -25 6s-16.167 -2 -24.5 -6s-16 -9.83301 -23 -17.5s-12.667 -17 -17 -28s-6.5 -23.833 -6.5 -38.5s2.16699 -27.667 6.5 -39s10 -20.833 17 -28.5s14.667 -13.5 23 -17.5s16.5 -6 24.5 -6s16.333 2 25 6s16.5 9.83301 23.5 17.5
s12.667 17.167 17 28.5s6.5 24.333 6.5 39zM298 537.001c0 14.667 -2.16699 27.5 -6.5 38.5s-10 20.333 -17 28s-14.833 13.5 -23.5 17.5s-17 6 -25 6s-16.167 -2 -24.5 -6s-16 -9.83301 -23 -17.5s-12.833 -17 -17.5 -28s-7 -23.833 -7 -38.5s2.33301 -27.5 7 -38.5
s10.5 -20.333 17.5 -28s14.667 -13.5 23 -17.5s16.5 -6 24.5 -6s16.333 2 25 6s16.5 9.83301 23.5 17.5s12.667 17 17 28s6.5 23.833 6.5 38.5z" />
    <glyph glyph-name="guilsinglleft" unicode="&#x2039;" horiz-adv-x="402" 
d="M334 88c0 -11.333 -4.49902 -21.501 -13.499 -30.501s-19.167 -13.5 -30.5 -13.5s-21.333 4.33301 -30 13l-179 179c-9.33301 9.33301 -14 19.666 -14 30.999c0 10 4.66699 19.667 14 29l178 178c8.66699 8.66699 19 13 31 13s22.333 -4.5 31 -13.5s13 -19.167 13 -30.5
c0 -5.33301 -1.33301 -10.166 -4 -14.499s-6.33398 -9.16602 -11.001 -14.499l-147 -148l148 -149c9.33301 -9.33301 14 -19 14 -29z" />
    </font>
</defs>
</svg>
