<?xml version="1.0" standalone="no"?>
<!DOCTYPE svg PUBLIC "-//W3C//DTD SVG 1.1//EN" "http://www.w3.org/Graphics/SVG/1.1/DTD/svg11.dtd" >
<svg>
<metadata>
Created by FontForge 20090914 at Thu May 30 10:28:38 2013
 By www-data
Copyright (c) Nico Schweizer. www.lineto.com, 1997. All rights reserved.
</metadata>
<defs>
<font id="Typ1451-Light" horiz-adv-x="616" >
  <font-face 
    font-family="Typ1451-Light"
    font-weight="400"
    font-stretch="normal"
    units-per-em="1000"
    panose-1="2 0 5 3 3 0 0 2 0 4"
    ascent="800"
    descent="-200"
    x-height="531"
    cap-height="714"
    bbox="-23 -228.002 1333 1031"
    underline-thickness="0"
    underline-position="0"
    unicode-range="U+0020-U+FB02"
  />
<missing-glyph horiz-adv-x="588" 
d="M88 698h412v-698h-412v698zM425 74v549h-262v-549h262z" />
    <glyph glyph-name=".notdef" horiz-adv-x="588" 
d="M88 698h412v-698h-412v698zM425 74v549h-262v-549h262z" />
    <glyph glyph-name="space" unicode=" " horiz-adv-x="285" 
 />
    <glyph glyph-name="exclam" unicode="!" horiz-adv-x="290" 
d="M157 213c0 -5.33301 -1.66699 -9 -5 -11s-7.33301 -3 -12 -3c-8 0 -12 4.66699 -12 14v503c0 4.66699 1.5 8.16699 4.5 10.5s6.5 3.5 10.5 3.5c3.33301 0 6.5 -1.16699 9.5 -3.5s4.5 -5.83301 4.5 -10.5v-503v0zM188 43c0 -12 -4.16699 -22.166 -12.5 -30.499
s-18.5 -12.5 -30.5 -12.5s-22.333 4.16699 -31 12.5s-13 18.166 -13 29.499c0 12 4.33301 22.167 13 30.5s19 12.5 31 12.5s22.167 -4 30.5 -12s12.5 -18 12.5 -30z" />
    <glyph glyph-name="quotedbl" unicode="&#x22;" horiz-adv-x="361" 
d="M262 503c0 -4.66699 -1.5 -8.33398 -4.5 -11.001s-6.5 -4 -10.5 -4c-2.66699 0 -5.5 1.33301 -8.5 4s-4.5 6.33398 -4.5 11.001l-9 202c-1.33301 6.66699 0 12.5 4 17.5s10 7.5 18 7.5c7.33301 0 13 -2.5 17 -7.5s6 -10.833 6 -17.5zM129 503
c0 -10 -4.99805 -15 -14.998 -15c-9.33301 0 -14 5 -14 15l-9 202c-0.666992 6.66699 1.16602 12.5 5.49902 17.5s10.166 7.5 17.499 7.5s13 -2.5 17 -7.5s6 -10.833 6 -17.5z" />
    <glyph glyph-name="numbersign" unicode="#" horiz-adv-x="638" 
d="M571 467c0 -2.66699 -1.33105 -5.5 -3.99805 -8.5s-6.33398 -4.5 -11.001 -4.5h-116l-28 -158h116c10 0 15 -4.66699 15 -14c0 -3.33301 -1.33301 -6.5 -4 -9.5s-6.33398 -4.5 -11.001 -4.5h-118l-41 -257c-0.666992 -4 -2.33398 -7 -5.00098 -9s-5.66699 -3 -9 -3
s-6.5 1.33301 -9.5 4s-4.5 6 -4.5 10v3l41 252h-161l-41 -257c-0.666992 -4 -2.5 -7 -5.5 -9s-6.16699 -3 -9.5 -3c-8.66699 0 -13 4.66699 -13 14v3l41 251h-111c-4.66699 0 -8.33398 1.5 -11.001 4.5s-4 5.83301 -4 8.5c0 4 1.33301 7.5 4 10.5s6.33398 4.5 11.001 4.5
h115l25 158h-111c-5.33301 0 -9.16602 1.5 -11.499 4.5s-3.5 5.83301 -3.5 8.5c0 4 1.16699 7.5 3.5 10.5s6.16602 4.5 11.499 4.5h116l37 237c2 8.66699 7 13 15 13c3.33301 0 6.5 -1.16699 9.5 -3.5s4.5 -5.83301 4.5 -10.5v-3l-38 -233h161l38 237
c1.33301 8.66699 6.33301 13 15 13c3.33301 0 6.33301 -1.16699 9 -3.5s4 -5.83301 4 -10.5v-3l-37 -232h111c4.66699 0 8.33398 -1.5 11.001 -4.5s4 -6.5 4 -10.5zM251.002 454l-25 -159h160l26 159h-161z" />
    <glyph glyph-name="dollar" unicode="$" horiz-adv-x="638" 
d="M553 181c0 -30.667 -5.83301 -57.6641 -17.5 -80.9971s-27.5 -43 -47.5 -59s-43.333 -28.667 -70 -38s-55 -15 -85 -17v-181c0 -4.66699 -1.5 -8.33398 -4.5 -11.001s-6.5 -4 -10.5 -4c-3.33301 0 -6.5 1.33301 -9.5 4s-4.5 6.33398 -4.5 11.001v180h-1
c-19.333 0 -39.5 1.83301 -60.5 5.5s-41.833 9 -62.5 16s-40.5 15.333 -59.5 25s-36.5 20.5 -52.5 32.5c-3.33301 3.33301 -5 6.66602 -5 9.99902c0 4 1.5 7.66699 4.5 11s6.5 5 10.5 5c1.33301 0 2.66602 -0.166992 3.99902 -0.5s2.33301 -1.16602 3 -2.49902
c0 -0.666992 5.66699 -4.83398 17 -12.501s26.833 -16 46.5 -25s42.667 -17.167 69 -24.5s54.833 -11 85.5 -11c32 0 61.5 3.66699 88.5 11s50.333 18 70 32s35 31.333 46 52s16.5 44.667 16.5 72c0 28.667 -6.16699 52.834 -18.5 72.501s-28.833 36.5 -49.5 50.5
s-44 25.833 -70 35.5l-80 28.5c-27.333 9.33301 -54 19 -80 29s-49.333 22.167 -70 36.5s-37.167 31.833 -49.5 52.5s-18.5 45.667 -18.5 75c0 27.333 5.66699 51.166 17 71.499s26.833 37.333 46.5 51s42.667 24.167 69 31.5s54.166 11.333 83.499 12v171
c0 4.66699 1.5 8.33398 4.5 11.001s6.16699 4 9.5 4c4 0 7.5 -1.33301 10.5 -4s4.5 -6.33398 4.5 -11.001v-172c14 -0.666992 28.833 -2.66699 44.5 -6s31 -7.83301 46 -13.5s29.167 -12.5 42.5 -20.5s24.333 -17.333 33 -28c2.66699 -3.33301 4 -6.33301 4 -9
c0 -4 -1.5 -7.33301 -4.5 -10s-6.5 -4 -10.5 -4s-7.33301 1.66699 -10 5c-20.667 21.333 -46.167 36.5 -76.5 45.5s-59.5 13.5 -87.5 13.5c-30 0 -57.167 -3 -81.5 -9s-45.166 -15 -62.499 -27s-30.666 -26.5 -39.999 -43.5s-14 -36.5 -14 -58.5
c0 -19.333 3.66699 -36.333 11 -51s17.5 -27.834 30.5 -39.501s28 -21.834 45 -30.501s35.5 -17 55.5 -25c31.333 -12 64.333 -23.5 99 -34.5s66.5 -24.667 95.5 -41s53 -36.833 72 -61.5s28.5 -57 28.5 -97z" />
    <glyph glyph-name="percent" unicode="%" horiz-adv-x="1011" 
d="M943 176c0 -24 -4.16699 -46.667 -12.5 -68s-19.666 -40 -33.999 -56s-31 -28.667 -50 -38s-39.5 -14 -61.5 -14c-21.333 0 -41.5 4.66699 -60.5 14s-35.667 22 -50 38s-25.666 34.667 -33.999 56s-12.5 44 -12.5 68s4.16699 46.667 12.5 68s19.666 39.833 33.999 55.5
s31 28.167 50 37.5s39.167 14 60.5 14c22 0 42.5 -4.66699 61.5 -14s35.667 -21.833 50 -37.5s25.666 -34.167 33.999 -55.5s12.5 -44 12.5 -68zM624 717c0 -1.33301 -0.667969 -3.00098 -2.00098 -5.00098l-198 -715c-0.666992 -4 -2.16699 -7 -4.5 -9s-4.83301 -3 -7.5 -3
c-3.33301 0 -6.66602 1.33301 -9.99902 4s-5 6.33398 -5 11.001v3l198 716c1.33301 4 3.33301 7 6 9s5.66699 3 9 3s6.5 -1.33301 9.5 -4s4.5 -6 4.5 -10zM382.999 536.999c0 -24 -4.16699 -46.667 -12.5 -68s-19.666 -40 -33.999 -56s-31 -28.667 -50 -38
s-39.167 -14 -60.5 -14c-22 0 -42.5 4.66699 -61.5 14s-35.667 22 -50 38s-25.666 34.667 -33.999 56s-12.5 44 -12.5 68s4.16699 46.667 12.5 68s19.666 40 33.999 56s31 28.5 50 37.5s39.5 13.5 61.5 13.5c21.333 0 41.5 -4.5 60.5 -13.5s35.667 -21.5 50 -37.5
s25.666 -34.667 33.999 -56s12.5 -44 12.5 -68zM913.999 175.999c0 21.333 -3.5 41 -10.5 59s-16.333 33.5 -28 46.5s-25.334 23.167 -41.001 30.5s-32.167 11 -49.5 11c-16.667 0 -32.834 -3.66699 -48.501 -11s-29.334 -17.5 -41.001 -30.5s-21 -28.5 -28 -46.5
s-10.5 -37.667 -10.5 -59s3.5 -41 10.5 -59s16.333 -33.667 28 -47s25.334 -23.666 41.001 -30.999s31.834 -11 48.501 -11c17.333 0 33.833 3.66699 49.5 11s29.334 17.666 41.001 30.999s21 29 28 47s10.5 37.667 10.5 59zM354.999 536.999c0 21.333 -3.5 41 -10.5 59
s-16.5 33.5 -28.5 46.5s-25.667 23.167 -41 30.5s-31.666 11 -48.999 11s-33.833 -3.66699 -49.5 -11s-29.334 -17.5 -41.001 -30.5s-21 -28.5 -28 -46.5s-10.5 -37.667 -10.5 -59c0 -20.667 3.5 -40 10.5 -58s16.333 -33.667 28 -47s25.334 -23.666 41.001 -30.999
s32.167 -11 49.5 -11s33.666 3.66699 48.999 11s29 17.666 41 30.999s21.5 29 28.5 47s10.5 37.333 10.5 58z" />
    <glyph glyph-name="ampersand" unicode="&#x26;" horiz-adv-x="697" 
d="M636 247c0 -3.33301 -1.33496 -6.6709 -4.00195 -10.0039l-132 -131l83 -81c2.66699 -2.66699 4 -5.66699 4 -9c0 -4 -1.5 -7.66699 -4.5 -11s-6.5 -5 -10.5 -5s-7.33301 1.66699 -10 5l-82 82l-1 -2l-41 -39.5c-13.333 -12.333 -27.5 -23.166 -42.5 -32.499
s-31.167 -16.666 -48.5 -21.999s-37 -8 -59 -8c-29.333 0 -57 5.5 -83 16.5s-48.667 26.167 -68 45.5s-34.666 42 -45.999 68s-17 53.667 -17 83c0 36.667 9.5 72.167 28.5 106.5s45.5 60.833 79.5 79.5h-1c-11.333 11.333 -22 22.5 -32 33.5s-18.667 22.833 -26 35.5
s-13.166 26.334 -17.499 41.001s-6.5 31.334 -6.5 50.001c0 26 5 50.333 15 73s23.5 42.5 40.5 59.5s36.833 30.5 59.5 40.5s47 15 73 15c25.333 0 48.333 -4.33301 69 -13s39 -19.334 55 -32.001s29.333 -25.667 40 -39s18.667 -24.666 24 -33.999c2 -2 3 -4.66699 3 -8
c0 -4 -1.5 -7.16699 -4.5 -9.5s-6.5 -3.5 -10.5 -3.5s-8 2 -12 6c-5.33301 9.33301 -12.833 19.833 -22.5 31.5s-21.334 23 -35.001 34s-29.334 20.167 -47.001 27.5s-37.5 11 -59.5 11s-42.667 -4.16699 -62 -12.5s-36.166 -19.833 -50.499 -34.5
s-25.666 -31.5 -33.999 -50.5s-12.5 -39.5 -12.5 -61.5c0 -30.667 6.5 -56 19.5 -76s31.167 -41.333 54.5 -64l278 -275l131 131c2.66699 2.66699 6 4 10 4s7.5 -1.5 10.5 -4.5s4.5 -6.5 4.5 -10.5zM202.998 359.995c-16 -6.66699 -30.168 -15.8311 -42.501 -27.498
s-22.666 -24.834 -30.999 -39.501s-14.833 -30.334 -19.5 -47.001s-7 -33 -7 -49c0 -25.333 4.83301 -49.333 14.5 -72s23 -42.5 40 -59.5s36.667 -30.333 59 -40s45.833 -14.5 70.5 -14.5c20 0 37.833 2.66699 53.5 8s30.167 12.333 43.5 21s26 18.667 38 30l36 35l1 1z
" />
    <glyph glyph-name="quotesingle" unicode="'" horiz-adv-x="228" 
d="M129 503c0 -10 -4.99805 -15 -14.998 -15c-9.33301 0 -14 5 -14 15l-9 202c-0.666992 6.66699 1.16602 12.5 5.49902 17.5s10.166 7.5 17.499 7.5s13 -2.5 17 -7.5s6 -10.833 6 -17.5z" />
    <glyph glyph-name="parenleft" unicode="(" horiz-adv-x="370" 
d="M283 -117c0 -4 -1.5 -7.49902 -4.5 -10.499s-6.5 -4.5 -10.5 -4.5c-2 0 -5.33301 1.16699 -10 3.5s-13.667 10.166 -27 23.499c-26 26.667 -48 56.334 -66 89.001s-32.667 66.667 -44 102s-19.666 71.5 -24.999 108.5s-8 73.5 -8 109.5c0 38 3.16699 76.833 9.5 116.5
s16.333 78 30 115s31.334 72 53.001 105s48.167 61.833 79.5 86.5c1.33301 1.33301 2.66602 2.16602 3.99902 2.49902s2.66602 0.5 3.99902 0.5c4 0 7.5 -1.66699 10.5 -5s4.5 -6.66602 4.5 -9.99902c0 -4.66699 -2.16699 -8.33398 -6.5 -11.001s-12.5 -9.66699 -24.5 -21
c-24.667 -23.333 -45.667 -50 -63 -80s-31.333 -61.5 -42 -94.5s-18.5 -67 -23.5 -102s-7.5 -69.167 -7.5 -102.5c0 -36.667 3 -74 9 -112s15.333 -75 28 -111s29.167 -70 49.5 -102s44.833 -60.333 73.5 -85c4.66699 -3.33301 7 -7 7 -11z" />
    <glyph glyph-name="parenright" unicode=")" horiz-adv-x="370" 
d="M283 293c0 -38 -3.16406 -76.833 -9.49707 -116.5s-16.333 -78 -30 -115s-31.334 -72 -53.001 -105s-48.167 -61.833 -79.5 -86.5c-2 -1.33301 -4.66699 -2 -8 -2c-4 0 -7.5 1.66699 -10.5 5s-4.5 6.66602 -4.5 9.99902c0 4.66699 2.16699 8.33398 6.5 11.001
s12.5 9.66699 24.5 21c24.667 23.333 45.667 49.833 63 79.5s31.333 61.167 42 94.5s18.334 67.333 23.001 102s7 68.667 7 102c0 36.667 -2.83301 74 -8.5 112s-14.834 75 -27.501 111s-29.167 70 -49.5 102s-44.833 60.333 -73.5 85c-4.66699 4 -7 8 -7 12
s1.5 7.5 4.5 10.5s6.5 4.5 10.5 4.5c1.33301 0 4.33301 -1.16699 9 -3.5s13.667 -10.5 27 -24.5c26 -26.667 48.167 -56.167 66.5 -88.5s33.166 -66.333 44.499 -102s19.666 -72 24.999 -109s8 -73.5 8 -109.5z" />
    <glyph glyph-name="asterisk" unicode="*" horiz-adv-x="518" 
d="M458 424c0 -4 -1.50098 -7.66797 -4.50098 -11.001s-6.5 -5 -10.5 -5c-1.33301 0 -3.33301 0.666992 -6 2l-163 95v-188c0 -4.66699 -1.5 -8.33398 -4.5 -11.001s-6.5 -4 -10.5 -4c-3.33301 0 -6.5 1.33301 -9.5 4s-4.5 6.33398 -4.5 11.001v188l-165 -95
c-2.66699 -1.33301 -5 -2 -7 -2c-4 0 -7.33301 1.66699 -10 5s-4 7 -4 11c0 6 2 9.66699 6 11l165 95l-164 95c-4.66699 2.66699 -7 6.33398 -7 11.001c0 4 1.5 7.66699 4.5 11s6.16699 5 9.5 5c2 0 4.33301 -0.666992 7 -2l164 -96v189c0 4.66699 1.5 8.33398 4.5 11.001
s6.16699 4 9.5 4c9.33301 0 14 -5 14 -15v-188l165 95c2.66699 1.33301 5.33398 2 8.00098 2c4 0 7.16699 -1.66699 9.5 -5s3.5 -7 3.5 -11c0 -5.33301 -2.33301 -9 -7 -11l-164 -95l163 -95c5.33301 -2.66699 8 -6.33398 8 -11.001z" />
    <glyph glyph-name="plus" unicode="+" horiz-adv-x="507" 
d="M439 353c0 -2.66699 -1.33301 -5.5 -4 -8.5s-6.33398 -4.5 -11.001 -4.5h-156v-156c0 -5.33301 -1.5 -9.16602 -4.5 -11.499s-6.5 -3.5 -10.5 -3.5c-9.33301 0 -14 4.33301 -14 13v158h-157c-9.33301 0 -14 5.66699 -14 17c0 7.33301 4.66699 11 14 11h156v156
c0 5.33301 1.5 9.16602 4.5 11.499s6.5 3.5 10.5 3.5c9.33301 0 14 -4.33301 14 -13v-158h157c4.66699 0 8.33398 -1.5 11.001 -4.5s4 -6.5 4 -10.5z" />
    <glyph glyph-name="comma" unicode="," horiz-adv-x="294" 
d="M195 18c0 -18.667 -4.83203 -37.999 -14.499 -57.999s-26.167 -36.667 -49.5 -50c-2.66699 -1.33301 -5 -2 -7 -2c-4.66699 0 -8.33398 1.66699 -11.001 5s-4 7 -4 11s2.33301 7.66699 7 11c19.333 11.333 32 23.333 38 36s9.66699 23.334 11 32.001
c-1.33301 0 -3 -0.333008 -5 -1c-4 -1.33301 -8 -2 -12 -2c-12 0 -22.167 4.16699 -30.5 12.5s-12.5 18.166 -12.5 29.499c0 12 4.16699 22.167 12.5 30.5s18.5 12.5 30.5 12.5c10 0 18 -2.16699 24 -6.5s10.833 -9.83301 14.5 -16.5s6 -13.834 7 -21.501
s1.5 -15.167 1.5 -22.5z" />
    <glyph glyph-name="hyphen" unicode="-" horiz-adv-x="507" 
d="M439 353c0 -2.66699 -1.33301 -5.5 -4 -8.5s-6.33398 -4.5 -11.001 -4.5h-341c-4.66699 0 -8.33398 1.5 -11.001 4.5s-4 5.83301 -4 8.5c0 4 1.33301 7.5 4 10.5s6.33398 4.5 11.001 4.5h341c4.66699 0 8.33398 -1.5 11.001 -4.5s4 -6.5 4 -10.5z" />
    <glyph glyph-name="period" unicode="." horiz-adv-x="296" 
d="M192 43c0 -12 -4.33301 -22.167 -13 -30.5s-19 -12.5 -31 -12.5s-22.167 4.16699 -30.5 12.5s-12.5 18.166 -12.5 29.499c0 12 4.16699 22.167 12.5 30.5s18.5 12.5 30.5 12.5s22.333 -4.16699 31 -12.5s13 -18.166 13 -29.499z" />
    <glyph glyph-name="slash" unicode="/" horiz-adv-x="556" 
d="M499 727c0 -1.33301 -0.666016 -4 -1.99902 -8l-413 -740c-2.66699 -4.66699 -6.33398 -7 -11.001 -7c-4 0 -7.66699 1.33301 -11 4s-5 6 -5 10c0 2 0.666992 4.33301 2 7l414 740c3.33301 5.33301 7 8 11 8s7.5 -1.33301 10.5 -4s4.5 -6 4.5 -10z" />
    <glyph glyph-name="zero" unicode="0" horiz-adv-x="576" 
d="M502 383c0 -24.667 -0.335938 -51.667 -1.00293 -81s-3 -58.833 -7 -88.5s-10.5 -58.334 -19.5 -86.001s-21.333 -52.167 -37 -73.5s-35.667 -38.5 -60 -51.5s-54.166 -19.5 -89.499 -19.5s-65.166 6.5 -89.499 19.5s-44.333 30.167 -60 51.5s-28 45.833 -37 73.5
s-15.5 56.334 -19.5 86.001s-6.33301 59.167 -7 88.5s-1 56.333 -1 81c0 23.333 0.833008 48.166 2.5 74.499s5 52.333 10 78s12.333 50.334 22 74.001s22.334 44.334 38.001 62.001s35 31.834 58 42.501s50.5 16 82.5 16s59.667 -5.33301 83 -16s43 -24.834 59 -42.501
s28.833 -38.334 38.5 -62.001s17 -48.334 22 -74.001s8.33301 -51.667 10 -78s2.5 -51.166 2.5 -74.499zM472.997 383c0 38 -2.17285 75.833 -6.50586 113.5s-13 71.667 -26 102s-31.667 55 -56 74s-56.5 28.5 -96.5 28.5s-72.167 -9.5 -96.5 -28.5s-43 -43.667 -56 -74
s-21.667 -64.333 -26 -102s-6.5 -75.5 -6.5 -113.5c0 -26 0.333008 -53.333 1 -82s2.83398 -56.834 6.50098 -84.501s9.33398 -53.834 17.001 -78.501s18.334 -46.5 32.001 -65.5s30.834 -34 51.501 -45s46 -16.5 76 -16.5s55.5 5.5 76.5 16.5s38.333 26 52 45
s24.334 40.833 32.001 65.5s13.334 50.834 17.001 78.501s6 55.834 7 84.501s1.5 56 1.5 82z" />
    <glyph glyph-name="one" unicode="1" horiz-adv-x="340" 
d="M236 14c0 -4.66699 -1.5 -8.33594 -4.5 -11.0029s-6.5 -4 -10.5 -4c-3.33301 0 -6.5 1.33301 -9.5 4s-4.5 6.33398 -4.5 11.001v654l-149 -144c-2 -2 -5 -3 -9 -3s-7.5 1.33301 -10.5 4s-4.5 5.66699 -4.5 9c0 4.66699 1.66699 8.33398 5 11.001l171 165
c4 4.66699 7.66699 7 11 7c4 0 7.5 -1.66699 10.5 -5s4.5 -7.66602 4.5 -12.999v-685v0z" />
    <glyph glyph-name="two" unicode="2" horiz-adv-x="504" 
d="M437 14c0 -3.33301 -1.33203 -6.49707 -3.99902 -9.49707s-6.33398 -4.5 -11.001 -4.5h-354c-10.667 0 -16 3.66699 -16 11c0 3.33301 1.66699 7.33301 5 12l321 427c10 12.667 17.333 26.667 22 42s7 30.666 7 45.999c0 20.667 -3.83301 40.667 -11.5 60
s-18.5 36.666 -32.5 51.999s-30.833 27.666 -50.5 36.999s-41.5 14 -65.5 14c-21.333 0 -40.833 -3.83301 -58.5 -11.5s-33.334 -16.834 -47.001 -27.501s-25.334 -22 -35.001 -34s-17.167 -22.333 -22.5 -31c-2 -4 -5.66699 -6 -11 -6c-4 0 -7.5 1.16699 -10.5 3.5
s-4.5 5.5 -4.5 9.5c0 2.66699 0.666992 5.33398 2 8.00098c5.33301 9.33301 13.333 20.666 24 33.999s23.834 26.333 39.501 39s33.834 23.334 54.501 32.001s43.667 13 69 13c28 0 53.667 -5.5 77 -16.5s43.333 -25.5 60 -43.5s29.667 -38.667 39 -62s14 -47 14 -71
c0 -37.333 -12 -72 -36 -104l-304 -405h325c10 0 15 -4.66699 15 -14z" />
    <glyph glyph-name="three" unicode="3" horiz-adv-x="531" 
d="M464 192c0 -28.667 -5.33203 -55.498 -15.999 -80.498s-25.167 -46.833 -43.5 -65.5s-40 -33.5 -65 -44.5s-51.833 -16.5 -80.5 -16.5c-42 0 -79.667 11 -113 33s-58 51 -74 87c-0.666992 1.33301 -1 3.66602 -1 6.99902c0 4 1.5 7.16699 4.5 9.5s6.16699 3.5 9.5 3.5
c6.66699 0 11 -2.66699 13 -8c13.333 -31.333 34.333 -56.333 63 -75s61 -28 97 -28c24 0 46.833 4.66699 68.5 14s40.5 22 56.5 38s28.667 34.667 38 56s14 44 14 68c0 24.667 -4.66699 47.667 -14 69s-22 40 -38 56s-34.667 28.667 -56 38s-44 14 -68 14
c-4.66699 0 -8.33398 1.5 -11.001 4.5s-4 6.16699 -4 9.5c0 4 1.16699 7.5 3.5 10.5s5.83301 4.5 10.5 4.5c21.333 0 41.333 4 60 12s35 18.833 49 32.5s25 29.667 33 48s12 38.166 12 59.499s-4 41.333 -12 60s-18.833 35 -32.5 49s-29.834 25 -48.501 33
s-38.667 12 -60 12c-22 0 -42 -3.83301 -60 -11.5s-33.833 -16.834 -47.5 -27.501s-25.167 -22 -34.5 -34s-16.666 -22.667 -21.999 -32c-2.66699 -4 -6.66699 -6 -12 -6c-4 0 -7.5 1.16699 -10.5 3.5s-4.5 5.5 -4.5 9.5c0 1.33301 0.333008 2.66602 1 3.99902l2 4
c6 9.33301 14.333 20.833 25 34.5s23.5 26.834 38.5 39.501s32.833 23.334 53.5 32.001s44 13 70 13c25.333 0 49 -4.83301 71 -14.5s41.167 -22.667 57.5 -39s29.333 -35.5 39 -57.5s14.5 -45.667 14.5 -71c0 -38 -10.167 -71.833 -30.5 -101.5s-46.5 -51.167 -78.5 -64.5
c38.667 -15.333 70.5 -40 95.5 -74s37.5 -73 37.5 -117z" />
    <glyph glyph-name="four" unicode="4" horiz-adv-x="514" 
d="M469 162c0 -3.33301 -1.16602 -6.50293 -3.49902 -9.50293s-5.83301 -4.5 -10.5 -4.5h-94v-134c0 -10 -4.66699 -15 -14 -15c-3.33301 0 -6.5 1.33301 -9.5 4s-4.5 6.33398 -4.5 11.001v134h-282c-5.33301 0 -9.5 1.5 -12.5 4.5s-4.5 6.5 -4.5 10.5
c0 2.66699 0.666992 5.33398 2 8.00098l284 541c3.33301 5.33301 7.66602 8 12.999 8c3.33301 0 6.66602 -1.16699 9.99902 -3.5s5 -5.5 5 -9.5c0 -3.33301 -1 -6 -3 -8l-273 -522h261v157c0 4.66699 1.5 8.33398 4.5 11.001s6.16699 4 9.5 4c9.33301 0 14 -5 14 -15v-157
h93c4.66699 0 8.33398 -1.5 11.001 -4.5s4 -6.5 4 -10.5z" />
    <glyph glyph-name="five" unicode="5" horiz-adv-x="549" 
d="M492 228c0 -33.333 -5.83594 -64.502 -17.5029 -93.502s-27.667 -54.167 -48 -75.5s-44.166 -38.166 -71.499 -50.499s-56.333 -18.5 -87 -18.5c-16.667 0 -33.834 2.16699 -51.501 6.5s-34.5 10.666 -50.5 18.999s-30.667 18.333 -44 30s-24.666 24.834 -33.999 39.501
c-2 2.66699 -3 5.33398 -3 8.00098c0 4 1.5 7.33301 4.5 10s6.5 4 10.5 4c5.33301 0 9.33301 -2.33301 12 -7c8 -12 17.833 -23.167 29.5 -33.5s24.5 -19 38.5 -26s28.5 -12.5 43.5 -16.5s29.833 -6 44.5 -6c26 0 50.833 5.33301 74.5 16s44.5 25.5 62.5 44.5
s32.333 41.167 43 66.5s16 53 16 83s-5.33301 57.833 -16 83.5s-25 48 -43 67s-38.833 33.833 -62.5 44.5s-48.5 16 -74.5 16c-25.333 0 -47.666 -4.16699 -66.999 -12.5s-35.666 -17.833 -48.999 -28.5s-23.666 -20.834 -30.999 -30.501s-11.666 -15.5 -12.999 -17.5
c-2.66699 -6.66699 -7 -10 -13 -10c-10 0 -15 5.33301 -15 16v343c0 10 5 15 15 15h347c4.66699 0 8.33398 -1.5 11.001 -4.5s4 -6.5 4 -10.5c0 -3.33301 -1.33301 -6.5 -4 -9.5s-6.33398 -4.5 -11.001 -4.5h-334v-288c15.333 16 36.166 31.667 62.499 47s58.833 23 97.5 23
c30.667 0 59.667 -6.16699 87 -18.5s51.166 -29.166 71.499 -50.499s36.333 -46.5 48 -75.5s17.5 -60.5 17.5 -94.5z" />
    <glyph glyph-name="six" unicode="6" horiz-adv-x="573" 
d="M511 204c0 -29.333 -5.5 -57.335 -16.5 -84.002s-26.333 -50.167 -46 -70.5s-42.5 -36.5 -68.5 -48.5s-54 -18 -84 -18c-34.667 0 -64.5 5.5 -89.5 16.5s-45.833 26 -62.5 45s-30 40.833 -40 65.5s-17.667 50.834 -23 78.501s-8.83301 55.834 -10.5 84.501
s-2.5 56.334 -2.5 83.001c0 46.667 3 92.334 9 137.001s17.5 84.5 34.5 119.5s40.333 63.333 70 85s67.834 32.5 114.501 32.5c42 0 78.167 -8.66699 108.5 -26s55.833 -42 76.5 -74c1.33301 -1.33301 2 -4 2 -8c0 -9.33301 -4.33301 -14 -13 -14c-4.66699 0 -9 2 -13 6
c-17.333 27.333 -39.333 48.666 -66 63.999s-58.334 23 -95.001 23c-39.333 0 -71.833 -9 -97.5 -27s-46 -42.5 -61 -73.5s-25.5 -67.333 -31.5 -109s-9 -86.5 -9 -134.5v-37c0 -12.667 0.333008 -21.667 1 -27c18.667 41.333 46 73.666 82 96.999s74.667 35 116 35
c30 0 58 -6 84 -18s48.833 -28.167 68.5 -48.5s35 -43.833 46 -70.5s16.5 -54.667 16.5 -84zM481 203.998c0 26 -4.83105 50.668 -14.498 74.001s-22.834 43.833 -39.501 61.5s-36.334 31.667 -59.001 42s-46.667 15.5 -72 15.5c-23.333 0 -46.333 -4.66699 -69 -14
s-42.834 -22.833 -60.501 -40.5s-32 -38.667 -43 -63s-16.5 -51.5 -16.5 -81.5c4.66699 -24.667 11.334 -48.334 20.001 -71.001s20.334 -42.5 35.001 -59.5s33 -30.667 55 -41s48.333 -15.5 79 -15.5c25.333 0 49.166 5.16699 71.499 15.5s42 24.333 59 42
s30.333 38.167 40 61.5s14.5 48 14.5 74z" />
    <glyph glyph-name="seven" unicode="7" horiz-adv-x="480" 
d="M437 700c0 -1.33301 -0.333984 -2.66699 -1.00098 -4l-2 -4l-262 -683c-2 -6.66699 -6 -10 -12 -10c-3.33301 0 -7.16602 1.5 -11.499 4.5s-5.5 6.5 -3.5 10.5l256 671h-343c-8 0 -12 4.66699 -12 14c0 10 4.33301 15 13 15h361c4.66699 0 8.66699 -1.16699 12 -3.5
s5 -5.83301 5 -10.5z" />
    <glyph glyph-name="eight" unicode="8" horiz-adv-x="537" 
d="M474 192c0 -28.667 -5.33203 -55.5 -15.999 -80.5s-25.167 -46.833 -43.5 -65.5s-40 -33.5 -65 -44.5s-51.833 -16.5 -80.5 -16.5s-55.5 5.5 -80.5 16.5s-46.833 25.833 -65.5 44.5s-33.334 40.5 -44.001 65.5s-16 51.833 -16 80.5c0 44 12.167 83.167 36.5 117.5
s56.5 59.166 96.5 74.499c-32 14 -58 35.667 -78 65s-30 62.666 -30 99.999c0 25.333 4.66699 49 14 71s22.166 41.333 38.499 58s35.5 29.667 57.5 39s45.333 14 70 14c25.333 0 48.833 -4.66699 70.5 -14s40.834 -22.333 57.501 -39s29.667 -36 39 -58s14 -45.667 14 -71
c0 -37.333 -10 -70.666 -30 -99.999s-46 -51 -78 -65c40 -15.333 72.167 -40.166 96.5 -74.499s36.5 -73.5 36.5 -117.5zM421.001 549c0 21.333 -4 41.333 -12 60s-19 34.834 -33 48.501s-30.167 24.5 -48.5 32.5s-37.833 12 -58.5 12c-21.333 0 -41.333 -4 -60 -12
s-34.834 -18.833 -48.501 -32.5s-24.5 -29.834 -32.5 -48.501s-12 -38.667 -12 -60c0 -20.667 4 -40.334 12 -59.001s18.833 -34.667 32.5 -48s29.834 -24 48.501 -32s38.667 -12 60 -12c20.667 0 40.167 4 58.5 12s34.5 18.667 48.5 32s25 29.333 33 48
s12 38.334 12 59.001zM446.001 192c0 24.667 -4.66504 47.667 -13.998 69s-22.166 40 -38.499 56s-35.333 28.5 -57 37.5s-44.5 13.5 -68.5 13.5c-24.667 0 -47.667 -4.5 -69 -13.5s-40 -21.5 -56 -37.5s-28.667 -34.667 -38 -56s-14 -44.333 -14 -69
c0 -24 4.66699 -46.833 14 -68.5s22.166 -40.667 38.499 -57s35.166 -29.166 56.499 -38.499s44 -14 68 -14s46.833 4.66699 68.5 14s40.667 22.166 57 38.499s29.166 35.333 38.499 57s14 44.5 14 68.5z" />
    <glyph glyph-name="nine" unicode="9" horiz-adv-x="573" 
d="M504 357c0 -46.667 -3.00195 -92.333 -9.00195 -137s-17.5 -84.5 -34.5 -119.5s-40.167 -63.333 -69.5 -85s-67.666 -32.5 -114.999 -32.5c-42 0 -78.167 8.5 -108.5 25.5s-55.833 41.5 -76.5 73.5c-1.33301 1.33301 -2 2.66602 -2 3.99902v4c0 4 1.5 7.5 4.5 10.5
s6.16699 4.5 9.5 4.5c5.33301 0 9.33301 -2.33301 12 -7c17.333 -27.333 39.333 -48.666 66 -63.999s58.334 -23 95.001 -23c39.333 0 71.833 9 97.5 27s46 42.5 61 73.5s25.5 67.5 31.5 109.5s9 87 9 135v37c0 12.667 -0.333008 21.667 -1 27
c-8.66699 -20.667 -20.167 -39.167 -34.5 -55.5s-30.166 -30.333 -47.499 -42s-35.833 -20.5 -55.5 -26.5s-39.834 -9 -60.501 -9c-30 0 -58 6 -84 18s-48.667 28.167 -68 48.5s-34.5 43.833 -45.5 70.5s-16.5 54.667 -16.5 84s5.5 57.5 16.5 84.5s26.167 50.667 45.5 71
s42 36.5 68 48.5s54 18 84 18c34.667 0 64.5 -5.5 89.5 -16.5s46 -26 63 -45s30.5 -41 40.5 -66s17.5 -51.333 22.5 -79s8.33301 -55.667 10 -84s2.5 -55.833 2.5 -82.5zM464.998 514.001c-4.66699 24.667 -11.333 48.335 -20 71.002s-20.334 42.5 -35.001 59.5
s-33 30.667 -55 41s-48.333 15.5 -79 15.5c-24.667 0 -48.334 -5.16699 -71.001 -15.5s-42.334 -24.333 -59.001 -42s-30 -38.167 -40 -61.5s-15 -48 -15 -74s4.83301 -50.5 14.5 -73.5s22.834 -43.333 39.501 -61s36.334 -31.667 59.001 -42s46.667 -15.5 72 -15.5
c23.333 0 46.333 4.66699 69 14s42.834 22.666 60.501 39.999s32 38.166 43 62.499s16.5 51.5 16.5 81.5z" />
    <glyph glyph-name="colon" unicode=":" horiz-adv-x="285" 
d="M186 385c0 -12 -4.33301 -22.167 -13 -30.5s-18.667 -12.5 -30 -12.5c-12 0 -22.333 4.16699 -31 12.5s-13 18.5 -13 30.5s4.33301 22.333 13 31s19 13 31 13c11.333 0 21.333 -4.33301 30 -13s13 -19 13 -31zM186 43c0 -12 -4.33301 -22.166 -13 -30.499
s-18.667 -12.5 -30 -12.5c-12 0 -22.333 4.16699 -31 12.5s-13 18.166 -13 29.499c0 12 4.33301 22.167 13 30.5s19 12.5 31 12.5c11.333 0 21.333 -4 30 -12s13 -18 13 -30z" />
    <glyph glyph-name="semicolon" unicode=";" horiz-adv-x="285" 
d="M186 385c0 -12 -4.33301 -22.167 -13 -30.5s-18.667 -12.5 -30 -12.5c-12 0 -22.333 4.16699 -31 12.5s-13 18.5 -13 30.5s4.33301 22.333 13 31s19 13 31 13c11.333 0 21.333 -4.33301 30 -13s13 -19 13 -31zM195 18c0 -18.667 -4.83105 -37.999 -14.498 -57.999
s-26.167 -36.667 -49.5 -50c-2.66699 -1.33301 -5 -2 -7 -2c-4.66699 0 -8.33398 1.66699 -11.001 5s-4 7 -4 11s2.33301 7.66699 7 11c19.333 11.333 32 23.333 38 36s9.66699 23.334 11 32.001c-1.33301 0 -3 -0.333008 -5 -1c-4 -1.33301 -8 -2 -12 -2
c-12 0 -22.167 4.16699 -30.5 12.5s-12.5 18.166 -12.5 29.499c0 12 4.16699 22.167 12.5 30.5s18.5 12.5 30.5 12.5c10 0 18.167 -2.16699 24.5 -6.5s11.166 -9.83301 14.499 -16.5s5.5 -13.834 6.5 -21.501s1.5 -15.167 1.5 -22.5z" />
    <glyph glyph-name="less" unicode="&#x3c;" horiz-adv-x="383" 
d="M320 15c0 -4 -1.33398 -7.66602 -4.00098 -10.999s-6 -5 -10 -5c-3.33301 0 -6.66602 1.33301 -9.99902 4l-252 252c-2.66699 3.33301 -4 7 -4 11c0 3.33301 1.33301 6.66602 4 9.99902l251 251c3.33301 2.66699 7 4 11 4c9.33301 0 14 -4.33301 14 -13
c0 -3.33301 -1.66699 -7.33301 -5 -12l-241 -240l242 -242c2.66699 -2.66699 4 -5.66699 4 -9z" />
    <glyph glyph-name="equal" unicode="=" horiz-adv-x="507" 
d="M439 353c0 -2.66699 -1.33301 -5.5 -4 -8.5s-6.33398 -4.5 -11.001 -4.5h-341c-4.66699 0 -8.33398 1.5 -11.001 4.5s-4 5.83301 -4 8.5c0 4 1.33301 7.5 4 10.5s6.33398 4.5 11.001 4.5h341c4.66699 0 8.33398 -1.5 11.001 -4.5s4 -6.5 4 -10.5zM439 211
c0 -3.33301 -1.33301 -6.5 -4 -9.5s-6.33398 -4.5 -11.001 -4.5h-341c-4.66699 0 -8.33398 1.5 -11.001 4.5s-4 6.16699 -4 9.5c0 4 1.33301 7.5 4 10.5s6.33398 4.5 11.001 4.5h341c4.66699 0 8.33398 -1.5 11.001 -4.5s4 -6.5 4 -10.5z" />
    <glyph glyph-name="greater" unicode="&#x3e;" horiz-adv-x="383" 
d="M344 266c0 -4 -1.33496 -7.66797 -4.00195 -11.001l-252 -252c-3.33301 -2.66699 -6.66602 -4 -9.99902 -4s-6.66602 1.5 -9.99902 4.5s-5 6.5 -5 10.5s1.33301 7.33301 4 10l242 242l-241 240c-2 2.66699 -3 6 -3 10s1.5 7.66699 4.5 11s6.16699 5 9.5 5
c1.33301 0 4.33301 -1.66699 9 -5l252 -251c2.66699 -3.33301 4 -6.66602 4 -9.99902z" />
    <glyph glyph-name="question" unicode="?" horiz-adv-x="531" 
d="M463 516c0 -28.667 -5.16699 -55.499 -15.5 -80.499s-24.5 -47 -42.5 -66s-39.167 -34.5 -63.5 -46.5s-50.5 -19 -78.5 -21v-89c0 -10 -4.66699 -15 -14 -15c-3.33301 0 -6.5 1.33301 -9.5 4s-4.5 6.33398 -4.5 11.001v103c0 5.33301 1.66699 9.16602 5 11.499
s6.66602 3.5 9.99902 3.5c25.333 0 49 4.83301 71 14.5s41.5 23 58.5 40s30.333 36.667 40 59s14.5 45.833 14.5 70.5c0 26 -4.83301 50.167 -14.5 72.5s-23 42 -40 59s-36.5 30.333 -58.5 40s-45.667 14.5 -71 14.5c-21.333 0 -41 -3.83301 -59 -11.5
s-33.833 -16.834 -47.5 -27.501s-25.5 -22 -35.5 -34s-17.667 -22.333 -23 -31c-2 -4 -5.66699 -6 -11 -6c-4 0 -7.5 1.16699 -10.5 3.5s-4.5 5.5 -4.5 9.5c0 3.33301 1 6 3 8c6 9.33301 14.167 20.666 24.5 33.999s23.333 26.333 39 39s33.834 23.334 54.501 32.001
s44 13 70 13c29.333 0 57 -5.5 83 -16.5s48.667 -26.167 68 -45.5s34.5 -42 45.5 -68s16.5 -54 16.5 -84zM294 43.001c0 -12 -4 -22.166 -12 -30.499s-18 -12.5 -30 -12.5s-22.167 4.16699 -30.5 12.5s-12.5 18.166 -12.5 29.499c0 12 4.16699 22.167 12.5 30.5
s18.5 12.5 30.5 12.5s22 -4 30 -12s12 -18 12 -30z" />
    <glyph glyph-name="at" unicode="@" horiz-adv-x="795" 
d="M702 174c0 -17.333 -2.50391 -36.6689 -7.50391 -58.002s-13.5 -41.5 -25.5 -60.5s-27.667 -34.833 -47 -47.5s-43.666 -19 -72.999 -19c-10 0 -15 4.33301 -15 13v54c-14 -23.333 -32.5 -42.5 -55.5 -57.5s-50.5 -22.5 -82.5 -22.5
c-26.667 0 -50.334 5.33301 -71.001 16s-38 24.834 -52 42.501s-24.667 38.167 -32 61.5s-11 47.333 -11 72s3.66699 48.5 11 71.5s18 43.333 32 61s31.333 31.834 52 42.501s44.334 16 71.001 16c32 0 59.5 -7.5 82.5 -22.5s41.5 -34.167 55.5 -57.5v66
c0 9.33301 5.66699 14 17 14c7.33301 0 11 -4.66699 11 -14v-328c20 2 37.167 8.33301 51.5 19s26 23.667 35 39s15.5 31.666 19.5 48.999s6 34 6 50c0 47.333 -5.5 92 -16.5 134s-27.667 78.667 -50 110s-51 56.166 -86 74.499s-76.5 27.5 -124.5 27.5
s-89.5 -9.16699 -124.5 -27.5s-63.833 -43.166 -86.5 -74.499s-39.334 -68 -50.001 -110s-16 -86.667 -16 -134s5.33301 -91.833 16 -133.5s27.334 -78.167 50.001 -109.5s51.5 -56.166 86.5 -74.499s76.5 -27.5 124.5 -27.5c30 0 57 3.33301 81 10s46 16.667 66 30
c4 1.33301 6.66699 2 8 2c4 0 7.5 -1.5 10.5 -4.5s4.5 -6.16699 4.5 -9.5c0 -4.66699 -2.33301 -8.66699 -7 -12c-45.333 -29.333 -99.666 -44 -162.999 -44c-54 0 -100.167 10.167 -138.5 30.5s-70 47.833 -95 82.5s-43.333 74.5 -55 119.5s-17.5 91.833 -17.5 140.5
c0 49.333 5.83301 96.5 17.5 141.5s30 84.667 55 119s56.667 61.833 95 82.5s84.5 31 138.5 31c53.333 0 99.333 -10.333 138 -31s70.334 -48.167 95.001 -82.5s42.834 -74 54.501 -119s17.5 -92.167 17.5 -141.5zM533.996 167.997c0 22.667 -3.16699 44 -9.5 64
s-15.5 37.333 -27.5 52s-26.5 26.167 -43.5 34.5s-36.167 12.5 -57.5 12.5c-22 0 -41.5 -4.16699 -58.5 -12.5s-31.333 -19.833 -43 -34.5s-20.5 -32 -26.5 -52s-9 -41.333 -9 -64s3 -44 9 -64s14.833 -37.333 26.5 -52s26 -26.167 43 -34.5s36.5 -12.5 58.5 -12.5
c21.333 0 40.5 4.16699 57.5 12.5s31.5 19.833 43.5 34.5s21.167 32 27.5 52s9.5 41.333 9.5 64z" />
    <glyph glyph-name="A" unicode="A" horiz-adv-x="671" 
d="M633 15c0 -4.66699 -1.66797 -8.5 -5.00098 -11.5s-7 -4.5 -11 -4.5c-4.66699 0 -8.66699 3 -12 9l-73 177h-392l-73 -176c-2 -6 -5.66699 -9 -11 -9c-4 0 -7.66699 1.5 -11 4.5s-5 6.83301 -5 11.5c0 1.33301 0.333008 3 1 5l282 680c2.66699 7.33301 7 11 13 11
c6.66699 0 11.334 -3.66699 14.001 -11l282 -682c0.666992 -0.666992 1 -2 1 -4zM335.999 661l-184 -448h369z" />
    <glyph glyph-name="B" unicode="B" horiz-adv-x="670" 
d="M616 198c0 -27.333 -5.16699 -53 -15.5 -77s-24.5 -45 -42.5 -63s-39.167 -32.167 -63.5 -42.5s-50.166 -15.5 -77.499 -15.5h-311c-10 0 -15 5 -15 15v684c0 4 1.33301 7.5 4 10.5s6 4.5 10 4.5h291c24 0 46.5 -4.5 67.5 -13.5s39.333 -21.5 55 -37.5s28 -34.5 37 -55.5
s13.5 -43.5 13.5 -67.5c0 -34 -8.66699 -64.333 -26 -91s-40 -47 -68 -61c20.667 -6 39.667 -15.167 57 -27.5s32.166 -26.833 44.499 -43.5s22 -35.167 29 -55.5s10.5 -41.5 10.5 -63.5zM539 540c0 20 -3.66602 38.833 -10.999 56.5s-17.5 33 -30.5 46
s-28.167 23.333 -45.5 31s-36 11.5 -56 11.5h-276v-289h276c19.333 0 37.666 3.83301 54.999 11.5s32.5 18 45.5 31s23.333 28.333 31 46s11.5 36.167 11.5 55.5zM587.001 197c0 24 -4.33301 46.335 -13 67.002s-20.667 38.667 -36 54s-33.333 27.5 -54 36.5
s-43 13.5 -67 13.5h-297v-340h297c24 0 46.333 4.5 67 13.5s38.667 21.167 54 36.5s27.333 33.166 36 53.499s13 42.166 13 65.499z" />
    <glyph glyph-name="C" unicode="C" horiz-adv-x="651" 
d="M592 100c0 -3.33301 -0.999023 -6.00098 -2.99902 -8.00098c-24.667 -34 -55.167 -60.833 -91.5 -80.5s-80.5 -29.5 -132.5 -29.5c-54 0 -99.5 10.333 -136.5 31s-67 48.334 -90 83.001s-39.667 74.5 -50 119.5s-15.5 91.833 -15.5 140.5
c0 49.333 5.16699 96.5 15.5 141.5s27 84.667 50 119s53 61.833 90 82.5s82.5 31 136.5 31c50.667 0 94.334 -9.5 131.001 -28.5s67.334 -45.833 92.001 -80.5c2 -1.33301 3 -4 3 -8s-1.5 -7.33301 -4.5 -10s-6.16699 -4 -9.5 -4c-4.66699 0 -9 2 -13 6
c-21.333 30 -48 53.5 -80 70.5s-71.667 25.5 -119 25.5c-48 0 -88.667 -9 -122 -27s-60.5 -42.667 -81.5 -74s-36.333 -67.833 -46 -109.5s-14.5 -86.5 -14.5 -134.5s4.83301 -93 14.5 -135s25 -78.667 46 -110s48.167 -56 81.5 -74s74 -27 122 -27
c47.333 0 87.166 8.83301 119.499 26.5s59.166 41.5 80.499 71.5c4 4.66699 8 7 12 7c3.33301 0 6.66602 -1.5 9.99902 -4.5s5 -6.5 5 -10.5z" />
    <glyph glyph-name="D" unicode="D" horiz-adv-x="690" 
d="M616 357c0 -46.667 -4.66699 -91.5 -14 -134.5s-24.666 -81 -45.999 -114s-49.5 -59.333 -84.5 -79s-78.167 -29.5 -129.5 -29.5h-236c-4 -0 -7.5 1.33301 -10.5 4s-4.5 6 -4.5 10v685c0 10 5 15 15 15h236c51.333 0 94.5 -10 129.5 -30s63.167 -46.667 84.5 -80
s36.666 -71.333 45.999 -114s14 -87 14 -133zM587 356c0 45.333 -4.16699 87.999 -12.5 127.999s-22.166 74.833 -41.499 104.5s-44.666 53.167 -75.999 70.5s-69.666 26 -114.999 26h-222v-657h222c45.333 0 83.666 8.5 114.999 25.5s56.666 40.333 75.999 70
s33.166 64.334 41.499 104.001s12.5 82.5 12.5 128.5z" />
    <glyph glyph-name="E" unicode="E" horiz-adv-x="649" 
d="M593 15c0 -4 -1.33301 -7.5 -4 -10.5s-6.33398 -4.5 -11.001 -4.5h-473c-10 0 -15 5 -15 15v685c0 4.66699 1.5 8.16699 4.5 10.5s6.5 3.5 10.5 3.5h473c4.66699 0 8.33398 -1.5 11.001 -4.5s4 -6.5 4 -10.5c0 -3.33301 -1.33301 -6.5 -4 -9.5
s-6.33398 -4.5 -11.001 -4.5h-459v-287h348c5.33301 0 9.16602 -1.5 11.499 -4.5s3.5 -6.5 3.5 -10.5c0 -3.33301 -1.16699 -6.5 -3.5 -9.5s-6.16602 -4.5 -11.499 -4.5h-348v-339h459c4.66699 0 8.33398 -1.5 11.001 -4.5s4 -6.5 4 -10.5z" />
    <glyph glyph-name="F" unicode="F" horiz-adv-x="633" 
d="M593 699c0 -3.33301 -1.16602 -6.5 -3.49902 -9.5s-5.83301 -4.5 -10.5 -4.5h-459v-287h347c5.33301 0 9.16602 -1.5 11.499 -4.5s3.5 -6.5 3.5 -10.5c0 -3.33301 -1 -6.5 -3 -9.5s-5.33301 -4.5 -10 -4.5h-349v-354c0 -4 -1.33301 -7.5 -4 -10.5s-6 -4.5 -10 -4.5
c-10 0 -15 5 -15 15v685c0 4.66699 1.5 8.16699 4.5 10.5s6.5 3.5 10.5 3.5h473c4.66699 0 8.16699 -1.5 10.5 -4.5s3.5 -6.5 3.5 -10.5z" />
    <glyph glyph-name="G" unicode="G" horiz-adv-x="718" 
d="M656 357c0 -48.667 -5 -95.668 -15 -141.001s-26.5 -85.166 -49.5 -119.499s-53 -61.833 -90 -82.5s-82.5 -31 -136.5 -31s-99.5 10.333 -136.5 31s-67 48.167 -90 82.5s-39.5 74 -49.5 119s-15 91.833 -15 140.5c0 49.333 5 96.5 15 141.5s26.5 84.667 49.5 119
s53 61.833 90 82.5s82.5 31 136.5 31c50.667 0 94.5 -9.5 131.5 -28.5s67.167 -45.833 90.5 -80.5c2.66699 -2.66699 4 -5.66699 4 -9s-1.66699 -6.33301 -5 -9s-6.66602 -4 -9.99902 -4c-4 0 -8 2 -12 6c-20.667 30 -47.5 53.5 -80.5 70.5s-72.5 25.5 -118.5 25.5
c-48 0 -88.5 -9 -121.5 -27s-60 -42.667 -81 -74s-36.167 -67.833 -45.5 -109.5s-14 -86.5 -14 -134.5s4.66699 -93 14 -135s24.5 -78.5 45.5 -109.5s48 -55.5 81 -73.5s73.5 -27 121.5 -27c46.667 0 86.334 8.5 119.001 25.5s59.5 40.333 80.5 70s36.5 64.667 46.5 105
s15.333 83.833 16 130.5h-165c-4.66699 0 -8.33398 1.5 -11.001 4.5s-4 6.16699 -4 9.5c0 9.33301 5 14 15 14h179c5.33301 0 9.16602 -1.33301 11.499 -4s3.5 -5.66699 3.5 -9z" />
    <glyph glyph-name="H" unicode="H" horiz-adv-x="684" 
d="M594 14c0 -4.66699 -1.5 -8.16699 -4.5 -10.5s-6.5 -3.5 -10.5 -3.5c-9.33301 0 -14 4.66699 -14 14v353h-445v-353c0 -5.33301 -1.66699 -9 -5 -11s-7.33301 -3 -12 -3c-8.66699 0 -13 4.66699 -13 14v685c0 5.33301 1.66699 8.83301 5 10.5s7.33301 2.5 12 2.5
c8 0 12 -4.33301 12 -13v-303h445v303c0 5.33301 1.66699 8.83301 5 10.5s7.33301 2.5 12 2.5c8.66699 0 13 -4.33301 13 -13v-685v0z" />
    <glyph glyph-name="I" unicode="I" horiz-adv-x="272" 
d="M222 14c0 -3.33301 -1.16797 -6.5 -3.50098 -9.5s-6.16602 -4.5 -11.499 -4.5h-143c-4.66699 -0 -8.16699 1.33301 -10.5 4s-3.5 5.66699 -3.5 9c0 9.33301 4.66699 14 14 14h58v657h-58c-4.66699 0 -8.16699 1.5 -10.5 4.5s-3.5 6.5 -3.5 10.5s1.16699 7.5 3.5 10.5
s5.83301 4.5 10.5 4.5h143c5.33301 0 9.16602 -1.5 11.499 -4.5s3.5 -6.5 3.5 -10.5c0 -3.33301 -1.16699 -6.5 -3.5 -9.5s-6.16602 -4.5 -11.499 -4.5h-57v-657h57c10 0 15 -4.66699 15 -14z" />
    <glyph glyph-name="J" unicode="J" horiz-adv-x="536" 
d="M445 165c0 -24.667 -4.83203 -47.834 -14.499 -69.501s-22.667 -40.667 -39 -57s-35.333 -29.166 -57 -38.499s-44.5 -14 -68.5 -14c-24.667 0 -48 4.66699 -70 14s-41.333 22.166 -58 38.499s-29.667 35.333 -39 57s-14 44.834 -14 69.501
c0 4.66699 1.5 8.33398 4.5 11.001s6.16699 4 9.5 4c4 0 7.5 -1.33301 10.5 -4s4.5 -6.33398 4.5 -11.001c0 -20.667 4 -40 12 -58s18.833 -33.833 32.5 -47.5s29.5 -24.5 47.5 -32.5s37.333 -12 58 -12c21.333 0 41.166 4 59.499 12s34.333 18.833 48 32.5
s24.5 29.5 32.5 47.5s12 37.333 12 58v534c0 4.66699 1.5 8.33398 4.5 11.001s6.16699 4 9.5 4c4 0 7.5 -1.33301 10.5 -4s4.5 -6.33398 4.5 -11.001v-534v0z" />
    <glyph glyph-name="K" unicode="K" horiz-adv-x="584" 
d="M526 13c0 -3.33301 -1.5 -6.49902 -4.5 -9.49902s-6.16699 -4.5 -9.5 -4.5c-4.66699 0 -9 3 -13 9l-198 408l-178 -222v-180c0 -4.66699 -1.5 -8.33398 -4.5 -11.001s-6.5 -4 -10.5 -4s-7.5 1.33301 -10.5 4s-4.5 6.33398 -4.5 11.001v685
c0 4.66699 1.5 8.33398 4.5 11.001s6.16699 4 9.5 4c4 0 7.5 -1.33301 10.5 -4s4.5 -6.33398 4.5 -11.001v-460l377 469c2 1.33301 3.83301 2.66602 5.5 3.99902s3.5 2 5.5 2c4 0 7.66699 -1.5 11 -4.5s5 -6.5 5 -10.5c0 -2 -1.33301 -5 -4 -9l-201 -250l203 -421
c1.33301 -1.33301 2 -3.33301 2 -6z" />
    <glyph glyph-name="L" unicode="L" horiz-adv-x="522" 
d="M482 14c0 -3.33301 -1.16797 -6.5 -3.50098 -9.5s-6.16602 -4.5 -11.499 -4.5h-362c-10 0 -15 5 -15 15v684c0 4.66699 1.5 8.33398 4.5 11.001s6.16699 4 9.5 4c4 0 7.5 -1.33301 10.5 -4s4.5 -6.33398 4.5 -11.001v-671h348c10 0 15 -4.66699 15 -14z" />
    <glyph glyph-name="M" unicode="M" horiz-adv-x="821" 
d="M727 14c0 -4.66699 -1.5 -8.33398 -4.5 -11.001s-6.5 -4 -10.5 -4c-2.66699 0 -5.5 1.33301 -8.5 4s-4.5 6.33398 -4.5 11.001v629l-275 -507c-1.33301 -3.33301 -3 -6 -5 -8s-5 -3 -9 -3s-6.83301 1 -8.5 3s-3.16699 4.66699 -4.5 8l-274 507v-629
c0 -4.66699 -1.5 -8.33398 -4.5 -11.001s-6.5 -4 -10.5 -4c-2.66699 0 -5.5 1.33301 -8.5 4s-4.5 6.33398 -4.5 11.001v683c0 10 4 15 12 15c7.33301 0 12.333 -3 15 -9l288 -533l289 533c2.66699 6 7.66699 9 15 9c4.66699 0 8 -2 10 -6s3 -7 3 -9v-683v0z" />
    <glyph glyph-name="N" unicode="N" horiz-adv-x="687" 
d="M594 16c0 -4.66699 -1.33301 -8.66699 -4 -12s-6.33398 -5 -11.001 -5s-8.66699 3 -12 9l-444 645v-639c0 -4.66699 -1.5 -8.33398 -4.5 -11.001s-6.5 -4 -10.5 -4s-7.5 1.33301 -10.5 4s-4.5 6.33398 -4.5 11.001v683c0 11.333 5.33301 17 16 17
c2.66699 0 4.83398 -1 6.50098 -3s3.5 -4 5.5 -6l443 -646v640c0 4.66699 1.5 8.33398 4.5 11.001s6.5 4 10.5 4s7.5 -1.33301 10.5 -4s4.5 -6.33398 4.5 -11.001v-683v0z" />
    <glyph glyph-name="O" unicode="O" horiz-adv-x="730" 
d="M657 356c0 -48.667 -5.16699 -95.5 -15.5 -140.5s-27 -84.833 -50 -119.5s-53 -62.334 -90 -83.001s-82.5 -31 -136.5 -31s-99.5 10.333 -136.5 31s-67 48.334 -90 83.001s-39.667 74.5 -50 119.5s-15.5 91.833 -15.5 140.5c0 49.333 5.16699 96.5 15.5 141.5
s27 84.667 50 119s53 61.833 90 82.5s82.5 31 136.5 31s99.5 -10.333 136.5 -31s67 -48.167 90 -82.5s39.667 -74 50 -119s15.5 -92.167 15.5 -141.5zM627 356c0 48 -4.66699 92.833 -14 134.5s-24.5 78.167 -45.5 109.5s-48.167 56 -81.5 74s-73.666 27 -120.999 27
c-48 0 -88.667 -9 -122 -27s-60.5 -42.667 -81.5 -74s-36.333 -67.833 -46 -109.5s-14.5 -86.5 -14.5 -134.5s4.83301 -93 14.5 -135s25 -78.667 46 -110s48.167 -56 81.5 -74s74 -27 122 -27c47.333 0 87.666 9 120.999 27s60.5 42.667 81.5 74s36.167 68 45.5 110
s14 87 14 135z" />
    <glyph glyph-name="P" unicode="P" horiz-adv-x="662" 
d="M594 511c0 -28 -5.33398 -54.334 -16.001 -79.001s-25.167 -46.167 -43.5 -64.5s-39.833 -32.833 -64.5 -43.5s-51 -16 -79 -16h-256v-294c0 -5.33301 -1.66699 -9 -5 -11s-7.66602 -3 -12.999 -3c-7.33301 0 -11 4.66699 -11 14v685c0 4.66699 1.5 8.33398 4.5 11.001
s6.16699 4 9.5 4h270c28 0 54.5 -5.33301 79.5 -16s46.667 -25.167 65 -43.5s32.833 -39.833 43.5 -64.5s16 -51 16 -79zM564.999 509.999c0 24 -4.5 46.667 -13.5 68s-21.5 39.833 -37.5 55.5s-34.5 28.167 -55.5 37.5s-43.5 14 -67.5 14h-258v-350h257
c24 0 46.667 4.5 68 13.5s40 21.5 56 37.5s28.5 34.667 37.5 56s13.5 44 13.5 68z" />
    <glyph glyph-name="Q" unicode="Q" horiz-adv-x="740" 
d="M689 16c0 -4 -1.5 -7.66797 -4.5 -11.001s-6.5 -5 -10.5 -5s-7.66699 1.66699 -11 5l-79 79c-23.333 -32 -53 -57 -89 -75s-79.333 -27 -130 -27c-54 0 -99.5 10.333 -136.5 31s-67 48.334 -90 83.001s-39.667 74.5 -50 119.5s-15.5 91.833 -15.5 140.5
c0 49.333 5.16699 96.5 15.5 141.5s27 84.667 50 119s53 61.833 90 82.5s82.5 31 136.5 31s99.5 -10.333 136.5 -31s67 -48.167 90 -82.5s39.667 -74 50 -119s15.5 -92.167 15.5 -141.5c0 -46 -4.5 -90 -13.5 -132s-23.5 -80.333 -43.5 -115l84 -84
c3.33301 -3.33301 5 -6.33301 5 -9zM628 355.999c0 48 -4.83301 92.833 -14.5 134.5s-25 78.167 -46 109.5s-48.167 56 -81.5 74s-73.666 27 -120.999 27c-48 0 -88.667 -9 -122 -27s-60.5 -42.667 -81.5 -74s-36.333 -67.833 -46 -109.5s-14.5 -86.5 -14.5 -134.5
s4.83301 -93 14.5 -135s25 -78.667 46 -110s48.167 -56 81.5 -74s74 -27 122 -27c46 0 85.167 8.5 117.5 25.5s59.166 40.167 80.499 69.5l-107 107c-2 2 -3 5.33301 -3 10c0 4 1.33301 7.66699 4 11s6 5 10 5c2 0 3.66699 -0.5 5 -1.5s3 -2.16699 5 -3.5l102 -103
c17.333 30 29.833 64.167 37.5 102.5s11.5 79.5 11.5 123.5z" />
    <glyph glyph-name="R" unicode="R" horiz-adv-x="651" 
d="M594 14c0 -3.33301 -1.49902 -6.66699 -4.49902 -10s-6.5 -5 -10.5 -5c-4.66699 0 -8.33398 2.33301 -11.001 7l-218 302h-215v-294c0 -4.66699 -1.5 -8.33398 -4.5 -11.001s-6.5 -4 -10.5 -4s-7.5 1.33301 -10.5 4s-4.5 6.33398 -4.5 11.001v685c0 10 5 15 15 15h270
c28 0 54.5 -5.33301 79.5 -16s46.667 -25.167 65 -43.5s32.833 -39.833 43.5 -64.5s16 -51 16 -79s-5.33301 -54.333 -16 -79s-25.167 -46.167 -43.5 -64.5s-39.833 -32.833 -64.5 -43.5s-51 -16 -79 -16h-6l206 -285c2 -2 3 -5 3 -9zM565.001 509.999
c0 24 -4.5 46.667 -13.5 68s-21.5 39.833 -37.5 55.5s-34.5 28.167 -55.5 37.5s-43.5 14 -67.5 14h-258v-350h257c24 0 46.667 4.5 68 13.5s40 21.5 56 37.5s28.5 34.667 37.5 56s13.5 44 13.5 68z" />
    <glyph glyph-name="S" unicode="S" 
d="M553 181c0 -33.333 -6.8291 -62.332 -20.4961 -86.999s-32 -45 -55 -61s-49.5 -28 -79.5 -36s-61.667 -12 -95 -12c-19.333 0 -39.5 1.83301 -60.5 5.5s-41.833 9 -62.5 16s-40.5 15.333 -59.5 25s-36.5 20.5 -52.5 32.5c-3.33301 3.33301 -5 6.66602 -5 9.99902
c0 4 1.5 7.66699 4.5 11s6.5 5 10.5 5c1.33301 0 2.66602 -0.166992 3.99902 -0.5s2.33301 -1.16602 3 -2.49902c0 -0.666992 5.66699 -4.83398 17 -12.501s26.833 -16 46.5 -25s42.667 -17.167 69 -24.5s54.833 -11 85.5 -11c32 0 61.5 3.66699 88.5 11s50.333 18 70 32
s35 31.333 46 52s16.5 44.667 16.5 72c0 28.667 -6.16699 52.834 -18.5 72.501s-28.833 36.5 -49.5 50.5s-44 25.833 -70 35.5l-80 28.5c-27.333 9.33301 -54 19 -80 29s-49.333 22.167 -70 36.5s-37.167 31.833 -49.5 52.5s-18.5 45.667 -18.5 75c0 28 6 52.5 18 73.5
s28.333 38.333 49 52s44.667 23.834 72 30.501s56.333 10 87 10c14 0 29.667 -1.33301 47 -4s34.666 -6.83398 51.999 -12.501s33.666 -12.834 48.999 -21.501s27.666 -19 36.999 -31c2.66699 -3.33301 4 -6.33301 4 -9c0 -4 -1.5 -7.33301 -4.5 -10s-6.5 -4 -10.5 -4
s-7.33301 1.66699 -10 5c-10 11.333 -21.833 20.833 -35.5 28.5s-27.834 13.834 -42.501 18.501s-29.334 7.83398 -44.001 9.50098s-28.667 2.5 -42 2.5c-30 0 -57.167 -3 -81.5 -9s-45.166 -15 -62.499 -27s-30.666 -26.5 -39.999 -43.5s-14 -36.5 -14 -58.5
c0 -19.333 3.66699 -36.333 11 -51s17.5 -27.834 30.5 -39.501s28 -21.834 45 -30.501s35.5 -17 55.5 -25c31.333 -12 64.333 -23.5 99 -34.5s66.5 -24.667 95.5 -41s53 -36.833 72 -61.5s28.5 -57 28.5 -97z" />
    <glyph glyph-name="T" unicode="T" horiz-adv-x="559" 
d="M531 699c0 -3.33301 -1.16602 -6.5 -3.49902 -9.5s-6.16602 -4.5 -11.499 -4.5l-222 -1v-670c0 -10 -5 -15 -15 -15c-8.66699 0 -13 5 -13 15v670h-223c-4.66699 0 -8.33398 1.66699 -11.001 5s-4 7 -4 11c0 9.33301 5 14 15 14h473c5.33301 0 9.16602 -1.5 11.499 -4.5
s3.5 -6.5 3.5 -10.5z" />
    <glyph glyph-name="U" unicode="U" horiz-adv-x="673" 
d="M587 233c0 -34 -6.49902 -66.332 -19.499 -96.999s-30.667 -57.334 -53 -80.001s-48.833 -40.667 -79.5 -54s-63.667 -20 -99 -20c-34 0 -66.333 6.5 -97 19.5s-57.334 30.667 -80.001 53s-40.667 48.833 -54 79.5s-20 63.667 -20 99v466
c0 4.66699 1.5 8.33398 4.5 11.001s6.16699 4 9.5 4c4 0 7.5 -1.33301 10.5 -4s4.5 -6.33398 4.5 -11.001v-466c0 -30.667 5.83301 -59.667 17.5 -87s27.5 -51 47.5 -71s43.5 -35.833 70.5 -47.5s55.833 -17.5 86.5 -17.5s59.5 5.83301 86.5 17.5s50.667 27.5 71 47.5
s36.333 43.667 48 71s17.5 56.333 17.5 87v466c0 4.66699 1.5 8.33398 4.5 11.001s5.83301 4 8.5 4c4 0 7.5 -1.33301 10.5 -4s4.5 -6.33398 4.5 -11.001v-466v0z" />
    <glyph glyph-name="V" unicode="V" horiz-adv-x="593" 
d="M544 699c0 -1.33301 -0.333008 -3 -1 -5l-232 -681c-2 -8.66699 -7 -13 -15 -13c-7.33301 -0 -12 4.33301 -14 13l-232 680c-0.666992 1.33301 -1 3.33301 -1 6c0 4.66699 1.5 8.33398 4.5 11.001s6.5 4 10.5 4c6.66699 0 11.334 -4 14.001 -12l218 -644l219 645
c3.33301 7.33301 7.66602 11 12.999 11c4 0 7.66699 -1.33301 11 -4s5 -6.33398 5 -11.001z" />
    <glyph glyph-name="W" unicode="W" horiz-adv-x="855" 
d="M799 700c0 -1.33301 -0.334961 -3 -1.00195 -5l-179 -682c-2 -9.33301 -7 -14 -15 -14c-6.66699 0.666992 -11 5.33398 -13 14.001l-164 629l-163 -629c-2 -8.66699 -6.33301 -13.334 -13 -14.001c-8 0 -13 4.66699 -15 14l-179 682c-0.666992 2 -1 3.66699 -1 5
c0 4 1.5 7.33301 4.5 10s6.16699 4 9.5 4c2.66699 0 5.33398 -1 8.00098 -3s4.66699 -5 6 -9l167 -631l162 629c2 9.33301 6.66699 14 14 14c8 -2 13 -6.66699 15 -14l162 -629l167 631c1.33301 4 3.33301 7 6 9s5.33398 3 8.00098 3c3.33301 0 6.5 -1.33301 9.5 -4
s4.5 -6 4.5 -10z" />
    <glyph glyph-name="X" unicode="X" horiz-adv-x="594" 
d="M557 14c0 -4 -1.33105 -7.49902 -3.99805 -10.499s-5.66699 -4.5 -9 -4.5c-4.66699 0 -9 2.33301 -13 7l-233 342l-235 -342c-4 -4.66699 -8.33301 -7 -13 -7c-3.33301 0 -6.5 1.5 -9.5 4.5s-4.5 6.5 -4.5 10.5c0 1.33301 0.333008 2.66602 1 3.99902l2 4l240 351
l-217 318c-2.66699 2.66699 -4 5.66699 -4 9c0 4 1.66699 7.33301 5 10s6.66602 4 9.99902 4c4 0 7.66699 -2.33301 11 -7l212 -309l214 309c3.33301 4.66699 7 7 11 7c3.33301 0 6.66602 -1.33301 9.99902 -4s5 -6 5 -10c0 -3.33301 -1.33301 -6.33301 -4 -9l-217 -318
l240 -351c1.33301 -2 2 -4.66699 2 -8z" />
    <glyph glyph-name="Y" unicode="Y" horiz-adv-x="577" 
d="M531 700c0 -2.66699 -0.666992 -5.33398 -2 -8.00098l-226 -389v-289c0 -4.66699 -1.5 -8.33398 -4.5 -11.001s-6.5 -4 -10.5 -4c-2.66699 0 -5.5 1.33301 -8.5 4s-4.5 6.33398 -4.5 11.001v289l-227 389c-1.33301 2.66699 -2 5.33398 -2 8.00098c0 4 1.5 7.33301 4.5 10
s6.16699 4 9.5 4c4 0 8 -2.66699 12 -8l216 -371l217 371c3.33301 5.33301 7 8 11 8s7.5 -1.33301 10.5 -4s4.5 -6 4.5 -10z" />
    <glyph glyph-name="Z" unicode="Z" horiz-adv-x="583" 
d="M531 15c0 -4 -1.16699 -7.50098 -3.5 -10.501s-6.16602 -4.5 -11.499 -4.5h-450c-10.667 0 -16 4.66699 -16 14c0 4.66699 1.33301 8.33398 4 11.001l424 659h-399c-4.66699 0 -8.33398 1.5 -11.001 4.5s-4 6.5 -4 10.5s1.33301 7.5 4 10.5s6.33398 4.5 11.001 4.5h423
c4 0 7.83301 -1.16699 11.5 -3.5s5.5 -5.83301 5.5 -10.5c0 -4 -1.66699 -7.66699 -5 -11l-424 -659h426c5.33301 0 9.16602 -1.5 11.499 -4.5s3.5 -6.5 3.5 -10.5z" />
    <glyph glyph-name="bracketleft" unicode="[" horiz-adv-x="316" 
d="M260 -177c0 -4 -1.33301 -7.5 -4 -10.5s-6.33398 -4.5 -11.001 -4.5h-139c-4 0 -7.5 1.5 -10.5 4.5s-4.5 6.16699 -4.5 9.5v890c0 4 1.5 7.5 4.5 10.5s6.5 4.5 10.5 4.5h139c4.66699 0 8.33398 -1.5 11.001 -4.5s4 -6.5 4 -10.5c0 -2.66699 -1.33301 -5.5 -4 -8.5
s-6.33398 -4.5 -11.001 -4.5h-125v-862h125c4.66699 0 8.33398 -1.5 11.001 -4.5s4 -6.16699 4 -9.5z" />
    <glyph glyph-name="backslash" unicode="\" horiz-adv-x="540" 
d="M492 -15c0 -4 -1.50098 -7.5 -4.50098 -10.5s-6.16699 -4.5 -9.5 -4.5c-4.66699 0 -9 2.66699 -13 8l-415 741c-1.33301 4 -2 6.33301 -2 7c0 4 1.66699 7.5 5 10.5s7 4.5 11 4.5c4.66699 0 8.33398 -2.66699 11.001 -8l415 -741c1.33301 -2.66699 2 -5 2 -7z" />
    <glyph glyph-name="bracketright" unicode="]" horiz-adv-x="316" 
d="M225 -177c0 -2.66699 -1.33203 -5.83301 -3.99902 -9.5s-6 -5.5 -10 -5.5h-139c-4.66699 0 -8.33398 1.5 -11.001 4.5s-4 6.5 -4 10.5c0 3.33301 1.16699 6.5 3.5 9.5s5.83301 4.5 10.5 4.5h125v862h-124c-4.66699 0 -8.33398 1.5 -11.001 4.5s-4 5.83301 -4 8.5
c0 4 1.16699 7.5 3.5 10.5s5.83301 4.5 10.5 4.5h139c2.66699 0 5.83398 -1.16699 9.50098 -3.5s5.5 -5.5 5.5 -9.5v-891v0z" />
    <glyph glyph-name="asciicircum" unicode="^" horiz-adv-x="627" 
d="M508 562c0 -3.33301 -1.50098 -6.66699 -4.50098 -10s-6.16699 -5 -9.5 -5c-4 0 -7.66699 1.66699 -11 5l-197 208l-197 -208c-3.33301 -3.33301 -6.66602 -5 -9.99902 -5c-4 0 -7.33301 1.5 -10 4.5s-4 6.5 -4 10.5s1 7 3 9l208 220c2 3.33301 5.33301 5 10 5
c4 0 7.33301 -1.66699 10 -5l208 -220c2.66699 -4 4 -7 4 -9z" />
    <glyph glyph-name="underscore" unicode="_" horiz-adv-x="416" 
d="M393 -31c0 -4 -1.16699 -7.5 -3.5 -10.5s-6.16602 -4.5 -11.499 -4.5h-342c-4.66699 0 -8 1.5 -10 4.5s-3 6.5 -3 10.5c0 3.33301 1 6.5 3 9.5s5.33301 4.5 10 4.5h342c5.33301 0 9.16602 -1.5 11.499 -4.5s3.5 -6.16699 3.5 -9.5z" />
    <glyph glyph-name="grave" unicode="`" 
d="M396 636c0 -4 -1.5 -7.50098 -4.5 -10.501s-6.5 -4.5 -10.5 -4.5c-2 0 -3.83301 0.5 -5.5 1.5s-3.5 2.16699 -5.5 3.5l-148 137c-5.33301 4 -8 10 -8 18c0 5.33301 2.33301 10.333 7 15s10 7 16 7c7.33301 0 13 -2.66699 17 -8l137 -149
c3.33301 -3.33301 5 -6.66602 5 -9.99902z" />
    <glyph glyph-name="a" unicode="a" horiz-adv-x="675" 
d="M628 14c0 -3.33301 -1.33203 -6.50098 -3.99902 -9.50098s-6.33398 -4.5 -11.001 -4.5c-20 0 -36.833 6.83301 -50.5 20.5s-20.5 30.5 -20.5 50.5v56c-20 -43.333 -48.333 -78.166 -85 -104.499s-82.667 -39.5 -138 -39.5c-40 0 -75.667 7.66699 -107 23
s-57.666 36 -78.999 62s-37.5 56 -48.5 90s-16.5 70 -16.5 108c0 37.333 5.5 73 16.5 107s27.167 64 48.5 90s47.666 46.667 78.999 62s67 23 107 23c54 0 99.833 -13 137.5 -39s66.167 -60.667 85.5 -104v113c0 4.66699 1.33301 8.16699 4 10.5s5.66699 3.5 9 3.5
c4 0 7.5 -1.16699 10.5 -3.5s4.5 -5.83301 4.5 -10.5v-446c0 -12 4.33301 -22.333 13 -31s18.667 -13 30 -13c10 0 15 -4.66699 15 -14zM542.001 265.999c0 35.333 -5 68.333 -15 99s-24.5 57.5 -43.5 80.5s-42.333 41.167 -70 54.5s-59.167 20 -94.5 20
s-66.666 -6.66699 -93.999 -20s-50.5 -31.5 -69.5 -54.5s-33.5 -49.833 -43.5 -80.5s-15 -63.667 -15 -99s5 -68.5 15 -99.5s24.5 -58 43.5 -81s42.167 -41.167 69.5 -54.5s58.666 -20 93.999 -20s66.833 6.66699 94.5 20s51 31.5 70 54.5s33.5 50 43.5 81
s15 64.167 15 99.5z" />
    <glyph glyph-name="b" unicode="b" horiz-adv-x="661" 
d="M593 266c0 -38 -5.5 -73.999 -16.5 -107.999s-27.167 -64 -48.5 -90s-47.666 -46.667 -78.999 -62s-67 -23 -107 -23c-54.667 0 -100.334 13.167 -137.001 39.5s-65 61.166 -85 104.499v-113c0 -4.66699 -1.5 -8.33398 -4.5 -11.001s-6.5 -4 -10.5 -4
c-3.33301 0 -6.5 1.33301 -9.5 4s-4.5 6.33398 -4.5 11.001v685c0 4.66699 1.5 8.33398 4.5 11.001s6.16699 4 9.5 4c4 0 7.5 -1.33301 10.5 -4s4.5 -6.33398 4.5 -11.001v-294c20 42.667 48.333 77.167 85 103.5s82.334 39.5 137.001 39.5c40 0 75.667 -7.66699 107 -23
s57.666 -36 78.999 -62s37.5 -56 48.5 -90s16.5 -69.667 16.5 -107zM564 266.001c0 35.333 -5 68.333 -15 99s-24.5 57.5 -43.5 80.5s-42.167 41.167 -69.5 54.5s-58.666 20 -93.999 20s-66.666 -6.66699 -93.999 -20s-50.5 -31.5 -69.5 -54.5s-33.5 -49.833 -43.5 -80.5
s-15 -63.667 -15 -99s5 -68.5 15 -99.5s24.5 -58 43.5 -81s42.167 -41.167 69.5 -54.5s58.666 -20 93.999 -20s66.666 6.66699 93.999 20s50.5 31.5 69.5 54.5s33.5 50 43.5 81s15 64.167 15 99.5z" />
    <glyph glyph-name="c" unicode="c" horiz-adv-x="575" 
d="M502 68c0 -1.33301 -0.331055 -2.66602 -0.998047 -3.99902s-1.66699 -3 -3 -5c-22 -24.667 -48 -43.5 -78 -56.5s-63.667 -19.5 -101 -19.5c-40 0 -75.667 7.66699 -107 23s-57.666 36 -78.999 62s-37.5 56 -48.5 90s-16.5 70 -16.5 108c0 37.333 5.5 73 16.5 107
s27.167 64 48.5 90s47.666 46.667 78.999 62s67 23 107 23c37.333 0 71 -6.5 101 -19.5s56 -31.833 78 -56.5c2.66699 -2.66699 4 -5.33398 4 -8.00098c0 -4 -1.5 -7.66699 -4.5 -11s-6.5 -5 -10.5 -5s-7.33301 1.66699 -10 5c-19.333 21.333 -42 37.833 -68 49.5
s-56 17.5 -90 17.5c-35.333 0 -66.666 -6.66699 -93.999 -20s-50.5 -31.5 -69.5 -54.5s-33.5 -49.833 -43.5 -80.5s-15 -63.667 -15 -99s5 -68.5 15 -99.5s24.5 -58 43.5 -81s42.167 -41.167 69.5 -54.5s58.666 -20 93.999 -20c34 0 64 6 90 18s48.667 28.667 68 50
c3.33301 3.33301 6.66602 5 9.99902 5s6.66602 -1.66699 9.99902 -5s5 -7 5 -11z" />
    <glyph glyph-name="d" unicode="d" horiz-adv-x="661" 
d="M570 14c0 -4.66699 -1.5 -8.33496 -4.5 -11.002s-6.5 -4 -10.5 -4c-3.33301 0 -6.33301 1.33301 -9 4s-4 6.33398 -4 11.001v113c-20 -43.333 -48.333 -78.166 -85 -104.499s-82.667 -39.5 -138 -39.5c-40 0 -75.667 7.66699 -107 23s-57.666 36 -78.999 62
s-37.5 56 -48.5 90s-16.5 70 -16.5 108c0 37.333 5.5 73 16.5 107s27.167 64 48.5 90s47.666 46.667 78.999 62s67 23 107 23c55.333 0 101.333 -13.167 138 -39.5s65 -60.833 85 -103.5v294c0 4.66699 1.33301 8.33398 4 11.001s5.66699 4 9 4c4 0 7.5 -1.33301 10.5 -4
s4.5 -6.33398 4.5 -11.001v-685v0zM542 265.999c0 35.333 -5 68.333 -15 99s-24.5 57.5 -43.5 80.5s-42.333 41.167 -70 54.5s-59.167 20 -94.5 20s-66.666 -6.66699 -93.999 -20s-50.5 -31.5 -69.5 -54.5s-33.5 -49.833 -43.5 -80.5s-15 -63.667 -15 -99s5 -68.5 15 -99.5
s24.5 -58 43.5 -81s42.167 -41.167 69.5 -54.5s58.666 -20 93.999 -20s66.833 6.66699 94.5 20s51 31.5 70 54.5s33.5 50 43.5 81s15 64.167 15 99.5z" />
    <glyph glyph-name="e" unicode="e" horiz-adv-x="638" 
d="M570 270c0 -4.66699 -0.664062 -8.83301 -1.99707 -12.5s-5.33301 -5.5 -12 -5.5h-459c1.33301 -33.333 7.33301 -64.666 18 -93.999s25.5 -54.833 44.5 -76.5s41.833 -38.834 68.5 -51.501s57 -19 91 -19c16 0 32.333 1.83301 49 5.5s32.5 9 47.5 16s29 15.667 42 26
s23.833 22.5 32.5 36.5c4 4 8 6 12 6c9.33301 0 14 -4.33301 14 -13c0 -3.33301 -0.666992 -6 -2 -8c-10 -16 -22.333 -30 -37 -42s-30.834 -22.167 -48.501 -30.5s-35.834 -14.5 -54.501 -18.5s-37 -6 -55 -6c-40 0 -75.667 7.66699 -107 23s-57.666 36 -78.999 62
s-37.5 56 -48.5 90s-16.5 70 -16.5 108c0 37.333 5.5 73 16.5 107s27.167 64 48.5 90s47.666 46.667 78.999 62s67 23 107 23s75.5 -7.66699 106.5 -23s57.167 -35.666 78.5 -60.999s37.666 -54.833 48.999 -88.5s17 -68.834 17 -105.501zM542.003 280.001
c-2 33.333 -8.33301 64.5 -19 93.5s-25.5 54.333 -44.5 76s-41.833 38.834 -68.5 51.501s-57 19 -91 19s-64.333 -6.33301 -91 -19s-49.5 -29.834 -68.5 -51.501s-33.833 -47 -44.5 -76s-16.667 -60.167 -18 -93.5h445z" />
    <glyph glyph-name="f" unicode="f" horiz-adv-x="348" 
d="M303 698c0 -3.33301 -1.16895 -6.5 -3.50195 -9.5s-6.16602 -4.5 -11.499 -4.5h-37c-19.333 0 -35.166 -7.16699 -47.499 -21.5s-18.5 -30.833 -18.5 -49.5v-82h103c5.33301 0 9 -1.5 11 -4.5s3 -6.5 3 -10.5c0 -2.66699 -1 -5.5 -3 -8.5s-5.66699 -4.5 -11 -4.5h-103
v-489c0 -4.66699 -1.5 -8.16699 -4.5 -10.5s-6.5 -3.5 -10.5 -3.5c-3.33301 0 -6.5 1.16699 -9.5 3.5s-4.5 5.83301 -4.5 10.5v489h-96c-4.66699 0 -8 1.5 -10 4.5s-3 5.83301 -3 8.5c0 4 1 7.5 3 10.5s5.33301 4.5 10 4.5h96v82c0 14 2.66699 27 8 39s12.5 22.5 21.5 31.5
s19.5 16 31.5 21s24.667 7.5 38 7.5h33c10 0 15 -4.66699 15 -14z" />
    <glyph glyph-name="g" unicode="g" horiz-adv-x="661" 
d="M570 15c0 -80 -22.168 -140.5 -66.501 -181.5s-105.833 -61.5 -184.5 -61.5c-13.333 0 -28.833 0.833008 -46.5 2.5s-35.5 4.5 -53.5 8.5s-35.333 9 -52 15s-30.667 13.667 -42 23c-3.33301 3.33301 -5 6.66602 -5 9.99902c0 4 1.5 7.66699 4.5 11s6.5 5 10.5 5
c2.66699 0 5.33398 -1 8.00098 -3c10.667 -8 23.5 -14.667 38.5 -20s30.667 -9.66602 47 -12.999s32.333 -5.83301 48 -7.5s29.834 -2.5 42.501 -2.5c71.333 0 126.333 17.833 165 53.5s58 89.167 58 160.5v116c-20 -40.667 -48.667 -72.667 -86 -96s-83 -35 -137 -35
c-39.333 0 -74.5 6.66699 -105.5 20s-57.333 31.833 -79 55.5s-38.167 51.667 -49.5 84s-17 67.833 -17 106.5c0 37.333 5.5 73 16.5 107s27.167 64 48.5 90s47.666 46.667 78.999 62s67 23 107 23c55.333 0 101.333 -13.167 138 -39.5s65 -60.833 85 -103.5v111
c0 5.33301 1.33301 9.16602 4 11.499s5.66699 3.5 9 3.5c4 0 7.5 -1.16699 10.5 -3.5s4.5 -6.16602 4.5 -11.499v-501v0zM541.999 266c0 35.333 -5 68.333 -15 99s-24.5 57.5 -43.5 80.5s-42.333 41.167 -70 54.5s-59.167 20 -94.5 20s-66.666 -6.66699 -93.999 -20
s-50.5 -31.5 -69.5 -54.5s-33.5 -49.833 -43.5 -80.5s-15 -63.667 -15 -99s5 -67.666 15 -96.999s24.5 -54.5 43.5 -75.5s42.167 -37.167 69.5 -48.5s58.666 -17 93.999 -17s66.833 5.66699 94.5 17s51 27.5 70 48.5s33.5 46.167 43.5 75.5s15 61.666 15 96.999z" />
    <glyph glyph-name="h" unicode="h" horiz-adv-x="629" 
d="M547 14c0 -4.66699 -1.5 -8.33398 -4.5 -11.001s-6.5 -4 -10.5 -4c-2.66699 0 -5.5 1.33301 -8.5 4s-4.5 6.33398 -4.5 11.001v306c0 28 -5.16699 54.167 -15.5 78.5s-24.5 45.5 -42.5 63.5s-39.167 32.167 -63.5 42.5s-50.5 15.5 -78.5 15.5
c-27.333 0 -53.166 -5.16699 -77.499 -15.5s-45.5 -24.5 -63.5 -42.5s-32.167 -39.167 -42.5 -63.5s-15.5 -50.5 -15.5 -78.5v-306c0 -4.66699 -1.5 -8.33398 -4.5 -11.001s-6.5 -4 -10.5 -4c-3.33301 0 -6.5 1.33301 -9.5 4s-4.5 6.33398 -4.5 11.001v685
c0 4.66699 1.5 8.33398 4.5 11.001s6.16699 4 9.5 4c4 0 7.5 -1.33301 10.5 -4s4.5 -6.33398 4.5 -11.001v-268c20 34.667 47.333 62.834 82 84.501s73.667 32.5 117 32.5c31.333 0 60.666 -6 87.999 -18s51.5 -28.333 72.5 -49s37.5 -44.834 49.5 -72.501
s18 -57.167 18 -88.5v-306v0z" />
    <glyph glyph-name="i" unicode="i" horiz-adv-x="239" 
d="M148 684c0 -18.667 -9.33301 -28 -28 -28c-8.66699 0 -15.667 2.5 -21 7.5s-8 11.833 -8 20.5s2.66699 15.5 8 20.5s12.333 7.5 21 7.5c18.667 0 28 -9.33301 28 -28zM135 14c0 -9.33301 -5.33301 -14 -16 -14c-8.66699 0 -13 4.66699 -13 14v504
c0 8.66699 5.66699 13 17 13c8 0 12 -4.33301 12 -13v-504v0z" />
    <glyph glyph-name="j" unicode="j" horiz-adv-x="242" 
d="M150 684c0 -18.667 -9.33301 -28 -28 -28c-8.66699 0 -15.667 2.5 -21 7.5s-8 11.833 -8 20.5s2.66699 15.5 8 20.5s12.333 7.5 21 7.5c18.667 0 28 -9.33301 28 -28zM136 -42c0 -23.333 -3.33008 -44.1689 -9.99707 -62.502s-15.167 -34.5 -25.5 -48.5
s-22.333 -25.833 -36 -35.5s-27.5 -17.5 -41.5 -23.5c-0.666992 -0.666992 -2.33398 -1 -5.00098 -1c-4.66699 0 -8.33398 1.66699 -11.001 5s-4 7 -4 11c0 4.66699 3.33301 8.33398 10 11.001c11.333 5.33301 22.666 12 33.999 20s21.5 17.833 30.5 29.5
s16.167 25.334 21.5 41.001s8 33.5 8 53.5v560c0 4.66699 1.5 8 4.5 10s6.5 3 10.5 3c9.33301 0 14 -4.33301 14 -13v-560v0z" />
    <glyph glyph-name="k" unicode="k" horiz-adv-x="511" 
d="M477 14c0 -4 -1.49902 -7.33301 -4.49902 -10s-6.5 -4 -10.5 -4s-8 2.33301 -12 7l-187 293l-143 -144v-142c0 -9.33301 -5.33301 -14 -16 -14c-8.66699 0 -13 4.66699 -13 14v685c0 8.66699 5.66699 13 17 13c8 0 12 -4.33301 12 -13v-503l329 331
c3.33301 2.66699 6.66602 4 9.99902 4c4 0 7.33301 -1.5 10 -4.5s4 -6.5 4 -10.5s-1 -7.33301 -3 -10l-186 -186l190 -298c2 -2 3 -4.66699 3 -8z" />
    <glyph glyph-name="l" unicode="l" horiz-adv-x="228" 
d="M205 14c0 -3.33301 -1.33203 -6.5 -3.99902 -9.5s-6.33398 -4.5 -11.001 -4.5c-13.333 0 -26 2.66699 -38 8s-22.5 12.5 -31.5 21.5s-16.167 19.5 -21.5 31.5s-8 25 -8 39v599c0 4.66699 1.5 8.33398 4.5 11.001s6.16699 4 9.5 4c4 0 7.5 -1.33301 10.5 -4
s4.5 -6.33398 4.5 -11.001v-599c0 -20 6.66699 -37 20 -51s30 -21 50 -21c10 0 15 -4.66699 15 -14z" />
    <glyph glyph-name="m" unicode="m" horiz-adv-x="853" 
d="M772 14c0 -4.66699 -1.49512 -8.33691 -4.49512 -11.0039s-6.5 -4 -10.5 -4c-3.33301 0 -6.5 1.33301 -9.5 4s-4.5 6.33398 -4.5 11.001v356c0 21.333 -3.83301 41 -11.5 59s-18.334 33.833 -32.001 47.5s-29.5 24.334 -47.5 32.001s-37.333 11.5 -58 11.5
s-40 -3.83301 -58 -11.5s-33.667 -18.167 -47 -31.5s-23.833 -29 -31.5 -47s-11.5 -37.333 -11.5 -58v-358c0 -4.66699 -1.5 -8.33398 -4.5 -11.001s-6.5 -4 -10.5 -4c-3.33301 0 -6.5 1.33301 -9.5 4s-4.5 6.33398 -4.5 11.001v356c0 21.333 -3.83301 41 -11.5 59
s-18.334 33.833 -32.001 47.5s-29.5 24.334 -47.5 32.001s-37.333 11.5 -58 11.5s-40 -3.83301 -58 -11.5s-33.667 -18.167 -47 -31.5s-23.833 -29 -31.5 -47s-11.5 -37.333 -11.5 -58v-358c0 -4.66699 -1.5 -8.33398 -4.5 -11.001s-6.5 -4 -10.5 -4s-7.5 1.33301 -10.5 4
s-4.5 6.33398 -4.5 11.001v504c0 5.33301 1.5 9 4.5 11s6.16699 3 9.5 3c4 0 7.5 -1 10.5 -3s4.5 -5.66699 4.5 -11v-51c15.333 24.667 36 44.334 62 59.001s55 22 87 22c36.667 0 69.667 -9.83301 99 -29.5s50.666 -45.5 63.999 -77.5c13.333 32 34.666 57.833 63.999 77.5
s62.333 29.5 99 29.5c24 0 46.833 -4.66699 68.5 -14s40.667 -22 57 -38s29.166 -34.667 38.499 -56s14 -44 14 -68v-358v0z" />
    <glyph glyph-name="n" unicode="n" horiz-adv-x="629" 
d="M547 14c0 -4.66699 -1.5 -8.33301 -4.5 -11s-6.5 -4 -10.5 -4c-2.66699 0 -5.5 1.33301 -8.5 4s-4.5 6.33398 -4.5 11.001v306c0 28 -5.16699 54.167 -15.5 78.5s-24.5 45.5 -42.5 63.5s-39.167 32.167 -63.5 42.5s-50.5 15.5 -78.5 15.5
c-27.333 0 -53.166 -5.16699 -77.499 -15.5s-45.5 -24.5 -63.5 -42.5s-32.167 -39.167 -42.5 -63.5s-15.5 -50.5 -15.5 -78.5v-306c0 -4.66699 -1.5 -8.33398 -4.5 -11.001s-6.5 -4 -10.5 -4c-3.33301 0 -6.5 1.33301 -9.5 4s-4.5 6.33398 -4.5 11.001v504
c0 4.66699 1.5 8.16699 4.5 10.5s6.16699 3.5 9.5 3.5c4 0 7.5 -1.16699 10.5 -3.5s4.5 -5.83301 4.5 -10.5v-87c21.333 36 49 64.5 83 85.5s72.667 31.5 116 31.5c31.333 0 60.666 -6 87.999 -18s51.5 -28.333 72.5 -49s37.5 -44.834 49.5 -72.501s18 -57.167 18 -88.5
v-306v0z" />
    <glyph glyph-name="o" unicode="o" horiz-adv-x="638" 
d="M570 266c0 -38 -5.5 -74 -16.5 -108s-27.167 -64 -48.5 -90s-47.666 -46.667 -78.999 -62s-67 -23 -107 -23s-75.667 7.66699 -107 23s-57.666 36 -78.999 62s-37.5 56 -48.5 90s-16.5 70 -16.5 108c0 37.333 5.5 73 16.5 107s27.167 64 48.5 90s47.666 46.667 78.999 62
s67 23 107 23s75.667 -7.66699 107 -23s57.666 -36 78.999 -62s37.5 -56 48.5 -90s16.5 -69.667 16.5 -107zM542 266c0 35.333 -5 68.333 -15 99s-24.5 57.5 -43.5 80.5s-42.333 41.167 -70 54.5s-59.167 20 -94.5 20s-66.666 -6.66699 -93.999 -20s-50.5 -31.5 -69.5 -54.5
s-33.5 -49.833 -43.5 -80.5s-15 -63.667 -15 -99s5 -68.5 15 -99.5s24.5 -58 43.5 -81s42.167 -41.167 69.5 -54.5s58.666 -20 93.999 -20s66.833 6.66699 94.5 20s51 31.5 70 54.5s33.5 50 43.5 81s15 64.167 15 99.5z" />
    <glyph glyph-name="p" unicode="p" horiz-adv-x="661" 
d="M593 266c0 -38 -5.5 -73.999 -16.5 -107.999s-27.167 -64 -48.5 -90s-47.666 -46.667 -78.999 -62s-67 -23 -107 -23c-54.667 0 -100.334 13.167 -137.001 39.5s-65 61.166 -85 104.499v-322c0 -4.66699 -1.5 -8.33398 -4.5 -11.001s-6.5 -4 -10.5 -4
c-3.33301 0 -6.5 1.33301 -9.5 4s-4.5 6.33398 -4.5 11.001v713c0 4.66699 1.5 8.16699 4.5 10.5s6.16699 3.5 9.5 3.5c4 0 7.5 -1.16699 10.5 -3.5s4.5 -5.83301 4.5 -10.5v-113c20 42.667 48.333 77.167 85 103.5s82.334 39.5 137.001 39.5c40 0 75.667 -7.66699 107 -23
s57.666 -36 78.999 -62s37.5 -56 48.5 -90s16.5 -69.667 16.5 -107zM564 266.001c0 35.333 -5 68.333 -15 99s-24.5 57.5 -43.5 80.5s-42.167 41.167 -69.5 54.5s-58.666 20 -93.999 20s-66.666 -6.66699 -93.999 -20s-50.5 -31.5 -69.5 -54.5s-33.5 -49.833 -43.5 -80.5
s-15 -63.667 -15 -99s5 -68.5 15 -99.5s24.5 -58 43.5 -81s42.167 -41.167 69.5 -54.5s58.666 -20 93.999 -20s66.666 6.66699 93.999 20s50.5 31.5 69.5 54.5s33.5 50 43.5 81s15 64.167 15 99.5z" />
    <glyph glyph-name="q" unicode="q" horiz-adv-x="661" 
d="M570 -195c0 -4.66699 -1.5 -8.33496 -4.5 -11.002s-6.5 -4 -10.5 -4c-3.33301 0 -6.33301 1.33301 -9 4s-4 6.33398 -4 11.001v322c-20 -43.333 -48.333 -78.166 -85 -104.499s-82.667 -39.5 -138 -39.5c-40 0 -75.667 7.66699 -107 23s-57.666 36 -78.999 62
s-37.5 56 -48.5 90s-16.5 70 -16.5 108c0 37.333 5.5 73 16.5 107s27.167 64 48.5 90s47.666 46.667 78.999 62s67 23 107 23c55.333 0 101.333 -13.167 138 -39.5s65 -60.833 85 -103.5v113c0 4.66699 1.33301 8.16699 4 10.5s5.66699 3.5 9 3.5
c4 0 7.5 -1.16699 10.5 -3.5s4.5 -5.83301 4.5 -10.5v-713v0zM542 265.999c0 35.333 -5 68.333 -15 99s-24.5 57.5 -43.5 80.5s-42.333 41.167 -70 54.5s-59.167 20 -94.5 20s-66.666 -6.66699 -93.999 -20s-50.5 -31.5 -69.5 -54.5s-33.5 -49.833 -43.5 -80.5
s-15 -63.667 -15 -99s5 -68.5 15 -99.5s24.5 -58 43.5 -81s42.167 -41.167 69.5 -54.5s58.666 -20 93.999 -20s66.833 6.66699 94.5 20s51 31.5 70 54.5s33.5 50 43.5 81s15 64.167 15 99.5z" />
    <glyph glyph-name="r" unicode="r" horiz-adv-x="356" 
d="M333 524c0 -2.66699 -1.16895 -5.50098 -3.50195 -8.50098s-5.83301 -4.5 -10.5 -4.5c-27.333 0 -53.166 -5.16699 -77.499 -15.5s-45.5 -24.5 -63.5 -42.5s-32.167 -39.167 -42.5 -63.5s-15.5 -50.166 -15.5 -77.499v-298c0 -4.66699 -1.5 -8.33398 -4.5 -11.001
s-6.5 -4 -10.5 -4c-3.33301 0 -6.5 1.33301 -9.5 4s-4.5 6.33398 -4.5 11.001v504c0 1.33301 1 4 3 8s5.33301 6 10 6c10.667 0 16 -4.66699 16 -14v-96c20 36 47 64.5 81 85.5s73 31.5 117 31.5c4.66699 0 8.33398 -1.5 11.001 -4.5s4 -6.5 4 -10.5z" />
    <glyph glyph-name="s" unicode="s" horiz-adv-x="516" 
d="M459 135c0 -28.667 -5.8291 -52.8311 -17.4961 -72.498s-27 -35.667 -46 -48s-40.833 -21 -65.5 -26s-49.667 -7.5 -75 -7.5c-34 0 -62.833 3.66699 -86.5 11s-43.334 15.666 -59.001 24.999s-27.5 18.166 -35.5 26.499s-13 13.833 -15 16.5c-1.33301 4 -2 6.66699 -2 8
c0 4 1.33301 7.5 4 10.5s6 4.5 10 4.5c4.66699 0 7.5 -1 8.5 -3s4.83301 -6.66699 11.5 -14c21.333 -22 46.666 -37 75.999 -45s58.666 -12 87.999 -12c25.333 0 48.666 2.33301 69.999 7s39.833 12.167 55.5 22.5s28 23.5 37 39.5s13.5 35 13.5 57
c0 29.333 -8.66699 51.833 -26 67.5s-38.833 28 -64.5 37s-53.667 16.5 -84 22.5s-58.333 14.167 -84 24.5s-47.167 24.666 -64.5 42.999s-26 44.166 -26 77.499c0 24.667 5.33301 45.834 16 63.501s24.667 32 42 43s37 19.167 59 24.5s44.667 8 68 8
c11.333 0 24.166 -1 38.499 -3s28.833 -5 43.5 -9s28.667 -9.16699 42 -15.5s24.333 -13.833 33 -22.5c4 -3.33301 6 -6.66602 6 -9.99902s-1.5 -6.5 -4.5 -9.5s-6.5 -4.5 -10.5 -4.5c-3.33301 0 -5.66602 0.5 -6.99902 1.5l-10 7.5c-19.333 13.333 -40.5 22.833 -63.5 28.5
s-45.5 8.5 -67.5 8.5c-22.667 0 -43.5 -2.33301 -62.5 -7s-35.5 -11.667 -49.5 -21s-24.833 -21 -32.5 -35s-11.5 -30 -11.5 -48c0 -21.333 5.5 -39 16.5 -53s24.667 -25.5 41 -34.5s34 -16 53 -21s36.5 -9.16699 52.5 -12.5c21.333 -4.66699 43 -10.167 65 -16.5
s41.833 -15 59.5 -26s32.167 -25 43.5 -42s17 -39.167 17 -66.5z" />
    <glyph glyph-name="t" unicode="t" horiz-adv-x="319" 
d="M291 15c0 -10 -5 -15.001 -15 -15.001h-30c-44 0 -74.667 10.833 -92 32.5s-26 49.834 -26 84.501v386h-80c-9.33301 0 -14 4.33301 -14 13c0 10 4.66699 15 14 15h80v168c0 4.66699 1.5 8.33398 4.5 11.001s5.83301 4 8.5 4c4 0 7.5 -1.33301 10.5 -4
s4.5 -6.33398 4.5 -11.001v-168h119c10 0 15 -4.33301 15 -13c0 -10 -5 -15 -15 -15h-119v-386c0 -29.333 6 -51.5 18 -66.5s36 -22.5 72 -22.5h30c10 0 15 -4.33301 15 -13z" />
    <glyph glyph-name="u" unicode="u" horiz-adv-x="629" 
d="M538 14c0 -4.66699 -1.49902 -8.33398 -4.49902 -11.001s-6.5 -4 -10.5 -4c-2.66699 0 -5.5 1.33301 -8.5 4s-4.5 6.33398 -4.5 11.001v86c-20 -34.667 -47.333 -62.834 -82 -84.501s-74 -32.5 -118 -32.5c-30.667 0 -59.834 6 -87.501 18s-52 28.5 -73 49.5
s-37.5 45.333 -49.5 73s-18 56.834 -18 87.501v307c0 4.66699 1.5 8.16699 4.5 10.5s6.16699 3.5 9.5 3.5c4 0 7.5 -1.16699 10.5 -3.5s4.5 -5.83301 4.5 -10.5v-307c0 -28 5.16699 -54.167 15.5 -78.5s24.5 -45.5 42.5 -63.5s39 -32.167 63 -42.5s50 -15.5 78 -15.5
s54.167 5.16699 78.5 15.5s45.5 24.5 63.5 42.5s32.167 39.167 42.5 63.5s15.5 50.5 15.5 78.5v307c0 4.66699 1.5 8.16699 4.5 10.5s5.83301 3.5 8.5 3.5c4 0 7.5 -1.16699 10.5 -3.5s4.5 -5.83301 4.5 -10.5v-504v0z" />
    <glyph glyph-name="v" unicode="v" horiz-adv-x="548" 
d="M511 519c0 -3.33301 -0.331055 -5.66699 -0.998047 -7l-222 -502c-1.33301 -2.66699 -3 -5.16699 -5 -7.5s-5 -3.5 -9 -3.5c-6.66699 0.666992 -11.334 4.33398 -14.001 11.001l-221 502c-0.666992 1.33301 -1 3.66602 -1 6.99902c0 8.66699 4.66699 13 14 13
c6.66699 0 11 -3 13 -9l209 -474l209 474c3.33301 6 7.66602 9 12.999 9c4 0 7.5 -1.16699 10.5 -3.5s4.5 -5.5 4.5 -9.5z" />
    <glyph glyph-name="w" unicode="w" horiz-adv-x="796" 
d="M754 518c0 -2 -0.666992 -3.66699 -2 -5l-180 -502c-2.66699 -8 -7.66699 -12 -15 -12c-6.66699 1.33301 -11 5.33301 -13 12l-146 460l-146 -460c-2 -8 -6.66699 -12 -14 -12c-6.66699 1.33301 -11.667 5.33301 -15 12l-179 501c-0.666992 1.33301 -1 3.33301 -1 6
c0 4.66699 1.5 8.16699 4.5 10.5s6.5 3.5 10.5 3.5c7.33301 0 12 -3.66699 14 -11l165 -463l147 462c2 8 6.66699 12 14 12s12.333 -4 15 -12l146 -462l166 464c2 6.66699 6.33301 10 13 10c4 0 7.66699 -1.16699 11 -3.5s5 -5.83301 5 -10.5z" />
    <glyph glyph-name="x" unicode="x" horiz-adv-x="530" 
d="M490 15c0 -4 -1.66699 -7.5 -5 -10.5s-7 -4.5 -11 -4.5c-3.33301 0 -6.66602 2 -9.99902 6l-198 247l-201 -247c-2.66699 -4 -6 -6 -10 -6c-3.33301 0 -6.66602 1.5 -9.99902 4.5s-5 6.5 -5 10.5s1 7 3 9l203 252l-186 231c-2 4 -3 7 -3 9c0 4 1.66699 7.5 5 10.5
s7 4.5 11 4.5c3.33301 0 6.66602 -1.66699 9.99902 -5l183 -227l182 228c3.33301 3.33301 6.66602 5 9.99902 5c4 0 7.5 -1.33301 10.5 -4s4.5 -6 4.5 -10c0 -2.66699 -1 -6 -3 -10l-186 -232l203 -252c2 -2.66699 3 -5.66699 3 -9z" />
    <glyph glyph-name="y" unicode="y" horiz-adv-x="571" 
d="M532 518c0 -3.33301 -0.333008 -5.66602 -1 -6.99902l-305 -663c-6 -13.333 -13.333 -23.833 -22 -31.5s-18.167 -13.5 -28.5 -17.5s-21 -6.66699 -32 -8s-21.833 -2 -32.5 -2h-29c-4.66699 0 -8.33398 1.5 -11.001 4.5s-4 6.5 -4 10.5c0 3.33301 1.33301 6.5 4 9.5
s6.33398 4.5 11.001 4.5l29 1c20.667 0.666992 38.667 3 54 7s27.333 15.667 36 35l69 153l-232 497c-1.33301 1.33301 -2 3.66602 -2 6.99902c0 4 1.5 7.16699 4.5 9.5s6.5 3.5 10.5 3.5c6.66699 0 11 -2.66699 13 -8l222 -476l219 475c2 6 6.33301 9 13 9
c9.33301 0 14 -4.33301 14 -13z" />
    <glyph glyph-name="z" unicode="z" horiz-adv-x="542" 
d="M498 519c0 -4 -2.00098 -8 -6.00098 -12l-403 -477h392c4.66699 0 8.33398 -1.5 11.001 -4.5s4 -6.5 4 -10.5s-1.33301 -7.5 -4 -10.5s-6.33398 -4.5 -11.001 -4.5h-421c-5.33301 0 -9.5 1.66699 -12.5 5s-4.5 7 -4.5 11c0 2.66699 2 6 6 10l404 478h-391
c-5.33301 0 -9.16602 1.5 -11.499 4.5s-3.5 6.16699 -3.5 9.5c0 9.33301 5 14 15 14h419c4 0 7.83301 -1 11.5 -3s5.5 -5.33301 5.5 -10z" />
    <glyph glyph-name="braceleft" unicode="{" horiz-adv-x="369" 
d="M348 -186c0 -4 -1.33301 -7.50391 -4 -10.5039s-6.33398 -4.5 -11.001 -4.5c-26.667 0 -52 5.16699 -76 15.5s-44.833 24.333 -62.5 42s-31.667 38.334 -42 62.001s-15.5 49.167 -15.5 76.5v183c0 20 -6.83301 37 -20.5 51s-30.5 21 -50.5 21
c-4.66699 0 -8.33398 1.5 -11.001 4.5s-4 5.83301 -4 8.5c0 4 1.33301 7.5 4 10.5s6.33398 4.5 11.001 4.5c20 0 36.833 7 50.5 21s20.5 31 20.5 51v181c0 27.333 5.16699 52.833 15.5 76.5s24.333 44.334 42 62.001s38.5 31.667 62.5 42s49.333 15.5 76 15.5
c4.66699 0 8.33398 -1.5 11.001 -4.5s4 -6.5 4 -10.5c0 -2.66699 -1.33301 -5.5 -4 -8.5s-6.33398 -4.5 -11.001 -4.5c-22.667 0 -44.334 -4.33301 -65.001 -13s-38.5 -20.667 -53.5 -36s-27 -33.166 -36 -53.499s-13.5 -42.166 -13.5 -65.499v-181
c0 -18 -4.33301 -34.5 -13 -49.5s-20.667 -27.167 -36 -36.5c15.333 -9.33301 27.333 -21.5 36 -36.5s13 -31.5 13 -49.5v-183c0 -23.333 4.5 -45 13.5 -65s21 -37.667 36 -53s32.833 -27.333 53.5 -36s42.334 -13 65.001 -13c4.66699 0 8.33398 -1.5 11.001 -4.5
s4 -6.16699 4 -9.5z" />
    <glyph glyph-name="bar" unicode="|" horiz-adv-x="211" 
d="M120 -195c0 -4.66699 -1.5 -8.33398 -4.5 -11.001s-6.5 -4 -10.5 -4c-3.33301 0 -6.5 1.33301 -9.5 4s-4.5 6.33398 -4.5 11.001v897c0 4.66699 1.5 8.33398 4.5 11.001s6.16699 4 9.5 4c4 0 7.5 -1.33301 10.5 -4s4.5 -6.33398 4.5 -11.001v-897v0z" />
    <glyph glyph-name="braceright" unicode="}" horiz-adv-x="369" 
d="M319 263c0 -2.66699 -1.16699 -5.49512 -3.5 -8.49512s-6.16602 -4.5 -11.499 -4.5c-20 0 -36.667 -7 -50 -21s-20 -31 -20 -51v-183c0 -27.333 -5.16699 -52.833 -15.5 -76.5s-24.333 -44.334 -42 -62.001s-38.334 -31.667 -62.001 -42s-49.167 -15.5 -76.5 -15.5
c-5.33301 0 -9.16602 1.5 -11.499 4.5s-3.5 6.5 -3.5 10.5c0 3.33301 1.16699 6.5 3.5 9.5s6.16602 4.5 11.499 4.5c23.333 0 45 4.33301 65 13s37.667 20.667 53 36s27.333 33 36 53s13 41.667 13 65v183c0 18 4.5 34.5 13.5 49.5s20.5 26.833 34.5 35.5
c-14 9.33301 -25.5 21.666 -34.5 36.999s-13.5 32 -13.5 50v181c0 23.333 -4.33301 45.166 -13 65.499s-20.667 38.166 -36 53.499s-33 27.333 -53 36s-41.667 13 -65 13c-5.33301 0 -9.16602 1.5 -11.499 4.5s-3.5 5.83301 -3.5 8.5c0 4 1.16699 7.5 3.5 10.5
s6.16602 4.5 11.499 4.5c27.333 0 52.833 -5.16699 76.5 -15.5s44.334 -24.333 62.001 -42s31.667 -38.334 42 -62.001s15.5 -49.167 15.5 -76.5v-181c0 -20 6.66699 -37 20 -51s30 -21 50 -21c5.33301 0 9.16602 -1.5 11.499 -4.5s3.5 -6.5 3.5 -10.5z" />
    <glyph glyph-name="asciitilde" unicode="~" 
d="M492 695c0 -2 -0.999023 -5.00098 -2.99902 -9.00098c-16.667 -20.667 -34.334 -35.167 -53.001 -43.5s-36 -12.5 -52 -12.5c-30.667 0 -59.334 13.333 -86.001 40c-21.333 22 -44.333 33 -69 33c-15.333 0 -30.166 -4.33301 -44.499 -13s-26.166 -19 -35.499 -31
c-4 -4 -7.33301 -6 -10 -6c-4 0 -7.66699 1.5 -11 4.5s-5 6.5 -5 10.5c0 3.33301 1 5.83301 3 7.5s3.66699 3.5 5 5.5c29.333 33.333 62.333 50 99 50c15.333 0 30.5 -3.33301 45.5 -10s29.167 -16.667 42.5 -30c12 -11.333 23.667 -19.5 35 -24.5s22 -7.5 32 -7.5
c12 0 22.833 2.16699 32.5 6.5s18 9.33301 25 15s12.667 10.834 17 15.501l6.5 7c4 4 7.66699 6 11 6s6.66602 -1.33301 9.99902 -4s5 -6 5 -10z" />
    <glyph glyph-name="Zcaron" horiz-adv-x="583" 
d="M531 15c0 -4 -1.16699 -7.50098 -3.5 -10.501s-6.16602 -4.5 -11.499 -4.5h-450c-10.667 0 -16 4.66699 -16 14c0 4.66699 1.33301 8.33398 4 11.001l424 659h-399c-4.66699 0 -8.33398 1.5 -11.001 4.5s-4 6.5 -4 10.5s1.33301 7.5 4 10.5s6.33398 4.5 11.001 4.5h423
c4 0 7.83301 -1.16699 11.5 -3.5s5.5 -5.83301 5.5 -10.5c0 -4 -1.66699 -7.66699 -5 -11l-424 -659h426c5.33301 0 9.16602 -1.5 11.499 -4.5s3.5 -6.5 3.5 -10.5zM432 977.999c0 -4 -2 -7.66797 -6 -11.001l-126 -114c-2 -2.66699 -5 -4 -9 -4
c-3.33301 0 -6.33301 1.33301 -9 4l-127 114c-2.66699 2.66699 -4 6.33398 -4 11.001c0 4 1.33301 7.5 4 10.5s5.66699 4.5 9 4.5c4 0 7.66699 -1.66699 11 -5l116 -98l116 98c2.66699 3.33301 6 5 10 5s7.5 -1.5 10.5 -4.5s4.5 -6.5 4.5 -10.5z" />
    <glyph glyph-name="Zcaron" unicode="&#x17d;" horiz-adv-x="583" 
d="M531 15c0 -4 -1.16699 -7.50098 -3.5 -10.501s-6.16602 -4.5 -11.499 -4.5h-450c-10.667 0 -16 4.66699 -16 14c0 4.66699 1.33301 8.33398 4 11.001l424 659h-399c-4.66699 0 -8.33398 1.5 -11.001 4.5s-4 6.5 -4 10.5s1.33301 7.5 4 10.5s6.33398 4.5 11.001 4.5h423
c4 0 7.83301 -1.16699 11.5 -3.5s5.5 -5.83301 5.5 -10.5c0 -4 -1.66699 -7.66699 -5 -11l-424 -659h426c5.33301 0 9.16602 -1.5 11.499 -4.5s3.5 -6.5 3.5 -10.5zM432 977.999c0 -4 -2 -7.66797 -6 -11.001l-126 -114c-2 -2.66699 -5 -4 -9 -4
c-3.33301 0 -6.33301 1.33301 -9 4l-127 114c-2.66699 2.66699 -4 6.33398 -4 11.001c0 4 1.33301 7.5 4 10.5s5.66699 4.5 9 4.5c4 0 7.66699 -1.66699 11 -5l116 -98l116 98c2.66699 3.33301 6 5 10 5s7.5 -1.5 10.5 -4.5s4.5 -6.5 4.5 -10.5z" />
    <glyph glyph-name="zcaron" horiz-adv-x="542" 
d="M498 519c0 -4 -2.00098 -8 -6.00098 -12l-403 -477h392c4.66699 0 8.33398 -1.5 11.001 -4.5s4 -6.5 4 -10.5s-1.33301 -7.5 -4 -10.5s-6.33398 -4.5 -11.001 -4.5h-421c-5.33301 0 -9.5 1.66699 -12.5 5s-4.5 7 -4.5 11c0 2.66699 2 6 6 10l404 478h-391
c-5.33301 0 -9.16602 1.5 -11.499 4.5s-3.5 6.16699 -3.5 9.5c0 9.33301 5 14 15 14h419c4 0 7.83301 -1 11.5 -3s5.5 -5.33301 5.5 -10zM410.999 750c0 -4 -2 -7.66797 -6 -11.001l-126 -114c-2 -2.66699 -5 -4 -9 -4c-3.33301 0 -6.33301 1.33301 -9 4l-127 114
c-2.66699 2.66699 -4 6.33398 -4 11.001c0 4 1.33301 7.5 4 10.5s5.66699 4.5 9 4.5c4 0 7.66699 -1.66699 11 -5l116 -98l116 98c2.66699 3.33301 6 5 10 5s7.5 -1.5 10.5 -4.5s4.5 -6.5 4.5 -10.5z" />
    <glyph glyph-name="zcaron" unicode="&#x17e;" horiz-adv-x="542" 
d="M498 519c0 -4 -2.00098 -8 -6.00098 -12l-403 -477h392c4.66699 0 8.33398 -1.5 11.001 -4.5s4 -6.5 4 -10.5s-1.33301 -7.5 -4 -10.5s-6.33398 -4.5 -11.001 -4.5h-421c-5.33301 0 -9.5 1.66699 -12.5 5s-4.5 7 -4.5 11c0 2.66699 2 6 6 10l404 478h-391
c-5.33301 0 -9.16602 1.5 -11.499 4.5s-3.5 6.16699 -3.5 9.5c0 9.33301 5 14 15 14h419c4 0 7.83301 -1 11.5 -3s5.5 -5.33301 5.5 -10zM410.999 750c0 -4 -2 -7.66797 -6 -11.001l-126 -114c-2 -2.66699 -5 -4 -9 -4c-3.33301 0 -6.33301 1.33301 -9 4l-127 114
c-2.66699 2.66699 -4 6.33398 -4 11.001c0 4 1.33301 7.5 4 10.5s5.66699 4.5 9 4.5c4 0 7.66699 -1.66699 11 -5l116 -98l116 98c2.66699 3.33301 6 5 10 5s7.5 -1.5 10.5 -4.5s4.5 -6.5 4.5 -10.5z" />
    <glyph glyph-name="uni00A0" unicode="&#xa0;" horiz-adv-x="285" 
 />
    <glyph glyph-name="exclamdown" unicode="&#xa1;" horiz-adv-x="290" 
d="M131 517c0 5.33301 1.66699 9 5 11s7.33301 3 12 3c8 0 12 -4.66699 12 -14v-503c0 -4.66699 -1.5 -8.16699 -4.5 -10.5s-6.5 -3.5 -10.5 -3.5c-3.33301 0 -6.5 1.16699 -9.5 3.5s-4.5 5.83301 -4.5 10.5v503v0zM100 687c0 12 4.16699 22.166 12.5 30.499
s18.5 12.5 30.5 12.5s22.333 -4.16699 31 -12.5s13 -18.166 13 -29.499c0 -12 -4.33301 -22.167 -13 -30.5s-19 -12.5 -31 -12.5s-22.167 4 -30.5 12s-12.5 18 -12.5 30z" />
    <glyph glyph-name="cent" unicode="&#xa2;" horiz-adv-x="575" 
d="M502 68c0 -1.33301 -0.331055 -2.66699 -0.998047 -4s-1.66699 -3 -3 -5c-21.333 -23.333 -45.666 -41.5 -72.999 -54.5s-58 -20.167 -92 -21.5v-178c0 -4.66699 -1.5 -8.33398 -4.5 -11.001s-6.5 -4 -10.5 -4c-3.33301 0 -6.5 1.33301 -9.5 4s-4.5 6.33398 -4.5 11.001
v179c-38 2 -71.667 11 -101 27s-54 36.833 -74 62.5s-35.167 55 -45.5 88s-15.5 67.833 -15.5 104.5s5.16699 71.5 15.5 104.5s25.5 62.333 45.5 88s44.667 46.334 74 62.001s63 24.5 101 26.5v169c0 4.66699 1.5 8.33398 4.5 11.001s6.16699 4 9.5 4
c4 0 7.5 -1.33301 10.5 -4s4.5 -6.33398 4.5 -11.001v-168c34 -1.33301 64.667 -8.5 92 -21.5s51.666 -31.167 72.999 -54.5c2.66699 -2.66699 4 -5.33398 4 -8.00098c0 -4 -1.5 -7.66699 -4.5 -11s-6.5 -5 -10.5 -5s-7.33301 1.66699 -10 5
c-19.333 21.333 -42 37.833 -68 49.5s-56 17.5 -90 17.5c-35.333 0 -66.666 -6.66699 -93.999 -20s-50.5 -31.5 -69.5 -54.5s-33.5 -49.833 -43.5 -80.5s-15 -63.667 -15 -99s5 -68.5 15 -99.5s24.5 -58 43.5 -81s42.167 -41.167 69.5 -54.5s58.666 -20 93.999 -20
c34 0 64 6 90 18s48.667 28.667 68 50c3.33301 3.33301 6.66602 5 9.99902 5s6.66602 -1.66699 9.99902 -5s5 -7 5 -11z" />
    <glyph glyph-name="sterling" unicode="&#xa3;" horiz-adv-x="573" 
d="M544 100c0 -13.333 -2.66504 -26.165 -7.99805 -38.498s-12.666 -23 -21.999 -32s-20 -16.167 -32 -21.5s-25 -8 -39 -8h-372c-4.66699 0 -8.33398 1.5 -11.001 4.5s-4 6.16699 -4 9.5c0 9.33301 5 14 15 14c32.667 0 57.167 9.66699 73.5 29s24.5 44 24.5 74v251h-65
c-4.66699 0 -8.33398 1.5 -11.001 4.5s-4 6.16699 -4 9.5c0 9.33301 5 14 15 14h65v185c0 18.667 3.5 36.167 10.5 52.5s16.667 30.666 29 42.999s26.666 22 42.999 29s33.833 10.5 52.5 10.5c19.333 0 37.333 -3.66699 54 -11s31.167 -17.166 43.5 -29.499
s22 -26.833 29 -43.5s10.5 -34.334 10.5 -53.001c0 -4.66699 -1.66699 -8.33398 -5 -11.001s-6.66602 -4 -9.99902 -4c-4.66699 0 -8 1.66699 -10 5s-3 6.66602 -3 9.99902c0 14.667 -2.66699 28.5 -8 41.5s-12.833 24.5 -22.5 34.5s-21.167 17.833 -34.5 23.5
s-28 8.5 -44 8.5s-30.5 -3 -43.5 -9s-24.333 -14 -34 -24s-17.167 -21.5 -22.5 -34.5s-8 -26.5 -8 -40.5v-181h204c5.33301 0 9.16602 -1.5 11.499 -4.5s3.5 -6.16699 3.5 -9.5s-0.833008 -6.66602 -2.5 -9.99902s-4.5 -5 -8.5 -5h-207v-252c0 -44 -14.333 -78.333 -43 -103
h289c20 0 37 7 51 21s21 31 21 51c0 4.66699 1.5 8.33398 4.5 11.001s6.16699 4 9.5 4c4 0 7.5 -1.33301 10.5 -4s4.5 -6.33398 4.5 -11.001z" />
    <glyph glyph-name="currency" unicode="&#xa4;" horiz-adv-x="588" 
d="M539 364c0 -27.333 -8.66504 -49.833 -25.998 -67.5s-39.666 -26.5 -66.999 -26.5h-72c11.333 -15.333 17 -33.333 17 -54c0 -27.333 -8.66699 -49.666 -26 -66.999s-39.666 -26 -66.999 -26h-249v248c0 27.333 8.66699 49.833 26 67.5s39.666 26.5 66.999 26.5
c20 0 38.333 -5.66699 55 -17v71c0 27.333 8.66699 49.833 26 67.5s39.666 26.5 66.999 26.5s49.666 -8.83301 66.999 -26.5s26 -40.167 26 -67.5v-62h63c27.333 0 49.666 -8.83301 66.999 -26.5s26 -39.834 26 -66.501zM522.002 364c0 22.667 -7 41 -21 55
s-32.333 21 -55 21h-79v79c0 22.667 -7.16699 41.167 -21.5 55.5s-32.833 21.5 -55.5 21.5s-41 -7.16699 -55 -21.5s-21 -32.833 -21 -55.5v-232h232c22.667 0 41 7.16699 55 21.5s21 32.833 21 55.5z" />
    <glyph glyph-name="yen" unicode="&#xa5;" horiz-adv-x="594" 
d="M540 699c0 -2 -0.666016 -4.33301 -1.99902 -7l-173 -295h141c4.66699 0 8.33398 -1.5 11.001 -4.5s4 -6.5 4 -10.5c0 -3.33301 -1.33301 -6.5 -4 -9.5s-6.33398 -4.5 -11.001 -4.5h-157l-38 -65v-50h195c4.66699 0 8.33398 -1.5 11.001 -4.5s4 -6.5 4 -10.5
c0 -2.66699 -1.33301 -5.5 -4 -8.5s-6.33398 -4.5 -11.001 -4.5h-195v-211c0 -4.66699 -1.5 -8.33398 -4.5 -11.001s-6.5 -4 -10.5 -4c-2.66699 0 -5.5 1.33301 -8.5 4s-4.5 6.33398 -4.5 11.001v211h-195c-4.66699 0 -8.33398 1.5 -11.001 4.5s-4 5.83301 -4 8.5
c0 4 1.33301 7.5 4 10.5s6.33398 4.5 11.001 4.5h195v50l-38 64h-157c-4.66699 0 -8.33398 1.5 -11.001 4.5s-4 6.16699 -4 9.5c0 4 1.33301 7.5 4 10.5s6.33398 4.5 11.001 4.5h140l-172 296c-1.33301 2.66699 -2 5 -2 7c0 4 1.66699 7.5 5 10.5s7 4.5 11 4.5
s7.66699 -2.66699 11 -8l215 -371l217 371c3.33301 5.33301 7.66602 8 12.999 8c3.33301 0 6.5 -1.5 9.5 -4.5s4.5 -6.5 4.5 -10.5z" />
    <glyph glyph-name="brokenbar" unicode="&#xa6;" horiz-adv-x="234" 
d="M131 365c0 -9.33301 -3.66699 -14 -11 -14c-11.333 0 -17 4.66699 -17 14v351c0 9.33301 4 14 12 14c10.667 0 16 -4.66699 16 -14v-351v0zM131 -195c0 -9.33301 -4.66699 -14 -14 -14s-14 4.66699 -14 14v360c0 9.33301 4.33301 14 13 14c10 0 15 -4.66699 15 -14v-360
v0z" />
    <glyph glyph-name="section" unicode="&#xa7;" horiz-adv-x="508" 
d="M423 188c0 -20.667 -4.66699 -39.334 -14 -56.001s-22.666 -33.667 -39.999 -51c13.333 -16 24.166 -32.667 32.499 -50s12.5 -36.666 12.5 -57.999c0 -22 -4.16699 -42.667 -12.5 -62s-19.833 -36.333 -34.5 -51s-31.667 -26.167 -51 -34.5s-40 -12.5 -62 -12.5
c-20.667 0 -40 3.83301 -58 11.5s-34 17 -48 28s-25.833 22.5 -35.5 34.5s-17.167 22.333 -22.5 31c-1.33301 2.66699 -2 5 -2 7c0 4 1.66699 7.16699 5 9.5s7 3.5 11 3.5c2 0 4 -0.333008 6 -1s3.66699 -2 5 -4c5.33301 -8 12.333 -17.333 21 -28
s18.834 -20.667 30.501 -30s24.834 -17.166 39.501 -23.499s30.667 -9.5 48 -9.5c18 0 34.833 3.5 50.5 10.5s29.5 16.333 41.5 28s21.333 25.5 28 41.5s10 33 10 51c0 24 -7 46.333 -21 67s-31.167 40 -51.5 58s-41.666 34.833 -63.999 50.5s-41.833 30.167 -58.5 43.5
l-30 25.5c-12 10.333 -23.5 22.5 -34.5 36.5s-20.5 29.5 -28.5 46.5s-12 35.167 -12 54.5c0 20.667 4.66699 39.334 14 56.001s22.666 33.667 39.999 51c-13.333 16 -23.833 32.667 -31.5 50s-11.5 36.666 -11.5 57.999c0 22 4.16699 42.667 12.5 62
s19.666 36.333 33.999 51s31.166 26.167 50.499 34.5s40 12.5 62 12.5s41.833 -3.83301 59.5 -11.5s33.334 -17 47.001 -28s25.167 -22.333 34.5 -34s16.666 -21.834 21.999 -30.501l2 -4c0.666992 -1.33301 1 -2.66602 1 -3.99902c0 -4 -1.66699 -7.33301 -5 -10
s-6.66602 -4 -9.99902 -4c-4.66699 0 -8.66699 2 -12 6c-5.33301 8 -12.166 17.333 -20.499 28s-18.333 20.667 -30 30s-24.834 17.166 -39.501 23.499s-31 9.5 -49 9.5s-35 -3.33301 -51 -10s-30 -16 -42 -28s-21.333 -26 -28 -42s-10 -33 -10 -51c0 -24 7 -46.333 21 -67
s31.167 -40 51.5 -58s41.666 -34.833 63.999 -50.5s41.833 -30.167 58.5 -43.5l30 -25.5c12 -10.333 23.5 -22.5 34.5 -36.5s20.5 -29.5 28.5 -46.5s12 -35.167 12 -54.5zM393 187c0 26 -7.83301 49.3311 -23.5 69.998s-35 40.334 -58 59.001s-47.833 37.334 -74.5 56.001
s-51 39 -73 61l-7 7c-28.667 -30.667 -43 -59 -43 -85s7.83301 -49.333 23.5 -70s35 -40.5 58 -59.5s47.833 -37.833 74.5 -56.5s51 -39 73 -61l7 -7c15.333 16 26.333 31 33 45s10 27.667 10 41z" />
    <glyph glyph-name="dieresis" unicode="&#xa8;" 
d="M462 650c0 -8.66699 -2.66699 -15.667 -8 -21s-12.333 -8 -21 -8s-15.5 2.66699 -20.5 8s-7.5 12.333 -7.5 21c0 18.667 9.33301 28 28 28c8.66699 0 15.667 -2.5 21 -7.5s8 -11.833 8 -20.5zM234 650c0 -8.66699 -2.66699 -15.667 -8 -21s-12.333 -8 -21 -8
s-15.5 2.66699 -20.5 8s-7.5 12.333 -7.5 21c0 18.667 9.33301 28 28 28c8.66699 0 15.667 -2.5 21 -7.5s8 -11.833 8 -20.5z" />
    <glyph glyph-name="copyright" unicode="&#xa9;" horiz-adv-x="780" 
d="M723 333c0 -46 -8.83301 -89.167 -26.5 -129.5s-41.5 -75.666 -71.5 -105.999s-65.167 -54.166 -105.5 -71.499s-83.5 -26 -129.5 -26s-89.167 8.66699 -129.5 26s-75.666 41.166 -105.999 71.499s-54.166 65.666 -71.499 105.999s-26 83.5 -26 129.5
s8.66699 89.167 26 129.5s41.166 75.5 71.499 105.5s65.666 53.833 105.999 71.5s83.5 26.5 129.5 26.5s89.167 -8.83301 129.5 -26.5s75.5 -41.5 105.5 -71.5s53.833 -65.167 71.5 -105.5s26.5 -83.5 26.5 -129.5zM694 333c0 42 -8 81.333 -24 118
s-37.833 68.834 -65.5 96.501s-59.834 49.5 -96.501 65.5s-76 24 -118 24s-81.5 -8 -118.5 -24s-69.333 -37.833 -97 -65.5s-49.5 -59.834 -65.5 -96.501s-24 -76 -24 -118s8 -81.5 24 -118.5s37.833 -69.333 65.5 -97s60 -49.5 97 -65.5s76.5 -24 118.5 -24
s81.333 8 118 24s68.834 37.833 96.501 65.5s49.5 60 65.5 97s24 76.5 24 118.5zM503 211c0 -1.33301 -0.166992 -2.66895 -0.5 -4.00195s-1.16602 -2.66602 -2.49902 -3.99902c-11.333 -17.333 -26.333 -31 -45 -41s-40.334 -15 -65.001 -15c-26.667 0 -49 5.33301 -67 16
s-32.667 24.834 -44 42.501s-19.5 37.5 -24.5 59.5s-7.5 44.333 -7.5 67s2.5 45 7.5 67s13.167 41.667 24.5 59s26 31.333 44 42s40.333 16 67 16c48 0 84.333 -18 109 -54c2.66699 -3.33301 4 -6.33301 4 -9c0 -4 -1.83301 -7.33301 -5.5 -10s-7.5 -4 -11.5 -4
s-7.66699 2 -11 6c-20.667 28.667 -49 43 -85 43c-20.667 0 -38.167 -4 -52.5 -12s-26 -19 -35 -33s-15.667 -30.5 -20 -49.5s-6.5 -39.5 -6.5 -61.5s2.16699 -42.5 6.5 -61.5s11 -35.5 20 -49.5s20.667 -25 35 -33s31.833 -12 52.5 -12c38 0 67 14.333 87 43
c2.66699 4.66699 6.33398 7 11.001 7c3.33301 0 6.66602 -1.5 9.99902 -4.5s5 -6.5 5 -10.5z" />
    <glyph glyph-name="ordfeminine" unicode="&#xaa;" horiz-adv-x="465" 
d="M397 370c0 -2.66699 -1.33496 -5.33301 -4.00195 -8s-6.33398 -4 -11.001 -4c-21.333 0.666992 -36.666 11.334 -45.999 32.001c-8 -8.66699 -17.333 -15.834 -28 -21.501s-21.667 -10 -33 -13s-22.333 -5.16699 -33 -6.5s-20 -2 -28 -2
c-10.667 0 -24.334 1.33301 -41.001 4s-32.834 8 -48.501 16s-29 19.167 -40 33.5s-16.5 32.833 -16.5 55.5c0 23.333 5.5 42 16.5 56s24.333 24.833 40 32.5s31.834 12.834 48.501 15.501s30.334 4 41.001 4c8 0 17 -0.5 27 -1.5s20.333 -3 31 -6
s21.334 -6.83301 32.001 -11.5s20.334 -11 29.001 -19v95c0 16 -4 29.167 -12 39.5s-17.833 18.5 -29.5 24.5s-24.5 10.167 -38.5 12.5s-27 3.5 -39 3.5c-10.667 0 -22.5 -0.833008 -35.5 -2.5s-25.5 -5.83398 -37.5 -12.501c-1.33301 -0.666992 -3.33301 -1 -6 -1
c-4 0 -7.33301 1.5 -10 4.5s-4 6.5 -4 10.5c0 6 4 11 12 15s17.333 7 28 9s21 3.5 31 4.5s17.333 1.5 22 1.5c11.333 0 25.5 -1.33301 42.5 -4s33.167 -7.83398 48.5 -15.501s28.5 -18.667 39.5 -33s16.5 -33.166 16.5 -56.499v-212c0 -6 2 -11.333 6 -16s9.33301 -7 16 -7
c4.66699 0 8.16699 -1.66699 10.5 -5s3.5 -7 3.5 -11zM332.998 456.001c0 16 -4 29.167 -12 39.5s-17.833 18.5 -29.5 24.5s-24.5 10.167 -38.5 12.5s-27 3.5 -39 3.5s-25 -1.16699 -39 -3.5s-26.667 -6.5 -38 -12.5s-20.833 -14.167 -28.5 -24.5s-11.5 -23.5 -11.5 -39.5
s3.83301 -29.167 11.5 -39.5s17.167 -18.5 28.5 -24.5s24 -10.333 38 -13s27 -4 39 -4s25 1.33301 39 4s26.833 7 38.5 13s21.5 14.167 29.5 24.5s12 23.5 12 39.5z" />
    <glyph glyph-name="guillemotleft" unicode="&#xab;" horiz-adv-x="570" 
d="M497 124c0 -4 -1.66699 -7.50098 -5 -10.501s-7 -4.5 -11 -4.5c-4.66699 0 -8 1.33301 -10 4l-197 196c-3.33301 2.66699 -5 6 -5 10s1.66699 7.33301 5 10l197 198c2.66699 2.66699 6 4 10 4s7.5 -1.5 10.5 -4.5s4.5 -6.5 4.5 -10.5
c0 -3.33301 -1.66699 -6.66602 -5 -9.99902l-187 -187l187 -186c4 -2.66699 6 -5.66699 6 -9zM291 122.999c0 -3.33301 -1.5 -6.5 -4.5 -9.5s-6.5 -4.5 -10.5 -4.5c-4.66699 0 -8 1.33301 -10 4l-198 196c-2.66699 2.66699 -4 6 -4 10s1.33301 7.33301 4 10l198 198
c2.66699 2.66699 6 4 10 4s7.33301 -1.5 10 -4.5s4 -6.5 4 -10.5c0 -1.33301 -0.166992 -2.83301 -0.5 -4.5s-1.5 -3.5 -3.5 -5.5l-187 -187l187 -186c3.33301 -2.66699 5 -6 5 -10z" />
    <glyph glyph-name="logicalnot" unicode="&#xac;" horiz-adv-x="610" 
d="M524 54c0 -10 -4.66602 -14.999 -13.999 -14.999c-3.33301 0 -6.5 1.16699 -9.5 3.5s-4.5 6.16602 -4.5 11.499v328h-414c-4.66699 0 -8.33398 1.5 -11.001 4.5s-4 6.16699 -4 9.5c0 9.33301 5 14 15 14h428c5.33301 0 9 -1.66699 11 -5s3 -6.33301 3 -9v-342v0z" />
    <glyph glyph-name="registered" unicode="&#xae;" horiz-adv-x="780" 
d="M723 333c0 -46 -8.83301 -89.167 -26.5 -129.5s-41.5 -75.666 -71.5 -105.999s-65.167 -54.166 -105.5 -71.499s-83.5 -26 -129.5 -26s-89.167 8.66699 -129.5 26s-75.666 41.166 -105.999 71.499s-54.166 65.666 -71.499 105.999s-26 83.5 -26 129.5
s8.66699 89.167 26 129.5s41.166 75.5 71.499 105.5s65.666 53.833 105.999 71.5s83.5 26.5 129.5 26.5s89.167 -8.83301 129.5 -26.5s75.5 -41.5 105.5 -71.5s53.833 -65.167 71.5 -105.5s26.5 -83.5 26.5 -129.5zM694 333c0 42 -8 81.333 -24 118
s-37.833 68.834 -65.5 96.501s-59.834 49.5 -96.501 65.5s-76 24 -118 24s-81.5 -8 -118.5 -24s-69.333 -37.833 -97 -65.5s-49.5 -59.834 -65.5 -96.501s-24 -76 -24 -118s8 -81.5 24 -118.5s37.833 -69.333 65.5 -97s60 -49.5 97 -65.5s76.5 -24 118.5 -24
s81.333 8 118 24s68.834 37.833 96.501 65.5s49.5 60 65.5 97s24 76.5 24 118.5zM534 169c0 -4 -1.49902 -7.33398 -4.49902 -10.001s-6.5 -4 -10.5 -4c-4.66699 0 -8.66699 2 -12 6l-95 135h-110v-126c0 -4.66699 -1.5 -8.33398 -4.5 -11.001s-6.5 -4 -10.5 -4
c-2.66699 0 -5.5 1.33301 -8.5 4s-4.5 6.33398 -4.5 11.001v324c0 9.33301 4.66699 14 14 14h132c29.333 0 53.666 -10.167 72.999 -30.5s29 -45.5 29 -75.5c0 -25.333 -7.33301 -47.166 -22 -65.499s-33 -30.5 -55 -36.5l85 -123c2.66699 -4 4 -6.66699 4 -8z
M494.001 401.999c0 22.667 -7.5 41.333 -22.5 56s-32.167 22 -51.5 22h-118v-155h120c20 0 37 7.33301 51 22s21 33 21 55z" />
    <glyph glyph-name="macron" unicode="&#xaf;" 
d="M465 635c0 -3.33301 -1.33301 -6.5 -4 -9.5s-6.33398 -4.5 -11.001 -4.5h-285c-4.66699 0 -8.33398 1.5 -11.001 4.5s-4 6.16699 -4 9.5c0 4 1.33301 7.5 4 10.5s6.33398 4.5 11.001 4.5h285c4.66699 0 8.33398 -1.5 11.001 -4.5s4 -6.5 4 -10.5z" />
    <glyph glyph-name="degree" unicode="&#xb0;" horiz-adv-x="394" 
d="M326 611c0 -20.667 -3.5 -40 -10.5 -58s-16.333 -33.667 -28 -47s-25.334 -23.666 -41.001 -30.999s-32.167 -11 -49.5 -11c-16.667 0 -32.834 3.66699 -48.501 11s-29.5 17.666 -41.5 30.999s-21.5 29 -28.5 47s-10.5 37.333 -10.5 58c0 21.333 3.5 41 10.5 59
s16.5 33.5 28.5 46.5s25.833 23.167 41.5 30.5s31.834 11 48.501 11c17.333 0 33.833 -3.66699 49.5 -11s29.334 -17.5 41.001 -30.5s21 -28.5 28 -46.5s10.5 -37.667 10.5 -59zM298 611c0 18 -2.83301 34.333 -8.5 49s-13.334 27.167 -23.001 37.5s-20.5 18.333 -32.5 24
s-24.333 8.5 -37 8.5s-25 -2.83301 -37 -8.5s-22.667 -13.667 -32 -24s-16.833 -22.833 -22.5 -37.5s-8.5 -31 -8.5 -49s2.83301 -34.333 8.5 -49s13.167 -27.167 22.5 -37.5s20 -18.333 32 -24s24.333 -8.5 37 -8.5s25 2.83301 37 8.5s22.833 13.667 32.5 24
s17.334 22.833 23.001 37.5s8.5 31 8.5 49z" />
    <glyph glyph-name="plusminus" unicode="&#xb1;" horiz-adv-x="507" 
d="M439 353c0 -2.66699 -1.33301 -5.5 -4 -8.5s-6.33398 -4.5 -11.001 -4.5h-156v-156c0 -5.33301 -1.5 -9.16602 -4.5 -11.499s-6.5 -3.5 -10.5 -3.5c-3.33301 0 -6.5 1 -9.5 3s-4.5 5.33301 -4.5 10v158h-157c-4.66699 0 -8.33398 1.5 -11.001 4.5s-4 5.83301 -4 8.5
c0 4 1.33301 7.5 4 10.5s6.33398 4.5 11.001 4.5h156v156c0 5.33301 1.5 9.16602 4.5 11.499s6.16699 3.5 9.5 3.5c4 0 7.5 -1 10.5 -3s4.5 -5.33301 4.5 -10v-158h157c4.66699 0 8.33398 -1.5 11.001 -4.5s4 -6.5 4 -10.5zM439 14c0 -3.33301 -1.33105 -6.5 -3.99805 -9.5
s-6.33398 -4.5 -11.001 -4.5h-342c-4.66699 0 -8.33398 1.5 -11.001 4.5s-4 6.16699 -4 9.5c0 9.33301 5 14 15 14h342c10 0 15 -4.66699 15 -14z" />
    <glyph glyph-name="twosuperior" unicode="&#xb2;" horiz-adv-x="341" 
d="M267 375c0 -3.33301 -1.33203 -6.50195 -3.99902 -9.50195s-6.33398 -4.5 -11.001 -4.5h-178c-3.33301 0 -7 1 -11 3s-6 5.66699 -6 11c0 4.66699 1.66699 8.33398 5 11.001l158 213c7.33301 9.33301 11 21 11 35c0 16.667 -6 32 -18 46s-27.667 21 -47 21
c-12 0 -22.333 -2.66699 -31 -8s-16 -11.333 -22 -18s-11.167 -12.667 -15.5 -18s-8.5 -8 -12.5 -8c-3.33301 0 -6.5 1.16699 -9.5 3.5s-4.5 5.5 -4.5 9.5c0 2.66699 2.16699 7.66699 6.5 15s10.666 15 18.999 23s18.333 15 30 21s24.834 9 39.501 9
c14 0 26.833 -2.66699 38.5 -8s21.667 -12.5 30 -21.5s14.666 -19.167 18.999 -30.5s6.5 -23 6.5 -35c0 -9.33301 -1.33301 -18.666 -4 -27.999s-7 -18 -13 -26l-144 -191h153c4.66699 0 8.33398 -1.5 11.001 -4.5s4 -6.5 4 -10.5z" />
    <glyph glyph-name="threesuperior" unicode="&#xb3;" horiz-adv-x="353" 
d="M271 453c0 -15.333 -2.83203 -29.667 -8.49902 -43s-13.5 -25 -23.5 -35s-21.5 -17.833 -34.5 -23.5s-27.167 -8.5 -42.5 -8.5c-22.667 0 -42.667 5.83301 -60 17.5s-30.333 27.167 -39 46.5l-2 4c-0.666992 1.33301 -1 2.66602 -1 3.99902
c0 3.33301 1.5 6.16602 4.5 8.49902s6.5 3.5 10.5 3.5c5.33301 0 9.66602 -3 12.999 -9c6.66699 -13.333 16.5 -24.333 29.5 -33s27.833 -13 44.5 -13c22 0 41 7.83301 57 23.5s24 34.834 24 57.501s-8 41.834 -24 57.501s-35 23.5 -57 23.5
c-8.66699 0 -13.667 4.66699 -15 14c0 9.33301 5 14 15 14c20 0 36.5 6.83301 49.5 20.5s19.5 30.167 19.5 49.5s-6.5 35.666 -19.5 48.999s-29.5 20 -49.5 20c-13.333 0 -24.666 -2.83301 -33.999 -8.5s-17.333 -12 -24 -19s-12.334 -13.333 -17.001 -19
s-8.66699 -8.5 -12 -8.5c-4 0 -7.66699 1.33301 -11 4s-5 6 -5 10c0 2.66699 2.5 7.83398 7.5 15.501s12 15.5 21 23.5s19.833 15.167 32.5 21.5s26.667 9.5 42 9.5c13.333 0 25.833 -2.5 37.5 -7.5s22 -12 31 -21s16.167 -19.5 21.5 -31.5s8 -24.667 8 -38
c0 -18 -4.16699 -34 -12.5 -48s-19.5 -25.667 -33.5 -35c18 -9.33301 32 -22.333 42 -39s15 -35.667 15 -57z" />
    <glyph glyph-name="acute" unicode="&#xb4;" 
d="M402 781c0 -8 -2.99902 -13.999 -8.99902 -17.999l-148 -137c-1.33301 -1.33301 -3 -2.5 -5 -3.5s-3.66699 -1.5 -5 -1.5c-4 0 -7.5 1.5 -10.5 4.5s-4.5 6.5 -4.5 10.5c0 3.33301 1.66699 6.66602 5 9.99902l136 149c5.33301 5.33301 11.666 8 18.999 8
c4.66699 0 10 -2.33301 16 -7c4 -4.66699 6 -9.66699 6 -15z" />
    <glyph glyph-name="mu" unicode="&#xb5;" horiz-adv-x="650" 
d="M602 16c0 -4 -1.33203 -7.66699 -3.99902 -11s-6.66699 -5 -12 -5c-16 0 -31.167 6.5 -45.5 19.5s-21.5 30.167 -21.5 51.5v29c-20 -34.667 -47.333 -62.834 -82 -84.501s-74 -32.5 -118 -32.5c-43.333 0 -82.333 10.833 -117 32.5s-62 49.834 -82 84.501v-295
c0 -4.66699 -1.5 -8.33398 -4.5 -11.001s-6.5 -4 -10.5 -4c-3.33301 0 -6.5 1.33301 -9.5 4s-4.5 6.33398 -4.5 11.001v713c0 4.66699 1.5 8.16699 4.5 10.5s6.16699 3.5 9.5 3.5c4 0 7.5 -1.16699 10.5 -3.5s4.5 -5.83301 4.5 -10.5v-307c0 -28 5.16699 -54.167 15.5 -78.5
s24.5 -45.5 42.5 -63.5s39.167 -32.167 63.5 -42.5s50.166 -15.5 77.499 -15.5c28 0 54.167 5.16699 78.5 15.5s45.5 24.5 63.5 42.5s32.167 39.167 42.5 63.5s15.5 50.5 15.5 78.5v307c0 4.66699 1.5 8.16699 4.5 10.5s5.83301 3.5 8.5 3.5c4 0 7.5 -1.16699 10.5 -3.5
s4.5 -5.83301 4.5 -10.5v-447c0 -11.333 4 -21 12 -29s17.667 -12.667 29 -14c9.33301 0 14 -4 14 -12z" />
    <glyph glyph-name="paragraph" unicode="&#xb6;" horiz-adv-x="661" 
d="M570 -196c0 -4.66699 -1.5 -8.33398 -4.5 -11.001s-6.5 -4 -10.5 -4c-3.33301 0 -6.33301 1.33301 -9 4s-4 6.33398 -4 11.001v895c0 4.66699 1.33301 8.33398 4 11.001s5.66699 4 9 4c4 0 7.5 -1.33301 10.5 -4s4.5 -6.33398 4.5 -11.001v-895v0zM456 -196
c0 -4.66699 -1.5 -8.33398 -4.5 -11.001s-6.5 -4 -10.5 -4c-3.33301 0 -6.5 1.33301 -9.5 4s-4.5 6.33398 -4.5 11.001v504h-157c-28 0 -54.333 5.33301 -79 16s-46 25 -64 43s-32.333 39.333 -43 64s-16 51 -16 79s5.33301 54.333 16 79s25 46 43 64s39.333 32.333 64 43
s51 16 79 16h172c9.33301 0 14 -4.33301 14 -13v-895v0zM427 684h-156c-24 0 -46.667 -4.5 -68 -13.5s-39.833 -21.333 -55.5 -37s-28 -34 -37 -55s-13.5 -43.5 -13.5 -67.5s4.5 -46.667 13.5 -68s21.333 -40 37 -56s34.167 -28.5 55.5 -37.5s44 -13.5 68 -13.5h156v348z
" />
    <glyph glyph-name="periodcentered" unicode="&#xb7;" horiz-adv-x="268" 
d="M177 341c0 -12 -4.16699 -22.167 -12.5 -30.5s-18.166 -12.5 -29.499 -12.5c-12 0 -22.333 4.16699 -31 12.5s-13 18.166 -13 29.499c0 12 4.16699 22.167 12.5 30.5s18.166 12.5 29.499 12.5c12 0 22.333 -4.16699 31 -12.5s13 -18.166 13 -29.499z" />
    <glyph glyph-name="cedilla" unicode="&#xb8;" 
d="M430 -128c0 -14 -2.66797 -27.1689 -8.00098 -39.502s-12.5 -23 -21.5 -32s-19.667 -16 -32 -21s-25.5 -7.5 -39.5 -7.5c-5.33301 0 -12.166 0.833008 -20.499 2.5s-16.5 4.33398 -24.5 8.00098s-14.833 7.83398 -20.5 12.501s-8.5 10 -8.5 16c0 4 1.33301 7.5 4 10.5
s5.66699 4.5 9 4.5c4 0 7.66699 -1.66699 11 -5c13.333 -13.333 30 -20 50 -20s37 6.83301 51 20.5s21 30.5 21 50.5s-7 37 -21 51s-31 21 -51 21c-2 0 -4.66699 1.16699 -8 3.5s-5 5.83301 -5 10.5v42c0 4.66699 1.5 8.33398 4.5 11.001s5.83301 4 8.5 4
c4 0 7.5 -1.33301 10.5 -4s4.5 -6.33398 4.5 -11.001v-28c24.667 -4 45.167 -15.333 61.5 -34s24.5 -40.667 24.5 -66z" />
    <glyph glyph-name="onesuperior" unicode="&#xb9;" horiz-adv-x="291" 
d="M170 367c0 -10 -4.66699 -15.001 -14 -15.001c-10 0 -15 5 -15 15v295l-50 -48c-2 -2 -5 -3 -9 -3s-7.5 1.33301 -10.5 4s-4.5 5.66699 -4.5 9c0 4.66699 1.66699 8.33398 5 11.001l74 72c4.66699 4.66699 8.66699 7 12 7c8 0 12 -5.66699 12 -17v-330v0z" />
    <glyph glyph-name="ordmasculine" unicode="&#xba;" horiz-adv-x="468" 
d="M400 538c0 -24.667 -3.66699 -48.5 -11 -71.5s-18 -43.333 -32 -61s-31.333 -31.834 -52 -42.501s-44.334 -16 -71.001 -16s-50.334 5.33301 -71.001 16s-38 24.834 -52 42.501s-24.667 38 -32 61s-11 46.833 -11 71.5s3.66699 48.5 11 71.5s18 43.5 32 61.5
s31.333 32.333 52 43s44.334 16 71.001 16s50.334 -5.33301 71.001 -16s38 -25 52 -43s24.667 -38.5 32 -61.5s11 -46.833 11 -71.5zM372 538c0 22.667 -3.16699 44 -9.5 64s-15.5 37.333 -27.5 52s-26.5 26.167 -43.5 34.5s-36.167 12.5 -57.5 12.5
c-22 0 -41.5 -4.16699 -58.5 -12.5s-31.333 -19.833 -43 -34.5s-20.5 -32 -26.5 -52s-9 -41.333 -9 -64s3 -44 9 -64s14.833 -37.333 26.5 -52s26 -26.167 43 -34.5s36.5 -12.5 58.5 -12.5c21.333 0 40.5 4.16699 57.5 12.5s31.5 19.833 43.5 34.5s21.167 32 27.5 52
s9.5 41.333 9.5 64z" />
    <glyph glyph-name="guillemotright" unicode="&#xbb;" horiz-adv-x="570" 
d="M506 319c0 -4 -1.33301 -7.33301 -4 -10l-198 -196c-2.66699 -3.33301 -6 -5 -10 -5s-7.5 1.5 -10.5 4.5s-4.5 6.5 -4.5 10.5s1.66699 7.33301 5 10l187 186l-187 187c-2 2 -3.16699 3.83301 -3.5 5.5s-0.5 3.16699 -0.5 4.5c0 4 1.5 7.66699 4.5 11s6.5 5 10.5 5
c2.66699 0 5.66699 -1.66699 9 -5l198 -198c2.66699 -2.66699 4 -6 4 -10zM301 319c0 -3.33301 -2 -6.66699 -6 -10l-196 -196c-2.66699 -3.33301 -6 -5 -10 -5s-7.5 1.5 -10.5 4.5s-4.5 6.5 -4.5 10.5s1.66699 7.33301 5 10l187 186l-187 187
c-2 2 -3.16699 3.83301 -3.5 5.5s-0.5 3.16699 -0.5 4.5c0 4 1.5 7.66699 4.5 11s6.5 5 10.5 5c2.66699 0 5.66699 -1.66699 9 -5l196 -198c4 -2.66699 6 -6 6 -10z" />
    <glyph glyph-name="onequarter" unicode="&#xbc;" horiz-adv-x="687" 
d="M624 80c0 -3.33301 -1.16797 -6.50098 -3.50098 -9.50098s-5.83301 -4.5 -10.5 -4.5h-40v-52c0 -4.66699 -1.5 -8.33398 -4.5 -11.001s-6.5 -4 -10.5 -4c-3.33301 0 -6.33301 1.33301 -9 4s-4 6.33398 -4 11.001v52h-144c-4 0 -7.66699 1 -11 3s-5 5.66699 -5 11
c0 2.66699 0.666992 6 2 10l145 277c2.66699 5.33301 7 8 13 8c3.33301 0 6.5 -1.33301 9.5 -4s4.5 -6 4.5 -10c0 -1.33301 -0.666992 -4 -2 -8l-134 -258h122v78c0 4.66699 1.33301 8.33398 4 11.001s5.66699 4 9 4c4 0 7.5 -1 10.5 -3s4.5 -5.66699 4.5 -11v-79h39
c4.66699 0 8.33398 -1.5 11.001 -4.5s4 -6.5 4 -10.5zM438.999 715.999c0 -1.33301 -0.333984 -2.99902 -1.00098 -4.99902l-200 -718c-2 -6.66699 -6.33301 -10 -13 -10c-3.33301 0 -6.66602 1 -9.99902 3s-5 5.66699 -5 11c0 1.33301 0.333008 2.66602 1 3.99902l199 718
c3.33301 7.33301 8 11 14 11c4 0 7.5 -1.16699 10.5 -3.5s4.5 -5.83301 4.5 -10.5zM169.998 367c0 -10 -4.66699 -15.001 -14 -15.001c-10 0 -15 5 -15 15v295l-50 -48c-2 -2 -5 -3 -9 -3s-7.5 1.33301 -10.5 4s-4.5 5.66699 -4.5 9c0 4.66699 1.66699 8.33398 5 11.001
l74 72c4.66699 4.66699 8.66699 7 12 7c8 0 12 -5.66699 12 -17v-330v0z" />
    <glyph glyph-name="onehalf" unicode="&#xbd;" horiz-adv-x="701" 
d="M640 14c0 -3.33301 -1.16797 -6.50195 -3.50098 -9.50195s-5.83301 -4.5 -10.5 -4.5h-179c-4.66699 0 -8.66699 1.16699 -12 3.5s-5 5.83301 -5 10.5s1.33301 8.33398 4 11.001l159 212c8 12 12 24.333 12 37c0 16.667 -6 31.834 -18 45.501s-28 20.5 -48 20.5
c-12 0 -22.333 -2.83301 -31 -8.5s-16 -11.667 -22 -18s-11.167 -12.333 -15.5 -18s-8.5 -8.5 -12.5 -8.5s-7.5 1.33301 -10.5 4s-4.5 6 -4.5 10c0 2.66699 2.33301 7.66699 7 15s11.167 14.833 19.5 22.5s18.333 14.5 30 20.5s24.834 9 39.501 9
c14 0 26.833 -2.66699 38.5 -8s21.667 -12.5 30 -21.5s14.833 -19.333 19.5 -31s7 -23.5 7 -35.5c0 -18.667 -6 -36 -18 -52l-143 -192h153c9.33301 0 14 -4.66699 14 -14zM438.999 715.998c0 -1.33301 -0.333984 -2.99902 -1.00098 -4.99902l-200 -718
c-2 -6.66699 -6.33301 -10 -13 -10c-3.33301 0 -6.66602 1 -9.99902 3s-5 5.66699 -5 11c0 1.33301 0.333008 2.66602 1 3.99902l199 718c3.33301 7.33301 8 11 14 11c4 0 7.5 -1.16699 10.5 -3.5s4.5 -5.83301 4.5 -10.5zM169.998 366.999
c0 -4.66699 -1.5 -8.33496 -4.5 -11.002s-6.5 -4 -10.5 -4c-3.33301 0 -6.5 1.33301 -9.5 4s-4.5 6.33398 -4.5 11.001v295l-50 -48c-2 -2 -5 -3 -9 -3s-7.5 1.33301 -10.5 4s-4.5 5.66699 -4.5 9c0 4.66699 1.66699 8.33398 5 11.001l74 72c4.66699 4.66699 8.66699 7 12 7
c8 0 12 -5.66699 12 -17v-330v0z" />
    <glyph glyph-name="threequarters" unicode="&#xbe;" horiz-adv-x="731" 
d="M668 80c0 -3.33301 -1.16504 -6.50195 -3.49805 -9.50195s-5.83301 -4.5 -10.5 -4.5h-40v-52c0 -10 -4.66699 -15 -14 -15c-3.33301 0 -6.5 1.33301 -9.5 4s-4.5 6.33398 -4.5 11.001v52h-144c-4 0 -7.66699 1 -11 3s-5 5.66699 -5 11c0 1.33301 0.166992 3 0.5 5
s1.16602 3.66699 2.49902 5l144 277c3.33301 5.33301 7.66602 8 12.999 8c3.33301 0 6.66602 -1.33301 9.99902 -4s5 -6 5 -10c0 -1.33301 -0.666992 -4 -2 -8l-135 -258h122v78c0 4.66699 1.5 8.33398 4.5 11.001s6.16699 4 9.5 4c9.33301 0 14 -4.66699 14 -14v-79h39
c4.66699 0 8.33398 -1.5 11.001 -4.5s4 -6.5 4 -10.5zM483.002 715.998c0 -1.33301 -0.333008 -2.99902 -1 -4.99902l-199 -718c-2.66699 -6.66699 -7.33398 -10 -14.001 -10c-3.33301 0 -6.66602 1 -9.99902 3s-5 5.66699 -5 11c0 1.33301 0.333008 2.66602 1 3.99902
l200 718c2 7.33301 6.66699 11 14 11c9.33301 0 14 -4.66699 14 -14zM271.002 452.999c0 -15.333 -2.83203 -29.667 -8.49902 -43s-13.5 -25 -23.5 -35s-21.5 -17.833 -34.5 -23.5s-27.167 -8.5 -42.5 -8.5c-22.667 0 -42.667 5.83301 -60 17.5s-30.333 27.167 -39 46.5
l-2 4c-0.666992 1.33301 -1 2.66602 -1 3.99902c0 3.33301 1.5 6.16602 4.5 8.49902s6.5 3.5 10.5 3.5c5.33301 0 9.66602 -3 12.999 -9c6.66699 -13.333 16.5 -24.333 29.5 -33s27.833 -13 44.5 -13c22 0 41 7.83301 57 23.5s24 34.834 24 57.501s-8 41.834 -24 57.501
s-35 23.5 -57 23.5c-10 0 -15 4.66699 -15 14s5 14 15 14c20 0 36.5 6.83301 49.5 20.5s19.5 30.167 19.5 49.5s-6.5 35.666 -19.5 48.999s-29.5 20 -49.5 20c-13.333 0 -24.666 -2.83301 -33.999 -8.5s-17.333 -12 -24 -19s-12.334 -13.333 -17.001 -19
s-8.66699 -8.5 -12 -8.5c-4 0 -7.66699 1.33301 -11 4s-5 6 -5 10c0 2.66699 2.5 7.83398 7.5 15.501s12 15.5 21 23.5s19.833 15.167 32.5 21.5s26.667 9.5 42 9.5c13.333 0 25.833 -2.5 37.5 -7.5s22 -12 31 -21s16.167 -19.5 21.5 -31.5s8 -24.667 8 -38
c0 -18 -4.16699 -34 -12.5 -48s-19.5 -25.667 -33.5 -35c18 -9.33301 32 -22.333 42 -39s15 -35.667 15 -57z" />
    <glyph glyph-name="questiondown" unicode="&#xbf;" horiz-adv-x="531" 
d="M59 214c0 28.667 5.16699 55.499 15.5 80.499s24.5 47 42.5 66s39.167 34.5 63.5 46.5s50.5 19 78.5 21v89c0 10 4.66699 15 14 15c3.33301 0 6.5 -1.33301 9.5 -4s4.5 -6.33398 4.5 -11.001v-103c0 -5.33301 -1.66699 -9.16602 -5 -11.499s-6.66602 -3.5 -9.99902 -3.5
c-24.667 0 -48.167 -4.83301 -70.5 -14.5s-42 -23 -59 -40s-30.333 -36.5 -40 -58.5s-14.5 -45.667 -14.5 -71c0 -26 4.83301 -50.167 14.5 -72.5s23 -42 40 -59s36.667 -30.333 59 -40s45.833 -14.5 70.5 -14.5c21.333 0 41 3.83301 59 11.5s33.833 16.834 47.5 27.501
s25.5 22 35.5 34s17.667 22.333 23 31c2 4 5.66699 6 11 6c4 0 7.5 -1.16699 10.5 -3.5s4.5 -5.5 4.5 -9.5c0 -3.33301 -1 -6 -3 -8c-6 -9.33301 -14.167 -20.666 -24.5 -33.999s-23.333 -26.333 -39 -39s-33.834 -23.334 -54.501 -32.001s-44 -13 -70 -13
c-29.333 0 -57 5.5 -83 16.5s-48.667 26.167 -68 45.5s-34.5 42 -45.5 68s-16.5 54 -16.5 84zM228 686.999c0 12 4 22.166 12 30.499s18 12.5 30 12.5s22.167 -4.16699 30.5 -12.5s12.5 -18.166 12.5 -29.499c0 -12 -4.16699 -22.167 -12.5 -30.5s-18.5 -12.5 -30.5 -12.5
s-22 4 -30 12s-12 18 -12 30z" />
    <glyph glyph-name="Agrave" unicode="&#xc0;" horiz-adv-x="671" 
d="M633 15c0 -4.66699 -1.66797 -8.5 -5.00098 -11.5s-7 -4.5 -11 -4.5c-4.66699 0 -8.66699 3 -12 9l-73 177h-392l-73 -176c-2 -6 -5.66699 -9 -11 -9c-4 0 -7.66699 1.5 -11 4.5s-5 6.83301 -5 11.5c0 1.33301 0.333008 3 1 5l282 680c2.66699 7.33301 7 11 13 11
c6.66699 0 11.334 -3.66699 14.001 -11l282 -682c0.666992 -0.666992 1 -2 1 -4zM335.999 661l-184 -448h369zM426.999 864c0 -4 -1.5 -7.50098 -4.5 -10.501s-6.5 -4.5 -10.5 -4.5c-2 0 -3.83301 0.5 -5.5 1.5s-3.5 2.16699 -5.5 3.5l-148 137c-5.33301 4 -8 10 -8 18
c0 5.33301 2.33301 10.333 7 15s10 7 16 7c7.33301 0 13 -2.66699 17 -8l137 -149c3.33301 -3.33301 5 -6.66602 5 -9.99902z" />
    <glyph glyph-name="Aacute" unicode="&#xc1;" horiz-adv-x="671" 
d="M633 15c0 -4.66699 -1.66797 -8.5 -5.00098 -11.5s-7 -4.5 -11 -4.5c-4.66699 0 -8.66699 3 -12 9l-73 177h-392l-73 -176c-2 -6 -5.66699 -9 -11 -9c-4 0 -7.66699 1.5 -11 4.5s-5 6.83301 -5 11.5c0 1.33301 0.333008 3 1 5l282 680c2.66699 7.33301 7 11 13 11
c6.66699 0 11.334 -3.66699 14.001 -11l282 -682c0.666992 -0.666992 1 -2 1 -4zM335.999 661l-184 -448h369zM425.999 1009c0 -8 -2.99902 -13.999 -8.99902 -17.999l-148 -137c-1.33301 -1.33301 -3 -2.5 -5 -3.5s-3.66699 -1.5 -5 -1.5c-4 0 -7.5 1.5 -10.5 4.5
s-4.5 6.5 -4.5 10.5c0 3.33301 1.66699 6.66602 5 9.99902l136 149c5.33301 5.33301 11.666 8 18.999 8c4.66699 0 10 -2.33301 16 -7c4 -4.66699 6 -9.66699 6 -15z" />
    <glyph glyph-name="Acircumflex" unicode="&#xc2;" horiz-adv-x="671" 
d="M633 15c0 -4.66699 -1.66797 -8.5 -5.00098 -11.5s-7 -4.5 -11 -4.5c-4.66699 0 -8.66699 3 -12 9l-73 177h-392l-73 -176c-2 -6 -5.66699 -9 -11 -9c-4 0 -7.66699 1.5 -11 4.5s-5 6.83301 -5 11.5c0 1.33301 0.333008 3 1 5l282 680c2.66699 7.33301 7 11 13 11
c6.66699 0 11.334 -3.66699 14.001 -11l282 -682c0.666992 -0.666992 1 -2 1 -4zM335.999 661l-184 -448h369zM476.999 864c0 -4 -1.49902 -7.5 -4.49902 -10.5s-6.16699 -4.5 -9.5 -4.5c-4 0 -7.33301 1.66699 -10 5l-116 98l-117 -98c-2.66699 -3.33301 -6 -5 -10 -5
s-7.5 1.5 -10.5 4.5s-4.5 6.5 -4.5 10.5s2 8 6 12l126 114c3.33301 2 6.66602 3 9.99902 3c2 0 5 -1 9 -3l126 -114c3.33301 -3.33301 5 -7.33301 5 -12z" />
    <glyph glyph-name="Atilde" unicode="&#xc3;" horiz-adv-x="671" 
d="M633 15c0 -4.66699 -1.66797 -8.5 -5.00098 -11.5s-7 -4.5 -11 -4.5c-4.66699 0 -8.66699 3 -12 9l-73 177h-392l-73 -176c-2 -6 -5.66699 -9 -11 -9c-4 0 -7.66699 1.5 -11 4.5s-5 6.83301 -5 11.5c0 1.33301 0.333008 3 1 5l282 680c2.66699 7.33301 7 11 13 11
c6.66699 0 11.334 -3.66699 14.001 -11l282 -682c0.666992 -0.666992 1 -2 1 -4zM335.999 661l-184 -448h369zM518.999 912c0 -1.33301 -0.165039 -2.83398 -0.498047 -4.50098s-1.16602 -3.16699 -2.49902 -4.5c-15.333 -15.333 -30.833 -28.166 -46.5 -38.499
s-34.834 -15.5 -57.501 -15.5c-14.667 0 -29.334 3.16699 -44.001 9.5s-29 16.166 -43 29.499c-11.333 11.333 -23 19.5 -35 24.5s-23.667 7.5 -35 7.5c-16 0 -30.833 -4.5 -44.5 -13.5s-25.167 -19.167 -34.5 -30.5c-2.66699 -4 -6 -6 -10 -6
c-3.33301 0 -6.83301 1.66699 -10.5 5s-5.5 7 -5.5 11c0 2.66699 1 5 3 7l5 5c29.333 33.333 62.333 50 99 50c15.333 0 30.5 -3.16699 45.5 -9.5s29.167 -16.166 42.5 -29.499c12 -12 23.833 -20.333 35.5 -25s22.5 -7 32.5 -7c11.333 0 21.833 2.16699 31.5 6.5
s18 9.16602 25 14.499s12.5 10.333 16.5 15s6.33301 7.33398 7 8.00098c4 4 7.66699 6 11 6s6.66602 -1.5 9.99902 -4.5s5 -6.5 5 -10.5z" />
    <glyph glyph-name="Adieresis" unicode="&#xc4;" horiz-adv-x="671" 
d="M633 15c0 -4.66699 -1.66797 -8.5 -5.00098 -11.5s-7 -4.5 -11 -4.5c-4.66699 0 -8.66699 3 -12 9l-73 177h-392l-73 -176c-2 -6 -5.66699 -9 -11 -9c-4 0 -7.66699 1.5 -11 4.5s-5 6.83301 -5 11.5c0 1.33301 0.333008 3 1 5l282 680c2.66699 7.33301 7 11 13 11
c6.66699 0 11.334 -3.66699 14.001 -11l282 -682c0.666992 -0.666992 1 -2 1 -4zM335.999 661l-184 -448h369zM477.999 878c0 -8.66699 -2.66699 -15.667 -8 -21s-12.333 -8 -21 -8s-15.5 2.66699 -20.5 8s-7.5 12.333 -7.5 21c0 18.667 9.33301 28 28 28
c8.66699 0 15.667 -2.5 21 -7.5s8 -11.833 8 -20.5zM249.999 878c0 -8.66699 -2.66699 -15.667 -8 -21s-12.333 -8 -21 -8s-15.5 2.66699 -20.5 8s-7.5 12.333 -7.5 21c0 18.667 9.33301 28 28 28c8.66699 0 15.667 -2.5 21 -7.5s8 -11.833 8 -20.5z" />
    <glyph glyph-name="Aring" unicode="&#xc5;" horiz-adv-x="671" 
d="M450 798c0 -28 -8.83398 -52.5 -26.501 -73.5s-40.167 -34.167 -67.5 -39.5l276 -666c0.666992 -0.666992 1 -2 1 -4c0 -4.66699 -1.66699 -8.5 -5 -11.5s-7 -4.5 -11 -4.5c-4.66699 0 -8.66699 3 -12 9l-73 177h-392l-73 -176c-2 -6 -5.66699 -9 -11 -9
c-4 0 -7.66699 1.5 -11 4.5s-5 6.83301 -5 11.5c0 1.33301 0.333008 3 1 5l275 663c-27.333 4.66699 -50.166 17.667 -68.499 39s-27.5 46 -27.5 74c0 16 3 31 9 45s14.167 26.167 24.5 36.5s22.5 18.5 36.5 24.5s29 9 45 9s31 -3 45 -9s26.167 -14.167 36.5 -24.5
s18.5 -22.333 24.5 -36s9 -28.5 9 -44.5zM335.999 661l-184 -448h369zM420.999 797c0 24.667 -8.16797 45.334 -24.501 62.001s-36.833 25 -61.5 25c-12 0 -23.333 -2.33301 -34 -7s-20 -10.834 -28 -18.501s-14.167 -16.667 -18.5 -27s-6.5 -21.5 -6.5 -33.5
c0 -24.667 8.33301 -45.167 25 -61.5s37.334 -24.5 62.001 -24.5c25.333 0 46 8.16699 62 24.5s24 36.5 24 60.5z" />
    <glyph glyph-name="AE" unicode="&#xc6;" horiz-adv-x="855" 
d="M787 15c0 -4 -1.33398 -7.50098 -4.00098 -10.501s-6.33398 -4.5 -11.001 -4.5h-313c-9.33301 0 -14 5 -14 15v157h-282l-89 -164c-2.66699 -5.33301 -6.66699 -8 -12 -8c-3.33301 0 -6.66602 1.33301 -9.99902 4s-5 6.33398 -5 11.001c0 0.666992 0.666992 3 2 7
l371 684c3.33301 5.33301 7.33301 8 12 8h340c4.66699 0 8.33398 -1.5 11.001 -4.5s4 -6.5 4 -10.5c0 -3.33301 -1.33301 -6.5 -4 -9.5s-6.33398 -4.5 -11.001 -4.5h-299v-287h188c4.66699 0 8.33398 -1.5 11.001 -4.5s4 -6.5 4 -10.5c0 -3.33301 -1.33301 -6.5 -4 -9.5
s-6.33398 -4.5 -11.001 -4.5h-188v-339h299c4.66699 0 8.33398 -1.5 11.001 -4.5s4 -6.5 4 -10.5zM444.999 692.999l-267 -494h267v494z" />
    <glyph glyph-name="Ccedilla" unicode="&#xc7;" horiz-adv-x="651" 
d="M465 -128c0 -14 -2.66895 -27.167 -8.00195 -39.5s-12.5 -23 -21.5 -32s-19.667 -16 -32 -21s-25.5 -7.5 -39.5 -7.5c-5.33301 0 -12.166 0.833008 -20.499 2.5s-16.5 4.33398 -24.5 8.00098s-14.833 7.83398 -20.5 12.501s-8.5 10 -8.5 16c0 4 1.33301 7.5 4 10.5
s5.66699 4.5 9 4.5c4 0 7.66699 -1.66699 11 -5c13.333 -13.333 30 -20 50 -20s37 6.83301 51 20.5s21 30.5 21 50.5s-7 37 -21 51s-31 21 -51 21c-2 0 -4.66699 1.16699 -8 3.5s-5 5.83301 -5 10.5v25c-51.333 2 -94.666 13.5 -129.999 34.5s-64 48.667 -86 83
s-37.833 73.666 -47.5 117.999s-14.5 90.166 -14.5 137.499c0 49.333 5.16699 96.5 15.5 141.5s27 84.667 50 119s53 61.833 90 82.5s82.5 31 136.5 31c50.667 0 94.334 -9.5 131.001 -28.5s67.334 -45.833 92.001 -80.5c2 -1.33301 3 -4 3 -8s-1.5 -7.33301 -4.5 -10
s-6.16699 -4 -9.5 -4c-4.66699 0 -9 2 -13 6c-21.333 30 -48 53.5 -80 70.5s-71.667 25.5 -119 25.5c-48 0 -88.667 -9 -122 -27s-60.5 -42.667 -81.5 -74s-36.333 -67.833 -46 -109.5s-14.5 -86.5 -14.5 -134.5s4.83301 -93 14.5 -135s25 -78.667 46 -110
s48.167 -56 81.5 -74s74 -27 122 -27c47.333 0 87.166 8.83301 119.499 26.5s59.166 41.5 80.499 71.5c4 4.66699 8 7 12 7c3.33301 0 6.66602 -1.5 9.99902 -4.5s5 -6.5 5 -10.5c0 -3.33301 -1 -6 -3 -8c-23.333 -32.667 -52.166 -58.667 -86.499 -78s-75.5 -30 -123.5 -32
v-10c24.667 -4 45.167 -15.333 61.5 -34s24.5 -40.667 24.5 -66z" />
    <glyph glyph-name="Egrave" unicode="&#xc8;" horiz-adv-x="649" 
d="M593 15c0 -4 -1.33301 -7.5 -4 -10.5s-6.33398 -4.5 -11.001 -4.5h-473c-10 0 -15 5 -15 15v685c0 4.66699 1.5 8.16699 4.5 10.5s6.5 3.5 10.5 3.5h473c4.66699 0 8.33398 -1.5 11.001 -4.5s4 -6.5 4 -10.5c0 -3.33301 -1.33301 -6.5 -4 -9.5
s-6.33398 -4.5 -11.001 -4.5h-459v-287h348c5.33301 0 9.16602 -1.5 11.499 -4.5s3.5 -6.5 3.5 -10.5c0 -3.33301 -1.16699 -6.5 -3.5 -9.5s-6.16602 -4.5 -11.499 -4.5h-348v-339h459c4.66699 0 8.33398 -1.5 11.001 -4.5s4 -6.5 4 -10.5zM415 864
c0 -4 -1.5 -7.50098 -4.5 -10.501s-6.5 -4.5 -10.5 -4.5c-2 0 -3.83301 0.5 -5.5 1.5s-3.5 2.16699 -5.5 3.5l-148 137c-5.33301 4 -8 10 -8 18c0 5.33301 2.33301 10.333 7 15s10 7 16 7c7.33301 0 13 -2.66699 17 -8l137 -149c3.33301 -3.33301 5 -6.66602 5 -9.99902z
" />
    <glyph glyph-name="Eacute" unicode="&#xc9;" horiz-adv-x="649" 
d="M593 15c0 -4 -1.33301 -7.5 -4 -10.5s-6.33398 -4.5 -11.001 -4.5h-473c-10 0 -15 5 -15 15v685c0 4.66699 1.5 8.16699 4.5 10.5s6.5 3.5 10.5 3.5h473c4.66699 0 8.33398 -1.5 11.001 -4.5s4 -6.5 4 -10.5c0 -3.33301 -1.33301 -6.5 -4 -9.5
s-6.33398 -4.5 -11.001 -4.5h-459v-287h348c5.33301 0 9.16602 -1.5 11.499 -4.5s3.5 -6.5 3.5 -10.5c0 -3.33301 -1.16699 -6.5 -3.5 -9.5s-6.16602 -4.5 -11.499 -4.5h-348v-339h459c4.66699 0 8.33398 -1.5 11.001 -4.5s4 -6.5 4 -10.5zM415 1009
c0 -8 -2.99902 -13.999 -8.99902 -17.999l-148 -137c-1.33301 -1.33301 -3 -2.5 -5 -3.5s-3.66699 -1.5 -5 -1.5c-4 0 -7.5 1.5 -10.5 4.5s-4.5 6.5 -4.5 10.5c0 3.33301 1.66699 6.66602 5 9.99902l136 149c5.33301 5.33301 11.666 8 18.999 8c4.66699 0 10 -2.33301 16 -7
c4 -4.66699 6 -9.66699 6 -15z" />
    <glyph glyph-name="Ecircumflex" unicode="&#xca;" horiz-adv-x="649" 
d="M593 15c0 -4 -1.33301 -7.5 -4 -10.5s-6.33398 -4.5 -11.001 -4.5h-473c-10 0 -15 5 -15 15v685c0 4.66699 1.5 8.16699 4.5 10.5s6.5 3.5 10.5 3.5h473c4.66699 0 8.33398 -1.5 11.001 -4.5s4 -6.5 4 -10.5c0 -3.33301 -1.33301 -6.5 -4 -9.5
s-6.33398 -4.5 -11.001 -4.5h-459v-287h348c5.33301 0 9.16602 -1.5 11.499 -4.5s3.5 -6.5 3.5 -10.5c0 -3.33301 -1.16699 -6.5 -3.5 -9.5s-6.16602 -4.5 -11.499 -4.5h-348v-339h459c4.66699 0 8.33398 -1.5 11.001 -4.5s4 -6.5 4 -10.5zM465 864
c0 -4 -1.49902 -7.5 -4.49902 -10.5s-6.16699 -4.5 -9.5 -4.5c-4 0 -7.33301 1.66699 -10 5l-116 98l-117 -98c-2.66699 -3.33301 -6 -5 -10 -5s-7.5 1.5 -10.5 4.5s-4.5 6.5 -4.5 10.5s2 8 6 12l126 114c3.33301 2 6.66602 3 9.99902 3c2 0 5 -1 9 -3l126 -114
c3.33301 -3.33301 5 -7.33301 5 -12z" />
    <glyph glyph-name="Edieresis" unicode="&#xcb;" horiz-adv-x="649" 
d="M593 15c0 -4 -1.33301 -7.5 -4 -10.5s-6.33398 -4.5 -11.001 -4.5h-473c-10 0 -15 5 -15 15v685c0 4.66699 1.5 8.16699 4.5 10.5s6.5 3.5 10.5 3.5h473c4.66699 0 8.33398 -1.5 11.001 -4.5s4 -6.5 4 -10.5c0 -3.33301 -1.33301 -6.5 -4 -9.5
s-6.33398 -4.5 -11.001 -4.5h-459v-287h348c5.33301 0 9.16602 -1.5 11.499 -4.5s3.5 -6.5 3.5 -10.5c0 -3.33301 -1.16699 -6.5 -3.5 -9.5s-6.16602 -4.5 -11.499 -4.5h-348v-339h459c4.66699 0 8.33398 -1.5 11.001 -4.5s4 -6.5 4 -10.5zM467 878
c0 -8.66699 -2.66699 -15.667 -8 -21s-12.333 -8 -21 -8s-15.5 2.66699 -20.5 8s-7.5 12.333 -7.5 21c0 18.667 9.33301 28 28 28c8.66699 0 15.667 -2.5 21 -7.5s8 -11.833 8 -20.5zM239 878c0 -8.66699 -2.66699 -15.667 -8 -21s-12.333 -8 -21 -8s-15.5 2.66699 -20.5 8
s-7.5 12.333 -7.5 21c0 18.667 9.33301 28 28 28c8.66699 0 15.667 -2.5 21 -7.5s8 -11.833 8 -20.5z" />
    <glyph glyph-name="Igrave" unicode="&#xcc;" horiz-adv-x="272" 
d="M222 14c0 -3.33301 -1.16797 -6.5 -3.50098 -9.5s-6.16602 -4.5 -11.499 -4.5h-143c-4.66699 -0 -8.16699 1.33301 -10.5 4s-3.5 5.66699 -3.5 9c0 9.33301 4.66699 14 14 14h58v657h-58c-4.66699 0 -8.16699 1.5 -10.5 4.5s-3.5 6.5 -3.5 10.5s1.16699 7.5 3.5 10.5
s5.83301 4.5 10.5 4.5h143c5.33301 0 9.16602 -1.5 11.499 -4.5s3.5 -6.5 3.5 -10.5c0 -3.33301 -1.16699 -6.5 -3.5 -9.5s-6.16602 -4.5 -11.499 -4.5h-57v-657h57c10 0 15 -4.66699 15 -14zM226.999 864c0 -4 -1.5 -7.50098 -4.5 -10.501s-6.5 -4.5 -10.5 -4.5
c-2 0 -3.83301 0.5 -5.5 1.5s-3.5 2.16699 -5.5 3.5l-148 137c-5.33301 4 -8 10 -8 18c0 5.33301 2.33301 10.333 7 15s10 7 16 7c7.33301 0 13 -2.66699 17 -8l137 -149c3.33301 -3.33301 5 -6.66602 5 -9.99902z" />
    <glyph glyph-name="Iacute" unicode="&#xcd;" horiz-adv-x="272" 
d="M222 14c0 -3.33301 -1.16797 -6.5 -3.50098 -9.5s-6.16602 -4.5 -11.499 -4.5h-143c-4.66699 -0 -8.16699 1.33301 -10.5 4s-3.5 5.66699 -3.5 9c0 9.33301 4.66699 14 14 14h58v657h-58c-4.66699 0 -8.16699 1.5 -10.5 4.5s-3.5 6.5 -3.5 10.5s1.16699 7.5 3.5 10.5
s5.83301 4.5 10.5 4.5h143c5.33301 0 9.16602 -1.5 11.499 -4.5s3.5 -6.5 3.5 -10.5c0 -3.33301 -1.16699 -6.5 -3.5 -9.5s-6.16602 -4.5 -11.499 -4.5h-57v-657h57c10 0 15 -4.66699 15 -14zM227.999 1009c0 -8 -2.99902 -13.999 -8.99902 -17.999l-148 -137
c-1.33301 -1.33301 -3 -2.5 -5 -3.5s-3.66699 -1.5 -5 -1.5c-4 0 -7.5 1.5 -10.5 4.5s-4.5 6.5 -4.5 10.5c0 3.33301 1.66699 6.66602 5 9.99902l136 149c5.33301 5.33301 11.666 8 18.999 8c4.66699 0 10 -2.33301 16 -7c4 -4.66699 6 -9.66699 6 -15z" />
    <glyph glyph-name="Icircumflex" unicode="&#xce;" horiz-adv-x="272" 
d="M222 14c0 -3.33301 -1.16797 -6.5 -3.50098 -9.5s-6.16602 -4.5 -11.499 -4.5h-143c-4.66699 -0 -8.16699 1.33301 -10.5 4s-3.5 5.66699 -3.5 9c0 9.33301 4.66699 14 14 14h58v657h-58c-4.66699 0 -8.16699 1.5 -10.5 4.5s-3.5 6.5 -3.5 10.5s1.16699 7.5 3.5 10.5
s5.83301 4.5 10.5 4.5h143c5.33301 0 9.16602 -1.5 11.499 -4.5s3.5 -6.5 3.5 -10.5c0 -3.33301 -1.16699 -6.5 -3.5 -9.5s-6.16602 -4.5 -11.499 -4.5h-57v-657h57c10 0 15 -4.66699 15 -14zM276.999 864c0 -4 -1.49902 -7.5 -4.49902 -10.5s-6.16699 -4.5 -9.5 -4.5
c-4 0 -7.33301 1.66699 -10 5l-116 98l-117 -98c-2.66699 -3.33301 -6 -5 -10 -5s-7.5 1.5 -10.5 4.5s-4.5 6.5 -4.5 10.5s2 8 6 12l126 114c3.33301 2 6.66602 3 9.99902 3c2 0 5 -1 9 -3l126 -114c3.33301 -3.33301 5 -7.33301 5 -12z" />
    <glyph glyph-name="Idieresis" unicode="&#xcf;" horiz-adv-x="272" 
d="M222 14c0 -3.33301 -1.16797 -6.5 -3.50098 -9.5s-6.16602 -4.5 -11.499 -4.5h-143c-4.66699 -0 -8.16699 1.33301 -10.5 4s-3.5 5.66699 -3.5 9c0 9.33301 4.66699 14 14 14h58v657h-58c-4.66699 0 -8.16699 1.5 -10.5 4.5s-3.5 6.5 -3.5 10.5s1.16699 7.5 3.5 10.5
s5.83301 4.5 10.5 4.5h143c5.33301 0 9.16602 -1.5 11.499 -4.5s3.5 -6.5 3.5 -10.5c0 -3.33301 -1.16699 -6.5 -3.5 -9.5s-6.16602 -4.5 -11.499 -4.5h-57v-657h57c10 0 15 -4.66699 15 -14zM279.999 878c0 -8.66699 -2.66699 -15.667 -8 -21s-12.333 -8 -21 -8
s-15.5 2.66699 -20.5 8s-7.5 12.333 -7.5 21c0 18.667 9.33301 28 28 28c8.66699 0 15.667 -2.5 21 -7.5s8 -11.833 8 -20.5zM51.999 878c0 -8.66699 -2.66699 -15.667 -8 -21s-12.333 -8 -21 -8s-15.5 2.66699 -20.5 8s-7.5 12.333 -7.5 21c0 18.667 9.33301 28 28 28
c8.66699 0 15.667 -2.5 21 -7.5s8 -11.833 8 -20.5z" />
    <glyph glyph-name="Eth" unicode="&#xd0;" horiz-adv-x="690" 
d="M616 357c0 -46.667 -4.66699 -91.5 -14 -134.5s-24.666 -81 -45.999 -114s-49.5 -59.333 -84.5 -79s-78.167 -29.5 -129.5 -29.5h-236c-4 -0 -7.5 1.33301 -10.5 4s-4.5 6 -4.5 10v353h-77c-4.66699 0 -8.33398 1.5 -11.001 4.5s-4 6.16699 -4 9.5
c0 4 1.33301 7.5 4 10.5s6.33398 4.5 11.001 4.5h77v302c0 9.33301 5 14 15 14h236c51.333 0 94.5 -9.83301 129.5 -29.5s63.167 -46 84.5 -79s36.666 -70.833 45.999 -113.5s14 -87 14 -133zM587 356c0 45.333 -4.16699 87.999 -12.5 127.999s-22.166 74.833 -41.499 104.5
s-44.666 53 -75.999 70s-69.666 25.5 -114.999 25.5h-222v-287h248c4.66699 0 8.33398 -1.5 11.001 -4.5s4 -6.5 4 -10.5c0 -3.33301 -1.33301 -6.5 -4 -9.5s-6.33398 -4.5 -11.001 -4.5h-248v-340h222c45.333 0 83.666 8.5 114.999 25.5s56.666 40.333 75.999 70
s33.166 64.334 41.499 104.001s12.5 82.5 12.5 128.5z" />
    <glyph glyph-name="Ntilde" unicode="&#xd1;" horiz-adv-x="687" 
d="M594 16c0 -4.66699 -1.33301 -8.66699 -4 -12s-6.33398 -5 -11.001 -5s-8.66699 3 -12 9l-444 645v-639c0 -4.66699 -1.5 -8.33398 -4.5 -11.001s-6.5 -4 -10.5 -4s-7.5 1.33301 -10.5 4s-4.5 6.33398 -4.5 11.001v683c0 11.333 5.33301 17 16 17
c2.66699 0 4.83398 -1 6.50098 -3s3.5 -4 5.5 -6l443 -646v640c0 4.66699 1.5 8.33398 4.5 11.001s6.5 4 10.5 4s7.5 -1.33301 10.5 -4s4.5 -6.33398 4.5 -11.001v-683v0zM527 912c0 -1.33301 -0.165039 -2.83398 -0.498047 -4.50098s-1.16602 -3.16699 -2.49902 -4.5
c-15.333 -15.333 -30.833 -28.166 -46.5 -38.499s-34.834 -15.5 -57.501 -15.5c-14.667 0 -29.334 3.16699 -44.001 9.5s-29 16.166 -43 29.499c-11.333 11.333 -23 19.5 -35 24.5s-23.667 7.5 -35 7.5c-16 0 -30.833 -4.5 -44.5 -13.5s-25.167 -19.167 -34.5 -30.5
c-2.66699 -4 -6 -6 -10 -6c-3.33301 0 -6.83301 1.66699 -10.5 5s-5.5 7 -5.5 11c0 2.66699 1 5 3 7l5 5c29.333 33.333 62.333 50 99 50c15.333 0 30.5 -3.16699 45.5 -9.5s29.167 -16.166 42.5 -29.499c12 -12 23.833 -20.333 35.5 -25s22.5 -7 32.5 -7
c11.333 0 21.833 2.16699 31.5 6.5s18 9.16602 25 14.499s12.5 10.333 16.5 15s6.33301 7.33398 7 8.00098c4 4 7.66699 6 11 6s6.66602 -1.5 9.99902 -4.5s5 -6.5 5 -10.5z" />
    <glyph glyph-name="Ograve" unicode="&#xd2;" horiz-adv-x="730" 
d="M657 356c0 -48.667 -5.16699 -95.5 -15.5 -140.5s-27 -84.833 -50 -119.5s-53 -62.334 -90 -83.001s-82.5 -31 -136.5 -31s-99.5 10.333 -136.5 31s-67 48.334 -90 83.001s-39.667 74.5 -50 119.5s-15.5 91.833 -15.5 140.5c0 49.333 5.16699 96.5 15.5 141.5
s27 84.667 50 119s53 61.833 90 82.5s82.5 31 136.5 31s99.5 -10.333 136.5 -31s67 -48.167 90 -82.5s39.667 -74 50 -119s15.5 -92.167 15.5 -141.5zM627 356c0 48 -4.66699 92.833 -14 134.5s-24.5 78.167 -45.5 109.5s-48.167 56 -81.5 74s-73.666 27 -120.999 27
c-48 0 -88.667 -9 -122 -27s-60.5 -42.667 -81.5 -74s-36.333 -67.833 -46 -109.5s-14.5 -86.5 -14.5 -134.5s4.83301 -93 14.5 -135s25 -78.667 46 -110s48.167 -56 81.5 -74s74 -27 122 -27c47.333 0 87.666 9 120.999 27s60.5 42.667 81.5 74s36.167 68 45.5 110
s14 87 14 135zM455 864c0 -4 -1.5 -7.50098 -4.5 -10.501s-6.5 -4.5 -10.5 -4.5c-2 0 -3.83301 0.5 -5.5 1.5s-3.5 2.16699 -5.5 3.5l-148 137c-5.33301 4 -8 10 -8 18c0 5.33301 2.33301 10.333 7 15s10 7 16 7c7.33301 0 13 -2.66699 17 -8l137 -149
c3.33301 -3.33301 5 -6.66602 5 -9.99902z" />
    <glyph glyph-name="Oacute" unicode="&#xd3;" horiz-adv-x="730" 
d="M657 356c0 -48.667 -5.16699 -95.5 -15.5 -140.5s-27 -84.833 -50 -119.5s-53 -62.334 -90 -83.001s-82.5 -31 -136.5 -31s-99.5 10.333 -136.5 31s-67 48.334 -90 83.001s-39.667 74.5 -50 119.5s-15.5 91.833 -15.5 140.5c0 49.333 5.16699 96.5 15.5 141.5
s27 84.667 50 119s53 61.833 90 82.5s82.5 31 136.5 31s99.5 -10.333 136.5 -31s67 -48.167 90 -82.5s39.667 -74 50 -119s15.5 -92.167 15.5 -141.5zM627 356c0 48 -4.66699 92.833 -14 134.5s-24.5 78.167 -45.5 109.5s-48.167 56 -81.5 74s-73.666 27 -120.999 27
c-48 0 -88.667 -9 -122 -27s-60.5 -42.667 -81.5 -74s-36.333 -67.833 -46 -109.5s-14.5 -86.5 -14.5 -134.5s4.83301 -93 14.5 -135s25 -78.667 46 -110s48.167 -56 81.5 -74s74 -27 122 -27c47.333 0 87.666 9 120.999 27s60.5 42.667 81.5 74s36.167 68 45.5 110
s14 87 14 135zM456 1009c0 -8 -2.99902 -13.999 -8.99902 -17.999l-148 -137c-1.33301 -1.33301 -3 -2.5 -5 -3.5s-3.66699 -1.5 -5 -1.5c-4 0 -7.5 1.5 -10.5 4.5s-4.5 6.5 -4.5 10.5c0 3.33301 1.66699 6.66602 5 9.99902l136 149c5.33301 5.33301 11.666 8 18.999 8
c4.66699 0 10 -2.33301 16 -7c4 -4.66699 6 -9.66699 6 -15z" />
    <glyph glyph-name="Ocircumflex" unicode="&#xd4;" horiz-adv-x="730" 
d="M657 356c0 -48.667 -5.16699 -95.5 -15.5 -140.5s-27 -84.833 -50 -119.5s-53 -62.334 -90 -83.001s-82.5 -31 -136.5 -31s-99.5 10.333 -136.5 31s-67 48.334 -90 83.001s-39.667 74.5 -50 119.5s-15.5 91.833 -15.5 140.5c0 49.333 5.16699 96.5 15.5 141.5
s27 84.667 50 119s53 61.833 90 82.5s82.5 31 136.5 31s99.5 -10.333 136.5 -31s67 -48.167 90 -82.5s39.667 -74 50 -119s15.5 -92.167 15.5 -141.5zM627 356c0 48 -4.66699 92.833 -14 134.5s-24.5 78.167 -45.5 109.5s-48.167 56 -81.5 74s-73.666 27 -120.999 27
c-48 0 -88.667 -9 -122 -27s-60.5 -42.667 -81.5 -74s-36.333 -67.833 -46 -109.5s-14.5 -86.5 -14.5 -134.5s4.83301 -93 14.5 -135s25 -78.667 46 -110s48.167 -56 81.5 -74s74 -27 122 -27c47.333 0 87.666 9 120.999 27s60.5 42.667 81.5 74s36.167 68 45.5 110
s14 87 14 135zM505 864c0 -4 -1.49902 -7.5 -4.49902 -10.5s-6.16699 -4.5 -9.5 -4.5c-4 0 -7.33301 1.66699 -10 5l-116 98l-117 -98c-2.66699 -3.33301 -6 -5 -10 -5s-7.5 1.5 -10.5 4.5s-4.5 6.5 -4.5 10.5s2 8 6 12l126 114c3.33301 2 6.66602 3 9.99902 3
c2 0 5 -1 9 -3l126 -114c3.33301 -3.33301 5 -7.33301 5 -12z" />
    <glyph glyph-name="Otilde" unicode="&#xd5;" horiz-adv-x="730" 
d="M657 356c0 -48.667 -5.16699 -95.5 -15.5 -140.5s-27 -84.833 -50 -119.5s-53 -62.334 -90 -83.001s-82.5 -31 -136.5 -31s-99.5 10.333 -136.5 31s-67 48.334 -90 83.001s-39.667 74.5 -50 119.5s-15.5 91.833 -15.5 140.5c0 49.333 5.16699 96.5 15.5 141.5
s27 84.667 50 119s53 61.833 90 82.5s82.5 31 136.5 31s99.5 -10.333 136.5 -31s67 -48.167 90 -82.5s39.667 -74 50 -119s15.5 -92.167 15.5 -141.5zM627 356c0 48 -4.66699 92.833 -14 134.5s-24.5 78.167 -45.5 109.5s-48.167 56 -81.5 74s-73.666 27 -120.999 27
c-48 0 -88.667 -9 -122 -27s-60.5 -42.667 -81.5 -74s-36.333 -67.833 -46 -109.5s-14.5 -86.5 -14.5 -134.5s4.83301 -93 14.5 -135s25 -78.667 46 -110s48.167 -56 81.5 -74s74 -27 122 -27c47.333 0 87.666 9 120.999 27s60.5 42.667 81.5 74s36.167 68 45.5 110
s14 87 14 135zM549 912c0 -1.33301 -0.165039 -2.83398 -0.498047 -4.50098s-1.16602 -3.16699 -2.49902 -4.5c-15.333 -15.333 -30.833 -28.166 -46.5 -38.499s-34.834 -15.5 -57.501 -15.5c-14.667 0 -29.334 3.16699 -44.001 9.5s-29 16.166 -43 29.499
c-11.333 11.333 -23 19.5 -35 24.5s-23.667 7.5 -35 7.5c-16 0 -30.833 -4.5 -44.5 -13.5s-25.167 -19.167 -34.5 -30.5c-2.66699 -4 -6 -6 -10 -6c-3.33301 0 -6.83301 1.66699 -10.5 5s-5.5 7 -5.5 11c0 2.66699 1 5 3 7l5 5c29.333 33.333 62.333 50 99 50
c15.333 0 30.5 -3.16699 45.5 -9.5s29.167 -16.166 42.5 -29.499c12 -12 23.833 -20.333 35.5 -25s22.5 -7 32.5 -7c11.333 0 21.833 2.16699 31.5 6.5s18 9.16602 25 14.499s12.5 10.333 16.5 15s6.33301 7.33398 7 8.00098c4 4 7.66699 6 11 6s6.66602 -1.5 9.99902 -4.5
s5 -6.5 5 -10.5z" />
    <glyph glyph-name="Odieresis" unicode="&#xd6;" horiz-adv-x="730" 
d="M657 356c0 -48.667 -5.16699 -95.5 -15.5 -140.5s-27 -84.833 -50 -119.5s-53 -62.334 -90 -83.001s-82.5 -31 -136.5 -31s-99.5 10.333 -136.5 31s-67 48.334 -90 83.001s-39.667 74.5 -50 119.5s-15.5 91.833 -15.5 140.5c0 49.333 5.16699 96.5 15.5 141.5
s27 84.667 50 119s53 61.833 90 82.5s82.5 31 136.5 31s99.5 -10.333 136.5 -31s67 -48.167 90 -82.5s39.667 -74 50 -119s15.5 -92.167 15.5 -141.5zM627 356c0 48 -4.66699 92.833 -14 134.5s-24.5 78.167 -45.5 109.5s-48.167 56 -81.5 74s-73.666 27 -120.999 27
c-48 0 -88.667 -9 -122 -27s-60.5 -42.667 -81.5 -74s-36.333 -67.833 -46 -109.5s-14.5 -86.5 -14.5 -134.5s4.83301 -93 14.5 -135s25 -78.667 46 -110s48.167 -56 81.5 -74s74 -27 122 -27c47.333 0 87.666 9 120.999 27s60.5 42.667 81.5 74s36.167 68 45.5 110
s14 87 14 135zM508 878c0 -8.66699 -2.66699 -15.667 -8 -21s-12.333 -8 -21 -8s-15.5 2.66699 -20.5 8s-7.5 12.333 -7.5 21c0 18.667 9.33301 28 28 28c8.66699 0 15.667 -2.5 21 -7.5s8 -11.833 8 -20.5zM280 878c0 -8.66699 -2.66699 -15.667 -8 -21s-12.333 -8 -21 -8
s-15.5 2.66699 -20.5 8s-7.5 12.333 -7.5 21c0 18.667 9.33301 28 28 28c8.66699 0 15.667 -2.5 21 -7.5s8 -11.833 8 -20.5z" />
    <glyph glyph-name="multiply" unicode="&#xd7;" horiz-adv-x="530" 
d="M490 15c0 -4 -1.66699 -7.5 -5 -10.5s-7 -4.5 -11 -4.5c-3.33301 0 -6.66602 2 -9.99902 6l-198 247l-201 -247c-2.66699 -4 -6 -6 -10 -6c-3.33301 0 -6.66602 1.5 -9.99902 4.5s-5 6.5 -5 10.5s1 7 3 9l203 252l-186 231c-2 4 -3 7 -3 9c0 4 1.66699 7.5 5 10.5
s7 4.5 11 4.5c3.33301 0 6.66602 -1.66699 9.99902 -5l183 -227l182 228c3.33301 3.33301 6.66602 5 9.99902 5c4 0 7.5 -1.33301 10.5 -4s4.5 -6 4.5 -10c0 -2.66699 -1 -6 -3 -10l-186 -232l203 -252c2 -2.66699 3 -5.66699 3 -9z" />
    <glyph glyph-name="Oslash" unicode="&#xd8;" horiz-adv-x="730" 
d="M657 356c0 -48.667 -5.16602 -95.5 -15.499 -140.5s-27 -84.833 -50 -119.5s-53 -62.334 -90 -83.001s-82.5 -31 -136.5 -31c-34.667 0 -65.667 4.33301 -93 13s-51.666 21 -72.999 37l-29 -53c-4 -4.66699 -8 -7 -12 -7s-7.5 1.33301 -10.5 4s-4.5 6 -4.5 10
c0 2 0.666992 4.33301 2 7l32 57c-37.333 35.333 -64 79.833 -80 133.5s-24 111.167 -24 172.5c0 49.333 5.16699 96.5 15.5 141.5s27 84.667 50 119s53 61.833 90 82.5s82.5 31 136.5 31c34 0 64.667 -4.16699 92 -12.5s51.666 -20.166 72.999 -35.499l29 51
c2.66699 5.33301 6.66699 8 12 8c3.33301 0 6.66602 -1.5 9.99902 -4.5s5 -6.5 5 -10.5c0 -0.666992 -0.666992 -3 -2 -7l-32 -56c38 -34.667 65 -79 81 -133s24 -112 24 -174zM628.001 356c0 58.667 -6.99902 112.167 -20.999 160.5s-37 88.5 -69 120.5l-325 -580
c20 -15.333 42.333 -27 67 -35s53 -12 85 -12c47.333 0 87.666 9 120.999 27s60.5 42.667 81.5 74s36.333 68 46 110s14.5 87 14.5 135zM515.002 657c-20 14 -42 24.833 -66 32.5s-52 11.5 -84 11.5c-48 0 -88.667 -9 -122 -27s-60.5 -42.667 -81.5 -74
s-36.333 -67.833 -46 -109.5s-14.5 -86.5 -14.5 -134.5c0 -58 7.16699 -111.167 21.5 -159.5s37.5 -88.5 69.5 -120.5l323 581v0z" />
    <glyph glyph-name="Ugrave" unicode="&#xd9;" horiz-adv-x="673" 
d="M587 233c0 -34 -6.49902 -66.332 -19.499 -96.999s-30.667 -57.334 -53 -80.001s-48.833 -40.667 -79.5 -54s-63.667 -20 -99 -20c-34 0 -66.333 6.5 -97 19.5s-57.334 30.667 -80.001 53s-40.667 48.833 -54 79.5s-20 63.667 -20 99v466
c0 4.66699 1.5 8.33398 4.5 11.001s6.16699 4 9.5 4c4 0 7.5 -1.33301 10.5 -4s4.5 -6.33398 4.5 -11.001v-466c0 -30.667 5.83301 -59.667 17.5 -87s27.5 -51 47.5 -71s43.5 -35.833 70.5 -47.5s55.833 -17.5 86.5 -17.5s59.5 5.83301 86.5 17.5s50.667 27.5 71 47.5
s36.333 43.667 48 71s17.5 56.333 17.5 87v466c0 4.66699 1.5 8.33398 4.5 11.001s5.83301 4 8.5 4c4 0 7.5 -1.33301 10.5 -4s4.5 -6.33398 4.5 -11.001v-466v0zM427.001 864.001c0 -4 -1.5 -7.50098 -4.5 -10.501s-6.5 -4.5 -10.5 -4.5c-2 0 -3.83301 0.5 -5.5 1.5
s-3.5 2.16699 -5.5 3.5l-148 137c-5.33301 4 -8 10 -8 18c0 5.33301 2.33301 10.333 7 15s10 7 16 7c7.33301 0 13 -2.66699 17 -8l137 -149c3.33301 -3.33301 5 -6.66602 5 -9.99902z" />
    <glyph glyph-name="Uacute" unicode="&#xda;" horiz-adv-x="673" 
d="M587 233c0 -34 -6.49902 -66.332 -19.499 -96.999s-30.667 -57.334 -53 -80.001s-48.833 -40.667 -79.5 -54s-63.667 -20 -99 -20c-34 0 -66.333 6.5 -97 19.5s-57.334 30.667 -80.001 53s-40.667 48.833 -54 79.5s-20 63.667 -20 99v466
c0 4.66699 1.5 8.33398 4.5 11.001s6.16699 4 9.5 4c4 0 7.5 -1.33301 10.5 -4s4.5 -6.33398 4.5 -11.001v-466c0 -30.667 5.83301 -59.667 17.5 -87s27.5 -51 47.5 -71s43.5 -35.833 70.5 -47.5s55.833 -17.5 86.5 -17.5s59.5 5.83301 86.5 17.5s50.667 27.5 71 47.5
s36.333 43.667 48 71s17.5 56.333 17.5 87v466c0 4.66699 1.5 8.33398 4.5 11.001s5.83301 4 8.5 4c4 0 7.5 -1.33301 10.5 -4s4.5 -6.33398 4.5 -11.001v-466v0zM427.001 1009c0 -8 -2.99902 -13.999 -8.99902 -17.999l-148 -137c-1.33301 -1.33301 -3 -2.5 -5 -3.5
s-3.66699 -1.5 -5 -1.5c-4 0 -7.5 1.5 -10.5 4.5s-4.5 6.5 -4.5 10.5c0 3.33301 1.66699 6.66602 5 9.99902l136 149c5.33301 5.33301 11.666 8 18.999 8c4.66699 0 10 -2.33301 16 -7c4 -4.66699 6 -9.66699 6 -15z" />
    <glyph glyph-name="Ucircumflex" unicode="&#xdb;" horiz-adv-x="673" 
d="M587 233c0 -34 -6.49902 -66.332 -19.499 -96.999s-30.667 -57.334 -53 -80.001s-48.833 -40.667 -79.5 -54s-63.667 -20 -99 -20c-34 0 -66.333 6.5 -97 19.5s-57.334 30.667 -80.001 53s-40.667 48.833 -54 79.5s-20 63.667 -20 99v466
c0 4.66699 1.5 8.33398 4.5 11.001s6.16699 4 9.5 4c4 0 7.5 -1.33301 10.5 -4s4.5 -6.33398 4.5 -11.001v-466c0 -30.667 5.83301 -59.667 17.5 -87s27.5 -51 47.5 -71s43.5 -35.833 70.5 -47.5s55.833 -17.5 86.5 -17.5s59.5 5.83301 86.5 17.5s50.667 27.5 71 47.5
s36.333 43.667 48 71s17.5 56.333 17.5 87v466c0 4.66699 1.5 8.33398 4.5 11.001s5.83301 4 8.5 4c4 0 7.5 -1.33301 10.5 -4s4.5 -6.33398 4.5 -11.001v-466v0zM477.001 864.001c0 -4 -1.49902 -7.5 -4.49902 -10.5s-6.16699 -4.5 -9.5 -4.5c-4 0 -7.33301 1.66699 -10 5
l-116 98l-117 -98c-2.66699 -3.33301 -6 -5 -10 -5s-7.5 1.5 -10.5 4.5s-4.5 6.5 -4.5 10.5s2 8 6 12l126 114c3.33301 2 6.66602 3 9.99902 3c2 0 5 -1 9 -3l126 -114c3.33301 -3.33301 5 -7.33301 5 -12z" />
    <glyph glyph-name="Udieresis" unicode="&#xdc;" horiz-adv-x="673" 
d="M587 233c0 -34 -6.49902 -66.332 -19.499 -96.999s-30.667 -57.334 -53 -80.001s-48.833 -40.667 -79.5 -54s-63.667 -20 -99 -20c-34 0 -66.333 6.5 -97 19.5s-57.334 30.667 -80.001 53s-40.667 48.833 -54 79.5s-20 63.667 -20 99v466
c0 4.66699 1.5 8.33398 4.5 11.001s6.16699 4 9.5 4c4 0 7.5 -1.33301 10.5 -4s4.5 -6.33398 4.5 -11.001v-466c0 -30.667 5.83301 -59.667 17.5 -87s27.5 -51 47.5 -71s43.5 -35.833 70.5 -47.5s55.833 -17.5 86.5 -17.5s59.5 5.83301 86.5 17.5s50.667 27.5 71 47.5
s36.333 43.667 48 71s17.5 56.333 17.5 87v466c0 4.66699 1.5 8.33398 4.5 11.001s5.83301 4 8.5 4c4 0 7.5 -1.33301 10.5 -4s4.5 -6.33398 4.5 -11.001v-466v0zM479.001 878.001c0 -8.66699 -2.66699 -15.667 -8 -21s-12.333 -8 -21 -8s-15.5 2.66699 -20.5 8
s-7.5 12.333 -7.5 21c0 18.667 9.33301 28 28 28c8.66699 0 15.667 -2.5 21 -7.5s8 -11.833 8 -20.5zM251.001 878.001c0 -8.66699 -2.66699 -15.667 -8 -21s-12.333 -8 -21 -8s-15.5 2.66699 -20.5 8s-7.5 12.333 -7.5 21c0 18.667 9.33301 28 28 28
c8.66699 0 15.667 -2.5 21 -7.5s8 -11.833 8 -20.5z" />
    <glyph glyph-name="Yacute" unicode="&#xdd;" horiz-adv-x="577" 
d="M531 700c0 -2.66699 -0.666992 -5.33398 -2 -8.00098l-226 -389v-289c0 -4.66699 -1.5 -8.33398 -4.5 -11.001s-6.5 -4 -10.5 -4c-2.66699 0 -5.5 1.33301 -8.5 4s-4.5 6.33398 -4.5 11.001v289l-227 389c-1.33301 2.66699 -2 5.33398 -2 8.00098c0 4 1.5 7.33301 4.5 10
s6.16699 4 9.5 4c4 0 8 -2.66699 12 -8l216 -371l217 371c3.33301 5.33301 7 8 11 8s7.5 -1.33301 10.5 -4s4.5 -6 4.5 -10zM379 1009c0 -8 -2.99902 -13.999 -8.99902 -17.999l-148 -137c-1.33301 -1.33301 -3 -2.5 -5 -3.5s-3.66699 -1.5 -5 -1.5c-4 0 -7.5 1.5 -10.5 4.5
s-4.5 6.5 -4.5 10.5c0 3.33301 1.66699 6.66602 5 9.99902l136 149c5.33301 5.33301 11.666 8 18.999 8c4.66699 0 10 -2.33301 16 -7c4 -4.66699 6 -9.66699 6 -15z" />
    <glyph glyph-name="Thorn" unicode="&#xde;" horiz-adv-x="661" 
d="M593 447c0 -38 -5.5 -74.001 -16.5 -108.001s-27.167 -64 -48.5 -90s-47.666 -46.667 -78.999 -62s-67 -23 -107 -23c-54.667 0 -100.334 13.167 -137.001 39.5s-65 61.166 -85 104.499v-294c0 -4.66699 -1.5 -8.33398 -4.5 -11.001s-6.5 -4 -10.5 -4
c-3.33301 0 -6.5 1.33301 -9.5 4s-4.5 6.33398 -4.5 11.001v883c0 4.66699 1.5 8.33398 4.5 11.001s6.16699 4 9.5 4c4 0 7.5 -1.33301 10.5 -4s4.5 -6.33398 4.5 -11.001v-311c20 42.667 48.333 77.334 85 104.001s82.334 40 137.001 40c40 0 75.667 -7.66699 107 -23
s57.666 -36 78.999 -62s37.5 -56.167 48.5 -90.5s16.5 -70.166 16.5 -107.499zM564 446.999c0 35.333 -5 68.333 -15 99s-24.5 57.5 -43.5 80.5s-42.167 41.167 -69.5 54.5s-58.666 20 -93.999 20s-66.666 -6.66699 -93.999 -20s-50.5 -31.5 -69.5 -54.5
s-33.5 -49.833 -43.5 -80.5s-15 -63.667 -15 -99c0 -34.667 5 -67.5 15 -98.5s24.5 -58 43.5 -81s42.167 -41.167 69.5 -54.5s58.666 -20 93.999 -20s66.666 6.66699 93.999 20s50.5 31.5 69.5 54.5s33.5 50 43.5 81s15 63.833 15 98.5z" />
    <glyph glyph-name="germandbls" unicode="&#xdf;" horiz-adv-x="587" 
d="M519 198c0 -27.333 -5.16602 -52.9971 -15.499 -76.9971s-24.5 -45 -42.5 -63s-39.167 -32.167 -63.5 -42.5s-50.166 -15.5 -77.499 -15.5h-106c-4.66699 0 -8 1.33301 -10 4s-3 5.66699 -3 9c0 9.33301 4.33301 14 13 14h105c23.333 0 45.5 4.5 66.5 13.5
s39.167 21.333 54.5 37s27.5 33.834 36.5 54.501s13.5 42.667 13.5 66c0 24 -4.5 46.333 -13.5 67s-21.167 38.667 -36.5 54s-33.333 27.333 -54 36s-42.667 13 -66 13h-76c-4.66699 0 -8.33398 1.5 -11.001 4.5s-4 6.16699 -4 9.5c0 4 1.33301 7.5 4 10.5
s6.33398 4.5 11.001 4.5h55c19.333 0 37.666 3.83301 54.999 11.5s32.5 18 45.5 31s23.333 28.167 31 45.5s11.5 35.666 11.5 54.999c0 20 -3.83301 38.833 -11.5 56.5s-18 33 -31 46s-28.167 23.333 -45.5 31s-35.666 11.5 -54.999 11.5h-28
c-20.667 0 -40.334 -4 -59.001 -12s-34.667 -18.833 -48 -32.5s-24 -29.667 -32 -48s-12 -37.833 -12 -58.5v-520c0 -4.66699 -1.5 -8.33398 -4.5 -11.001s-6.5 -4 -10.5 -4c-3.33301 0 -6.5 1.33301 -9.5 4s-4.5 6.33398 -4.5 11.001v520c0 24.667 4.66699 48 14 70
s22.166 41.167 38.499 57.5s35.333 29.166 57 38.499s44.834 14 69.501 14h29c23.333 0 45.5 -4.5 66.5 -13.5s39.333 -21.333 55 -37s28 -34 37 -55s13.5 -43.167 13.5 -66.5c0 -34.667 -8.5 -65.334 -25.5 -92.001s-39.5 -47 -67.5 -61c20.667 -6 39.667 -15.167 57 -27.5
s32.166 -26.833 44.499 -43.5s22 -35.334 29 -56.001s10.5 -42 10.5 -64z" />
    <glyph glyph-name="agrave" unicode="&#xe0;" horiz-adv-x="675" 
d="M628 14c0 -3.33301 -1.33203 -6.50098 -3.99902 -9.50098s-6.33398 -4.5 -11.001 -4.5c-20 0 -36.833 6.83301 -50.5 20.5s-20.5 30.5 -20.5 50.5v56c-20 -43.333 -48.333 -78.166 -85 -104.499s-82.667 -39.5 -138 -39.5c-40 0 -75.667 7.66699 -107 23
s-57.666 36 -78.999 62s-37.5 56 -48.5 90s-16.5 70 -16.5 108c0 37.333 5.5 73 16.5 107s27.167 64 48.5 90s47.666 46.667 78.999 62s67 23 107 23c54 0 99.833 -13 137.5 -39s66.167 -60.667 85.5 -104v113c0 4.66699 1.33301 8.16699 4 10.5s5.66699 3.5 9 3.5
c4 0 7.5 -1.16699 10.5 -3.5s4.5 -5.83301 4.5 -10.5v-446c0 -12 4.33301 -22.333 13 -31s18.667 -13 30 -13c10 0 15 -4.66699 15 -14zM542.001 265.999c0 35.333 -5 68.333 -15 99s-24.5 57.5 -43.5 80.5s-42.333 41.167 -70 54.5s-59.167 20 -94.5 20
s-66.666 -6.66699 -93.999 -20s-50.5 -31.5 -69.5 -54.5s-33.5 -49.833 -43.5 -80.5s-15 -63.667 -15 -99s5 -68.5 15 -99.5s24.5 -58 43.5 -81s42.167 -41.167 69.5 -54.5s58.666 -20 93.999 -20s66.833 6.66699 94.5 20s51 31.5 70 54.5s33.5 50 43.5 81
s15 64.167 15 99.5zM428.001 635.999c0 -4 -1.5 -7.50098 -4.5 -10.501s-6.5 -4.5 -10.5 -4.5c-2 0 -3.83301 0.5 -5.5 1.5s-3.5 2.16699 -5.5 3.5l-148 137c-5.33301 4 -8 10 -8 18c0 5.33301 2.33301 10.333 7 15s10 7 16 7c7.33301 0 13 -2.66699 17 -8l137 -149
c3.33301 -3.33301 5 -6.66602 5 -9.99902z" />
    <glyph glyph-name="aacute" unicode="&#xe1;" horiz-adv-x="675" 
d="M628 14c0 -3.33301 -1.33203 -6.50098 -3.99902 -9.50098s-6.33398 -4.5 -11.001 -4.5c-20 0 -36.833 6.83301 -50.5 20.5s-20.5 30.5 -20.5 50.5v56c-20 -43.333 -48.333 -78.166 -85 -104.499s-82.667 -39.5 -138 -39.5c-40 0 -75.667 7.66699 -107 23
s-57.666 36 -78.999 62s-37.5 56 -48.5 90s-16.5 70 -16.5 108c0 37.333 5.5 73 16.5 107s27.167 64 48.5 90s47.666 46.667 78.999 62s67 23 107 23c54 0 99.833 -13 137.5 -39s66.167 -60.667 85.5 -104v113c0 4.66699 1.33301 8.16699 4 10.5s5.66699 3.5 9 3.5
c4 0 7.5 -1.16699 10.5 -3.5s4.5 -5.83301 4.5 -10.5v-446c0 -12 4.33301 -22.333 13 -31s18.667 -13 30 -13c10 0 15 -4.66699 15 -14zM542.001 265.999c0 35.333 -5 68.333 -15 99s-24.5 57.5 -43.5 80.5s-42.333 41.167 -70 54.5s-59.167 20 -94.5 20
s-66.666 -6.66699 -93.999 -20s-50.5 -31.5 -69.5 -54.5s-33.5 -49.833 -43.5 -80.5s-15 -63.667 -15 -99s5 -68.5 15 -99.5s24.5 -58 43.5 -81s42.167 -41.167 69.5 -54.5s58.666 -20 93.999 -20s66.833 6.66699 94.5 20s51 31.5 70 54.5s33.5 50 43.5 81
s15 64.167 15 99.5zM428.001 780.999c0 -8 -2.99902 -13.999 -8.99902 -17.999l-148 -137c-1.33301 -1.33301 -3 -2.5 -5 -3.5s-3.66699 -1.5 -5 -1.5c-4 0 -7.5 1.5 -10.5 4.5s-4.5 6.5 -4.5 10.5c0 3.33301 1.66699 6.66602 5 9.99902l136 149
c5.33301 5.33301 11.666 8 18.999 8c4.66699 0 10 -2.33301 16 -7c4 -4.66699 6 -9.66699 6 -15z" />
    <glyph glyph-name="acircumflex" unicode="&#xe2;" horiz-adv-x="675" 
d="M628 14c0 -3.33301 -1.33203 -6.50098 -3.99902 -9.50098s-6.33398 -4.5 -11.001 -4.5c-20 0 -36.833 6.83301 -50.5 20.5s-20.5 30.5 -20.5 50.5v56c-20 -43.333 -48.333 -78.166 -85 -104.499s-82.667 -39.5 -138 -39.5c-40 0 -75.667 7.66699 -107 23
s-57.666 36 -78.999 62s-37.5 56 -48.5 90s-16.5 70 -16.5 108c0 37.333 5.5 73 16.5 107s27.167 64 48.5 90s47.666 46.667 78.999 62s67 23 107 23c54 0 99.833 -13 137.5 -39s66.167 -60.667 85.5 -104v113c0 4.66699 1.33301 8.16699 4 10.5s5.66699 3.5 9 3.5
c4 0 7.5 -1.16699 10.5 -3.5s4.5 -5.83301 4.5 -10.5v-446c0 -12 4.33301 -22.333 13 -31s18.667 -13 30 -13c10 0 15 -4.66699 15 -14zM542.001 265.999c0 35.333 -5 68.333 -15 99s-24.5 57.5 -43.5 80.5s-42.333 41.167 -70 54.5s-59.167 20 -94.5 20
s-66.666 -6.66699 -93.999 -20s-50.5 -31.5 -69.5 -54.5s-33.5 -49.833 -43.5 -80.5s-15 -63.667 -15 -99s5 -68.5 15 -99.5s24.5 -58 43.5 -81s42.167 -41.167 69.5 -54.5s58.666 -20 93.999 -20s66.833 6.66699 94.5 20s51 31.5 70 54.5s33.5 50 43.5 81
s15 64.167 15 99.5zM478.001 635.999c0 -4 -1.49902 -7.5 -4.49902 -10.5s-6.16699 -4.5 -9.5 -4.5c-4 0 -7.33301 1.66699 -10 5l-116 98l-117 -98c-2.66699 -3.33301 -6 -5 -10 -5s-7.5 1.5 -10.5 4.5s-4.5 6.5 -4.5 10.5s2 8 6 12l126 114c3.33301 2 6.66602 3 9.99902 3
c2 0 5 -1 9 -3l126 -114c3.33301 -3.33301 5 -7.33301 5 -12z" />
    <glyph glyph-name="atilde" unicode="&#xe3;" horiz-adv-x="675" 
d="M628 14c0 -3.33301 -1.33203 -6.50098 -3.99902 -9.50098s-6.33398 -4.5 -11.001 -4.5c-20 0 -36.833 6.83301 -50.5 20.5s-20.5 30.5 -20.5 50.5v56c-20 -43.333 -48.333 -78.166 -85 -104.499s-82.667 -39.5 -138 -39.5c-40 0 -75.667 7.66699 -107 23
s-57.666 36 -78.999 62s-37.5 56 -48.5 90s-16.5 70 -16.5 108c0 37.333 5.5 73 16.5 107s27.167 64 48.5 90s47.666 46.667 78.999 62s67 23 107 23c54 0 99.833 -13 137.5 -39s66.167 -60.667 85.5 -104v113c0 4.66699 1.33301 8.16699 4 10.5s5.66699 3.5 9 3.5
c4 0 7.5 -1.16699 10.5 -3.5s4.5 -5.83301 4.5 -10.5v-446c0 -12 4.33301 -22.333 13 -31s18.667 -13 30 -13c10 0 15 -4.66699 15 -14zM542.001 265.999c0 35.333 -5 68.333 -15 99s-24.5 57.5 -43.5 80.5s-42.333 41.167 -70 54.5s-59.167 20 -94.5 20
s-66.666 -6.66699 -93.999 -20s-50.5 -31.5 -69.5 -54.5s-33.5 -49.833 -43.5 -80.5s-15 -63.667 -15 -99s5 -68.5 15 -99.5s24.5 -58 43.5 -81s42.167 -41.167 69.5 -54.5s58.666 -20 93.999 -20s66.833 6.66699 94.5 20s51 31.5 70 54.5s33.5 50 43.5 81
s15 64.167 15 99.5zM522.001 683.999c0 -1.33301 -0.165039 -2.83398 -0.498047 -4.50098s-1.16602 -3.16699 -2.49902 -4.5c-15.333 -15.333 -30.833 -28.166 -46.5 -38.499s-34.834 -15.5 -57.501 -15.5c-14.667 0 -29.334 3.16699 -44.001 9.5s-29 16.166 -43 29.499
c-11.333 11.333 -23 19.5 -35 24.5s-23.667 7.5 -35 7.5c-16 0 -30.833 -4.5 -44.5 -13.5s-25.167 -19.167 -34.5 -30.5c-2.66699 -4 -6 -6 -10 -6c-3.33301 0 -6.83301 1.66699 -10.5 5s-5.5 7 -5.5 11c0 2.66699 1 5 3 7l5 5c29.333 33.333 62.333 50 99 50
c15.333 0 30.5 -3.16699 45.5 -9.5s29.167 -16.166 42.5 -29.499c12 -12 23.833 -20.333 35.5 -25s22.5 -7 32.5 -7c11.333 0 21.833 2.16699 31.5 6.5s18 9.16602 25 14.499s12.5 10.333 16.5 15s6.33301 7.33398 7 8.00098c4 4 7.66699 6 11 6s6.66602 -1.5 9.99902 -4.5
s5 -6.5 5 -10.5z" />
    <glyph glyph-name="adieresis" unicode="&#xe4;" horiz-adv-x="675" 
d="M628 14c0 -3.33301 -1.33203 -6.50098 -3.99902 -9.50098s-6.33398 -4.5 -11.001 -4.5c-20 0 -36.833 6.83301 -50.5 20.5s-20.5 30.5 -20.5 50.5v56c-20 -43.333 -48.333 -78.166 -85 -104.499s-82.667 -39.5 -138 -39.5c-40 0 -75.667 7.66699 -107 23
s-57.666 36 -78.999 62s-37.5 56 -48.5 90s-16.5 70 -16.5 108c0 37.333 5.5 73 16.5 107s27.167 64 48.5 90s47.666 46.667 78.999 62s67 23 107 23c54 0 99.833 -13 137.5 -39s66.167 -60.667 85.5 -104v113c0 4.66699 1.33301 8.16699 4 10.5s5.66699 3.5 9 3.5
c4 0 7.5 -1.16699 10.5 -3.5s4.5 -5.83301 4.5 -10.5v-446c0 -12 4.33301 -22.333 13 -31s18.667 -13 30 -13c10 0 15 -4.66699 15 -14zM542.001 265.999c0 35.333 -5 68.333 -15 99s-24.5 57.5 -43.5 80.5s-42.333 41.167 -70 54.5s-59.167 20 -94.5 20
s-66.666 -6.66699 -93.999 -20s-50.5 -31.5 -69.5 -54.5s-33.5 -49.833 -43.5 -80.5s-15 -63.667 -15 -99s5 -68.5 15 -99.5s24.5 -58 43.5 -81s42.167 -41.167 69.5 -54.5s58.666 -20 93.999 -20s66.833 6.66699 94.5 20s51 31.5 70 54.5s33.5 50 43.5 81
s15 64.167 15 99.5zM480.001 649.999c0 -8.66699 -2.66699 -15.667 -8 -21s-12.333 -8 -21 -8s-15.5 2.66699 -20.5 8s-7.5 12.333 -7.5 21c0 18.667 9.33301 28 28 28c8.66699 0 15.667 -2.5 21 -7.5s8 -11.833 8 -20.5zM252.001 649.999
c0 -8.66699 -2.66699 -15.667 -8 -21s-12.333 -8 -21 -8s-15.5 2.66699 -20.5 8s-7.5 12.333 -7.5 21c0 18.667 9.33301 28 28 28c8.66699 0 15.667 -2.5 21 -7.5s8 -11.833 8 -20.5z" />
    <glyph glyph-name="aring" unicode="&#xe5;" horiz-adv-x="675" 
d="M453 635c0 -21.333 -5 -40.6709 -15 -58.0039s-23.667 -31 -41 -41c34 -10.667 63 -27.167 87 -49.5s43.333 -49.5 58 -81.5v113c0 4.66699 1.33301 8.16699 4 10.5s5.66699 3.5 9 3.5c4 0 7.5 -1.16699 10.5 -3.5s4.5 -5.83301 4.5 -10.5v-446
c0 -12 4.33301 -22.333 13 -31s18.667 -13 30 -13c10 0 15 -4.66699 15 -14c0 -3.33301 -1.33301 -6.5 -4 -9.5s-6.33398 -4.5 -11.001 -4.5c-20 0 -36.833 6.83301 -50.5 20.5s-20.5 30.5 -20.5 50.5v56c-20 -43.333 -48.333 -78.166 -85 -104.499
s-82.667 -39.5 -138 -39.5c-40 0 -75.667 7.66699 -107 23s-57.666 36 -78.999 62s-37.5 56 -48.5 90s-16.5 70 -16.5 108c0 33.333 4.33301 65.333 13 96s21.5 58.334 38.5 83.001s38 45.667 63 63s53.833 29 86.5 35c-14 10.667 -25.167 23.834 -33.5 39.501
s-12.5 32.834 -12.5 51.501c0 16 3 31 9 45s14.167 26.167 24.5 36.5s22.5 18.5 36.5 24.5s29 9 45 9s31 -3 45 -9s26.167 -14.167 36.5 -24.5s18.5 -22.333 24.5 -36s9 -28.5 9 -44.5zM542 265.995c0 35.333 -5 68.333 -15 99s-24.5 57.5 -43.5 80.5
s-42.333 41.167 -70 54.5s-59.167 20 -94.5 20s-66.666 -6.66699 -93.999 -20s-50.5 -31.5 -69.5 -54.5s-33.5 -49.833 -43.5 -80.5s-15 -63.667 -15 -99s5 -68.5 15 -99.5s24.5 -58 43.5 -81s42.167 -41.167 69.5 -54.5s58.666 -20 93.999 -20s66.833 6.66699 94.5 20
s51 31.5 70 54.5s33.5 50 43.5 81s15 64.167 15 99.5zM424 633.995c0 24.667 -8.16797 45.334 -24.501 62.001s-36.833 25 -61.5 25c-12 0 -23.333 -2.33301 -34 -7s-20 -10.834 -28 -18.501s-14.167 -16.667 -18.5 -27s-6.5 -21.5 -6.5 -33.5
c0 -24.667 8.33301 -45.167 25 -61.5s37.334 -24.5 62.001 -24.5s45.167 8 61.5 24s24.5 36.333 24.5 61z" />
    <glyph glyph-name="ae" unicode="&#xe6;" horiz-adv-x="983" 
d="M914 270c0 -10 -4.99609 -15.001 -14.9961 -15.001h-408c1.33301 -34.667 6.66602 -66.834 15.999 -96.501s22.5 -55.5 39.5 -77.5s37.5 -39.167 61.5 -51.5s51 -18.5 81 -18.5c14 0 28.167 1.83301 42.5 5.5s28.166 9 41.499 16s25.666 15.5 36.999 25.5
s21 21.667 29 35c2.66699 4.66699 6.33398 7 11.001 7c4 0 7.66699 -1.16699 11 -3.5s5 -5.5 5 -9.5c0 -2 -0.666992 -4.33301 -2 -7l-10 -17c-20 -27.333 -45.167 -47.5 -75.5 -60.5s-60.166 -19.5 -89.499 -19.5c-48 0 -88.667 12.833 -122 38.5s-59 59.167 -77 100.5
c-2.66699 -28.667 -12.334 -52.167 -29.001 -70.5s-36 -32.5 -58 -42.5s-44.5 -16.833 -67.5 -20.5s-42.5 -5.5 -58.5 -5.5c-16.667 0 -37.334 2 -62.001 6s-48.167 11.833 -70.5 23.5s-41.5 27.667 -57.5 48s-24 46.833 -24 79.5c0 33.333 8 60.333 24 81
s35.167 36.667 57.5 48s45.833 19 70.5 23s45.334 6 62.001 6c12 0 26.333 -1 43 -3s33.667 -5.66699 51 -11s34.166 -12.5 50.499 -21.5s30.166 -20.833 41.499 -35.5v164c0 26 -6.33301 47.333 -19 64s-28.334 29.834 -47.001 39.501s-38.834 16.334 -60.501 20.001
s-41.5 5.5 -59.5 5.5c-17.333 0 -36.166 -1.66699 -56.499 -5s-39.5 -9.33301 -57.5 -18c-2.66699 -1.33301 -5 -2 -7 -2c-4 0 -7.16699 1.5 -9.5 4.5s-3.5 6.5 -3.5 10.5c0 8 5.83301 14.5 17.5 19.5s25.167 8.83301 40.5 11.5s30.333 4.5 45 5.5s25 1.5 31 1.5
c16 0 35.5 -1.83301 58.5 -5.5s45.5 -10.5 67.5 -20.5s41.333 -24 58 -42s26.334 -41.667 29.001 -71c18 41.333 43.667 74.833 77 100.5s74 38.5 122 38.5c36 0 67.833 -7.66699 95.5 -23s51.167 -35.666 70.5 -60.999s34 -54.833 44 -88.5s15 -68.834 15 -105.501z
M886.004 283.999c-1.33301 33.333 -7.00098 64.332 -17.001 92.999s-23.5 53.667 -40.5 75s-37.333 38 -61 50s-49.834 18 -78.501 18c-33.333 0 -62.166 -7 -86.499 -21s-44.5 -32.167 -60.5 -54.5s-28.167 -47.666 -36.5 -75.999s-13.166 -56.5 -14.499 -84.5h395v0z
M463.003 139.998c0 26 -6.33301 47.333 -19 64s-28.334 29.834 -47.001 39.501s-38.834 16.334 -60.501 20.001s-41.5 5.5 -59.5 5.5s-37.833 -1.83301 -59.5 -5.5s-41.834 -10.334 -60.501 -20.001s-34.334 -22.834 -47.001 -39.501s-19 -38 -19 -64
c0 -25.333 6.33301 -46.333 19 -63s28.334 -29.834 47.001 -39.501s38.834 -16.5 60.501 -20.5s41.5 -6 59.5 -6s37.833 2 59.5 6s41.834 10.833 60.501 20.5s34.334 22.834 47.001 39.501s19 37.667 19 63z" />
    <glyph glyph-name="ccedilla" unicode="&#xe7;" horiz-adv-x="575" 
d="M419 -128c0 -14 -2.66699 -27.1689 -8 -39.502s-12.5 -23 -21.5 -32s-19.667 -16 -32 -21s-25.5 -7.5 -39.5 -7.5c-5.33301 0 -12.166 0.833008 -20.499 2.5s-16.5 4.33398 -24.5 8.00098s-14.833 7.83398 -20.5 12.501s-8.5 10 -8.5 16c0 4 1.33301 7.5 4 10.5
s5.66699 4.5 9 4.5c4 0 7.66699 -1.66699 11 -5c13.333 -13.333 30 -20 50 -20s37 6.83301 51 20.5s21 30.5 21 50.5s-7 37 -21 51s-31 21 -51 21c-2 0 -4.66699 1.16699 -8 3.5s-5 5.83301 -5 10.5v25c-38 2 -71.667 11 -101 27s-54.166 36.833 -74.499 62.5
s-35.666 55.167 -45.999 88.5s-15.5 68.333 -15.5 105c0 37.333 5.5 73 16.5 107s27.167 64 48.5 90s47.666 46.667 78.999 62s67 23 107 23c37.333 0 71 -6.5 101 -19.5s56 -31.833 78 -56.5c2.66699 -2.66699 4 -5.33398 4 -8.00098c0 -4 -1.5 -7.66699 -4.5 -11
s-6.5 -5 -10.5 -5s-7.33301 1.66699 -10 5c-19.333 21.333 -42 37.833 -68 49.5s-56 17.5 -90 17.5c-35.333 0 -66.666 -6.66699 -93.999 -20s-50.5 -31.5 -69.5 -54.5s-33.5 -49.833 -43.5 -80.5s-15 -63.667 -15 -99s5 -68.5 15 -99.5s24.5 -58 43.5 -81
s42.167 -41.167 69.5 -54.5s58.666 -20 93.999 -20c34 0 64 6 90 18s48.667 28.667 68 50c3.33301 3.33301 6.66602 5 9.99902 5s6.66602 -1.66699 9.99902 -5s5 -7 5 -11c0 -1.33301 -0.333008 -2.66602 -1 -3.99902s-1.66699 -3 -3 -5c-42 -46.667 -97 -71.667 -165 -75
v-12c24.667 -4 45.167 -15.333 61.5 -34s24.5 -40.667 24.5 -66z" />
    <glyph glyph-name="egrave" unicode="&#xe8;" horiz-adv-x="638" 
d="M570 270c0 -4.66699 -0.664062 -8.83301 -1.99707 -12.5s-5.33301 -5.5 -12 -5.5h-459c1.33301 -33.333 7.33301 -64.666 18 -93.999s25.5 -54.833 44.5 -76.5s41.833 -38.834 68.5 -51.501s57 -19 91 -19c16 0 32.333 1.83301 49 5.5s32.5 9 47.5 16s29 15.667 42 26
s23.833 22.5 32.5 36.5c4 4 8 6 12 6c9.33301 0 14 -4.33301 14 -13c0 -3.33301 -0.666992 -6 -2 -8c-10 -16 -22.333 -30 -37 -42s-30.834 -22.167 -48.501 -30.5s-35.834 -14.5 -54.501 -18.5s-37 -6 -55 -6c-40 0 -75.667 7.66699 -107 23s-57.666 36 -78.999 62
s-37.5 56 -48.5 90s-16.5 70 -16.5 108c0 37.333 5.5 73 16.5 107s27.167 64 48.5 90s47.666 46.667 78.999 62s67 23 107 23s75.5 -7.66699 106.5 -23s57.167 -35.666 78.5 -60.999s37.666 -54.833 48.999 -88.5s17 -68.834 17 -105.501zM542.003 280.001
c-2 33.333 -8.33301 64.5 -19 93.5s-25.5 54.333 -44.5 76s-41.833 38.834 -68.5 51.501s-57 19 -91 19s-64.333 -6.33301 -91 -19s-49.5 -29.834 -68.5 -51.501s-33.833 -47 -44.5 -76s-16.667 -60.167 -18 -93.5h445zM410.003 636.001c0 -4 -1.5 -7.50098 -4.5 -10.501
s-6.5 -4.5 -10.5 -4.5c-2 0 -3.83301 0.5 -5.5 1.5s-3.5 2.16699 -5.5 3.5l-148 137c-5.33301 4 -8 10 -8 18c0 5.33301 2.33301 10.333 7 15s10 7 16 7c7.33301 0 13 -2.66699 17 -8l137 -149c3.33301 -3.33301 5 -6.66602 5 -9.99902z" />
    <glyph glyph-name="eacute" unicode="&#xe9;" horiz-adv-x="638" 
d="M570 270c0 -4.66699 -0.664062 -8.83301 -1.99707 -12.5s-5.33301 -5.5 -12 -5.5h-459c1.33301 -33.333 7.33301 -64.666 18 -93.999s25.5 -54.833 44.5 -76.5s41.833 -38.834 68.5 -51.501s57 -19 91 -19c16 0 32.333 1.83301 49 5.5s32.5 9 47.5 16s29 15.667 42 26
s23.833 22.5 32.5 36.5c4 4 8 6 12 6c9.33301 0 14 -4.33301 14 -13c0 -3.33301 -0.666992 -6 -2 -8c-10 -16 -22.333 -30 -37 -42s-30.834 -22.167 -48.501 -30.5s-35.834 -14.5 -54.501 -18.5s-37 -6 -55 -6c-40 0 -75.667 7.66699 -107 23s-57.666 36 -78.999 62
s-37.5 56 -48.5 90s-16.5 70 -16.5 108c0 37.333 5.5 73 16.5 107s27.167 64 48.5 90s47.666 46.667 78.999 62s67 23 107 23s75.5 -7.66699 106.5 -23s57.167 -35.666 78.5 -60.999s37.666 -54.833 48.999 -88.5s17 -68.834 17 -105.501zM542.003 280.001
c-2 33.333 -8.33301 64.5 -19 93.5s-25.5 54.333 -44.5 76s-41.833 38.834 -68.5 51.501s-57 19 -91 19s-64.333 -6.33301 -91 -19s-49.5 -29.834 -68.5 -51.501s-33.833 -47 -44.5 -76s-16.667 -60.167 -18 -93.5h445zM410.003 781.001
c0 -8 -2.99902 -13.999 -8.99902 -17.999l-148 -137c-1.33301 -1.33301 -3 -2.5 -5 -3.5s-3.66699 -1.5 -5 -1.5c-4 0 -7.5 1.5 -10.5 4.5s-4.5 6.5 -4.5 10.5c0 3.33301 1.66699 6.66602 5 9.99902l136 149c5.33301 5.33301 11.666 8 18.999 8c4.66699 0 10 -2.33301 16 -7
c4 -4.66699 6 -9.66699 6 -15z" />
    <glyph glyph-name="ecircumflex" unicode="&#xea;" horiz-adv-x="638" 
d="M570 270c0 -4.66699 -0.664062 -8.83301 -1.99707 -12.5s-5.33301 -5.5 -12 -5.5h-459c1.33301 -33.333 7.33301 -64.666 18 -93.999s25.5 -54.833 44.5 -76.5s41.833 -38.834 68.5 -51.501s57 -19 91 -19c16 0 32.333 1.83301 49 5.5s32.5 9 47.5 16s29 15.667 42 26
s23.833 22.5 32.5 36.5c4 4 8 6 12 6c9.33301 0 14 -4.33301 14 -13c0 -3.33301 -0.666992 -6 -2 -8c-10 -16 -22.333 -30 -37 -42s-30.834 -22.167 -48.501 -30.5s-35.834 -14.5 -54.501 -18.5s-37 -6 -55 -6c-40 0 -75.667 7.66699 -107 23s-57.666 36 -78.999 62
s-37.5 56 -48.5 90s-16.5 70 -16.5 108c0 37.333 5.5 73 16.5 107s27.167 64 48.5 90s47.666 46.667 78.999 62s67 23 107 23s75.5 -7.66699 106.5 -23s57.167 -35.666 78.5 -60.999s37.666 -54.833 48.999 -88.5s17 -68.834 17 -105.501zM542.003 280.001
c-2 33.333 -8.33301 64.5 -19 93.5s-25.5 54.333 -44.5 76s-41.833 38.834 -68.5 51.501s-57 19 -91 19s-64.333 -6.33301 -91 -19s-49.5 -29.834 -68.5 -51.501s-33.833 -47 -44.5 -76s-16.667 -60.167 -18 -93.5h445zM460.003 636.001c0 -4 -1.49902 -7.5 -4.49902 -10.5
s-6.16699 -4.5 -9.5 -4.5c-4 0 -7.33301 1.66699 -10 5l-116 98l-117 -98c-2.66699 -3.33301 -6 -5 -10 -5s-7.5 1.5 -10.5 4.5s-4.5 6.5 -4.5 10.5s2 8 6 12l126 114c3.33301 2 6.66602 3 9.99902 3c2 0 5 -1 9 -3l126 -114c3.33301 -3.33301 5 -7.33301 5 -12z" />
    <glyph glyph-name="edieresis" unicode="&#xeb;" horiz-adv-x="638" 
d="M570 270c0 -4.66699 -0.664062 -8.83301 -1.99707 -12.5s-5.33301 -5.5 -12 -5.5h-459c1.33301 -33.333 7.33301 -64.666 18 -93.999s25.5 -54.833 44.5 -76.5s41.833 -38.834 68.5 -51.501s57 -19 91 -19c16 0 32.333 1.83301 49 5.5s32.5 9 47.5 16s29 15.667 42 26
s23.833 22.5 32.5 36.5c4 4 8 6 12 6c9.33301 0 14 -4.33301 14 -13c0 -3.33301 -0.666992 -6 -2 -8c-10 -16 -22.333 -30 -37 -42s-30.834 -22.167 -48.501 -30.5s-35.834 -14.5 -54.501 -18.5s-37 -6 -55 -6c-40 0 -75.667 7.66699 -107 23s-57.666 36 -78.999 62
s-37.5 56 -48.5 90s-16.5 70 -16.5 108c0 37.333 5.5 73 16.5 107s27.167 64 48.5 90s47.666 46.667 78.999 62s67 23 107 23s75.5 -7.66699 106.5 -23s57.167 -35.666 78.5 -60.999s37.666 -54.833 48.999 -88.5s17 -68.834 17 -105.501zM542.003 280.001
c-2 33.333 -8.33301 64.5 -19 93.5s-25.5 54.333 -44.5 76s-41.833 38.834 -68.5 51.501s-57 19 -91 19s-64.333 -6.33301 -91 -19s-49.5 -29.834 -68.5 -51.501s-33.833 -47 -44.5 -76s-16.667 -60.167 -18 -93.5h445zM462.003 650.001c0 -8.66699 -2.66699 -15.667 -8 -21
s-12.333 -8 -21 -8s-15.5 2.66699 -20.5 8s-7.5 12.333 -7.5 21c0 18.667 9.33301 28 28 28c8.66699 0 15.667 -2.5 21 -7.5s8 -11.833 8 -20.5zM234.003 650.001c0 -8.66699 -2.66699 -15.667 -8 -21s-12.333 -8 -21 -8s-15.5 2.66699 -20.5 8s-7.5 12.333 -7.5 21
c0 18.667 9.33301 28 28 28c8.66699 0 15.667 -2.5 21 -7.5s8 -11.833 8 -20.5z" />
    <glyph glyph-name="igrave" unicode="&#xec;" horiz-adv-x="239" 
d="M135 14c0 -9.33301 -5.33301 -14 -16 -14c-8.66699 0 -13 4.66699 -13 14v504c0 8.66699 5.66699 13 17 13c8 0 12 -4.33301 12 -13v-504v0zM211 636c0 -4 -1.5 -7.50098 -4.5 -10.501s-6.5 -4.5 -10.5 -4.5c-2 0 -3.83301 0.5 -5.5 1.5s-3.5 2.16699 -5.5 3.5l-148 137
c-5.33301 4 -8 10 -8 18c0 5.33301 2.33301 10.333 7 15s10 7 16 7c7.33301 0 13 -2.66699 17 -8l137 -149c3.33301 -3.33301 5 -6.66602 5 -9.99902z" />
    <glyph glyph-name="iacute" unicode="&#xed;" horiz-adv-x="239" 
d="M135 14c0 -9.33301 -5.33301 -14 -16 -14c-8.66699 0 -13 4.66699 -13 14v504c0 8.66699 5.66699 13 17 13c8 0 12 -4.33301 12 -13v-504v0zM210 781c0 -8 -2.99902 -13.999 -8.99902 -17.999l-148 -137c-1.33301 -1.33301 -3 -2.5 -5 -3.5s-3.66699 -1.5 -5 -1.5
c-4 0 -7.5 1.5 -10.5 4.5s-4.5 6.5 -4.5 10.5c0 3.33301 1.66699 6.66602 5 9.99902l136 149c5.33301 5.33301 11.666 8 18.999 8c4.66699 0 10 -2.33301 16 -7c4 -4.66699 6 -9.66699 6 -15z" />
    <glyph glyph-name="icircumflex" unicode="&#xee;" horiz-adv-x="239" 
d="M135 14c0 -9.33301 -5.33301 -14 -16 -14c-8.66699 0 -13 4.66699 -13 14v504c0 8.66699 5.66699 13 17 13c8 0 12 -4.33301 12 -13v-504v0zM261 636c0 -4 -1.49902 -7.5 -4.49902 -10.5s-6.16699 -4.5 -9.5 -4.5c-4 0 -7.33301 1.66699 -10 5l-116 98l-117 -98
c-2.66699 -3.33301 -6 -5 -10 -5s-7.5 1.5 -10.5 4.5s-4.5 6.5 -4.5 10.5s2 8 6 12l126 114c3.33301 2 6.66602 3 9.99902 3c2 0 5 -1 9 -3l126 -114c3.33301 -3.33301 5 -7.33301 5 -12z" />
    <glyph glyph-name="idieresis" unicode="&#xef;" horiz-adv-x="239" 
d="M135 14c0 -9.33301 -5.33301 -14 -16 -14c-8.66699 0 -13 4.66699 -13 14v504c0 8.66699 5.66699 13 17 13c8 0 12 -4.33301 12 -13v-504v0zM263 650c0 -8.66699 -2.66699 -15.667 -8 -21s-12.333 -8 -21 -8s-15.5 2.66699 -20.5 8s-7.5 12.333 -7.5 21
c0 18.667 9.33301 28 28 28c8.66699 0 15.667 -2.5 21 -7.5s8 -11.833 8 -20.5zM35 650c0 -8.66699 -2.66699 -15.667 -8 -21s-12.333 -8 -21 -8s-15.5 2.66699 -20.5 8s-7.5 12.333 -7.5 21c0 18.667 9.33301 28 28 28c8.66699 0 15.667 -2.5 21 -7.5s8 -11.833 8 -20.5z
" />
    <glyph glyph-name="eth" unicode="&#xf0;" horiz-adv-x="651" 
d="M640 635c0 -3.33301 -1.33301 -6.5 -4 -9.5s-6.33398 -4.5 -11.001 -4.5h-110c14 -28.667 24.667 -58.5 32 -89.5s12.666 -62 15.999 -93s5.33301 -61 6 -90s1 -56.167 1 -81.5c0 -38 -5.5 -74.167 -16.5 -108.5s-27.167 -64.5 -48.5 -90.5s-47.666 -46.667 -78.999 -62
s-67 -23 -107 -23s-75.667 7.66699 -107 23s-57.666 36 -78.999 62s-37.5 56 -48.5 90s-16.5 70 -16.5 108c0 37.333 5.5 73 16.5 107s27.167 64 48.5 90s47.666 46.667 78.999 62s67 23 107 23c52.667 0 97.167 -12.167 133.5 -36.5s64.5 -56.5 84.5 -96.5
c-4 36 -9.83301 71.333 -17.5 106s-19.834 68 -36.501 100h-204c-4.66699 0 -8.33398 1.5 -11.001 4.5s-4 6.16699 -4 9.5c0 4 1.33301 7.5 4 10.5s6.33398 4.5 11.001 4.5h188c-27.333 44.667 -67 80.667 -119 108c-4.66699 2 -7 6.33301 -7 13c0 9.33301 4 14 12 14
c2.66699 0 5.33398 -0.666992 8.00098 -2c32 -16 59.333 -35.167 82 -57.5s41.667 -47.5 57 -75.5h125c4.66699 0 8.33398 -1.5 11.001 -4.5s4 -6.5 4 -10.5zM542 266c0 35.333 -5.00293 68.332 -15.0029 98.999s-24.5 57.5 -43.5 80.5s-42.333 41.167 -70 54.5
s-59.167 20 -94.5 20s-66.666 -6.66699 -93.999 -20s-50.5 -31.5 -69.5 -54.5s-33.5 -49.833 -43.5 -80.5s-15 -63.667 -15 -99s5 -68.5 15 -99.5s24.5 -58 43.5 -81s42.167 -41.167 69.5 -54.5s58.666 -20 93.999 -20c36.667 0 68.834 7 96.501 21
s50.834 32.833 69.501 56.5s32.834 50.834 42.501 81.501s14.5 62.667 14.5 96z" />
    <glyph glyph-name="ntilde" unicode="&#xf1;" horiz-adv-x="629" 
d="M547 14c0 -4.66699 -1.5 -8.33301 -4.5 -11s-6.5 -4 -10.5 -4c-2.66699 0 -5.5 1.33301 -8.5 4s-4.5 6.33398 -4.5 11.001v306c0 28 -5.16699 54.167 -15.5 78.5s-24.5 45.5 -42.5 63.5s-39.167 32.167 -63.5 42.5s-50.5 15.5 -78.5 15.5
c-27.333 0 -53.166 -5.16699 -77.499 -15.5s-45.5 -24.5 -63.5 -42.5s-32.167 -39.167 -42.5 -63.5s-15.5 -50.5 -15.5 -78.5v-306c0 -4.66699 -1.5 -8.33398 -4.5 -11.001s-6.5 -4 -10.5 -4c-3.33301 0 -6.5 1.33301 -9.5 4s-4.5 6.33398 -4.5 11.001v504
c0 4.66699 1.5 8.16699 4.5 10.5s6.16699 3.5 9.5 3.5c4 0 7.5 -1.16699 10.5 -3.5s4.5 -5.83301 4.5 -10.5v-87c21.333 36 49 64.5 83 85.5s72.667 31.5 116 31.5c31.333 0 60.666 -6 87.999 -18s51.5 -28.333 72.5 -49s37.5 -44.834 49.5 -72.501s18 -57.167 18 -88.5
v-306v0zM499 684.001c0 -1.33301 -0.165039 -2.83398 -0.498047 -4.50098s-1.16602 -3.16699 -2.49902 -4.5c-15.333 -15.333 -30.833 -28.166 -46.5 -38.499s-34.834 -15.5 -57.501 -15.5c-14.667 0 -29.334 3.16699 -44.001 9.5s-29 16.166 -43 29.499
c-11.333 11.333 -23 19.5 -35 24.5s-23.667 7.5 -35 7.5c-16 0 -30.833 -4.5 -44.5 -13.5s-25.167 -19.167 -34.5 -30.5c-2.66699 -4 -6 -6 -10 -6c-3.33301 0 -6.83301 1.66699 -10.5 5s-5.5 7 -5.5 11c0 2.66699 1 5 3 7l5 5c29.333 33.333 62.333 50 99 50
c15.333 0 30.5 -3.16699 45.5 -9.5s29.167 -16.166 42.5 -29.499c12 -12 23.833 -20.333 35.5 -25s22.5 -7 32.5 -7c11.333 0 21.833 2.16699 31.5 6.5s18 9.16602 25 14.499s12.5 10.333 16.5 15s6.33301 7.33398 7 8.00098c4 4 7.66699 6 11 6s6.66602 -1.5 9.99902 -4.5
s5 -6.5 5 -10.5z" />
    <glyph glyph-name="ograve" unicode="&#xf2;" horiz-adv-x="638" 
d="M570 266c0 -38 -5.5 -74 -16.5 -108s-27.167 -64 -48.5 -90s-47.666 -46.667 -78.999 -62s-67 -23 -107 -23s-75.667 7.66699 -107 23s-57.666 36 -78.999 62s-37.5 56 -48.5 90s-16.5 70 -16.5 108c0 37.333 5.5 73 16.5 107s27.167 64 48.5 90s47.666 46.667 78.999 62
s67 23 107 23s75.667 -7.66699 107 -23s57.666 -36 78.999 -62s37.5 -56 48.5 -90s16.5 -69.667 16.5 -107zM542 266c0 35.333 -5 68.333 -15 99s-24.5 57.5 -43.5 80.5s-42.333 41.167 -70 54.5s-59.167 20 -94.5 20s-66.666 -6.66699 -93.999 -20s-50.5 -31.5 -69.5 -54.5
s-33.5 -49.833 -43.5 -80.5s-15 -63.667 -15 -99s5 -68.5 15 -99.5s24.5 -58 43.5 -81s42.167 -41.167 69.5 -54.5s58.666 -20 93.999 -20s66.833 6.66699 94.5 20s51 31.5 70 54.5s33.5 50 43.5 81s15 64.167 15 99.5zM410 636c0 -4 -1.5 -7.50098 -4.5 -10.501
s-6.5 -4.5 -10.5 -4.5c-2 0 -3.83301 0.5 -5.5 1.5s-3.5 2.16699 -5.5 3.5l-148 137c-5.33301 4 -8 10 -8 18c0 5.33301 2.33301 10.333 7 15s10 7 16 7c7.33301 0 13 -2.66699 17 -8l137 -149c3.33301 -3.33301 5 -6.66602 5 -9.99902z" />
    <glyph glyph-name="oacute" unicode="&#xf3;" horiz-adv-x="638" 
d="M570 266c0 -38 -5.5 -74 -16.5 -108s-27.167 -64 -48.5 -90s-47.666 -46.667 -78.999 -62s-67 -23 -107 -23s-75.667 7.66699 -107 23s-57.666 36 -78.999 62s-37.5 56 -48.5 90s-16.5 70 -16.5 108c0 37.333 5.5 73 16.5 107s27.167 64 48.5 90s47.666 46.667 78.999 62
s67 23 107 23s75.667 -7.66699 107 -23s57.666 -36 78.999 -62s37.5 -56 48.5 -90s16.5 -69.667 16.5 -107zM542 266c0 35.333 -5 68.333 -15 99s-24.5 57.5 -43.5 80.5s-42.333 41.167 -70 54.5s-59.167 20 -94.5 20s-66.666 -6.66699 -93.999 -20s-50.5 -31.5 -69.5 -54.5
s-33.5 -49.833 -43.5 -80.5s-15 -63.667 -15 -99s5 -68.5 15 -99.5s24.5 -58 43.5 -81s42.167 -41.167 69.5 -54.5s58.666 -20 93.999 -20s66.833 6.66699 94.5 20s51 31.5 70 54.5s33.5 50 43.5 81s15 64.167 15 99.5zM410 781c0 -8 -2.99902 -13.999 -8.99902 -17.999
l-148 -137c-1.33301 -1.33301 -3 -2.5 -5 -3.5s-3.66699 -1.5 -5 -1.5c-4 0 -7.5 1.5 -10.5 4.5s-4.5 6.5 -4.5 10.5c0 3.33301 1.66699 6.66602 5 9.99902l136 149c5.33301 5.33301 11.666 8 18.999 8c4.66699 0 10 -2.33301 16 -7c4 -4.66699 6 -9.66699 6 -15z" />
    <glyph glyph-name="ocircumflex" unicode="&#xf4;" horiz-adv-x="638" 
d="M570 266c0 -38 -5.5 -74 -16.5 -108s-27.167 -64 -48.5 -90s-47.666 -46.667 -78.999 -62s-67 -23 -107 -23s-75.667 7.66699 -107 23s-57.666 36 -78.999 62s-37.5 56 -48.5 90s-16.5 70 -16.5 108c0 37.333 5.5 73 16.5 107s27.167 64 48.5 90s47.666 46.667 78.999 62
s67 23 107 23s75.667 -7.66699 107 -23s57.666 -36 78.999 -62s37.5 -56 48.5 -90s16.5 -69.667 16.5 -107zM542 266c0 35.333 -5 68.333 -15 99s-24.5 57.5 -43.5 80.5s-42.333 41.167 -70 54.5s-59.167 20 -94.5 20s-66.666 -6.66699 -93.999 -20s-50.5 -31.5 -69.5 -54.5
s-33.5 -49.833 -43.5 -80.5s-15 -63.667 -15 -99s5 -68.5 15 -99.5s24.5 -58 43.5 -81s42.167 -41.167 69.5 -54.5s58.666 -20 93.999 -20s66.833 6.66699 94.5 20s51 31.5 70 54.5s33.5 50 43.5 81s15 64.167 15 99.5zM460 636c0 -4 -1.49902 -7.5 -4.49902 -10.5
s-6.16699 -4.5 -9.5 -4.5c-4 0 -7.33301 1.66699 -10 5l-116 98l-117 -98c-2.66699 -3.33301 -6 -5 -10 -5s-7.5 1.5 -10.5 4.5s-4.5 6.5 -4.5 10.5s2 8 6 12l126 114c3.33301 2 6.66602 3 9.99902 3c2 0 5 -1 9 -3l126 -114c3.33301 -3.33301 5 -7.33301 5 -12z" />
    <glyph glyph-name="otilde" unicode="&#xf5;" horiz-adv-x="638" 
d="M570 266c0 -38 -5.5 -74 -16.5 -108s-27.167 -64 -48.5 -90s-47.666 -46.667 -78.999 -62s-67 -23 -107 -23s-75.667 7.66699 -107 23s-57.666 36 -78.999 62s-37.5 56 -48.5 90s-16.5 70 -16.5 108c0 37.333 5.5 73 16.5 107s27.167 64 48.5 90s47.666 46.667 78.999 62
s67 23 107 23s75.667 -7.66699 107 -23s57.666 -36 78.999 -62s37.5 -56 48.5 -90s16.5 -69.667 16.5 -107zM542 266c0 35.333 -5 68.333 -15 99s-24.5 57.5 -43.5 80.5s-42.333 41.167 -70 54.5s-59.167 20 -94.5 20s-66.666 -6.66699 -93.999 -20s-50.5 -31.5 -69.5 -54.5
s-33.5 -49.833 -43.5 -80.5s-15 -63.667 -15 -99s5 -68.5 15 -99.5s24.5 -58 43.5 -81s42.167 -41.167 69.5 -54.5s58.666 -20 93.999 -20s66.833 6.66699 94.5 20s51 31.5 70 54.5s33.5 50 43.5 81s15 64.167 15 99.5zM503 684
c0 -1.33301 -0.165039 -2.83398 -0.498047 -4.50098s-1.16602 -3.16699 -2.49902 -4.5c-15.333 -15.333 -30.833 -28.166 -46.5 -38.499s-34.834 -15.5 -57.501 -15.5c-14.667 0 -29.334 3.16699 -44.001 9.5s-29 16.166 -43 29.499c-11.333 11.333 -23 19.5 -35 24.5
s-23.667 7.5 -35 7.5c-16 0 -30.833 -4.5 -44.5 -13.5s-25.167 -19.167 -34.5 -30.5c-2.66699 -4 -6 -6 -10 -6c-3.33301 0 -6.83301 1.66699 -10.5 5s-5.5 7 -5.5 11c0 2.66699 1 5 3 7l5 5c29.333 33.333 62.333 50 99 50c15.333 0 30.5 -3.16699 45.5 -9.5
s29.167 -16.166 42.5 -29.499c12 -12 23.833 -20.333 35.5 -25s22.5 -7 32.5 -7c11.333 0 21.833 2.16699 31.5 6.5s18 9.16602 25 14.499s12.5 10.333 16.5 15s6.33301 7.33398 7 8.00098c4 4 7.66699 6 11 6s6.66602 -1.5 9.99902 -4.5s5 -6.5 5 -10.5z" />
    <glyph glyph-name="odieresis" unicode="&#xf6;" horiz-adv-x="638" 
d="M570 266c0 -38 -5.5 -74 -16.5 -108s-27.167 -64 -48.5 -90s-47.666 -46.667 -78.999 -62s-67 -23 -107 -23s-75.667 7.66699 -107 23s-57.666 36 -78.999 62s-37.5 56 -48.5 90s-16.5 70 -16.5 108c0 37.333 5.5 73 16.5 107s27.167 64 48.5 90s47.666 46.667 78.999 62
s67 23 107 23s75.667 -7.66699 107 -23s57.666 -36 78.999 -62s37.5 -56 48.5 -90s16.5 -69.667 16.5 -107zM542 266c0 35.333 -5 68.333 -15 99s-24.5 57.5 -43.5 80.5s-42.333 41.167 -70 54.5s-59.167 20 -94.5 20s-66.666 -6.66699 -93.999 -20s-50.5 -31.5 -69.5 -54.5
s-33.5 -49.833 -43.5 -80.5s-15 -63.667 -15 -99s5 -68.5 15 -99.5s24.5 -58 43.5 -81s42.167 -41.167 69.5 -54.5s58.666 -20 93.999 -20s66.833 6.66699 94.5 20s51 31.5 70 54.5s33.5 50 43.5 81s15 64.167 15 99.5zM462 650c0 -8.66699 -2.66699 -15.667 -8 -21
s-12.333 -8 -21 -8s-15.5 2.66699 -20.5 8s-7.5 12.333 -7.5 21c0 18.667 9.33301 28 28 28c8.66699 0 15.667 -2.5 21 -7.5s8 -11.833 8 -20.5zM234 650c0 -8.66699 -2.66699 -15.667 -8 -21s-12.333 -8 -21 -8s-15.5 2.66699 -20.5 8s-7.5 12.333 -7.5 21
c0 18.667 9.33301 28 28 28c8.66699 0 15.667 -2.5 21 -7.5s8 -11.833 8 -20.5z" />
    <glyph glyph-name="divide" unicode="&#xf7;" horiz-adv-x="507" 
d="M298 469c0 -12 -4.33301 -22.333 -13 -31s-19 -13 -31 -13s-22.167 4.16699 -30.5 12.5s-12.5 18.166 -12.5 29.499c0 12 4.16699 22.333 12.5 31s18.5 13 30.5 13s22.333 -4.16699 31 -12.5s13 -18.166 13 -29.499zM439 325c0 -3.33301 -1.33301 -6.5 -4 -9.5
s-6.33398 -4.5 -11.001 -4.5h-342c-4.66699 0 -8.33398 1.5 -11.001 4.5s-4 6.16699 -4 9.5c0 4 1.33301 7.5 4 10.5s6.33398 4.5 11.001 4.5h342c4.66699 0 8.33398 -1.5 11.001 -4.5s4 -6.5 4 -10.5zM298 184c0 -12 -4.33301 -22.332 -13 -30.999s-19 -13 -31 -13
s-22.167 4.16699 -30.5 12.5s-12.5 18.166 -12.5 29.499c0 12 4.16699 22.333 12.5 31s18.5 13 30.5 13s22.333 -4.33301 31 -13s13 -19 13 -31v2z" />
    <glyph glyph-name="oslash" unicode="&#xf8;" horiz-adv-x="638" 
d="M570 266c0 -38 -5.5 -74.001 -16.5 -108.001s-27.167 -64 -48.5 -90s-47.666 -46.667 -78.999 -62s-67 -23 -107 -23c-36 0 -67.833 5.83301 -95.5 17.5s-52.167 27.834 -73.5 48.501l-53 -62c-4.66699 -3.33301 -8 -5 -10 -5c-4 0 -7.5 1.66699 -10.5 5
s-4.5 6.66602 -4.5 9.99902s1 6.33301 3 9l56 65c-20.667 25.333 -36.334 54.833 -47.001 88.5s-16 69.167 -16 106.5s5.5 73 16.5 107s27.167 64 48.5 90s47.666 46.667 78.999 62s67 23 107 23c34.667 0 65.834 -5.66699 93.501 -17s52.167 -27 73.5 -47l50 60
c2.66699 3.33301 6 5 10 5s7.5 -1.33301 10.5 -4s4.5 -6 4.5 -10c0 -3.33301 -1.33301 -6.33301 -4 -9l-52 -62c21.333 -27.333 37.5 -57.666 48.5 -90.999s16.5 -69 16.5 -107zM466 462.999c-18 17.333 -39.333 31.167 -64 41.5s-52.334 15.5 -83.001 15.5
c-35.333 0 -66.666 -6.66699 -93.999 -20s-50.5 -31.5 -69.5 -54.5s-33.5 -49.833 -43.5 -80.5s-15 -63.667 -15 -99c0 -34 4.33301 -65.667 13 -95s21.667 -55.333 39 -78l317 370v0zM542 266c0 34 -4.83398 66 -14.501 96s-23.5 56.333 -41.5 79l-317 -369
c18.667 -19.333 40.334 -34.333 65.001 -45s53 -16 85 -16c35.333 0 66.833 6.66699 94.5 20s51 31.5 70 54.5s33.5 50 43.5 81s15 64.167 15 99.5z" />
    <glyph glyph-name="ugrave" unicode="&#xf9;" horiz-adv-x="629" 
d="M538 14c0 -4.66699 -1.49902 -8.33398 -4.49902 -11.001s-6.5 -4 -10.5 -4c-2.66699 0 -5.5 1.33301 -8.5 4s-4.5 6.33398 -4.5 11.001v86c-20 -34.667 -47.333 -62.834 -82 -84.501s-74 -32.5 -118 -32.5c-30.667 0 -59.834 6 -87.501 18s-52 28.5 -73 49.5
s-37.5 45.333 -49.5 73s-18 56.834 -18 87.501v307c0 4.66699 1.5 8.16699 4.5 10.5s6.16699 3.5 9.5 3.5c4 0 7.5 -1.16699 10.5 -3.5s4.5 -5.83301 4.5 -10.5v-307c0 -28 5.16699 -54.167 15.5 -78.5s24.5 -45.5 42.5 -63.5s39 -32.167 63 -42.5s50 -15.5 78 -15.5
s54.167 5.16699 78.5 15.5s45.5 24.5 63.5 42.5s32.167 39.167 42.5 63.5s15.5 50.5 15.5 78.5v307c0 4.66699 1.5 8.16699 4.5 10.5s5.83301 3.5 8.5 3.5c4 0 7.5 -1.16699 10.5 -3.5s4.5 -5.83301 4.5 -10.5v-504v0zM405.001 636c0 -4 -1.5 -7.50098 -4.5 -10.501
s-6.5 -4.5 -10.5 -4.5c-2 0 -3.83301 0.5 -5.5 1.5s-3.5 2.16699 -5.5 3.5l-148 137c-5.33301 4 -8 10 -8 18c0 5.33301 2.33301 10.333 7 15s10 7 16 7c7.33301 0 13 -2.66699 17 -8l137 -149c3.33301 -3.33301 5 -6.66602 5 -9.99902z" />
    <glyph glyph-name="uacute" unicode="&#xfa;" horiz-adv-x="629" 
d="M538 14c0 -4.66699 -1.49902 -8.33398 -4.49902 -11.001s-6.5 -4 -10.5 -4c-2.66699 0 -5.5 1.33301 -8.5 4s-4.5 6.33398 -4.5 11.001v86c-20 -34.667 -47.333 -62.834 -82 -84.501s-74 -32.5 -118 -32.5c-30.667 0 -59.834 6 -87.501 18s-52 28.5 -73 49.5
s-37.5 45.333 -49.5 73s-18 56.834 -18 87.501v307c0 4.66699 1.5 8.16699 4.5 10.5s6.16699 3.5 9.5 3.5c4 0 7.5 -1.16699 10.5 -3.5s4.5 -5.83301 4.5 -10.5v-307c0 -28 5.16699 -54.167 15.5 -78.5s24.5 -45.5 42.5 -63.5s39 -32.167 63 -42.5s50 -15.5 78 -15.5
s54.167 5.16699 78.5 15.5s45.5 24.5 63.5 42.5s32.167 39.167 42.5 63.5s15.5 50.5 15.5 78.5v307c0 4.66699 1.5 8.16699 4.5 10.5s5.83301 3.5 8.5 3.5c4 0 7.5 -1.16699 10.5 -3.5s4.5 -5.83301 4.5 -10.5v-504v0zM405.001 781c0 -8 -2.99902 -13.999 -8.99902 -17.999
l-148 -137c-1.33301 -1.33301 -3 -2.5 -5 -3.5s-3.66699 -1.5 -5 -1.5c-4 0 -7.5 1.5 -10.5 4.5s-4.5 6.5 -4.5 10.5c0 3.33301 1.66699 6.66602 5 9.99902l136 149c5.33301 5.33301 11.666 8 18.999 8c4.66699 0 10 -2.33301 16 -7c4 -4.66699 6 -9.66699 6 -15z" />
    <glyph glyph-name="ucircumflex" unicode="&#xfb;" horiz-adv-x="629" 
d="M538 14c0 -4.66699 -1.49902 -8.33398 -4.49902 -11.001s-6.5 -4 -10.5 -4c-2.66699 0 -5.5 1.33301 -8.5 4s-4.5 6.33398 -4.5 11.001v86c-20 -34.667 -47.333 -62.834 -82 -84.501s-74 -32.5 -118 -32.5c-30.667 0 -59.834 6 -87.501 18s-52 28.5 -73 49.5
s-37.5 45.333 -49.5 73s-18 56.834 -18 87.501v307c0 4.66699 1.5 8.16699 4.5 10.5s6.16699 3.5 9.5 3.5c4 0 7.5 -1.16699 10.5 -3.5s4.5 -5.83301 4.5 -10.5v-307c0 -28 5.16699 -54.167 15.5 -78.5s24.5 -45.5 42.5 -63.5s39 -32.167 63 -42.5s50 -15.5 78 -15.5
s54.167 5.16699 78.5 15.5s45.5 24.5 63.5 42.5s32.167 39.167 42.5 63.5s15.5 50.5 15.5 78.5v307c0 4.66699 1.5 8.16699 4.5 10.5s5.83301 3.5 8.5 3.5c4 0 7.5 -1.16699 10.5 -3.5s4.5 -5.83301 4.5 -10.5v-504v0zM455.001 636c0 -4 -1.49902 -7.5 -4.49902 -10.5
s-6.16699 -4.5 -9.5 -4.5c-4 0 -7.33301 1.66699 -10 5l-116 98l-117 -98c-2.66699 -3.33301 -6 -5 -10 -5s-7.5 1.5 -10.5 4.5s-4.5 6.5 -4.5 10.5s2 8 6 12l126 114c3.33301 2 6.66602 3 9.99902 3c2 0 5 -1 9 -3l126 -114c3.33301 -3.33301 5 -7.33301 5 -12z" />
    <glyph glyph-name="udieresis" unicode="&#xfc;" horiz-adv-x="629" 
d="M538 14c0 -4.66699 -1.49902 -8.33398 -4.49902 -11.001s-6.5 -4 -10.5 -4c-2.66699 0 -5.5 1.33301 -8.5 4s-4.5 6.33398 -4.5 11.001v86c-20 -34.667 -47.333 -62.834 -82 -84.501s-74 -32.5 -118 -32.5c-30.667 0 -59.834 6 -87.501 18s-52 28.5 -73 49.5
s-37.5 45.333 -49.5 73s-18 56.834 -18 87.501v307c0 4.66699 1.5 8.16699 4.5 10.5s6.16699 3.5 9.5 3.5c4 0 7.5 -1.16699 10.5 -3.5s4.5 -5.83301 4.5 -10.5v-307c0 -28 5.16699 -54.167 15.5 -78.5s24.5 -45.5 42.5 -63.5s39 -32.167 63 -42.5s50 -15.5 78 -15.5
s54.167 5.16699 78.5 15.5s45.5 24.5 63.5 42.5s32.167 39.167 42.5 63.5s15.5 50.5 15.5 78.5v307c0 4.66699 1.5 8.16699 4.5 10.5s5.83301 3.5 8.5 3.5c4 0 7.5 -1.16699 10.5 -3.5s4.5 -5.83301 4.5 -10.5v-504v0zM457.001 650c0 -8.66699 -2.66699 -15.667 -8 -21
s-12.333 -8 -21 -8s-15.5 2.66699 -20.5 8s-7.5 12.333 -7.5 21c0 18.667 9.33301 28 28 28c8.66699 0 15.667 -2.5 21 -7.5s8 -11.833 8 -20.5zM229.001 650c0 -8.66699 -2.66699 -15.667 -8 -21s-12.333 -8 -21 -8s-15.5 2.66699 -20.5 8s-7.5 12.333 -7.5 21
c0 18.667 9.33301 28 28 28c8.66699 0 15.667 -2.5 21 -7.5s8 -11.833 8 -20.5z" />
    <glyph glyph-name="yacute" unicode="&#xfd;" horiz-adv-x="571" 
d="M532 518c0 -3.33301 -0.333008 -5.66602 -1 -6.99902l-305 -663c-6 -13.333 -13.333 -23.833 -22 -31.5s-18.167 -13.5 -28.5 -17.5s-21 -6.66699 -32 -8s-21.833 -2 -32.5 -2h-29c-4.66699 0 -8.33398 1.5 -11.001 4.5s-4 6.5 -4 10.5c0 3.33301 1.33301 6.5 4 9.5
s6.33398 4.5 11.001 4.5l29 1c20.667 0.666992 38.667 3 54 7s27.333 15.667 36 35l69 153l-232 497c-1.33301 1.33301 -2 3.66602 -2 6.99902c0 4 1.5 7.16699 4.5 9.5s6.5 3.5 10.5 3.5c6.66699 0 11 -2.66699 13 -8l222 -476l219 475c2 6 6.33301 9 13 9
c9.33301 0 14 -4.33301 14 -13zM377 781c0 -8 -2.99902 -13.999 -8.99902 -17.999l-148 -137c-1.33301 -1.33301 -3 -2.5 -5 -3.5s-3.66699 -1.5 -5 -1.5c-4 0 -7.5 1.5 -10.5 4.5s-4.5 6.5 -4.5 10.5c0 3.33301 1.66699 6.66602 5 9.99902l136 149
c5.33301 5.33301 11.666 8 18.999 8c4.66699 0 10 -2.33301 16 -7c4 -4.66699 6 -9.66699 6 -15z" />
    <glyph glyph-name="thorn" unicode="&#xfe;" horiz-adv-x="661" 
d="M593 266c0 -38 -5.5 -73.999 -16.5 -107.999s-27.167 -64 -48.5 -90s-47.666 -46.667 -78.999 -62s-67 -23 -107 -23c-54.667 0 -100.334 13.167 -137.001 39.5s-65 61.166 -85 104.499v-323c0 -4.66699 -1.5 -8.33398 -4.5 -11.001s-6.5 -4 -10.5 -4
c-3.33301 0 -6.5 1.33301 -9.5 4s-4.5 6.33398 -4.5 11.001v912c0 4.66699 1.5 8.33398 4.5 11.001s6.16699 4 9.5 4c4 0 7.5 -1.33301 10.5 -4s4.5 -6.33398 4.5 -11.001v-311c20 42.667 48.333 77.167 85 103.5s82.334 39.5 137.001 39.5c40 0 75.667 -7.66699 107 -23
s57.666 -36 78.999 -62s37.5 -56 48.5 -90s16.5 -69.667 16.5 -107zM564 266.001c0 35.333 -5 68.333 -15 99s-24.5 57.5 -43.5 80.5s-42.167 41.167 -69.5 54.5s-58.666 20 -93.999 20s-66.666 -6.66699 -93.999 -20s-50.5 -31.5 -69.5 -54.5s-33.5 -49.833 -43.5 -80.5
s-15 -63.667 -15 -99s5 -68.5 15 -99.5s24.5 -58 43.5 -81s42.167 -41.167 69.5 -54.5s58.666 -20 93.999 -20s66.666 6.66699 93.999 20s50.5 31.5 69.5 54.5s33.5 50 43.5 81s15 64.167 15 99.5z" />
    <glyph glyph-name="ydieresis" unicode="&#xff;" horiz-adv-x="571" 
d="M532 518c0 -3.33301 -0.333008 -5.66602 -1 -6.99902l-305 -663c-6 -13.333 -13.333 -23.833 -22 -31.5s-18.167 -13.5 -28.5 -17.5s-21 -6.66699 -32 -8s-21.833 -2 -32.5 -2h-29c-4.66699 0 -8.33398 1.5 -11.001 4.5s-4 6.5 -4 10.5c0 3.33301 1.33301 6.5 4 9.5
s6.33398 4.5 11.001 4.5l29 1c20.667 0.666992 38.667 3 54 7s27.333 15.667 36 35l69 153l-232 497c-1.33301 1.33301 -2 3.66602 -2 6.99902c0 4 1.5 7.16699 4.5 9.5s6.5 3.5 10.5 3.5c6.66699 0 11 -2.66699 13 -8l222 -476l219 475c2 6 6.33301 9 13 9
c9.33301 0 14 -4.33301 14 -13zM429 650c0 -8.66699 -2.66699 -15.667 -8 -21s-12.333 -8 -21 -8s-15.5 2.66699 -20.5 8s-7.5 12.333 -7.5 21c0 18.667 9.33301 28 28 28c8.66699 0 15.667 -2.5 21 -7.5s8 -11.833 8 -20.5zM201 650c0 -8.66699 -2.66699 -15.667 -8 -21
s-12.333 -8 -21 -8s-15.5 2.66699 -20.5 8s-7.5 12.333 -7.5 21c0 18.667 9.33301 28 28 28c8.66699 0 15.667 -2.5 21 -7.5s8 -11.833 8 -20.5z" />
    <glyph glyph-name="dotlessi" unicode="&#x131;" horiz-adv-x="239" 
d="M135 14c0 -9.33301 -5.33301 -14 -16 -14c-8.66699 0 -13 4.66699 -13 14v504c0 8.66699 5.66699 13 17 13c8 0 12 -4.33301 12 -13v-504v0z" />
    <glyph glyph-name="Lslash" unicode="&#x141;" horiz-adv-x="552" 
d="M512 14c0 -3.33301 -1.33203 -6.50293 -3.99902 -9.50293s-6.33398 -4.5 -11.001 -4.5h-362c-4 0 -7.33301 1.5 -10 4.5s-4 6.5 -4 10.5v385l-99 -57c-4 -1.33301 -6.33301 -2 -7 -2c-4 0 -7.5 1.66699 -10.5 5s-4.5 7 -4.5 11c0 4.66699 2.66699 8.33398 8 11.001
l113 65v266c0 4.66699 1.5 8.33398 4.5 11.001s6.16699 4 9.5 4c9.33301 0 14 -5 14 -15v-250l168 97c2.66699 1.33301 5 2 7 2c4 0 7.5 -1.5 10.5 -4.5s4.5 -6.16699 4.5 -9.5c0 -5.33301 -2.66699 -9.66602 -8 -12.999l-182 -105v-388h348c10 0 15 -4.66699 15 -14z" />
    <glyph glyph-name="lslash" unicode="&#x142;" horiz-adv-x="351" 
d="M328 528c0 -5.33301 -2.66797 -9.66895 -8.00098 -13.002l-151 -89v-326c0 -20 6.66699 -37 20 -51s30 -21 50 -21c10 0 15 -4.66699 15 -14c0 -3.33301 -1.16699 -6.5 -3.5 -9.5s-6.16602 -4.5 -11.499 -4.5c-13.333 0 -26 2.66699 -38 8s-22.5 12.5 -31.5 21.5
s-16.167 19.5 -21.5 31.5s-8 25 -8 39v312l-118 -69c-4 -1.33301 -6.33301 -2 -7 -2c-4 0 -7.5 1.66699 -10.5 5s-4.5 7 -4.5 11c0 4.66699 2.66699 8.33398 8 11.001l132 77v254c0 4.66699 1.5 8.33398 4.5 11.001s6.16699 4 9.5 4c4 0 7.5 -1.33301 10.5 -4
s4.5 -6.33398 4.5 -11.001v-240l138 81c2 2 4.33301 3 7 3c3.33301 0 6.5 -1.66699 9.5 -5s4.5 -6.66602 4.5 -9.99902z" />
    <glyph glyph-name="OE" unicode="&#x152;" horiz-adv-x="940" 
d="M872 15c0 -4 -1.33301 -7.49805 -4 -10.498s-6.33398 -4.5 -11.001 -4.5h-369c-10 0 -15 5 -15 15v11c-34 -16.667 -75 -25 -123 -25c-50.667 0 -93.667 9.5 -129 28.5s-64 44.667 -86 77s-37.833 70.166 -47.5 113.499s-14.5 89 -14.5 137
c0 48.667 4.83301 94.667 14.5 138s25.5 81.166 47.5 113.499s50.667 58 86 77s78.333 28.5 129 28.5c48 0 89 -8.33301 123 -25v11c0 4.66699 1.5 8.16699 4.5 10.5s6.5 3.5 10.5 3.5h369c4.66699 0 8.33398 -1.5 11.001 -4.5s4 -6.5 4 -10.5
c0 -3.33301 -1.33301 -6.5 -4 -9.5s-6.33398 -4.5 -11.001 -4.5h-355v-287h245c4.66699 0 8.33398 -1.5 11.001 -4.5s4 -6.5 4 -10.5c0 -3.33301 -1.33301 -6.5 -4 -9.5s-6.33398 -4.5 -11.001 -4.5h-245v-339h355c4.66699 0 8.33398 -1.5 11.001 -4.5s4 -6.5 4 -10.5z
M473 656.002c-33.333 19.333 -74.333 28.998 -123 28.998c-44.667 0 -82.667 -8.16699 -114 -24.5s-57 -39.166 -77 -68.499s-34.667 -64 -44 -104s-14 -83.667 -14 -131c0 -46.667 4.66699 -90 14 -130s24 -74.667 44 -104s45.667 -52.166 77 -68.499
s69.333 -24.5 114 -24.5c48.667 0 89.667 9.66699 123 29v597z" />
    <glyph glyph-name="oe" unicode="&#x153;" horiz-adv-x="975" 
d="M906 270c0 -4.66699 -0.666016 -8.83301 -1.99902 -12.5s-5 -5.5 -11 -5.5h-460c1.33301 -33.333 7.33301 -64.666 18 -93.999s25.5 -54.833 44.5 -76.5s42 -38.834 69 -51.501s57.5 -19 91.5 -19c16 0 32.167 1.83301 48.5 5.5s32 9 47 16s29 15.667 42 26
s23.833 22.5 32.5 36.5c4 4 8 6 12 6s7.5 -1.16699 10.5 -3.5s4.5 -5.5 4.5 -9.5c0 -3.33301 -1 -6 -3 -8c-10 -16 -22.333 -30 -37 -42s-30.667 -22.167 -48 -30.5s-35.333 -14.5 -54 -18.5s-37 -6 -55 -6c-35.333 0 -67 5.83301 -95 17.5s-52.333 27.834 -73 48.501
c-21.333 -20.667 -46 -36.834 -74 -48.501s-59.667 -17.5 -95 -17.5c-40 0 -75.667 7.66699 -107 23s-57.666 36 -78.999 62s-37.5 56 -48.5 90s-16.5 70 -16.5 108c0 37.333 5.5 73 16.5 107s27.167 64 48.5 90s47.666 46.667 78.999 62s67 23 107 23
c35.333 0 67 -5.83301 95 -17.5s52.667 -27.834 74 -48.501c20.667 20.667 45 36.834 73 48.501s59.667 17.5 95 17.5c39.333 0 74.5 -7.66699 105.5 -23s57.167 -35.666 78.5 -60.999s37.666 -54.833 48.999 -88.5s17 -68.834 17 -105.501zM878.001 280.001
c-1.33301 33.333 -7.33301 64.668 -18 94.001s-25.5 54.833 -44.5 76.5s-41.833 38.667 -68.5 51s-57 18.5 -91 18.5s-64.5 -6.33301 -91.5 -19s-50 -29.834 -69 -51.501s-33.833 -47 -44.5 -76s-16.667 -60.167 -18 -93.5h445v0zM469.001 70.0029
c-24 28 -40.667 58.667 -50 92s-14 68 -14 104c0 34.667 5 69 15 103s26.333 65 49 93c-19.333 18 -41.166 32.167 -65.499 42.5s-52.5 15.5 -84.5 15.5c-35.333 0 -66.666 -6.66699 -93.999 -20s-50.5 -31.5 -69.5 -54.5s-33.5 -49.833 -43.5 -80.5s-15 -63.667 -15 -99
s5 -68.5 15 -99.5s24.5 -58 43.5 -81s42.167 -41.167 69.5 -54.5s58.666 -20 93.999 -20c32 0 60.167 5.16699 84.5 15.5s46.166 24.833 65.499 43.5z" />
    <glyph glyph-name="Scaron" unicode="&#x160;" 
d="M553 181c0 -33.333 -6.8291 -62.332 -20.4961 -86.999s-32 -45 -55 -61s-49.5 -28 -79.5 -36s-61.667 -12 -95 -12c-19.333 0 -39.5 1.83301 -60.5 5.5s-41.833 9 -62.5 16s-40.5 15.333 -59.5 25s-36.5 20.5 -52.5 32.5c-3.33301 3.33301 -5 6.66602 -5 9.99902
c0 4 1.5 7.66699 4.5 11s6.5 5 10.5 5c1.33301 0 2.66602 -0.166992 3.99902 -0.5s2.33301 -1.16602 3 -2.49902c0 -0.666992 5.66699 -4.83398 17 -12.501s26.833 -16 46.5 -25s42.667 -17.167 69 -24.5s54.833 -11 85.5 -11c32 0 61.5 3.66699 88.5 11s50.333 18 70 32
s35 31.333 46 52s16.5 44.667 16.5 72c0 28.667 -6.16699 52.834 -18.5 72.501s-28.833 36.5 -49.5 50.5s-44 25.833 -70 35.5l-80 28.5c-27.333 9.33301 -54 19 -80 29s-49.333 22.167 -70 36.5s-37.167 31.833 -49.5 52.5s-18.5 45.667 -18.5 75c0 28 6 52.5 18 73.5
s28.333 38.333 49 52s44.667 23.834 72 30.501s56.333 10 87 10c14 0 29.667 -1.33301 47 -4s34.666 -6.83398 51.999 -12.501s33.666 -12.834 48.999 -21.501s27.666 -19 36.999 -31c2.66699 -3.33301 4 -6.33301 4 -9c0 -4 -1.5 -7.33301 -4.5 -10s-6.5 -4 -10.5 -4
s-7.33301 1.66699 -10 5c-10 11.333 -21.833 20.833 -35.5 28.5s-27.834 13.834 -42.501 18.501s-29.334 7.83398 -44.001 9.50098s-28.667 2.5 -42 2.5c-30 0 -57.167 -3 -81.5 -9s-45.166 -15 -62.499 -27s-30.666 -26.5 -39.999 -43.5s-14 -36.5 -14 -58.5
c0 -19.333 3.66699 -36.333 11 -51s17.5 -27.834 30.5 -39.501s28 -21.834 45 -30.501s35.5 -17 55.5 -25c31.333 -12 64.333 -23.5 99 -34.5s66.5 -24.667 95.5 -41s53 -36.833 72 -61.5s28.5 -57 28.5 -97zM449.004 978.001c0 -4 -2 -7.66797 -6 -11.001l-126 -114
c-2 -2.66699 -5 -4 -9 -4c-3.33301 0 -6.33301 1.33301 -9 4l-127 114c-2.66699 2.66699 -4 6.33398 -4 11.001c0 4 1.33301 7.5 4 10.5s5.66699 4.5 9 4.5c4 0 7.66699 -1.66699 11 -5l116 -98l116 98c2.66699 3.33301 6 5 10 5s7.5 -1.5 10.5 -4.5s4.5 -6.5 4.5 -10.5z
" />
    <glyph glyph-name="scaron" unicode="&#x161;" horiz-adv-x="516" 
d="M459 135c0 -28.667 -5.8291 -52.8311 -17.4961 -72.498s-27 -35.667 -46 -48s-40.833 -21 -65.5 -26s-49.667 -7.5 -75 -7.5c-34 0 -62.833 3.66699 -86.5 11s-43.334 15.666 -59.001 24.999s-27.5 18.166 -35.5 26.499s-13 13.833 -15 16.5c-1.33301 4 -2 6.66699 -2 8
c0 4 1.33301 7.5 4 10.5s6 4.5 10 4.5c4.66699 0 7.5 -1 8.5 -3s4.83301 -6.66699 11.5 -14c21.333 -22 46.666 -37 75.999 -45s58.666 -12 87.999 -12c25.333 0 48.666 2.33301 69.999 7s39.833 12.167 55.5 22.5s28 23.5 37 39.5s13.5 35 13.5 57
c0 29.333 -8.66699 51.833 -26 67.5s-38.833 28 -64.5 37s-53.667 16.5 -84 22.5s-58.333 14.167 -84 24.5s-47.167 24.666 -64.5 42.999s-26 44.166 -26 77.499c0 24.667 5.33301 45.834 16 63.501s24.667 32 42 43s37 19.167 59 24.5s44.667 8 68 8
c11.333 0 24.166 -1 38.499 -3s28.833 -5 43.5 -9s28.667 -9.16699 42 -15.5s24.333 -13.833 33 -22.5c4 -3.33301 6 -6.66602 6 -9.99902s-1.5 -6.5 -4.5 -9.5s-6.5 -4.5 -10.5 -4.5c-3.33301 0 -5.66602 0.5 -6.99902 1.5l-10 7.5c-19.333 13.333 -40.5 22.833 -63.5 28.5
s-45.5 8.5 -67.5 8.5c-22.667 0 -43.5 -2.33301 -62.5 -7s-35.5 -11.667 -49.5 -21s-24.833 -21 -32.5 -35s-11.5 -30 -11.5 -48c0 -21.333 5.5 -39 16.5 -53s24.667 -25.5 41 -34.5s34 -16 53 -21s36.5 -9.16699 52.5 -12.5c21.333 -4.66699 43 -10.167 65 -16.5
s41.833 -15 59.5 -26s32.167 -25 43.5 -42s17 -39.167 17 -66.5zM399.004 750.003c0 -4 -2 -7.66797 -6 -11.001l-126 -114c-2 -2.66699 -5 -4 -9 -4c-3.33301 0 -6.33301 1.33301 -9 4l-127 114c-2.66699 2.66699 -4 6.33398 -4 11.001c0 4 1.33301 7.5 4 10.5
s5.66699 4.5 9 4.5c4 0 7.66699 -1.66699 11 -5l116 -98l116 98c2.66699 3.33301 6 5 10 5s7.5 -1.5 10.5 -4.5s4.5 -6.5 4.5 -10.5z" />
    <glyph glyph-name="Ydieresis" unicode="&#x178;" horiz-adv-x="577" 
d="M531 700c0 -2.66699 -0.666992 -5.33398 -2 -8.00098l-226 -389v-289c0 -4.66699 -1.5 -8.33398 -4.5 -11.001s-6.5 -4 -10.5 -4c-2.66699 0 -5.5 1.33301 -8.5 4s-4.5 6.33398 -4.5 11.001v289l-227 389c-1.33301 2.66699 -2 5.33398 -2 8.00098c0 4 1.5 7.33301 4.5 10
s6.16699 4 9.5 4c4 0 8 -2.66699 12 -8l216 -371l217 371c3.33301 5.33301 7 8 11 8s7.5 -1.33301 10.5 -4s4.5 -6 4.5 -10zM431 878c0 -8.66699 -2.66699 -15.667 -8 -21s-12.333 -8 -21 -8s-15.5 2.66699 -20.5 8s-7.5 12.333 -7.5 21c0 18.667 9.33301 28 28 28
c8.66699 0 15.667 -2.5 21 -7.5s8 -11.833 8 -20.5zM203 878c0 -8.66699 -2.66699 -15.667 -8 -21s-12.333 -8 -21 -8s-15.5 2.66699 -20.5 8s-7.5 12.333 -7.5 21c0 18.667 9.33301 28 28 28c8.66699 0 15.667 -2.5 21 -7.5s8 -11.833 8 -20.5z" />
    <glyph glyph-name="florin" unicode="&#x192;" horiz-adv-x="285" 
d="M275 516c0 -2.66699 -1.33203 -5.5 -3.99902 -8.5s-6.33398 -4.5 -11.001 -4.5h-119v-503c0 -12.667 -2.5 -25 -7.5 -37s-11.833 -22.5 -20.5 -31.5s-19 -16.333 -31 -22s-25.333 -8.5 -40 -8.5h-16c-4.66699 0 -8.33398 1.5 -11.001 4.5s-4 6.5 -4 10.5
c0 2.66699 1.33301 5.5 4 8.5s6.33398 4.5 11.001 4.5h16c20 0 36.833 6.83301 50.5 20.5s20.5 30.5 20.5 50.5v502h-82c-4.66699 0 -8.33398 1.5 -11.001 4.5s-4 5.83301 -4 8.5c0 4 1.33301 7.5 4 10.5s6.33398 4.5 11.001 4.5h82v83c0 28 9.5 51.5 28.5 70.5
s42.5 28.5 70.5 28.5h47c10 0 15 -4.66699 15 -14c0 -3.33301 -1.33301 -6.5 -4 -9.5s-6.33398 -4.5 -11.001 -4.5h-47c-20 0 -36.833 -6.83301 -50.5 -20.5s-20.5 -30.5 -20.5 -50.5v-82h119c4.66699 0 8.33398 -1.5 11.001 -4.5s4 -6.5 4 -10.5z" />
    <glyph glyph-name="circumflex" unicode="&#x2c6;" 
d="M446 636c0 -4 -1.49902 -7.5 -4.49902 -10.5s-6.16699 -4.5 -9.5 -4.5c-4 0 -7.33301 1.66699 -10 5l-116 98l-117 -98c-2.66699 -3.33301 -6 -5 -10 -5s-7.5 1.5 -10.5 4.5s-4.5 6.5 -4.5 10.5s2 8 6 12l126 114c3.33301 2 6.66602 3 9.99902 3c2 0 5 -1 9 -3l126 -114
c3.33301 -3.33301 5 -7.33301 5 -12z" />
    <glyph glyph-name="caron" unicode="&#x2c7;" 
d="M449 750c0 -4 -2 -7.66797 -6 -11.001l-126 -114c-2 -2.66699 -5 -4 -9 -4c-3.33301 0 -6.33301 1.33301 -9 4l-127 114c-2.66699 2.66699 -4 6.33398 -4 11.001c0 4 1.33301 7.5 4 10.5s5.66699 4.5 9 4.5c4 0 7.66699 -1.66699 11 -5l116 -98l116 98
c2.66699 3.33301 6 5 10 5s7.5 -1.5 10.5 -4.5s4.5 -6.5 4.5 -10.5z" />
    <glyph glyph-name="breve" unicode="&#x2d8;" 
d="M437 750c0 -17.333 -3.49805 -33.834 -10.498 -49.501s-16.333 -29.334 -28 -41.001s-25.334 -21 -41.001 -28s-32.167 -10.5 -49.5 -10.5s-33.833 3.5 -49.5 10.5s-29.334 16.333 -41.001 28s-21 25.334 -28 41.001s-10.5 32.167 -10.5 49.5
c0 4.66699 1.5 8.33398 4.5 11.001s6.16699 4 9.5 4c9.33301 0 14 -5 14 -15c0 -14 2.66699 -27 8 -39s12.5 -22.5 21.5 -31.5s19.667 -16.167 32 -21.5s25.5 -8 39.5 -8s27.167 2.66699 39.5 8s23 12.5 32 21.5s16 19.5 21 31.5s7.5 25 7.5 39
c0 4.66699 1.5 8.33398 4.5 11.001s6.16699 4 9.5 4c4 0 7.5 -1.33301 10.5 -4s4.5 -6.33398 4.5 -11.001z" />
    <glyph glyph-name="dotaccent" unicode="&#x2d9;" 
d="M351 621c0 -12 -4.16699 -22.167 -12.5 -30.5s-18.5 -12.5 -30.5 -12.5s-22.333 4.16699 -31 12.5s-13 18.166 -13 29.499c0 12 4.33301 22.167 13 30.5s19 12.5 31 12.5s22.167 -4.16699 30.5 -12.5s12.5 -18.166 12.5 -29.499z" />
    <glyph glyph-name="ring" unicode="&#x2da;" 
d="M423 622c0 -16 -3 -30.832 -9 -44.499s-14.167 -25.834 -24.5 -36.501s-22.5 -19 -36.5 -25s-29 -9 -45 -9s-31 3 -45 9s-26.167 14.167 -36.5 24.5s-18.5 22.5 -24.5 36.5s-9 28.667 -9 44c0 16 3 31 9 45s14.167 26.167 24.5 36.5s22.5 18.5 36.5 24.5s29 9 45 9
s31 -3 45 -9s26.167 -14.167 36.5 -24.5s18.5 -22.333 24.5 -36s9 -28.5 9 -44.5zM394 621.001c0 24.667 -8.16797 45.334 -24.501 62.001s-36.833 25 -61.5 25c-12 0 -23.333 -2.33301 -34 -7s-20 -10.834 -28 -18.501s-14.167 -16.667 -18.5 -27s-6.5 -21.5 -6.5 -33.5
c0 -24.667 8.33301 -45.167 25 -61.5s37.334 -24.5 62.001 -24.5s45.167 8 61.5 24s24.5 36.333 24.5 61z" />
    <glyph glyph-name="ogonek" unicode="&#x2db;" 
d="M396 -189c0 -4 -1.66699 -7.00098 -5 -9.00098c-18.667 -20 -42.334 -30 -71.001 -30c-14 0 -27 2.5 -39 7.5s-22.5 12 -31.5 21s-16.167 19.667 -21.5 32s-8 25.5 -8 39.5c0 26.667 9 49.667 27 69l79 78c2.66699 3.33301 6 5 10 5s7.5 -1.5 10.5 -4.5
s4.5 -6.5 4.5 -10.5c0 -3.33301 -1.33301 -6.33301 -4 -9l-79 -79c-12.667 -12 -19 -28.333 -19 -49c0 -20 6.83301 -36.833 20.5 -50.5s30.5 -20.5 50.5 -20.5c20.667 0 37.334 6.66699 50.001 20c4.66699 3.33301 8.66699 5 12 5s6.5 -1.66699 9.5 -5
s4.5 -6.66602 4.5 -9.99902z" />
    <glyph glyph-name="tilde" unicode="&#x2dc;" 
d="M492 684c0 -1.33301 -0.165039 -2.83398 -0.498047 -4.50098s-1.16602 -3.16699 -2.49902 -4.5c-15.333 -15.333 -30.833 -28.166 -46.5 -38.499s-34.834 -15.5 -57.501 -15.5c-14.667 0 -29.334 3.16699 -44.001 9.5s-29 16.166 -43 29.499
c-11.333 11.333 -23 19.5 -35 24.5s-23.667 7.5 -35 7.5c-16 0 -30.833 -4.5 -44.5 -13.5s-25.167 -19.167 -34.5 -30.5c-2.66699 -4 -6 -6 -10 -6c-3.33301 0 -6.83301 1.66699 -10.5 5s-5.5 7 -5.5 11c0 2.66699 1 5 3 7l5 5c29.333 33.333 62.333 50 99 50
c15.333 0 30.5 -3.16699 45.5 -9.5s29.167 -16.166 42.5 -29.499c12 -12 23.833 -20.333 35.5 -25s22.5 -7 32.5 -7c11.333 0 21.833 2.16699 31.5 6.5s18 9.16602 25 14.499s12.5 10.333 16.5 15s6.33301 7.33398 7 8.00098c4 4 7.66699 6 11 6s6.66602 -1.5 9.99902 -4.5
s5 -6.5 5 -10.5z" />
    <glyph glyph-name="hungarumlaut" unicode="&#x2dd;" 
d="M416 817c0 -2 -0.333008 -3.66797 -1 -5.00098l-64 -180c-2 -7.33301 -6 -11 -12 -11c-4 0 -7.66699 1.33301 -11 4s-5 6.33398 -5 11.001c0 0.666992 0.166992 1.5 0.5 2.5s0.5 1.83301 0.5 2.5l60 182c1.33301 4 3.33301 6.83301 6 8.5s5.66699 2.5 9 2.5
c4 0 7.83301 -1.16699 11.5 -3.5s5.5 -6.83301 5.5 -13.5zM292 816.999c0 -2 -0.333008 -3.66797 -1 -5.00098l-64 -180c-2 -7.33301 -6.33301 -11 -13 -11c-4 0 -7.66699 1.33301 -11 4s-5 6.33398 -5 11.001c0 0.666992 0.166992 1.5 0.5 2.5s0.5 1.83301 0.5 2.5l61 182
c1.33301 4 3.33301 6.83301 6 8.5s5.66699 2.5 9 2.5c4 0 7.83301 -1.16699 11.5 -3.5s5.5 -6.83301 5.5 -13.5z" />
    <glyph glyph-name="Omega" unicode="&#x3a9;" horiz-adv-x="730" 
d="M642 378c0 -95.333 -17.666 -168.502 -52.999 -219.502s-86.666 -84.167 -153.999 -99.5v-31h146c10 0 15 -4.66699 15 -14c0 -3.33301 -1.16699 -6.5 -3.5 -9.5s-6.16602 -4.5 -11.499 -4.5h-159c-4.66699 0 -8.33398 1.5 -11.001 4.5s-4 6.16699 -4 9.5v57
c0 2.66699 1.33301 5.33398 4 8.00098s5.66699 4.33398 9 5.00098c30.667 6 58 16 82 30s44.167 32.833 60.5 56.5s28.833 52.667 37.5 87s13 74.5 13 120.5c0 47.333 -4.5 90.833 -13.5 130.5s-23.5 73.834 -43.5 102.501s-45.667 51 -77 67s-69.333 24 -114 24
s-82.667 -8 -114 -24s-57 -38.333 -77 -67s-34.667 -62.834 -44 -102.501s-14 -83.167 -14 -130.5c0 -46.667 4 -86.667 12 -120s20.167 -61.5 36.5 -84.5s36.666 -41.667 60.999 -56s52.833 -25.5 85.5 -33.5c2 -0.666992 4.5 -2.33398 7.5 -5.00098
s4.5 -5.33398 4.5 -8.00098v-56c0 -10 -5 -15 -15 -15h-161c-4.66699 0 -8.33398 1.5 -11.001 4.5s-4 6.16699 -4 9.5c0 9.33301 5 14 15 14h147v31c-70 18.667 -121.833 52.834 -155.5 102.501s-50.5 121.834 -50.5 216.501c0 48.667 4.83301 94.334 14.5 137.001
s25.5 80 47.5 112s50.667 57.333 86 76s78.333 28 129 28s93.667 -9.33301 129 -28s64 -44 86 -76s37.833 -69.333 47.5 -112s14.5 -88.334 14.5 -137.001z" />
    <glyph glyph-name="pi" unicode="&#x3c0;" horiz-adv-x="627" 
d="M571 518c0 -3.33301 -1.33203 -6.5 -3.99902 -9.5s-6.33398 -4.5 -11.001 -4.5h-115v-432c0 -10 3.5 -19.5 10.5 -28.5s17.167 -13.5 30.5 -13.5c9.33301 0 14 -4.33301 14 -13c0 -4 -1.33301 -7.66699 -4 -11s-6.66699 -5 -12 -5c-16 0 -31.167 6.5 -45.5 19.5
s-21.5 30.167 -21.5 51.5v432h-200v-488c0 -4.66699 -1.5 -8.33398 -4.5 -11.001s-6.5 -4 -10.5 -4c-2.66699 0 -5.5 1.33301 -8.5 4s-4.5 6.33398 -4.5 11.001v488h-117c-4.66699 0 -8.16699 1.5 -10.5 4.5s-3.5 6.16699 -3.5 9.5c0 9.33301 4.66699 14 14 14h488
c10 0 15 -4.66699 15 -14z" />
    <glyph glyph-name="endash" unicode="&#x2013;" horiz-adv-x="593" 
d="M526 326c0 -3.33301 -1.33301 -6.5 -4 -9.5s-6.33398 -4.5 -11.001 -4.5l-429 -1c-4.66699 0 -8.33398 1.5 -11.001 4.5s-4 6.5 -4 10.5s1.33301 7.5 4 10.5s6.33398 4.5 11.001 4.5h429c4.66699 0 8.33398 -1.5 11.001 -4.5s4 -6.5 4 -10.5z" />
    <glyph glyph-name="emdash" unicode="&#x2014;" horiz-adv-x="822" 
d="M754 326c0 -3.33301 -1.33301 -6.5 -4 -9.5s-6.33398 -4.5 -11.001 -4.5l-657 -1c-4.66699 0 -8.33398 1.5 -11.001 4.5s-4 6.5 -4 10.5s1.33301 7.5 4 10.5s6.33398 4.5 11.001 4.5h657c4.66699 0 8.33398 -1.5 11.001 -4.5s4 -6.5 4 -10.5z" />
    <glyph glyph-name="quoteleft" unicode="&#x2018;" horiz-adv-x="225" 
d="M179 769c0 -5.33301 -2.66602 -9.33203 -7.99902 -11.999c-12 -7.33301 -21.667 -15.5 -29 -24.5s-13 -17.833 -17 -26.5s-6.83301 -16.834 -8.5 -24.501s-2.5 -14.167 -2.5 -19.5v-99c0 -4.66699 -1.5 -8.33398 -4.5 -11.001s-6.5 -4 -10.5 -4
c-3.33301 0 -6.5 1.33301 -9.5 4s-4.5 6.33398 -4.5 11.001v99c0 6 1 14 3 24s5.66699 20.667 11 32s12.666 22.666 21.999 33.999s21.333 21.333 36 30c4 1.33301 6.33301 2 7 2c4 0 7.5 -1.66699 10.5 -5s4.5 -6.66602 4.5 -9.99902z" />
    <glyph glyph-name="quoteright" unicode="&#x2019;" horiz-adv-x="225" 
d="M139 670c0 -5.33301 -1.00098 -13.001 -3.00098 -23.001s-5.5 -20.833 -10.5 -32.5s-12.167 -23.167 -21.5 -34.5s-21.666 -21 -36.999 -29c-2 -2 -4.33301 -3 -7 -3c-4.66699 0 -8.16699 1.66699 -10.5 5s-3.5 7 -3.5 11c0 5.33301 2 9.33301 6 12
c12 6.66699 21.833 14.5 29.5 23.5s13.667 18 18 27s7.33301 17.333 9 25s2.5 13.834 2.5 18.501v99c0 5.33301 1.5 9 4.5 11s5.83301 3 8.5 3c4 0 7.5 -1 10.5 -3s4.5 -5.66699 4.5 -11v-99v0z" />
    <glyph glyph-name="quotesinglbase" unicode="&#x201a;" horiz-adv-x="225" 
d="M139 -2c0 -6 -1.00098 -14.001 -3.00098 -24.001s-5.5 -20.833 -10.5 -32.5s-12.167 -23.167 -21.5 -34.5s-21.666 -21 -36.999 -29c-2.66699 -1.33301 -5 -2 -7 -2c-4.66699 0 -8.16699 1.66699 -10.5 5s-3.5 7 -3.5 11c0 5.33301 2 9 6 11
c12 7.33301 21.833 15.5 29.5 24.5s13.667 18 18 27s7.33301 17.333 9 25s2.5 13.834 2.5 18.501v99c0 4.66699 1.5 8.33398 4.5 11.001s5.83301 4 8.5 4c4 0 7.5 -1.33301 10.5 -4s4.5 -6.33398 4.5 -11.001v-99v0z" />
    <glyph glyph-name="quotedblleft" unicode="&#x201c;" horiz-adv-x="386" 
d="M341 769c0 -5.33301 -2.66602 -9.33203 -7.99902 -11.999c-12 -7.33301 -21.667 -15.5 -29 -24.5s-13 -17.833 -17 -26.5s-6.83301 -16.834 -8.5 -24.501s-2.5 -14.167 -2.5 -19.5v-99c0 -4.66699 -1.5 -8.33398 -4.5 -11.001s-6.5 -4 -10.5 -4
c-3.33301 0 -6.5 1.33301 -9.5 4s-4.5 6.33398 -4.5 11.001v99c0 6 1 14 3 24s5.66699 20.667 11 32s12.666 22.666 21.999 33.999s21.333 21.333 36 30c2.66699 1.33301 5 2 7 2c4 0 7.5 -1.66699 10.5 -5s4.5 -6.66602 4.5 -9.99902zM179.001 769.001
c0 -5.33301 -2.66602 -9.33203 -7.99902 -11.999c-12 -7.33301 -21.667 -15.5 -29 -24.5s-13 -17.833 -17 -26.5s-6.83301 -16.834 -8.5 -24.501s-2.5 -14.167 -2.5 -19.5v-99c0 -4.66699 -1.5 -8.33398 -4.5 -11.001s-6.5 -4 -10.5 -4c-3.33301 0 -6.5 1.33301 -9.5 4
s-4.5 6.33398 -4.5 11.001v99c0 6 1 14 3 24s5.66699 20.667 11 32s12.666 22.666 21.999 33.999s21.333 21.333 36 30c4 1.33301 6.33301 2 7 2c4 0 7.5 -1.66699 10.5 -5s4.5 -6.66602 4.5 -9.99902z" />
    <glyph glyph-name="quotedblright" unicode="&#x201d;" horiz-adv-x="386" 
d="M301 670c0 -5.33301 -0.999023 -13.001 -2.99902 -23.001s-5.66699 -20.833 -11 -32.5s-12.666 -23.167 -21.999 -34.5s-21.333 -21 -36 -29c-2 -2 -4.33301 -3 -7 -3c-4.66699 0 -8.33398 1.66699 -11.001 5s-4 7 -4 11c0 4.66699 2.33301 8.66699 7 12
c12 6.66699 21.833 14.5 29.5 23.5s13.667 18 18 27s7.16602 17.333 8.49902 25s2 13.834 2 18.501v99c0 5.33301 1.5 9 4.5 11s6.16699 3 9.5 3c4 0 7.5 -1 10.5 -3s4.5 -5.66699 4.5 -11v-99v0zM139.001 669.999c0 -5.33301 -1.00098 -13.001 -3.00098 -23.001
s-5.5 -20.833 -10.5 -32.5s-12.167 -23.167 -21.5 -34.5s-21.666 -21 -36.999 -29c-2 -2 -4.33301 -3 -7 -3c-4.66699 0 -8.16699 1.66699 -10.5 5s-3.5 7 -3.5 11c0 5.33301 2 9.33301 6 12c12 6.66699 21.833 14.5 29.5 23.5s13.667 18 18 27s7.33301 17.333 9 25
s2.5 13.834 2.5 18.501v99c0 5.33301 1.5 9 4.5 11s5.83301 3 8.5 3c4 0 7.5 -1 10.5 -3s4.5 -5.66699 4.5 -11v-99v0z" />
    <glyph glyph-name="quotedblbase" unicode="&#x201e;" horiz-adv-x="386" 
d="M301 -2c0 -6 -0.999023 -14.002 -2.99902 -24.002s-5.66699 -20.833 -11 -32.5s-12.666 -23.167 -21.999 -34.5s-21.333 -21 -36 -29c-2.66699 -1.33301 -5 -2 -7 -2c-4.66699 0 -8.33398 1.66699 -11.001 5s-4 7 -4 11c0 4.66699 2.33301 8.33398 7 11.001
c12 7.33301 21.833 15.5 29.5 24.5s13.667 18 18 27s7.16602 17.333 8.49902 25s2 13.834 2 18.501v99c0 4.66699 1.5 8.16699 4.5 10.5s6.16699 3.5 9.5 3.5c4 0 7.5 -1.16699 10.5 -3.5s4.5 -5.83301 4.5 -10.5v-99v0zM139.001 -2.00195
c0 -6 -1.00098 -14.001 -3.00098 -24.001s-5.5 -20.833 -10.5 -32.5s-12.167 -23.167 -21.5 -34.5s-21.666 -21 -36.999 -29c-2.66699 -1.33301 -5 -2 -7 -2c-4.66699 0 -8.16699 1.66699 -10.5 5s-3.5 7 -3.5 11c0 5.33301 2 9 6 11c12 7.33301 21.833 15.5 29.5 24.5
s13.667 18 18 27s7.33301 17.333 9 25s2.5 13.834 2.5 18.501v99c0 4.66699 1.5 8.16699 4.5 10.5s5.83301 3.5 8.5 3.5c4 0 7.5 -1.16699 10.5 -3.5s4.5 -5.83301 4.5 -10.5v-99v0z" />
    <glyph glyph-name="dagger" unicode="&#x2020;" horiz-adv-x="456" 
d="M399 684c0 -3.33301 -1.33301 -6.5 -4 -9.5s-6.33398 -4.5 -11.001 -4.5h-142v-385c0 -4.66699 -1.5 -8.33398 -4.5 -11.001s-6.5 -4 -10.5 -4c-3.33301 0 -6.5 1.33301 -9.5 4s-4.5 6.33398 -4.5 11.001v385h-142c-4.66699 0 -8.33398 1.5 -11.001 4.5
s-4 6.16699 -4 9.5c0 4 1.33301 7.5 4 10.5s6.33398 4.5 11.001 4.5h141v142c0 4.66699 1.5 8.33398 4.5 11.001s6.16699 4 9.5 4c4 0 7.5 -1.33301 10.5 -4s4.5 -6.33398 4.5 -11.001v-142h143c4.66699 0 8.33398 -1.5 11.001 -4.5s4 -6.5 4 -10.5z" />
    <glyph glyph-name="daggerdbl" unicode="&#x2021;" horiz-adv-x="456" 
d="M410 698c0 -3.33301 -0.999023 -6.5 -2.99902 -9.5s-5.33301 -4.5 -10 -4.5h-144v-274c0 -4.66699 -1.5 -8.16699 -4.5 -10.5s-6.5 -3.5 -10.5 -3.5c-2.66699 0 -5.5 1.16699 -8.5 3.5s-4.5 5.83301 -4.5 10.5v274h-142c-4.66699 0 -8.33398 1.5 -11.001 4.5
s-4 6.16699 -4 9.5c0 9.33301 4.66699 14 14 14h143v129c0 4.66699 1.5 8.33398 4.5 11.001s5.83301 4 8.5 4c4 0 7.5 -1.33301 10.5 -4s4.5 -6.33398 4.5 -11.001v-129h143c9.33301 0 14 -4.66699 14 -14zM409.001 325c0 -3.33301 -0.998047 -6.5 -2.99805 -9.5
s-5.33301 -4.5 -10 -4.5h-143v-142c0 -4.66699 -1.5 -8.33398 -4.5 -11.001s-6.5 -4 -10.5 -4c-2.66699 0 -5.5 1.33301 -8.5 4s-4.5 6.33398 -4.5 11.001v142h-143c-4.66699 0 -8.33398 1.5 -11.001 4.5s-4 6.16699 -4 9.5c0 4 1.16699 7.5 3.5 10.5s5.83301 4.5 10.5 4.5
h313c5.33301 0 9.16602 -1.5 11.499 -4.5s3.5 -6.5 3.5 -10.5z" />
    <glyph glyph-name="bullet" unicode="&#x2022;" horiz-adv-x="350" 
d="M259 340c0 -23.333 -8.33301 -43.002 -25 -59.002s-36.667 -24 -60 -24c-11.333 0 -22 2.16699 -32 6.5s-18.833 10.166 -26.5 17.499s-13.667 16 -18 26s-6.5 21 -6.5 33c0 23.333 8.16699 43 24.5 59s35.833 24 58.5 24c12 0 23.167 -2.16699 33.5 -6.5
s19.333 -10.166 27 -17.499s13.667 -16.166 18 -26.499s6.5 -21.166 6.5 -32.499z" />
    <glyph glyph-name="ellipsis" unicode="&#x2026;" horiz-adv-x="701" 
d="M621 43c0 -12 -4.16699 -22.167 -12.5 -30.5s-18.5 -12.5 -30.5 -12.5s-22.167 4.16699 -30.5 12.5s-12.5 18.166 -12.5 29.499c0 12 4.16699 22.167 12.5 30.5s18.5 12.5 30.5 12.5s22.167 -4.16699 30.5 -12.5s12.5 -18.166 12.5 -29.499zM393 43
c0 -12 -4.16699 -22.167 -12.5 -30.5s-18.5 -12.5 -30.5 -12.5s-22.167 4.16699 -30.5 12.5s-12.5 18.166 -12.5 29.499c0 12 4.16699 22.167 12.5 30.5s18.5 12.5 30.5 12.5s22.167 -4.16699 30.5 -12.5s12.5 -18.166 12.5 -29.499zM165 43
c0 -12 -4.16699 -22.167 -12.5 -30.5s-18.166 -12.5 -29.499 -12.5c-12 0 -22.167 4.16699 -30.5 12.5s-12.5 18.166 -12.5 29.499c0 12 4.16699 22.167 12.5 30.5s18.166 12.5 29.499 12.5c12 0 22.167 -4.16699 30.5 -12.5s12.5 -18.166 12.5 -29.499z" />
    <glyph glyph-name="perthousand" unicode="&#x2030;" horiz-adv-x="1401" 
d="M1333 176c0 -24 -4.16699 -46.667 -12.5 -68s-19.666 -40 -33.999 -56s-31 -28.667 -50 -38s-39.5 -14 -61.5 -14c-21.333 0 -41.5 4.66699 -60.5 14s-35.667 22 -50 38s-25.666 34.667 -33.999 56s-12.5 44 -12.5 68s4.16699 46.667 12.5 68s19.666 39.833 33.999 55.5
s31 28.167 50 37.5s39.167 14 60.5 14c22 0 42.5 -4.66699 61.5 -14s35.667 -21.833 50 -37.5s25.666 -34.167 33.999 -55.5s12.5 -44 12.5 -68zM943 176c0 -24 -4.16699 -46.667 -12.5 -68s-19.666 -40 -33.999 -56s-31 -28.667 -50 -38s-39.5 -14 -61.5 -14
c-21.333 0 -41.5 4.66699 -60.5 14s-35.667 22 -50 38s-25.666 34.667 -33.999 56s-12.5 44 -12.5 68s4.16699 46.667 12.5 68s19.666 39.833 33.999 55.5s31 28.167 50 37.5s39.167 14 60.5 14c22 0 42.5 -4.66699 61.5 -14s35.667 -21.833 50 -37.5
s25.666 -34.167 33.999 -55.5s12.5 -44 12.5 -68zM624 717c0 -1.33301 -0.667969 -3.00098 -2.00098 -5.00098l-198 -715c-2 -8 -6 -12 -12 -12c-3.33301 0 -6.66602 1.33301 -9.99902 4s-5 6.33398 -5 11.001v3l198 716c1.33301 4 3.33301 7 6 9s5.66699 3 9 3
s6.5 -1.33301 9.5 -4s4.5 -6 4.5 -10zM382.999 536.999c0 -24 -4.16699 -46.667 -12.5 -68s-19.666 -40 -33.999 -56s-31 -28.667 -50 -38s-39.167 -14 -60.5 -14c-22 0 -42.5 4.66699 -61.5 14s-35.667 22 -50 38s-25.666 34.667 -33.999 56s-12.5 44 -12.5 68
s4.16699 46.667 12.5 68s19.666 40 33.999 56s31 28.5 50 37.5s39.5 13.5 61.5 13.5c21.333 0 41.5 -4.5 60.5 -13.5s35.667 -21.5 50 -37.5s25.666 -34.667 33.999 -56s12.5 -44 12.5 -68zM1304 175.999c0 21.333 -3.5 41 -10.5 59s-16.333 33.5 -28 46.5
s-25.334 23.167 -41.001 30.5s-32.167 11 -49.5 11c-16.667 0 -32.834 -3.66699 -48.501 -11s-29.334 -17.5 -41.001 -30.5s-21 -28.5 -28 -46.5s-10.5 -37.667 -10.5 -59s3.5 -41 10.5 -59s16.333 -33.667 28 -47s25.334 -23.666 41.001 -30.999s31.834 -11 48.501 -11
c17.333 0 33.833 3.66699 49.5 11s29.334 17.666 41.001 30.999s21 29 28 47s10.5 37.667 10.5 59zM913.999 175.999c0 21.333 -3.5 41 -10.5 59s-16.333 33.5 -28 46.5s-25.334 23.167 -41.001 30.5s-32.167 11 -49.5 11c-16.667 0 -32.834 -3.66699 -48.501 -11
s-29.334 -17.5 -41.001 -30.5s-21 -28.5 -28 -46.5s-10.5 -37.667 -10.5 -59s3.5 -41 10.5 -59s16.333 -33.667 28 -47s25.334 -23.666 41.001 -30.999s31.834 -11 48.501 -11c17.333 0 33.833 3.66699 49.5 11s29.334 17.666 41.001 30.999s21 29 28 47
s10.5 37.667 10.5 59zM354.999 536.999c0 21.333 -3.5 41 -10.5 59s-16.5 33.5 -28.5 46.5s-25.667 23.167 -41 30.5s-31.666 11 -48.999 11s-33.833 -3.66699 -49.5 -11s-29.334 -17.5 -41.001 -30.5s-21 -28.5 -28 -46.5s-10.5 -37.667 -10.5 -59
c0 -20.667 3.5 -40 10.5 -58s16.333 -33.667 28 -47s25.334 -23.666 41.001 -30.999s32.167 -11 49.5 -11s33.666 3.66699 48.999 11s29 17.666 41 30.999s21.5 29 28.5 47s10.5 37.333 10.5 58z" />
    <glyph glyph-name="guilsinglleft" unicode="&#x2039;" horiz-adv-x="364" 
d="M291 70c0 -4 -1.66797 -7.5 -5.00098 -10.5s-6.66602 -4.5 -9.99902 -4.5c-4.66699 0 -8 1 -10 3l-198 197c-2.66699 3.33301 -4 6.33301 -4 9c0 4 1.33301 7.66699 4 11l198 197c4 4 7.66699 6 11 6s6.33301 -1.5 9 -4.5s4 -6.5 4 -10.5c0 -4.66699 -1.33301 -8 -4 -10
l-187 -189l187 -185c3.33301 -3.33301 5 -6.33301 5 -9z" />
    <glyph glyph-name="guilsinglright" unicode="&#x203a;" horiz-adv-x="364" 
d="M300 264c0 -2.66699 -1.66602 -5.66699 -4.99902 -9l-196 -197c-2.66699 -2.66699 -5.66699 -4 -9 -4c-4 0 -7.5 1.66699 -10.5 5s-4.5 7 -4.5 11c0 3.33301 1.33301 6.33301 4 9l187 185l-187 189c-2.66699 2 -4 5.33301 -4 10c0 4 1.5 7.5 4.5 10.5
s6.16699 4.5 9.5 4.5s6.66602 -2 9.99902 -6l196 -197c3.33301 -3.33301 5 -7 5 -11z" />
    <glyph glyph-name="fraction" unicode="&#x2044;" horiz-adv-x="388" 
d="M309 716c0 -1.33301 -0.333984 -2.99902 -1.00098 -4.99902l-200 -718c-2 -6.66699 -6.33301 -10 -13 -10c-3.33301 0 -6.66602 1 -9.99902 3s-5 5.66699 -5 11c0 1.33301 0.333008 2.66602 1 3.99902l199 718c3.33301 7.33301 8 11 14 11c4 0 7.5 -1.16699 10.5 -3.5
s4.5 -5.83301 4.5 -10.5z" />
    <glyph glyph-name="Euro" unicode="&#x20ac;" horiz-adv-x="674" 
d="M592 100c0 -3.33301 -0.99707 -6 -2.99707 -8c-24.667 -34 -55.167 -60.833 -91.5 -80.5s-80.5 -29.5 -132.5 -29.5c-46.667 0 -86.834 7.66699 -120.501 23s-61.834 36 -84.501 62s-40.5 56.5 -53.5 91.5s-22.167 72.5 -27.5 112.5h-65
c-4.66699 0 -8.33398 1.5 -11.001 4.5s-4 6.16699 -4 9.5c0 4 1.33301 7.5 4 10.5s6.33398 4.5 11.001 4.5h61c-0.666992 4.66699 -1 9 -1 13v71c0 5.33301 0.166992 10.333 0.5 15s0.833008 9.66699 1.5 15h-62c-4.66699 0 -8.33398 1.5 -11.001 4.5s-4 5.83301 -4 8.5
c0 4 1.33301 7.5 4 10.5s6.33398 4.5 11.001 4.5h65c5.33301 40 14.5 77.5 27.5 112.5s31 65.5 54 91.5s51.333 46.5 85 61.5s73.5 22.5 119.5 22.5c50.667 0 94.334 -9.5 131.001 -28.5s67.334 -45.833 92.001 -80.5c2 -1.33301 3 -4 3 -8s-1.5 -7.33301 -4.5 -10
s-6.16699 -4 -9.5 -4c-4.66699 0 -9 2 -13 6c-21.333 30 -48 53.5 -80 70.5s-71.667 25.5 -119 25.5c-40.667 0 -75.834 -6.5 -105.501 -19.5s-55 -31 -76 -54s-37.667 -50.333 -50 -82s-21.166 -66.167 -26.499 -103.5h392c4.66699 0 8.33398 -1.5 11.001 -4.5
s4 -6.5 4 -10.5c0 -2.66699 -1.33301 -5.5 -4 -8.5s-6.33398 -4.5 -11.001 -4.5h-394c-0.666992 -4.66699 -1.16699 -9.33398 -1.5 -14.001s-0.5 -9.66699 -0.5 -15v-72c0 -4 0.333008 -8.33301 1 -13h338c4.66699 0 8.33398 -1.5 11.001 -4.5s4 -6.5 4 -10.5
c0 -3.33301 -1.33301 -6.5 -4 -9.5s-6.33398 -4.5 -11.001 -4.5h-335c4.66699 -37.333 13.167 -71.833 25.5 -103.5s29 -59.167 50 -82.5s46.667 -41.666 77 -54.999s65.5 -20 105.5 -20c47.333 0 87.166 8.83301 119.499 26.5s59.166 41.5 80.499 71.5
c2.66699 4.66699 6.66699 7 12 7c3.33301 0 6.66602 -1.5 9.99902 -4.5s5 -6.5 5 -10.5z" />
    <glyph glyph-name="trademark" unicode="&#x2122;" horiz-adv-x="969" 
d="M878 257c0 -5.33301 -1.49902 -9.16602 -4.49902 -11.499s-6.5 -3.5 -10.5 -3.5c-3.33301 0 -6.5 1.16699 -9.5 3.5s-4.5 6.16602 -4.5 11.499v386l-173 -317c-2.66699 -6 -7.33398 -9.33301 -14.001 -10c-6 0 -10.333 3.33301 -13 10l-172 317v-386
c0 -5.33301 -1.5 -9.16602 -4.5 -11.499s-6.5 -3.5 -10.5 -3.5c-3.33301 0 -6.5 1.16699 -9.5 3.5s-4.5 6.16602 -4.5 11.499v440c0 11.333 5 17 15 17c4.66699 0 8.66699 -3.66699 12 -11l187 -343l188 343c4 7.33301 8.66699 11 14 11c3.33301 0 6.5 -1.5 9.5 -4.5
s4.5 -7.16699 4.5 -12.5v-440v0zM412.001 699c0 -3.33301 -1.33301 -6.66504 -4 -9.99805s-6.33398 -5 -11.001 -5h-142v-427c0 -10 -4.66699 -15 -14 -15c-3.33301 0 -6.5 1.16699 -9.5 3.5s-4.5 6.16602 -4.5 11.499v427h-145c-4.66699 0 -8.33398 1.66699 -11.001 5
s-4 6.66602 -4 9.99902c0 4 1.33301 7.5 4 10.5s6.33398 4.5 11.001 4.5h315c4.66699 0 8.33398 -1.5 11.001 -4.5s4 -6.5 4 -10.5z" />
    <glyph glyph-name="partialdiff" unicode="&#x2202;" horiz-adv-x="651" 
d="M570 266c0 -38 -5.50488 -74.002 -16.5049 -108.002s-27.167 -64 -48.5 -90s-47.666 -46.667 -78.999 -62s-67 -23 -107 -23s-75.667 7.66699 -107 23s-57.666 36 -78.999 62s-37.5 56 -48.5 90s-16.5 70 -16.5 108c0 37.333 5.5 73 16.5 107s27.167 64 48.5 90
s47.666 46.667 78.999 62s67 23 107 23c52.667 0 97.167 -12.167 133.5 -36.5s64.5 -56.5 84.5 -96.5c-3.33301 33.333 -8.66602 66.833 -15.999 100.5s-18.166 65.667 -32.499 96s-32.833 58.166 -55.5 83.499s-51 46.333 -85 63c-4.66699 2 -7 6.33301 -7 13
c0 9.33301 4 14 12 14c2.66699 0 5.33398 -0.666992 8.00098 -2c34.667 -17.333 63.834 -38.666 87.501 -63.999s43.167 -52.666 58.5 -81.999s27.333 -60.166 36 -92.499s15 -64.666 19 -96.999s6.33301 -63.833 7 -94.5s1 -59.334 1 -86.001v-1v0zM541.995 265.998
c0 35.333 -5 68.333 -15 99s-24.5 57.5 -43.5 80.5s-42.333 41.167 -70 54.5s-59.167 20 -94.5 20s-66.666 -6.66699 -93.999 -20s-50.5 -31.5 -69.5 -54.5s-33.5 -49.833 -43.5 -80.5s-15 -63.667 -15 -99s5 -68.5 15 -99.5s24.5 -58 43.5 -81s42.167 -41.167 69.5 -54.5
s58.666 -20 93.999 -20s66.833 6.66699 94.5 20s51 31.5 70 54.5s33.5 50 43.5 81s15 64.167 15 99.5z" />
    <glyph glyph-name="Delta" unicode="&#x2206;" horiz-adv-x="604" 
d="M548 122c0 -3.33301 -1.83594 -6.33301 -5.50293 -9s-7.16699 -4 -10.5 -4h-459c-3.33301 0 -6.66602 1 -9.99902 3s-5 5 -5 9c0 3.33301 0.666992 7 2 11l228 424c2.66699 4.66699 4.83398 7.33398 6.50098 8.00098s3.83398 1 6.50098 1c4.66699 0 9 -3 13 -9l231 -426
c2 -2.66699 3 -5.33398 3 -8.00098zM300.997 519l-204 -381h411z" />
    <glyph glyph-name="product" unicode="&#x220f;" horiz-adv-x="627" 
d="M571 699c0 -3.33301 -1.33301 -6.5 -4 -9.5s-6.33398 -4.5 -11.001 -4.5h-115v-613c0 -11.333 4 -21 12 -29s17.667 -12.333 29 -13c9.33301 0 14 -4.33301 14 -13c0 -4 -1.33301 -7.66699 -4 -11s-6.66699 -5 -12 -5c-16 0 -31.167 6.5 -45.5 19.5
s-21.5 30.167 -21.5 51.5v613h-200v-669c0 -4.66699 -1.5 -8.33398 -4.5 -11.001s-6.5 -4 -10.5 -4c-2.66699 0 -5.5 1.33301 -8.5 4s-4.5 6.33398 -4.5 11.001v669h-117c-4.66699 0 -8.16699 1.5 -10.5 4.5s-3.5 6.16699 -3.5 9.5c0 4 1.16699 7.5 3.5 10.5
s5.83301 4.5 10.5 4.5h488c4.66699 0 8.33398 -1.5 11.001 -4.5s4 -6.5 4 -10.5z" />
    <glyph glyph-name="summation" unicode="&#x2211;" horiz-adv-x="588" 
d="M539 364c0 -27.333 -8.66504 -49.833 -25.998 -67.5s-39.666 -26.5 -66.999 -26.5h-72c11.333 -15.333 17 -33.333 17 -54c0 -27.333 -8.66699 -49.666 -26 -66.999s-39.666 -26 -66.999 -26h-249v248c0 27.333 8.66699 49.833 26 67.5s39.666 26.5 66.999 26.5
c20 0 38.333 -5.66699 55 -17v71c0 27.333 8.66699 49.833 26 67.5s39.666 26.5 66.999 26.5s49.666 -8.83301 66.999 -26.5s26 -40.167 26 -67.5v-62h63c27.333 0 49.666 -8.83301 66.999 -26.5s26 -39.834 26 -66.501zM522.002 364c0 22.667 -7 41 -21 55
s-32.333 21 -55 21h-79v79c0 22.667 -7.16699 41.167 -21.5 55.5s-32.833 21.5 -55.5 21.5s-41 -7.16699 -55 -21.5s-21 -32.833 -21 -55.5v-232h232c22.667 0 41 7.16699 55 21.5s21 32.833 21 55.5z" />
    <glyph glyph-name="minus" unicode="&#x2212;" horiz-adv-x="553" 
d="M462 382c0 -3.33301 -1.33301 -6.66699 -4 -10s-6.33398 -5 -11.001 -5h-341c-4.66699 0 -8.33398 1.5 -11.001 4.5s-4 6.5 -4 10.5s1.33301 7.5 4 10.5s6.33398 4.5 11.001 4.5h341c4.66699 0 8.33398 -1.5 11.001 -4.5s4 -6.5 4 -10.5z" />
    <glyph glyph-name="radical" unicode="&#x221a;" horiz-adv-x="581" 
d="M536 535c0 -3.33301 -0.666992 -6 -2 -8l-273 -438c-2 -5.33301 -6 -8 -12 -8c-4 0 -8 2.33301 -12 7l-180 239c-2 4 -3 7 -3 9c0 4 1.66699 7.33301 5 10s7 4 11 4c2.66699 0 6 -2 10 -6l167 -222l263 420c3.33301 4 7 6 11 6s7.5 -1.16699 10.5 -3.5s4.5 -5.5 4.5 -9.5
z" />
    </font>
</defs>
</svg>
